<?xml version="1.0" encoding="UTF-8" standalone="no"?>
<!-- Created with Inkscape (http://www.inkscape.org/) -->

<svg
   xmlns:dc="http://purl.org/dc/elements/1.1/"
   xmlns:cc="http://creativecommons.org/ns#"
   xmlns:rdf="http://www.w3.org/1999/02/22-rdf-syntax-ns#"
   xmlns:svg="http://www.w3.org/2000/svg"
   xmlns="http://www.w3.org/2000/svg"
   xmlns:sodipodi="http://sodipodi.sourceforge.net/DTD/sodipodi-0.dtd"
   xmlns:inkscape="http://www.inkscape.org/namespaces/inkscape"
   width="16"
   height="16"
   id="svg2985"
   version="1.1"
   inkscape:version="0.48.2 r9819"
   sodipodi:docname="fullscreen.svg"
   inkscape:export-filename="/home/markus/scratch/pentobi/src/pentobi/view-fullscreen.png"
   inkscape:export-xdpi="90"
   inkscape:export-ydpi="90">
  <defs
     id="defs2987" />
  <sodipodi:namedview
     id="base"
     pagecolor="#ffffff"
     bordercolor="#666666"
     borderopacity="1.0"
     inkscape:pageopacity="0.0"
     inkscape:pageshadow="2"
     inkscape:zoom="32"
     inkscape:cx="21.515625"
     inkscape:cy="8.565275"
     inkscape:current-layer="layer1"
     showgrid="true"
     inkscape:grid-bbox="true"
     inkscape:document-units="px"
     showguides="true"
     inkscape:snap-global="false"
     inkscape:window-width="1680"
     inkscape:window-height="1025"
     inkscape:window-x="0"
     inkscape:window-y="24"
     inkscape:window-maximized="1">
    <inkscape:grid
       type="xygrid"
       id="grid2993"
       empspacing="5"
       visible="true"
       enabled="true"
       snapvisiblegridlinesonly="true" />
  </sodipodi:namedview>
  <metadata
     id="metadata2990">
    <rdf:RDF>
      <cc:Work
         rdf:about="">
        <dc:format>image/svg+xml</dc:format>
        <dc:type
           rdf:resource="http://purl.org/dc/dcmitype/StillImage" />
        <dc:title></dc:title>
      </cc:Work>
    </rdf:RDF>
  </metadata>
  <g
     id="layer1"
     inkscape:label="Layer 1"
     inkscape:groupmode="layer"
     transform="translate(0,-16)">
    <path
       style="fill:#d3d7cf;fill-opacity:1;stroke:#555753;stroke-width:1.11628007999999990;stroke-miterlimit:4;stroke-opacity:1;stroke-dasharray:none"
       d="m 1.302326,16.55814 c -0.41227891,0 -0.74418599,0.331907 -0.74418599,0.744185 l 0,13.395351 c 0,0.412278 0.33190708,0.744184 0.74418599,0.744184 l 13.395349,0 c 0.412278,0 0.744185,-0.331906 0.744185,-0.744184 l 0,-13.395351 c 0,-0.412278 -0.331907,-0.744185 -0.744185,-0.744185 l -13.395349,0 z"
       id="rect2995"
       inkscape:connector-curvature="0" />
    <path
       style="fill:#3465a4;fill-opacity:1;stroke:none"
       d="M 6.050854,18.000003 2,18.027293 2.07229,22.050884 3.255158,20.846618 5.369151,23 7.000004,21.3395 4.886012,19.186117 l 1.129017,-1.149616 0.03583,-0.03648 z"
       id="rect3767-1-4"
       inkscape:connector-curvature="0"
       sodipodi:nodetypes="cccccccccc" />
    <path
       style="fill:#3465a4;fill-opacity:1;stroke:none"
       d="m 13.999997,22.05085 -0.02729,-4.050854 -4.0235914,0.07229 1.2042674,1.182868 L 9,21.369147 10.6605,23 l 2.153383,-2.113992 1.149616,1.129017 0.03648,0.03583 z"
       id="rect3767-1-4-9"
       inkscape:connector-curvature="0"
       sodipodi:nodetypes="cccccccccc" />
    <path
       style="fill:#3465a4;fill-opacity:1;stroke:none"
       d="m 9.94915,30 4.050854,-0.02729 -0.07229,-4.023591 -1.182868,1.204266 L 10.630853,25.000003 9,26.660503 l 2.113992,2.153383 -1.1290171,1.149616 -0.03583,0.03648 z"
       id="rect3767-1-4-90"
       inkscape:connector-curvature="0"
       sodipodi:nodetypes="cccccccccc" />
    <path
       style="fill:#3465a4;fill-opacity:1;stroke:none"
       d="M 2,25.949146 2.02729,30 6.050881,29.92771 4.846615,28.744842 6.999997,26.630849 5.339497,24.999996 3.186114,27.113988 2.036498,25.984971 2.000018,25.949141 z"
       id="rect3767-1-4-7"
       inkscape:connector-curvature="0"
       sodipodi:nodetypes="cccccccccc" />
  </g>
</svg>
