<?xml version="1.0" encoding="UTF-8"?>
<svg width="200" height="200" version="1.1" xmlns="http://www.w3.org/2000/svg" xmlns:xlink="http://www.w3.org/1999/xlink">
 <path d="m168 100a68 68 0 0 1-67.976 68 68 68 0 0 1-68.024-67.951 68 68 0 0 1 67.927-68.049 68 68 0 0 1 68.073 67.902" fill="#555" fill-opacity=".75"/>
 <path d="m94.547 0.14844a100 100 0 0 0-94.4 105.27 100 100 0 0 0 105.23 94.439l-1.7207-31.953a68 68 0 0 1-3.6328 0.09766 68 68 0 0 1-68.025-67.951 68 68 0 0 1 67.926-68.049 68 68 0 0 1 68.074 67.902v0.097656a68 68 0 0 1-64.24 67.896l1.7695 31.951a100 100 0 0 0 94.32-105.34 100 100 0 0 0-105.3-94.359z" fill="#777" fill-opacity=".75"/>
 <use transform="matrix(-1,0,0,1,116,-84)" width="100%" height="100%" xlink:href="#c"/>
 <g id="d" transform="matrix(.8 0 0 .8 20 40)">
  <path d="m120 180a20 20 0 0 1-40 0 20 20 0 1 1 40 0z" fill="#c8c8c8"/>
  <path d="m95 170-10 10 10 9.9375v-6.9375h10v7l10-10-10-9.9375v6.9375h-10z" fill="#666"/>
 </g>
 <g id="c" transform="matrix(.8 0 0 .8 0 20)">
  <path d="m40 100a20 20 0 0 1-40 0 20 20 0 1 1 40 0z" fill="#c8c8c8"/>
  <path d="m20 87.5c6.9035 0 12.5 5.5964 12.5 12.5h-5.3571c0-3.9449-3.198-7.1428-7.1428-7.1428-3.9449 0-7.1429 3.198-7.1429 7.1428 0 2.0384 0.86101 3.8449 2.2322 5.1339l3.3482-3.3482v10.714h-10.714l3.5714-3.5714c-2.389-2.3238-3.7946-5.5105-3.7946-8.9286 0-6.9036 5.5964-12.5 12.5-12.5z" fill="#666"/>
 </g>
 <use transform="rotate(90,184,184)" width="100%" height="100%" xlink:href="#d"/>
</svg>
