<?xml version="1.0" encoding="UTF-8"?>
<svg width="260" height="260" version="1.1" xmlns="http://www.w3.org/2000/svg" xmlns:xlink="http://www.w3.org/1999/xlink">
 <path d="m70 0h120l70 70v120l-70 70h-120l-70-70v-120z" fill="#9a9298"/>
 <g id="k" transform="translate(160,30)" fill-rule="evenodd">
  <path d="m60 20 10-10h-1l-9 9z" fill="#b2acb0"/>
  <g transform="translate(0,40)">
   <path d="m60-20-10-10h1l9 9z" fill="#b2acb0"/>
   <path d="m60-40-10 10h1l9-9z" fill="#767074"/>
  </g>
  <path d="m60 2e-5 10 10h-1l-9-9z" fill="#767074"/>
 </g>
 <use id="b" transform="translate(-180,-2.1e-7)" width="100%" height="100%" xlink:href="#k"/>
 <use transform="translate(-20 20)" width="100%" height="100%" xlink:href="#b"/>
 <use transform="translate(-20 40)" width="100%" height="100%" xlink:href="#b"/>
 <use transform="translate(-20 60)" width="100%" height="100%" xlink:href="#b"/>
 <use transform="translate(-20 80)" width="100%" height="100%" xlink:href="#b"/>
 <use transform="translate(-20 100)" width="100%" height="100%" xlink:href="#b"/>
 <use transform="translate(-20 120)" width="100%" height="100%" xlink:href="#b"/>
 <use transform="translate(-20 140)" width="100%" height="100%" xlink:href="#b"/>
 <use transform="translate(-20 160)" width="100%" height="100%" xlink:href="#b"/>
 <use transform="translate(-4e-7 20)" width="100%" height="100%" xlink:href="#b"/>
 <use transform="translate(-4e-7 40)" width="100%" height="100%" xlink:href="#b"/>
 <use transform="translate(-4e-7 60)" width="100%" height="100%" xlink:href="#b"/>
 <use transform="translate(-4e-7 80)" width="100%" height="100%" xlink:href="#b"/>
 <use transform="translate(-4e-7 100)" width="100%" height="100%" xlink:href="#b"/>
 <use transform="translate(-4e-7 120)" width="100%" height="100%" xlink:href="#b"/>
 <use transform="translate(-4e-7 140)" width="100%" height="100%" xlink:href="#b"/>
 <use transform="translate(-4e-7 160)" width="100%" height="100%" xlink:href="#b"/>
 <use transform="translate(-4e-7 180)" width="100%" height="100%" xlink:href="#b"/>
 <use transform="translate(180 20)" width="100%" height="100%" xlink:href="#b"/>
 <use transform="translate(180 40)" width="100%" height="100%" xlink:href="#b"/>
 <use transform="translate(180 60)" width="100%" height="100%" xlink:href="#b"/>
 <use transform="translate(180 80)" width="100%" height="100%" xlink:href="#b"/>
 <use transform="translate(180 100)" width="100%" height="100%" xlink:href="#b"/>
 <use transform="translate(180 120)" width="100%" height="100%" xlink:href="#b"/>
 <use transform="translate(180 140)" width="100%" height="100%" xlink:href="#b"/>
 <use transform="translate(180 160)" width="100%" height="100%" xlink:href="#b"/>
 <use transform="translate(180 180)" width="100%" height="100%" xlink:href="#b"/>
 <use transform="translate(200 20)" width="100%" height="100%" xlink:href="#b"/>
 <use transform="translate(200 40)" width="100%" height="100%" xlink:href="#b"/>
 <use transform="translate(200 60)" width="100%" height="100%" xlink:href="#b"/>
 <use transform="translate(200 80)" width="100%" height="100%" xlink:href="#b"/>
 <use transform="translate(200 100)" width="100%" height="100%" xlink:href="#b"/>
 <use transform="translate(200 120)" width="100%" height="100%" xlink:href="#b"/>
 <use transform="translate(200 140)" width="100%" height="100%" xlink:href="#b"/>
 <use transform="translate(200 160)" width="100%" height="100%" xlink:href="#b"/>
 <use id="a" transform="translate(-190 10)" width="100%" height="100%" xlink:href="#k"/>
 <use transform="translate(-20 20)" width="100%" height="100%" xlink:href="#a"/>
 <use transform="translate(-20 40)" width="100%" height="100%" xlink:href="#a"/>
 <use transform="translate(-20 60)" width="100%" height="100%" xlink:href="#a"/>
 <use transform="translate(-20 80)" width="100%" height="100%" xlink:href="#a"/>
 <use transform="translate(-20 100)" width="100%" height="100%" xlink:href="#a"/>
 <use transform="translate(-20 120)" width="100%" height="100%" xlink:href="#a"/>
 <use transform="translate(-20 140)" width="100%" height="100%" xlink:href="#a"/>
 <use transform="translate(3e-7 20)" width="100%" height="100%" xlink:href="#a"/>
 <use transform="translate(3e-7 40)" width="100%" height="100%" xlink:href="#a"/>
 <use transform="translate(3e-7 60)" width="100%" height="100%" xlink:href="#a"/>
 <use transform="translate(3e-7 80)" width="100%" height="100%" xlink:href="#a"/>
 <use transform="translate(3e-7 100)" width="100%" height="100%" xlink:href="#a"/>
 <use transform="translate(3e-7 120)" width="100%" height="100%" xlink:href="#a"/>
 <use transform="translate(3e-7 140)" width="100%" height="100%" xlink:href="#a"/>
 <use transform="translate(3e-7 160)" width="100%" height="100%" xlink:href="#a"/>
 <use transform="translate(20 -20)" width="100%" height="100%" xlink:href="#a"/>
 <use transform="translate(20,-3.957e-5)" width="100%" height="100%" xlink:href="#a"/>
 <use transform="translate(20 20)" width="100%" height="100%" xlink:href="#a"/>
 <use transform="translate(20 40)" width="100%" height="100%" xlink:href="#a"/>
 <use transform="translate(20 60)" width="100%" height="100%" xlink:href="#a"/>
 <use transform="translate(20 80)" width="100%" height="100%" xlink:href="#a"/>
 <use transform="translate(20 100)" width="100%" height="100%" xlink:href="#a"/>
 <use transform="translate(20 120)" width="100%" height="100%" xlink:href="#a"/>
 <use transform="translate(20 140)" width="100%" height="100%" xlink:href="#a"/>
 <use transform="translate(20 160)" width="100%" height="100%" xlink:href="#a"/>
 <use transform="translate(20 180)" width="100%" height="100%" xlink:href="#a"/>
 <use transform="translate(180 -20)" width="100%" height="100%" xlink:href="#a"/>
 <use transform="translate(180,-3.957e-5)" width="100%" height="100%" xlink:href="#a"/>
 <use transform="translate(180 20)" width="100%" height="100%" xlink:href="#a"/>
 <use transform="translate(180 40)" width="100%" height="100%" xlink:href="#a"/>
 <use transform="translate(180 60)" width="100%" height="100%" xlink:href="#a"/>
 <use transform="translate(180 80)" width="100%" height="100%" xlink:href="#a"/>
 <use transform="translate(180 100)" width="100%" height="100%" xlink:href="#a"/>
 <use transform="translate(180 120)" width="100%" height="100%" xlink:href="#a"/>
 <use transform="translate(180 140)" width="100%" height="100%" xlink:href="#a"/>
 <use transform="translate(180 160)" width="100%" height="100%" xlink:href="#a"/>
 <use transform="translate(180 180)" width="100%" height="100%" xlink:href="#a"/>
 <use transform="translate(200,-3.957e-5)" width="100%" height="100%" xlink:href="#a"/>
 <use transform="translate(200 20)" width="100%" height="100%" xlink:href="#a"/>
 <use transform="translate(200 40)" width="100%" height="100%" xlink:href="#a"/>
 <use transform="translate(200 60)" width="100%" height="100%" xlink:href="#a"/>
 <use transform="translate(200 80)" width="100%" height="100%" xlink:href="#a"/>
 <use transform="translate(200 100)" width="100%" height="100%" xlink:href="#a"/>
 <use transform="translate(200 120)" width="100%" height="100%" xlink:href="#a"/>
 <use transform="translate(200 140)" width="100%" height="100%" xlink:href="#a"/>
 <use transform="translate(200 160)" width="100%" height="100%" xlink:href="#a"/>
 <use transform="translate(220 20)" width="100%" height="100%" xlink:href="#a"/>
 <use transform="translate(220 40)" width="100%" height="100%" xlink:href="#a"/>
 <use transform="translate(220 60)" width="100%" height="100%" xlink:href="#a"/>
 <use transform="translate(220 80)" width="100%" height="100%" xlink:href="#a"/>
 <use transform="translate(220 100)" width="100%" height="100%" xlink:href="#a"/>
 <use transform="translate(220 120)" width="100%" height="100%" xlink:href="#a"/>
 <use transform="translate(220 140)" width="100%" height="100%" xlink:href="#a"/>
 <g id="c">
  <use id="f" transform="translate(-150,-30)" width="100%" height="100%" xlink:href="#k"/>
  <use transform="translate(20)" width="100%" height="100%" xlink:href="#f"/>
  <use transform="translate(40)" width="100%" height="100%" xlink:href="#f"/>
  <use transform="translate(60)" width="100%" height="100%" xlink:href="#f"/>
  <use transform="translate(80)" width="100%" height="100%" xlink:href="#f"/>
  <use transform="translate(100)" width="100%" height="100%" xlink:href="#f"/>
  <use transform="translate(120)" width="100%" height="100%" xlink:href="#f"/>
 </g>
 <use transform="translate(0 20)" xlink:href="#c"/>
 <use transform="translate(0 40)" xlink:href="#c"/>
 <use transform="translate(0 60)" xlink:href="#c"/>
 <use transform="translate(0 80)" xlink:href="#c"/>
 <use transform="translate(0 100)" xlink:href="#c"/>
 <use transform="translate(0 120)" xlink:href="#c"/>
 <use transform="translate(0 140)" xlink:href="#c"/>
 <use transform="translate(0 160)" xlink:href="#c"/>
 <use transform="translate(0 180)" xlink:href="#c"/>
 <use transform="translate(0 200)" xlink:href="#c"/>
 <use transform="translate(0 220)" xlink:href="#c"/>
 <use transform="translate(0 240)" xlink:href="#c"/>
 <g id="d">
  <use id="e" transform="translate(-160,-20)" width="100%" height="100%" xlink:href="#k"/>
  <use transform="translate(20)" width="100%" height="100%" xlink:href="#e"/>
  <use transform="translate(40)" width="100%" height="100%" xlink:href="#e"/>
  <use transform="translate(60)" width="100%" height="100%" xlink:href="#e"/>
  <use transform="translate(80)" width="100%" height="100%" xlink:href="#e"/>
  <use transform="translate(100)" width="100%" height="100%" xlink:href="#e"/>
  <use transform="translate(120)" width="100%" height="100%" xlink:href="#e"/>
  <use transform="translate(140)" width="100%" height="100%" xlink:href="#e"/>
 </g>
 <use transform="translate(0 20)" xlink:href="#d"/>
 <use transform="translate(0 40)" xlink:href="#d"/>
 <use transform="translate(0 60)" xlink:href="#d"/>
 <use transform="translate(0 80)" xlink:href="#d"/>
 <use transform="translate(0 100)" xlink:href="#d"/>
 <use transform="translate(0 120)" xlink:href="#d"/>
 <use transform="translate(0 140)" xlink:href="#d"/>
 <use transform="translate(0 160)" xlink:href="#d"/>
 <use transform="translate(0 180)" xlink:href="#d"/>
 <use transform="translate(0 200)" xlink:href="#d"/>
 <use transform="translate(0 220)" xlink:href="#d"/>
 <g id="g" transform="translate(205.56 114.79)">
  <g transform="translate(-5.5629 -4.7922)" fill-rule="evenodd">
   <path d="m60-20-10-10h1l9 9z" fill="#b2acb0"/>
   <path d="m60-40-10 10h1l9-9z" fill="#767074"/>
  </g>
 </g>
 <g id="h" transform="translate(-54.437 114.79)" fill-rule="evenodd">
  <path d="m54.437-24.792 10-10h-1l-9 9z" fill="#b2acb0"/>
  <path d="m54.437-44.792 10 10h-1l-9-9z" fill="#767074"/>
 </g>
 <g id="j" transform="translate(-20,40)" fill="#b2acb0" fill-rule="evenodd">
  <path d="m100-30 10-10h-1l-9 9z"/>
  <path d="m100-30-10-10h1l9 9z"/>
 </g>
 <g id="i" transform="translate(-20,300)" fill="#767074" fill-rule="evenodd">
  <path d="m100-50-10 10h1l9-9z"/>
  <path d="m100-50 10 10h-1l-9-9z"/>
 </g>
 <use transform="translate(20)" xlink:href="#j"/>
 <use transform="translate(40)" xlink:href="#j"/>
 <use transform="translate(60)" xlink:href="#j"/>
 <use transform="translate(80)" xlink:href="#j"/>
 <use transform="translate(100)" xlink:href="#j"/>
 <use transform="translate(20)" xlink:href="#i"/>
 <use transform="translate(40)" xlink:href="#i"/>
 <use transform="translate(60)" xlink:href="#i"/>
 <use transform="translate(80)" xlink:href="#i"/>
 <use transform="translate(100)" xlink:href="#i"/>
 <use transform="translate(0 20)" xlink:href="#h"/>
 <use transform="translate(0 40)" xlink:href="#h"/>
 <use transform="translate(0 60)" xlink:href="#h"/>
 <use transform="translate(0 80)" xlink:href="#h"/>
 <use transform="translate(0 100)" xlink:href="#h"/>
 <use transform="translate(0 20)" xlink:href="#g"/>
 <use transform="translate(0 40)" xlink:href="#g"/>
 <use transform="translate(0 60)" xlink:href="#g"/>
 <use transform="translate(0 80)" xlink:href="#g"/>
 <use transform="translate(0 100)" xlink:href="#g"/>
</svg>
