<?xml version="1.0" encoding="UTF-8"?>
<svg width="280" height="280" version="1.1" xmlns="http://www.w3.org/2000/svg" xmlns:xlink="http://www.w3.org/1999/xlink">
 <g id="a" transform="translate(98)">
  <rect width="14" height="14" fill="#9a9298"/>
  <path d="m0.5 13.5v-13h13l-0.5 0.5h-12v12z" fill="#767074"/>
  <path d="m0.5 13.5h13v-13l-0.5 0.5v12h-12z" fill="#b2acb0"/>
 </g>
 <use transform="translate(-98 98)" xlink:href="#a"/>
 <use transform="translate(-98,112)" xlink:href="#a"/>
 <use transform="translate(-98,126)" xlink:href="#a"/>
 <use transform="translate(-98,140)" xlink:href="#a"/>
 <use transform="translate(-98,154)" xlink:href="#a"/>
 <use transform="translate(-98,168)" xlink:href="#a"/>
 <use transform="translate(-84 84)" xlink:href="#a"/>
 <use transform="translate(-84,182)" xlink:href="#a"/>
 <use transform="translate(-70 70)" xlink:href="#a"/>
 <use transform="translate(-70 84)" xlink:href="#a"/>
 <use transform="translate(-70,182)" xlink:href="#a"/>
 <use transform="translate(-70,196)" xlink:href="#a"/>
 <use transform="translate(-56,56)" xlink:href="#a"/>
 <use transform="translate(-56 70)" xlink:href="#a"/>
 <use transform="translate(-56 84)" xlink:href="#a"/>
 <use transform="translate(-56,182)" xlink:href="#a"/>
 <use transform="translate(-56,196)" xlink:href="#a"/>
 <use transform="translate(-56,210)" xlink:href="#a"/>
 <use transform="translate(-42 42)" xlink:href="#a"/>
 <use transform="translate(-42 56)" xlink:href="#a"/>
 <use transform="translate(-42 70)" xlink:href="#a"/>
 <use transform="translate(-42 84)" xlink:href="#a"/>
 <use transform="translate(-42 182)" xlink:href="#a"/>
 <use transform="translate(-42 196)" xlink:href="#a"/>
 <use transform="translate(-42 210)" xlink:href="#a"/>
 <use transform="translate(-42 224)" xlink:href="#a"/>
 <use transform="translate(-28 28)" xlink:href="#a"/>
 <use transform="translate(-28 42)" xlink:href="#a"/>
 <use transform="translate(-28 56)" xlink:href="#a"/>
 <use transform="translate(-28 70)" xlink:href="#a"/>
 <use transform="translate(-28 84)" xlink:href="#a"/>
 <use transform="translate(-28 182)" xlink:href="#a"/>
 <use transform="translate(-28 196)" xlink:href="#a"/>
 <use transform="translate(-28 210)" xlink:href="#a"/>
 <use transform="translate(-28 224)" xlink:href="#a"/>
 <use transform="translate(-28 238)" xlink:href="#a"/>
 <use transform="translate(-14 14)" xlink:href="#a"/>
 <use transform="translate(-14 28)" xlink:href="#a"/>
 <use transform="translate(-14 42)" xlink:href="#a"/>
 <use transform="translate(-14 56)" xlink:href="#a"/>
 <use transform="translate(-14 70)" xlink:href="#a"/>
 <use transform="translate(-14 84)" xlink:href="#a"/>
 <use transform="translate(-14 182)" xlink:href="#a"/>
 <use transform="translate(-14 196)" xlink:href="#a"/>
 <use transform="translate(-14 210)" xlink:href="#a"/>
 <use transform="translate(-14 224)" xlink:href="#a"/>
 <use transform="translate(-14 238)" xlink:href="#a"/>
 <use transform="translate(-14 252)" xlink:href="#a"/>
 <use transform="translate(0 98)" xlink:href="#a"/>
 <use transform="translate(0 112)" xlink:href="#a"/>
 <use transform="translate(0 154)" xlink:href="#a"/>
 <use transform="translate(0 168)" xlink:href="#a"/>
 <use transform="translate(0 266)" xlink:href="#a"/>
 <use transform="translate(14)" xlink:href="#a"/>
 <use transform="translate(14 98)" xlink:href="#a"/>
 <use transform="translate(14 168)" xlink:href="#a"/>
 <use transform="translate(14 266)" xlink:href="#a"/>
 <use transform="translate(28)" xlink:href="#a"/>
 <use transform="translate(28 266)" xlink:href="#a"/>
 <use transform="translate(42)" xlink:href="#a"/>
 <use transform="translate(42 266)" xlink:href="#a"/>
 <use transform="translate(56)" xlink:href="#a"/>
 <use transform="translate(56 98)" xlink:href="#a"/>
 <use transform="translate(56 168)" xlink:href="#a"/>
 <use transform="translate(56 266)" xlink:href="#a"/>
 <use transform="translate(70)" xlink:href="#a"/>
 <use transform="translate(70 98)" xlink:href="#a"/>
 <use transform="translate(70 112)" xlink:href="#a"/>
 <use transform="translate(70 154)" xlink:href="#a"/>
 <use transform="translate(70 168)" xlink:href="#a"/>
 <use transform="translate(70 266)" xlink:href="#a"/>
 <use transform="translate(84 14)" xlink:href="#a"/>
 <use transform="translate(84 28)" xlink:href="#a"/>
 <use transform="translate(84 42)" xlink:href="#a"/>
 <use transform="translate(84 56)" xlink:href="#a"/>
 <use transform="translate(84 70)" xlink:href="#a"/>
 <use transform="translate(84 84)" xlink:href="#a"/>
 <use transform="translate(84 182)" xlink:href="#a"/>
 <use transform="translate(84 196)" xlink:href="#a"/>
 <use transform="translate(84 210)" xlink:href="#a"/>
 <use transform="translate(84 224)" xlink:href="#a"/>
 <use transform="translate(84 238)" xlink:href="#a"/>
 <use transform="translate(84 252)" xlink:href="#a"/>
 <use transform="translate(98 28)" xlink:href="#a"/>
 <use transform="translate(98 42)" xlink:href="#a"/>
 <use transform="translate(98 56)" xlink:href="#a"/>
 <use transform="translate(98 70)" xlink:href="#a"/>
 <use transform="translate(98 84)" xlink:href="#a"/>
 <use transform="translate(98 182)" xlink:href="#a"/>
 <use transform="translate(98 196)" xlink:href="#a"/>
 <use transform="translate(98 210)" xlink:href="#a"/>
 <use transform="translate(98 224)" xlink:href="#a"/>
 <use transform="translate(98 238)" xlink:href="#a"/>
 <use transform="translate(112 42)" xlink:href="#a"/>
 <use transform="translate(112 56)" xlink:href="#a"/>
 <use transform="translate(112 70)" xlink:href="#a"/>
 <use transform="translate(112 84)" xlink:href="#a"/>
 <use transform="translate(112 182)" xlink:href="#a"/>
 <use transform="translate(112 196)" xlink:href="#a"/>
 <use transform="translate(112 210)" xlink:href="#a"/>
 <use transform="translate(112 224)" xlink:href="#a"/>
 <use transform="translate(126 56)" xlink:href="#a"/>
 <use transform="translate(126 70)" xlink:href="#a"/>
 <use transform="translate(126 84)" xlink:href="#a"/>
 <use transform="translate(126 182)" xlink:href="#a"/>
 <use transform="translate(126 196)" xlink:href="#a"/>
 <use transform="translate(126 210)" xlink:href="#a"/>
 <use transform="translate(140 70)" xlink:href="#a"/>
 <use transform="translate(140 84)" xlink:href="#a"/>
 <use transform="translate(140 182)" xlink:href="#a"/>
 <use transform="translate(140 196)" xlink:href="#a"/>
 <use transform="translate(154 84)" xlink:href="#a"/>
 <use transform="translate(154 182)" xlink:href="#a"/>
 <use transform="translate(168 98)" xlink:href="#a"/>
 <use transform="translate(168 112)" xlink:href="#a"/>
 <use transform="translate(168 126)" xlink:href="#a"/>
 <use transform="translate(168 140)" xlink:href="#a"/>
 <use transform="translate(168 154)" xlink:href="#a"/>
 <use transform="translate(168 168)" xlink:href="#a"/>
 <g id="b" transform="translate(126 98)">
  <rect width="14" height="14" fill="#9a9298"/>
  <rect x="1" y="1" width="12" height="12" fill="#696267"/>
  <path d="m0.5 13.5v-13h13l-0.5 0.5h-12v12z" fill="#5a5458"/>
  <path d="m0.5 13.5h13v-13l-0.5 0.5v12h-12z" fill="#797276"/>
 </g>
 <use transform="translate(-28,28)" xlink:href="#b"/>
 <use transform="translate(-28,42)" xlink:href="#b"/>
 <use transform="translate(-14,14)" xlink:href="#b"/>
 <use transform="translate(-14,28)" xlink:href="#b"/>
 <use transform="translate(-14,42)" xlink:href="#b"/>
 <use transform="translate(-14,56)" xlink:href="#b"/>
 <use transform="translate(0,14)" xlink:href="#b"/>
 <use transform="translate(0,28)" xlink:href="#b"/>
 <use transform="translate(0,42)" xlink:href="#b"/>
 <use transform="translate(0,56)" xlink:href="#b"/>
 <use transform="translate(0,70)" xlink:href="#b"/>
 <use transform="translate(14)" xlink:href="#b"/>
 <use transform="translate(14,14)" xlink:href="#b"/>
 <use transform="translate(14,28)" xlink:href="#b"/>
 <use transform="translate(14,42)" xlink:href="#b"/>
 <use transform="translate(14,56)" xlink:href="#b"/>
 <use transform="translate(14,70)" xlink:href="#b"/>
 <use transform="translate(28,14)" xlink:href="#b"/>
 <use transform="translate(28,28)" xlink:href="#b"/>
 <use transform="translate(28,42)" xlink:href="#b"/>
 <use transform="translate(28,56)" xlink:href="#b"/>
 <use transform="translate(42,28)" xlink:href="#b"/>
 <use transform="translate(42,42)" xlink:href="#b"/>
 <g id="d">
  <use id="c" transform="translate(0 14)" xlink:href="#a"/>
  <use transform="translate(14)" xlink:href="#c"/>
  <use transform="translate(28)" xlink:href="#c"/>
  <use transform="translate(42)" xlink:href="#c"/>
  <use transform="translate(56)" xlink:href="#c"/>
  <use transform="translate(70)" xlink:href="#c"/>
 </g>
 <use transform="translate(0,14)" xlink:href="#d"/>
 <use transform="translate(0,28)" xlink:href="#d"/>
 <use transform="translate(0,42)" xlink:href="#d"/>
 <use transform="translate(0,56)" xlink:href="#d"/>
 <use transform="translate(0,70)" xlink:href="#d"/>
 <g transform="translate(0,168)">
  <use transform="translate(0,14)" width="100%" height="100%" xlink:href="#a"/>
  <use transform="translate(14)" width="100%" height="100%" xlink:href="#c"/>
  <use transform="translate(28)" width="100%" height="100%" xlink:href="#c"/>
  <use transform="translate(42)" width="100%" height="100%" xlink:href="#c"/>
  <use transform="translate(56)" width="100%" height="100%" xlink:href="#c"/>
  <use transform="translate(70)" width="100%" height="100%" xlink:href="#c"/>
  <use transform="translate(0,14)" width="100%" height="100%" xlink:href="#d"/>
  <use transform="translate(0,28)" width="100%" height="100%" xlink:href="#d"/>
  <use transform="translate(0,42)" width="100%" height="100%" xlink:href="#d"/>
  <use transform="translate(0,56)" width="100%" height="100%" xlink:href="#d"/>
  <use transform="translate(0,70)" width="100%" height="100%" xlink:href="#d"/>
 </g>
 <g transform="translate(84,84)">
  <use transform="translate(0,14)" width="100%" height="100%" xlink:href="#a"/>
  <use transform="translate(14)" width="100%" height="100%" xlink:href="#c"/>
  <use transform="translate(28)" width="100%" height="100%" xlink:href="#c"/>
  <use transform="translate(42)" width="100%" height="100%" xlink:href="#c"/>
  <use transform="translate(56)" width="100%" height="100%" xlink:href="#c"/>
  <use transform="translate(70)" width="100%" height="100%" xlink:href="#c"/>
  <use transform="translate(0,14)" width="100%" height="100%" xlink:href="#d"/>
  <use transform="translate(0,28)" width="100%" height="100%" xlink:href="#d"/>
  <use transform="translate(0,42)" width="100%" height="100%" xlink:href="#d"/>
  <use transform="translate(0,56)" width="100%" height="100%" xlink:href="#d"/>
  <use transform="translate(0,70)" width="100%" height="100%" xlink:href="#d"/>
 </g>
 <g transform="translate(-84,84)">
  <use transform="translate(0,14)" width="100%" height="100%" xlink:href="#a"/>
  <use transform="translate(14)" width="100%" height="100%" xlink:href="#c"/>
  <use transform="translate(28)" width="100%" height="100%" xlink:href="#c"/>
  <use transform="translate(42)" width="100%" height="100%" xlink:href="#c"/>
  <use transform="translate(56)" width="100%" height="100%" xlink:href="#c"/>
  <use transform="translate(70)" width="100%" height="100%" xlink:href="#c"/>
  <use transform="translate(0,14)" width="100%" height="100%" xlink:href="#d"/>
  <use transform="translate(0,28)" width="100%" height="100%" xlink:href="#d"/>
  <use transform="translate(0,42)" width="100%" height="100%" xlink:href="#d"/>
  <use transform="translate(0,56)" width="100%" height="100%" xlink:href="#d"/>
  <use transform="translate(0,70)" width="100%" height="100%" xlink:href="#d"/>
 </g>
</svg>
