<?xml version="1.0" encoding="UTF-8" standalone="no"?>
<svg xmlns:rdf="http://www.w3.org/1999/02/22-rdf-syntax-ns#" xmlns="http://www.w3.org/2000/svg" height="260" width="260" version="1.1" xmlns:cc="http://creativecommons.org/ns#" xmlns:xlink="http://www.w3.org/1999/xlink" xmlns:dc="http://purl.org/dc/elements/1.1/">
 <path fill="#9a9298" d="m70 0h120l70 70v120l-70 70h-120l-70-70v-120z"/>
 <g id="k" fill-rule="evenodd" transform="translate(160,30)">
  <path d="m60 20 10-10h-1l-9 9z" fill="#b2acb0"/>
  <g transform="translate(0,40)">
   <path d="m60-20-10-10h1l9 9z" fill="#b2acb0"/>
   <path d="m60-40-10 10h1l9-9z" fill="#767074"/>
  </g>
  <path d="m60 0.00002 10 10h-1l-9-9z" fill="#767074"/>
 </g>
 <use id="b" xlink:href="#k" transform="translate(-180,-2.1e-7)" height="100%" width="100%" y="0" x="0"/>
 <use xlink:href="#b" transform="translate(-20 20)" height="100%" width="100%" y="0" x="0"/>
 <use xlink:href="#b" transform="translate(-20 40)" height="100%" width="100%" y="0" x="0"/>
 <use xlink:href="#b" transform="translate(-20 60)" height="100%" width="100%" y="0" x="0"/>
 <use xlink:href="#b" transform="translate(-20 80)" height="100%" width="100%" y="0" x="0"/>
 <use xlink:href="#b" transform="translate(-20 100)" height="100%" width="100%" y="0" x="0"/>
 <use xlink:href="#b" transform="translate(-20 120)" height="100%" width="100%" y="0" x="0"/>
 <use xlink:href="#b" transform="translate(-20 140)" height="100%" width="100%" y="0" x="0"/>
 <use xlink:href="#b" transform="translate(-20 160)" height="100%" width="100%" y="0" x="0"/>
 <use xlink:href="#b" transform="translate(-4e-7 20)" height="100%" width="100%" y="0" x="0"/>
 <use xlink:href="#b" transform="translate(-4e-7 40)" height="100%" width="100%" y="0" x="0"/>
 <use xlink:href="#b" transform="translate(-4e-7 60)" height="100%" width="100%" y="0" x="0"/>
 <use xlink:href="#b" transform="translate(-4e-7 80)" height="100%" width="100%" y="0" x="0"/>
 <use xlink:href="#b" transform="translate(-4e-7 100)" height="100%" width="100%" y="0" x="0"/>
 <use xlink:href="#b" transform="translate(-4e-7 120)" height="100%" width="100%" y="0" x="0"/>
 <use xlink:href="#b" transform="translate(-4e-7 140)" height="100%" width="100%" y="0" x="0"/>
 <use xlink:href="#b" transform="translate(-4e-7 160)" height="100%" width="100%" y="0" x="0"/>
 <use xlink:href="#b" transform="translate(-4e-7 180)" height="100%" width="100%" y="0" x="0"/>
 <use xlink:href="#b" transform="translate(180 20)" height="100%" width="100%" y="0" x="0"/>
 <use xlink:href="#b" transform="translate(180 40)" height="100%" width="100%" y="0" x="0"/>
 <use xlink:href="#b" transform="translate(180 60)" height="100%" width="100%" y="0" x="0"/>
 <use xlink:href="#b" transform="translate(180 80)" height="100%" width="100%" y="0" x="0"/>
 <use xlink:href="#b" transform="translate(180 100)" height="100%" width="100%" y="0" x="0"/>
 <use xlink:href="#b" transform="translate(180 120)" height="100%" width="100%" y="0" x="0"/>
 <use xlink:href="#b" transform="translate(180 140)" height="100%" width="100%" y="0" x="0"/>
 <use xlink:href="#b" transform="translate(180 160)" height="100%" width="100%" y="0" x="0"/>
 <use xlink:href="#b" transform="translate(180 180)" height="100%" width="100%" y="0" x="0"/>
 <use xlink:href="#b" transform="translate(200 20)" height="100%" width="100%" y="0" x="0"/>
 <use xlink:href="#b" transform="translate(200 40)" height="100%" width="100%" y="0" x="0"/>
 <use xlink:href="#b" transform="translate(200 60)" height="100%" width="100%" y="0" x="0"/>
 <use xlink:href="#b" transform="translate(200 80)" height="100%" width="100%" y="0" x="0"/>
 <use xlink:href="#b" transform="translate(200 100)" height="100%" width="100%" y="0" x="0"/>
 <use xlink:href="#b" transform="translate(200 120)" height="100%" width="100%" y="0" x="0"/>
 <use xlink:href="#b" transform="translate(200 140)" height="100%" width="100%" y="0" x="0"/>
 <use xlink:href="#b" transform="translate(200 160)" height="100%" width="100%" y="0" x="0"/>
 <use id="a" xlink:href="#k" transform="translate(-190 10)" height="100%" width="100%" y="0" x="0"/>
 <use xlink:href="#a" transform="translate(-20 20)" height="100%" width="100%" y="0" x="0"/>
 <use xlink:href="#a" transform="translate(-20 40)" height="100%" width="100%" y="0" x="0"/>
 <use xlink:href="#a" transform="translate(-20 60)" height="100%" width="100%" y="0" x="0"/>
 <use xlink:href="#a" transform="translate(-20 80)" height="100%" width="100%" y="0" x="0"/>
 <use xlink:href="#a" transform="translate(-20 100)" height="100%" width="100%" y="0" x="0"/>
 <use xlink:href="#a" transform="translate(-20 120)" height="100%" width="100%" y="0" x="0"/>
 <use xlink:href="#a" transform="translate(-20 140)" height="100%" width="100%" y="0" x="0"/>
 <use xlink:href="#a" transform="translate(3e-7 20)" height="100%" width="100%" y="0" x="0"/>
 <use xlink:href="#a" transform="translate(3e-7 40)" height="100%" width="100%" y="0" x="0"/>
 <use xlink:href="#a" transform="translate(3e-7 60)" height="100%" width="100%" y="0" x="0"/>
 <use xlink:href="#a" transform="translate(3e-7 80)" height="100%" width="100%" y="0" x="0"/>
 <use xlink:href="#a" transform="translate(3e-7 100)" height="100%" width="100%" y="0" x="0"/>
 <use xlink:href="#a" transform="translate(3e-7 120)" height="100%" width="100%" y="0" x="0"/>
 <use xlink:href="#a" transform="translate(3e-7 140)" height="100%" width="100%" y="0" x="0"/>
 <use xlink:href="#a" transform="translate(3e-7 160)" height="100%" width="100%" y="0" x="0"/>
 <use xlink:href="#a" transform="translate(20 -20)" height="100%" width="100%" y="0" x="0"/>
 <use xlink:href="#a" transform="translate(20,-3.957e-5)" height="100%" width="100%" y="0" x="0"/>
 <use xlink:href="#a" transform="translate(20 20)" height="100%" width="100%" y="0" x="0"/>
 <use xlink:href="#a" transform="translate(20 40)" height="100%" width="100%" y="0" x="0"/>
 <use xlink:href="#a" transform="translate(20 60)" height="100%" width="100%" y="0" x="0"/>
 <use xlink:href="#a" transform="translate(20 80)" height="100%" width="100%" y="0" x="0"/>
 <use xlink:href="#a" transform="translate(20 100)" height="100%" width="100%" y="0" x="0"/>
 <use xlink:href="#a" transform="translate(20 120)" height="100%" width="100%" y="0" x="0"/>
 <use xlink:href="#a" transform="translate(20 140)" height="100%" width="100%" y="0" x="0"/>
 <use xlink:href="#a" transform="translate(20 160)" height="100%" width="100%" y="0" x="0"/>
 <use xlink:href="#a" transform="translate(20 180)" height="100%" width="100%" y="0" x="0"/>
 <use xlink:href="#a" transform="translate(180 -20)" height="100%" width="100%" y="0" x="0"/>
 <use xlink:href="#a" transform="translate(180,-3.957e-5)" height="100%" width="100%" y="0" x="0"/>
 <use xlink:href="#a" transform="translate(180 20)" height="100%" width="100%" y="0" x="0"/>
 <use xlink:href="#a" transform="translate(180 40)" height="100%" width="100%" y="0" x="0"/>
 <use xlink:href="#a" transform="translate(180 60)" height="100%" width="100%" y="0" x="0"/>
 <use xlink:href="#a" transform="translate(180 80)" height="100%" width="100%" y="0" x="0"/>
 <use xlink:href="#a" transform="translate(180 100)" height="100%" width="100%" y="0" x="0"/>
 <use xlink:href="#a" transform="translate(180 120)" height="100%" width="100%" y="0" x="0"/>
 <use xlink:href="#a" transform="translate(180 140)" height="100%" width="100%" y="0" x="0"/>
 <use xlink:href="#a" transform="translate(180 160)" height="100%" width="100%" y="0" x="0"/>
 <use xlink:href="#a" transform="translate(180 180)" height="100%" width="100%" y="0" x="0"/>
 <use xlink:href="#a" transform="translate(200,-3.957e-5)" height="100%" width="100%" y="0" x="0"/>
 <use xlink:href="#a" transform="translate(200 20)" height="100%" width="100%" y="0" x="0"/>
 <use xlink:href="#a" transform="translate(200 40)" height="100%" width="100%" y="0" x="0"/>
 <use xlink:href="#a" transform="translate(200 60)" height="100%" width="100%" y="0" x="0"/>
 <use xlink:href="#a" transform="translate(200 80)" height="100%" width="100%" y="0" x="0"/>
 <use xlink:href="#a" transform="translate(200 100)" height="100%" width="100%" y="0" x="0"/>
 <use xlink:href="#a" transform="translate(200 120)" height="100%" width="100%" y="0" x="0"/>
 <use xlink:href="#a" transform="translate(200 140)" height="100%" width="100%" y="0" x="0"/>
 <use xlink:href="#a" transform="translate(200 160)" height="100%" width="100%" y="0" x="0"/>
 <use xlink:href="#a" transform="translate(220 20)" height="100%" width="100%" y="0" x="0"/>
 <use xlink:href="#a" transform="translate(220 40)" height="100%" width="100%" y="0" x="0"/>
 <use xlink:href="#a" transform="translate(220 60)" height="100%" width="100%" y="0" x="0"/>
 <use xlink:href="#a" transform="translate(220 80)" height="100%" width="100%" y="0" x="0"/>
 <use xlink:href="#a" transform="translate(220 100)" height="100%" width="100%" y="0" x="0"/>
 <use xlink:href="#a" transform="translate(220 120)" height="100%" width="100%" y="0" x="0"/>
 <use xlink:href="#a" transform="translate(220 140)" height="100%" width="100%" y="0" x="0"/>
 <g id="c">
  <use id="f" xlink:href="#k" y="0" transform="translate(-150,-30)" height="100%" width="100%" x="0"/>
  <use xlink:href="#f" transform="translate(20)" height="100%" width="100%" y="0" x="0"/>
  <use xlink:href="#f" transform="translate(40)" height="100%" width="100%" y="0" x="0"/>
  <use xlink:href="#f" transform="translate(60)" height="100%" width="100%" y="0" x="0"/>
  <use xlink:href="#f" transform="translate(80)" height="100%" width="100%" y="0" x="0"/>
  <use xlink:href="#f" transform="translate(100)" height="100%" width="100%" y="0" x="0"/>
  <use xlink:href="#f" transform="translate(120)" height="100%" width="100%" y="0" x="0"/>
 </g>
 <use xlink:href="#c" transform="translate(0 20)" y="0" x="0"/>
 <use xlink:href="#c" transform="translate(0 40)" y="0" x="0"/>
 <use xlink:href="#c" transform="translate(0 60)" y="0" x="0"/>
 <use xlink:href="#c" transform="translate(0 80)" y="0" x="0"/>
 <use xlink:href="#c" transform="translate(0 100)" y="0" x="0"/>
 <use xlink:href="#c" transform="translate(0 120)" y="0" x="0"/>
 <use xlink:href="#c" transform="translate(0 140)" y="0" x="0"/>
 <use xlink:href="#c" transform="translate(0 160)" y="0" x="0"/>
 <use xlink:href="#c" transform="translate(0 180)" y="0" x="0"/>
 <use xlink:href="#c" transform="translate(0 200)" y="0" x="0"/>
 <use xlink:href="#c" transform="translate(0 220)" y="0" x="0"/>
 <use xlink:href="#c" transform="translate(0 240)" y="0" x="0"/>
 <g id="d">
  <use id="e" xlink:href="#k" y="0" transform="translate(-160,-20)" height="100%" width="100%" x="0"/>
  <use xlink:href="#e" transform="translate(20)" height="100%" width="100%" y="0" x="0"/>
  <use xlink:href="#e" transform="translate(40)" height="100%" width="100%" y="0" x="0"/>
  <use xlink:href="#e" transform="translate(60)" height="100%" width="100%" y="0" x="0"/>
  <use xlink:href="#e" transform="translate(80)" height="100%" width="100%" y="0" x="0"/>
  <use xlink:href="#e" transform="translate(100)" height="100%" width="100%" y="0" x="0"/>
  <use xlink:href="#e" transform="translate(120)" height="100%" width="100%" y="0" x="0"/>
  <use xlink:href="#e" transform="translate(140)" height="100%" width="100%" y="0" x="0"/>
 </g>
 <use xlink:href="#d" transform="translate(0 20)" y="0" x="0"/>
 <use xlink:href="#d" transform="translate(0 40)" y="0" x="0"/>
 <use xlink:href="#d" transform="translate(0 60)" y="0" x="0"/>
 <use xlink:href="#d" transform="translate(0 80)" y="0" x="0"/>
 <use xlink:href="#d" transform="translate(0 100)" y="0" x="0"/>
 <use xlink:href="#d" transform="translate(0 120)" y="0" x="0"/>
 <use xlink:href="#d" transform="translate(0 140)" y="0" x="0"/>
 <use xlink:href="#d" transform="translate(0 160)" y="0" x="0"/>
 <use xlink:href="#d" transform="translate(0 180)" y="0" x="0"/>
 <use xlink:href="#d" transform="translate(0 200)" y="0" x="0"/>
 <use xlink:href="#d" transform="translate(0 220)" y="0" x="0"/>
 <g id="g" transform="translate(205.56 114.79)">
  <g fill-rule="evenodd" transform="translate(-5.5629 -4.7922)">
   <path d="m60-20-10-10h1l9 9z" fill="#b2acb0"/>
   <path d="m60-40-10 10h1l9-9z" fill="#767074"/>
  </g>
 </g>
 <g id="h" fill-rule="evenodd" transform="translate(-54.437 114.79)">
  <path d="m54.437-24.792 10-10h-1l-9 9z" fill="#b2acb0"/>
  <path d="m54.437-44.792 10 10h-1l-9-9z" fill="#767074"/>
 </g>
 <g id="j" fill-rule="evenodd" transform="translate(-20,40)" fill="#b2acb0">
  <path d="m100-30 10-10h-1l-9 9z"/>
  <path d="m100-30-10-10h1l9 9z"/>
 </g>
 <g id="i" fill-rule="evenodd" transform="translate(-20,300)" fill="#767074">
  <path d="m100-50-10 10h1l9-9z"/>
  <path d="m100-50 10 10h-1l-9-9z"/>
 </g>
 <use xlink:href="#j" transform="translate(20)" y="0" x="0"/>
 <use xlink:href="#j" transform="translate(40)" y="0" x="0"/>
 <use xlink:href="#j" transform="translate(60)" y="0" x="0"/>
 <use xlink:href="#j" transform="translate(80)" y="0" x="0"/>
 <use xlink:href="#j" transform="translate(100)" y="0" x="0"/>
 <use xlink:href="#i" transform="translate(20)" y="0" x="0"/>
 <use xlink:href="#i" transform="translate(40)" y="0" x="0"/>
 <use xlink:href="#i" transform="translate(60)" y="0" x="0"/>
 <use xlink:href="#i" transform="translate(80)" y="0" x="0"/>
 <use xlink:href="#i" transform="translate(100)" y="0" x="0"/>
 <use xlink:href="#h" transform="translate(0 20)" y="0" x="0"/>
 <use xlink:href="#h" transform="translate(0 40)" y="0" x="0"/>
 <use xlink:href="#h" transform="translate(0 60)" y="0" x="0"/>
 <use xlink:href="#h" transform="translate(0 80)" y="0" x="0"/>
 <use xlink:href="#h" transform="translate(0 100)" y="0" x="0"/>
 <use xlink:href="#g" transform="translate(0 20)" y="0" x="0"/>
 <use xlink:href="#g" transform="translate(0 40)" y="0" x="0"/>
 <use xlink:href="#g" transform="translate(0 60)" y="0" x="0"/>
 <use xlink:href="#g" transform="translate(0 80)" y="0" x="0"/>
 <use xlink:href="#g" transform="translate(0 100)" y="0" x="0"/>
</svg>
