<?xml version="1.0" encoding="UTF-8"?>
<svg width="343" height="343" version="1.1" xmlns="http://www.w3.org/2000/svg" xmlns:xlink="http://www.w3.org/1999/xlink">
 <rect width="343" height="343" fill="#9a9298"/>
 <g id="b">
  <g id="d" transform="matrix(0 1 1 0 3.8835e-7 0)">
   <path d="m0 28v-21h7l-1 1h-5v19z" fill="#726c70"/>
   <path d="m0 28 1-1h5v-19l1-1v21z" fill="#b2acb0"/>
  </g>
  <use transform="translate(28)" width="100%" height="100%" xlink:href="#d"/>
  <use transform="translate(56)" width="100%" height="100%" xlink:href="#d"/>
  <use transform="translate(84)" width="100%" height="100%" xlink:href="#d"/>
  <use transform="translate(112)" width="100%" height="100%" xlink:href="#d"/>
  <use transform="translate(140)" width="100%" height="100%" xlink:href="#d"/>
  <use transform="translate(168)" width="100%" height="100%" xlink:href="#d"/>
  <use transform="translate(196)" width="100%" height="100%" xlink:href="#d"/>
  <use transform="translate(224)" width="100%" height="100%" xlink:href="#d"/>
  <use transform="translate(252)" width="100%" height="100%" xlink:href="#d"/>
  <use transform="translate(280)" width="100%" height="100%" xlink:href="#d"/>
  <use transform="translate(308)" width="100%" height="100%" xlink:href="#d"/>
 </g>
 <use xlink:href="#b"/>
 <use transform="translate(0,28)" width="100%" height="100%" xlink:href="#b"/>
 <use transform="translate(0,56)" width="100%" height="100%" xlink:href="#b"/>
 <use transform="translate(0,84)" width="100%" height="100%" xlink:href="#b"/>
 <use transform="translate(0,112)" width="100%" height="100%" xlink:href="#b"/>
 <use transform="translate(0,140)" width="100%" height="100%" xlink:href="#b"/>
 <use transform="translate(0,168)" width="100%" height="100%" xlink:href="#b"/>
 <use transform="translate(0,196)" width="100%" height="100%" xlink:href="#b"/>
 <use transform="translate(0,224)" width="100%" height="100%" xlink:href="#b"/>
 <use transform="translate(0,252)" width="100%" height="100%" xlink:href="#b"/>
 <use transform="translate(0,280)" width="100%" height="100%" xlink:href="#b"/>
 <use transform="translate(0,308)" width="100%" height="100%" xlink:href="#b"/>
 <use transform="translate(0,336)" width="100%" height="100%" xlink:href="#b"/>
 <g id="c">
  <g id="a">
   <path d="m0 28v-21h7l-1 1h-5v19z" fill="#726c70"/>
   <path d="m0 28 1-1h5v-19l1-1v21z" fill="#b2acb0"/>
  </g>
  <use transform="translate(0,28)" width="100%" height="100%" xlink:href="#a"/>
  <use transform="translate(0,56)" width="100%" height="100%" xlink:href="#a"/>
  <use transform="translate(0,84)" width="100%" height="100%" xlink:href="#a"/>
  <use transform="translate(0,112)" width="100%" height="100%" xlink:href="#a"/>
  <use transform="translate(0,140)" width="100%" height="100%" xlink:href="#a"/>
  <use transform="translate(0,168)" width="100%" height="100%" xlink:href="#a"/>
  <use transform="translate(0,196)" width="100%" height="100%" xlink:href="#a"/>
  <use transform="translate(0,224)" width="100%" height="100%" xlink:href="#a"/>
  <use transform="translate(0,252)" width="100%" height="100%" xlink:href="#a"/>
  <use transform="translate(0,280)" width="100%" height="100%" xlink:href="#a"/>
  <use transform="translate(0,308)" width="100%" height="100%" xlink:href="#a"/>
 </g>
 <use transform="translate(28)" width="100%" height="100%" xlink:href="#c"/>
 <use transform="translate(56)" width="100%" height="100%" xlink:href="#c"/>
 <use transform="translate(84)" width="100%" height="100%" xlink:href="#c"/>
 <use transform="translate(112)" width="100%" height="100%" xlink:href="#c"/>
 <use transform="translate(140)" width="100%" height="100%" xlink:href="#c"/>
 <use transform="translate(168)" width="100%" height="100%" xlink:href="#c"/>
 <use transform="translate(196)" width="100%" height="100%" xlink:href="#c"/>
 <use transform="translate(224)" width="100%" height="100%" xlink:href="#c"/>
 <use transform="translate(252)" width="100%" height="100%" xlink:href="#c"/>
 <use transform="translate(280)" width="100%" height="100%" xlink:href="#c"/>
 <use transform="translate(308)" width="100%" height="100%" xlink:href="#c"/>
 <use transform="translate(336)" width="100%" height="100%" xlink:href="#c"/>
</svg>
