<?xml version="1.0" encoding="UTF-8"?>
<svg width="220" height="220" version="1.1" xmlns="http://www.w3.org/2000/svg" xmlns:xlink="http://www.w3.org/1999/xlink">
 <path d="m70 0h80l70 70v80l-70 70h-80l-70-70v-80z" fill="#9a9298"/>
 <g id="b" transform="translate(50,-210)" fill-rule="evenodd">
  <path d="m10 240 10-10h-1l-9 9z" fill="#b2acb0"/>
  <path d="m10 240-10-10h1l9 9z" fill="#b2acb0"/>
  <path d="m10 220-10 10h1l9-9z" fill="#767074"/>
  <path d="m10 220 10 10h-1l-9-9z" fill="#767074"/>
 </g>
 <g id="f" transform="translate(9.4342e-7 9.95e-5)">
  <g id="c" transform="translate(0,-160)">
   <path d="m10 240 10-10h-1l-9 9z" fill="#b2acb0" fill-rule="evenodd"/>
   <path d="m10 240-10-10h1l9 9z" fill="#b2acb0" fill-rule="evenodd"/>
   <path d="m10 220-10 10h1l9-9z" fill="#767074" fill-rule="evenodd"/>
   <path d="m10 220 10 10h-1l-9-9z" fill="#767074" fill-rule="evenodd"/>
  </g>
  <use transform="translate(20)" width="100%" height="100%" xlink:href="#c"/>
  <use transform="translate(40)" width="100%" height="100%" xlink:href="#c"/>
  <use transform="translate(60)" width="100%" height="100%" xlink:href="#c"/>
  <use transform="translate(80)" width="100%" height="100%" xlink:href="#c"/>
  <use transform="translate(100)" width="100%" height="100%" xlink:href="#c"/>
  <use transform="translate(120)" width="100%" height="100%" xlink:href="#c"/>
  <use transform="translate(140)" width="100%" height="100%" xlink:href="#c"/>
  <use transform="translate(160)" width="100%" height="100%" xlink:href="#c"/>
  <use transform="translate(180)" width="100%" height="100%" xlink:href="#c"/>
  <use transform="translate(200)" width="100%" height="100%" xlink:href="#c"/>
 </g>
 <use transform="translate(-9.4342e-7 20)" width="100%" height="100%" xlink:href="#f"/>
 <use transform="translate(-9.4342e-7 40)" width="100%" height="100%" xlink:href="#f"/>
 <use transform="translate(-9.4342e-7 60)" width="100%" height="100%" xlink:href="#f"/>
 <use transform="translate(-9.4342e-7 80)" width="100%" height="100%" xlink:href="#f"/>
 <g id="e" transform="translate(9.4342e-7 -20)">
  <g id="d" transform="translate(10,-150)">
   <path d="m10 240 10-10h-1l-9 9z" fill="#b2acb0" fill-rule="evenodd"/>
   <path d="m10 240-10-10h1l9 9z" fill="#b2acb0" fill-rule="evenodd"/>
   <path d="m10 220-10 10h1l9-9z" fill="#767074" fill-rule="evenodd"/>
   <path d="m10 220 10 10h-1l-9-9z" fill="#767074" fill-rule="evenodd"/>
  </g>
  <use transform="translate(20)" width="100%" height="100%" xlink:href="#d"/>
  <use transform="translate(40)" width="100%" height="100%" xlink:href="#d"/>
  <use transform="translate(60)" width="100%" height="100%" xlink:href="#d"/>
  <use transform="translate(80)" width="100%" height="100%" xlink:href="#d"/>
  <use transform="translate(100)" width="100%" height="100%" xlink:href="#d"/>
  <use transform="translate(120)" width="100%" height="100%" xlink:href="#d"/>
  <use transform="translate(140)" width="100%" height="100%" xlink:href="#d"/>
  <use transform="translate(160)" width="100%" height="100%" xlink:href="#d"/>
  <use transform="translate(180)" width="100%" height="100%" xlink:href="#d"/>
 </g>
 <use transform="translate(-9.4342e-7 20)" width="100%" height="100%" xlink:href="#e"/>
 <use transform="translate(-9.4342e-7 40)" width="100%" height="100%" xlink:href="#e"/>
 <use transform="translate(-9.4342e-7 60)" width="100%" height="100%" xlink:href="#e"/>
 <use transform="translate(-9.4342e-7 80)" width="100%" height="100%" xlink:href="#e"/>
 <use transform="translate(-9.4342e-7 100)" width="100%" height="100%" xlink:href="#e"/>
 <use transform="translate(-20 20)" width="100%" height="100%" xlink:href="#b"/>
 <use transform="translate(-20 160)" width="100%" height="100%" xlink:href="#b"/>
 <use transform="translate(0 20)" width="100%" height="100%" xlink:href="#b"/>
 <use transform="translate(0 160)" width="100%" height="100%" xlink:href="#b"/>
 <use transform="translate(0 180)" width="100%" height="100%" xlink:href="#b"/>
 <use transform="translate(20,-1.86e-5)" width="100%" height="100%" xlink:href="#b"/>
 <use transform="translate(20 20)" width="100%" height="100%" xlink:href="#b"/>
 <use transform="translate(20 160)" width="100%" height="100%" xlink:href="#b"/>
 <use transform="translate(20 180)" width="100%" height="100%" xlink:href="#b"/>
 <use transform="translate(40,-1.86e-5)" width="100%" height="100%" xlink:href="#b"/>
 <use transform="translate(40 20)" width="100%" height="100%" xlink:href="#b"/>
 <use transform="translate(40 160)" width="100%" height="100%" xlink:href="#b"/>
 <use transform="translate(40 180)" width="100%" height="100%" xlink:href="#b"/>
 <use transform="translate(60,-1.86e-5)" width="100%" height="100%" xlink:href="#b"/>
 <use transform="translate(60 20)" width="100%" height="100%" xlink:href="#b"/>
 <use transform="translate(60 160)" width="100%" height="100%" xlink:href="#b"/>
 <use transform="translate(60 180)" width="100%" height="100%" xlink:href="#b"/>
 <use transform="translate(80,-1.86e-5)" width="100%" height="100%" xlink:href="#b"/>
 <use transform="translate(80 20)" width="100%" height="100%" xlink:href="#b"/>
 <use transform="translate(80 160)" width="100%" height="100%" xlink:href="#b"/>
 <use transform="translate(80 180)" width="100%" height="100%" xlink:href="#b"/>
 <use transform="translate(100,-1.86e-5)" width="100%" height="100%" xlink:href="#b"/>
 <use transform="translate(100 20)" width="100%" height="100%" xlink:href="#b"/>
 <use transform="translate(100 160)" width="100%" height="100%" xlink:href="#b"/>
 <use transform="translate(100 180)" width="100%" height="100%" xlink:href="#b"/>
 <use transform="translate(120 20)" width="100%" height="100%" xlink:href="#b"/>
 <use transform="translate(120 160)" width="100%" height="100%" xlink:href="#b"/>
 <use id="a" transform="translate(10 -10)" width="100%" height="100%" xlink:href="#b"/>
 <use transform="translate(-40 40)" width="100%" height="100%" xlink:href="#a"/>
 <use transform="translate(-40 160)" width="100%" height="100%" xlink:href="#a"/>
 <use transform="translate(-20 20)" width="100%" height="100%" xlink:href="#a"/>
 <use transform="translate(-20 40)" width="100%" height="100%" xlink:href="#a"/>
 <use transform="translate(-20 160)" width="100%" height="100%" xlink:href="#a"/>
 <use transform="translate(-20 180)" width="100%" height="100%" xlink:href="#a"/>
 <use transform="translate(1.9e-7 20)" width="100%" height="100%" xlink:href="#a"/>
 <use transform="translate(1.9e-7 40)" width="100%" height="100%" xlink:href="#a"/>
 <use transform="translate(1.9e-7 160)" width="100%" height="100%" xlink:href="#a"/>
 <use transform="translate(1.9e-7 180)" width="100%" height="100%" xlink:href="#a"/>
 <use transform="translate(1.9e-7 200)" width="100%" height="100%" xlink:href="#a"/>
 <use transform="translate(20)" width="100%" height="100%" xlink:href="#a"/>
 <use transform="translate(20 20)" width="100%" height="100%" xlink:href="#a"/>
 <use transform="translate(20 40)" width="100%" height="100%" xlink:href="#a"/>
 <use transform="translate(20 160)" width="100%" height="100%" xlink:href="#a"/>
 <use transform="translate(20 180)" width="100%" height="100%" xlink:href="#a"/>
 <use transform="translate(20 200)" width="100%" height="100%" xlink:href="#a"/>
 <use transform="translate(40)" width="100%" height="100%" xlink:href="#a"/>
 <use transform="translate(40 20)" width="100%" height="100%" xlink:href="#a"/>
 <use transform="translate(40 40)" width="100%" height="100%" xlink:href="#a"/>
 <use transform="translate(40 160)" width="100%" height="100%" xlink:href="#a"/>
 <use transform="translate(40 180)" width="100%" height="100%" xlink:href="#a"/>
 <use transform="translate(40 200)" width="100%" height="100%" xlink:href="#a"/>
 <use transform="translate(60)" width="100%" height="100%" xlink:href="#a"/>
 <use transform="translate(60 20)" width="100%" height="100%" xlink:href="#a"/>
 <use transform="translate(60 40)" width="100%" height="100%" xlink:href="#a"/>
 <use transform="translate(60 160)" width="100%" height="100%" xlink:href="#a"/>
 <use transform="translate(60 180)" width="100%" height="100%" xlink:href="#a"/>
 <use transform="translate(60 200)" width="100%" height="100%" xlink:href="#a"/>
 <use transform="translate(80)" width="100%" height="100%" xlink:href="#a"/>
 <use transform="translate(80 20)" width="100%" height="100%" xlink:href="#a"/>
 <use transform="translate(80 40)" width="100%" height="100%" xlink:href="#a"/>
 <use transform="translate(80 160)" width="100%" height="100%" xlink:href="#a"/>
 <use transform="translate(80 180)" width="100%" height="100%" xlink:href="#a"/>
 <use transform="translate(80 200)" width="100%" height="100%" xlink:href="#a"/>
 <use transform="translate(100 20)" width="100%" height="100%" xlink:href="#a"/>
 <use transform="translate(100 40)" width="100%" height="100%" xlink:href="#a"/>
 <use transform="translate(100 160)" width="100%" height="100%" xlink:href="#a"/>
 <use transform="translate(100 180)" width="100%" height="100%" xlink:href="#a"/>
 <use transform="translate(120 40)" width="100%" height="100%" xlink:href="#a"/>
 <use transform="translate(120 160)" width="100%" height="100%" xlink:href="#a"/>
 <g id="j" transform="translate(-60,110)" fill-rule="evenodd">
  <path d="m60-20 10-10h-1l-9 9z" fill="#b2acb0"/>
  <path d="m60-40 10 10h-1l-9-9z" fill="#767074"/>
 </g>
 <use transform="translate(0 20)" xlink:href="#j"/>
 <use transform="translate(0 40)" xlink:href="#j"/>
 <use transform="translate(0 60)" xlink:href="#j"/>
 <g id="i" transform="translate(20,30)" fill="#b2acb0" fill-rule="evenodd">
  <path d="m60-20-10-10h1l9 9z"/>
  <path d="m60-20 10-10h-1l-9 9z"/>
 </g>
 <use transform="translate(20)" xlink:href="#i"/>
 <use transform="translate(40)" xlink:href="#i"/>
 <use transform="translate(60)" xlink:href="#i"/>
 <g id="h" transform="translate(20,250)" fill="#767074" fill-rule="evenodd">
  <path d="m60-40-10 10h1l9-9z"/>
  <path d="m60-40 10 10h-1l-9-9z"/>
 </g>
 <use transform="translate(20)" xlink:href="#h"/>
 <use transform="translate(40)" xlink:href="#h"/>
 <use transform="translate(60)" xlink:href="#h"/>
 <g id="g" transform="translate(160,110)" fill-rule="evenodd">
  <path d="m60-20-10-10h1l9 9z" fill="#b2acb0"/>
  <path d="m60-40-10 10h1l9-9z" fill="#767074"/>
 </g>
 <use transform="translate(0 20)" xlink:href="#g"/>
 <use transform="translate(0 40)" xlink:href="#g"/>
 <use transform="translate(0 60)" xlink:href="#g"/>
</svg>
