<?xml version="1.0" encoding="UTF-8" standalone="no"?>
<svg xmlns:rdf="http://www.w3.org/1999/02/22-rdf-syntax-ns#" xmlns="http://www.w3.org/2000/svg" height="280" width="280" version="1.1" xmlns:cc="http://creativecommons.org/ns#" xmlns:xlink="http://www.w3.org/1999/xlink" xmlns:dc="http://purl.org/dc/elements/1.1/">
 <g id="a" transform="translate(98)">
  <rect width="14" fill="#9a9298" height="14"/>
  <path d="m0.5 13.5v-13h13l-0.5 0.5h-12v12z" fill="#767074"/>
  <path d="m0.5 13.5h13v-13l-0.5 0.5v12h-12z" fill="#b2acb0"/>
 </g>
 <use xlink:href="#a" transform="translate(-98 98)"/>
 <use xlink:href="#a" transform="translate(-98,112)"/>
 <use xlink:href="#a" transform="translate(-98,126)"/>
 <use xlink:href="#a" transform="translate(-98,140)"/>
 <use xlink:href="#a" transform="translate(-98,154)"/>
 <use xlink:href="#a" transform="translate(-98,168)"/>
 <use xlink:href="#a" transform="translate(-84 84)"/>
 <use xlink:href="#a" transform="translate(-84,182)"/>
 <use xlink:href="#a" transform="translate(-70 70)"/>
 <use xlink:href="#a" transform="translate(-70 84)"/>
 <use xlink:href="#a" transform="translate(-70,182)"/>
 <use xlink:href="#a" transform="translate(-70,196)"/>
 <use xlink:href="#a" transform="translate(-56,56)"/>
 <use xlink:href="#a" transform="translate(-56 70)"/>
 <use xlink:href="#a" transform="translate(-56 84)"/>
 <use xlink:href="#a" transform="translate(-56,182)"/>
 <use xlink:href="#a" transform="translate(-56,196)"/>
 <use xlink:href="#a" transform="translate(-56,210)"/>
 <use xlink:href="#a" transform="translate(-42 42)"/>
 <use xlink:href="#a" transform="translate(-42 56)"/>
 <use xlink:href="#a" transform="translate(-42 70)"/>
 <use xlink:href="#a" transform="translate(-42 84)"/>
 <use xlink:href="#a" transform="translate(-42 182)"/>
 <use xlink:href="#a" transform="translate(-42 196)"/>
 <use xlink:href="#a" transform="translate(-42 210)"/>
 <use xlink:href="#a" transform="translate(-42 224)"/>
 <use xlink:href="#a" transform="translate(-28 28)"/>
 <use xlink:href="#a" transform="translate(-28 42)"/>
 <use xlink:href="#a" transform="translate(-28 56)"/>
 <use xlink:href="#a" transform="translate(-28 70)"/>
 <use xlink:href="#a" transform="translate(-28 84)"/>
 <use xlink:href="#a" transform="translate(-28 182)"/>
 <use xlink:href="#a" transform="translate(-28 196)"/>
 <use xlink:href="#a" transform="translate(-28 210)"/>
 <use xlink:href="#a" transform="translate(-28 224)"/>
 <use xlink:href="#a" transform="translate(-28 238)"/>
 <use xlink:href="#a" transform="translate(-14 14)"/>
 <use xlink:href="#a" transform="translate(-14 28)"/>
 <use xlink:href="#a" transform="translate(-14 42)"/>
 <use xlink:href="#a" transform="translate(-14 56)"/>
 <use xlink:href="#a" transform="translate(-14 70)"/>
 <use xlink:href="#a" transform="translate(-14 84)"/>
 <use xlink:href="#a" transform="translate(-14 182)"/>
 <use xlink:href="#a" transform="translate(-14 196)"/>
 <use xlink:href="#a" transform="translate(-14 210)"/>
 <use xlink:href="#a" transform="translate(-14 224)"/>
 <use xlink:href="#a" transform="translate(-14 238)"/>
 <use xlink:href="#a" transform="translate(-14 252)"/>
 <use xlink:href="#a" transform="translate(0 98)"/>
 <use xlink:href="#a" transform="translate(0 112)"/>
 <use xlink:href="#a" transform="translate(0 154)"/>
 <use xlink:href="#a" transform="translate(0 168)"/>
 <use xlink:href="#a" transform="translate(0 266)"/>
 <use xlink:href="#a" transform="translate(14)"/>
 <use xlink:href="#a" transform="translate(14 98)"/>
 <use xlink:href="#a" transform="translate(14 168)"/>
 <use xlink:href="#a" transform="translate(14 266)"/>
 <use xlink:href="#a" transform="translate(28)"/>
 <use xlink:href="#a" transform="translate(28 266)"/>
 <use xlink:href="#a" transform="translate(42)"/>
 <use xlink:href="#a" transform="translate(42 266)"/>
 <use xlink:href="#a" transform="translate(56)"/>
 <use xlink:href="#a" transform="translate(56 98)"/>
 <use xlink:href="#a" transform="translate(56 168)"/>
 <use xlink:href="#a" transform="translate(56 266)"/>
 <use xlink:href="#a" transform="translate(70)"/>
 <use xlink:href="#a" transform="translate(70 98)"/>
 <use xlink:href="#a" transform="translate(70 112)"/>
 <use xlink:href="#a" transform="translate(70 154)"/>
 <use xlink:href="#a" transform="translate(70 168)"/>
 <use xlink:href="#a" transform="translate(70 266)"/>
 <use xlink:href="#a" transform="translate(84 14)"/>
 <use xlink:href="#a" transform="translate(84 28)"/>
 <use xlink:href="#a" transform="translate(84 42)"/>
 <use xlink:href="#a" transform="translate(84 56)"/>
 <use xlink:href="#a" transform="translate(84 70)"/>
 <use xlink:href="#a" transform="translate(84 84)"/>
 <use xlink:href="#a" transform="translate(84 182)"/>
 <use xlink:href="#a" transform="translate(84 196)"/>
 <use xlink:href="#a" transform="translate(84 210)"/>
 <use xlink:href="#a" transform="translate(84 224)"/>
 <use xlink:href="#a" transform="translate(84 238)"/>
 <use xlink:href="#a" transform="translate(84 252)"/>
 <use xlink:href="#a" transform="translate(98 28)"/>
 <use xlink:href="#a" transform="translate(98 42)"/>
 <use xlink:href="#a" transform="translate(98 56)"/>
 <use xlink:href="#a" transform="translate(98 70)"/>
 <use xlink:href="#a" transform="translate(98 84)"/>
 <use xlink:href="#a" transform="translate(98 182)"/>
 <use xlink:href="#a" transform="translate(98 196)"/>
 <use xlink:href="#a" transform="translate(98 210)"/>
 <use xlink:href="#a" transform="translate(98 224)"/>
 <use xlink:href="#a" transform="translate(98 238)"/>
 <use xlink:href="#a" transform="translate(112 42)"/>
 <use xlink:href="#a" transform="translate(112 56)"/>
 <use xlink:href="#a" transform="translate(112 70)"/>
 <use xlink:href="#a" transform="translate(112 84)"/>
 <use xlink:href="#a" transform="translate(112 182)"/>
 <use xlink:href="#a" transform="translate(112 196)"/>
 <use xlink:href="#a" transform="translate(112 210)"/>
 <use xlink:href="#a" transform="translate(112 224)"/>
 <use xlink:href="#a" transform="translate(126 56)"/>
 <use xlink:href="#a" transform="translate(126 70)"/>
 <use xlink:href="#a" transform="translate(126 84)"/>
 <use xlink:href="#a" transform="translate(126 182)"/>
 <use xlink:href="#a" transform="translate(126 196)"/>
 <use xlink:href="#a" transform="translate(126 210)"/>
 <use xlink:href="#a" transform="translate(140 70)"/>
 <use xlink:href="#a" transform="translate(140 84)"/>
 <use xlink:href="#a" transform="translate(140 182)"/>
 <use xlink:href="#a" transform="translate(140 196)"/>
 <use xlink:href="#a" transform="translate(154 84)"/>
 <use xlink:href="#a" transform="translate(154 182)"/>
 <use xlink:href="#a" transform="translate(168 98)"/>
 <use xlink:href="#a" transform="translate(168 112)"/>
 <use xlink:href="#a" transform="translate(168 126)"/>
 <use xlink:href="#a" transform="translate(168 140)"/>
 <use xlink:href="#a" transform="translate(168 154)"/>
 <use xlink:href="#a" transform="translate(168 168)"/>
 <g id="b" transform="translate(126 98)">
  <rect width="14" fill="#9a9298" height="14"/>
  <rect height="12" width="12" y="1" x="1" fill="#696267"/>
  <path d="m0.5 13.5v-13h13l-0.5 0.5h-12v12z" fill="#5a5458"/>
  <path d="m0.5 13.5h13v-13l-0.5 0.5v12h-12z" fill="#797276"/>
 </g>
 <use xlink:href="#b" transform="translate(-28,28)"/>
 <use xlink:href="#b" transform="translate(-28,42)"/>
 <use xlink:href="#b" transform="translate(-14,14)"/>
 <use xlink:href="#b" transform="translate(-14,28)"/>
 <use xlink:href="#b" transform="translate(-14,42)"/>
 <use xlink:href="#b" transform="translate(-14,56)"/>
 <use xlink:href="#b" transform="translate(0,14)"/>
 <use xlink:href="#b" transform="translate(0,28)"/>
 <use xlink:href="#b" transform="translate(0,42)"/>
 <use xlink:href="#b" transform="translate(0,56)"/>
 <use xlink:href="#b" transform="translate(0,70)"/>
 <use xlink:href="#b" transform="translate(14)"/>
 <use xlink:href="#b" transform="translate(14,14)"/>
 <use xlink:href="#b" transform="translate(14,28)"/>
 <use xlink:href="#b" transform="translate(14,42)"/>
 <use xlink:href="#b" transform="translate(14,56)"/>
 <use xlink:href="#b" transform="translate(14,70)"/>
 <use xlink:href="#b" transform="translate(28,14)"/>
 <use xlink:href="#b" transform="translate(28,28)"/>
 <use xlink:href="#b" transform="translate(28,42)"/>
 <use xlink:href="#b" transform="translate(28,56)"/>
 <use xlink:href="#b" transform="translate(42,28)"/>
 <use xlink:href="#b" transform="translate(42,42)"/>
 <g id="d">
  <use id="c" xlink:href="#a" transform="translate(0 14)"/>
  <use xlink:href="#c" transform="translate(14)" y="0" x="0"/>
  <use xlink:href="#c" transform="translate(28)" y="0" x="0"/>
  <use xlink:href="#c" transform="translate(42)" y="0" x="0"/>
  <use xlink:href="#c" transform="translate(56)" y="0" x="0"/>
  <use xlink:href="#c" transform="translate(70)" y="0" x="0"/>
 </g>
 <use xlink:href="#d" transform="translate(0,14)" y="0" x="0"/>
 <use xlink:href="#d" transform="translate(0,28)" y="0" x="0"/>
 <use xlink:href="#d" transform="translate(0,42)" y="0" x="0"/>
 <use xlink:href="#d" transform="translate(0,56)" y="0" x="0"/>
 <use xlink:href="#d" transform="translate(0,70)" y="0" x="0"/>
 <g transform="translate(0,168)">
  <use xlink:href="#a" width="100%" transform="translate(0,14)" height="100%" y="0" x="0"/>
  <use xlink:href="#c" transform="translate(14)" height="100%" width="100%" y="0" x="0"/>
  <use xlink:href="#c" transform="translate(28)" height="100%" width="100%" y="0" x="0"/>
  <use xlink:href="#c" transform="translate(42)" height="100%" width="100%" y="0" x="0"/>
  <use xlink:href="#c" transform="translate(56)" height="100%" width="100%" y="0" x="0"/>
  <use xlink:href="#c" transform="translate(70)" height="100%" width="100%" y="0" x="0"/>
  <use xlink:href="#d" transform="translate(0,14)" height="100%" width="100%" y="0" x="0"/>
  <use xlink:href="#d" transform="translate(0,28)" height="100%" width="100%" y="0" x="0"/>
  <use xlink:href="#d" transform="translate(0,42)" height="100%" width="100%" y="0" x="0"/>
  <use xlink:href="#d" transform="translate(0,56)" height="100%" width="100%" y="0" x="0"/>
  <use xlink:href="#d" transform="translate(0,70)" height="100%" width="100%" y="0" x="0"/>
 </g>
 <g transform="translate(84,84)">
  <use width="100%" xlink:href="#a" transform="translate(0,14)" height="100%" y="0" x="0"/>
  <use xlink:href="#c" transform="translate(14)" height="100%" width="100%" y="0" x="0"/>
  <use xlink:href="#c" transform="translate(28)" height="100%" width="100%" y="0" x="0"/>
  <use xlink:href="#c" transform="translate(42)" height="100%" width="100%" y="0" x="0"/>
  <use xlink:href="#c" transform="translate(56)" height="100%" width="100%" y="0" x="0"/>
  <use xlink:href="#c" transform="translate(70)" height="100%" width="100%" y="0" x="0"/>
  <use xlink:href="#d" transform="translate(0,14)" height="100%" width="100%" y="0" x="0"/>
  <use xlink:href="#d" transform="translate(0,28)" height="100%" width="100%" y="0" x="0"/>
  <use xlink:href="#d" transform="translate(0,42)" height="100%" width="100%" y="0" x="0"/>
  <use xlink:href="#d" transform="translate(0,56)" height="100%" width="100%" y="0" x="0"/>
  <use xlink:href="#d" transform="translate(0,70)" height="100%" width="100%" y="0" x="0"/>
 </g>
 <g transform="translate(-84,84)">
  <use xlink:href="#a" width="100%" transform="translate(0,14)" height="100%" y="0" x="0"/>
  <use xlink:href="#c" transform="translate(14)" height="100%" width="100%" y="0" x="0"/>
  <use xlink:href="#c" transform="translate(28)" height="100%" width="100%" y="0" x="0"/>
  <use xlink:href="#c" transform="translate(42)" height="100%" width="100%" y="0" x="0"/>
  <use xlink:href="#c" transform="translate(56)" height="100%" width="100%" y="0" x="0"/>
  <use xlink:href="#c" transform="translate(70)" height="100%" width="100%" y="0" x="0"/>
  <use xlink:href="#d" transform="translate(0,14)" height="100%" width="100%" y="0" x="0"/>
  <use xlink:href="#d" transform="translate(0,28)" height="100%" width="100%" y="0" x="0"/>
  <use xlink:href="#d" transform="translate(0,42)" height="100%" width="100%" y="0" x="0"/>
  <use xlink:href="#d" transform="translate(0,56)" height="100%" width="100%" y="0" x="0"/>
  <use xlink:href="#d" transform="translate(0,70)" height="100%" width="100%" y="0" x="0"/>
 </g>
</svg>
