<?xml version="1.0" encoding="UTF-8"?>
<svg width="200" height="200" version="1.1" xmlns="http://www.w3.org/2000/svg" xmlns:xlink="http://www.w3.org/1999/xlink">
 <path d="m200 100a100 100 0 0 1-200 0 100 100 0 1 1 200 0z" fill="#80827c"/>
 <path d="m164 100a64 64 0 0 1-128 0 64 64 0 1 1 128 0z" fill="#ffffff"/>
 <g fill="#555753">
  <g id="c" transform="matrix(.9 0 0 .9 0 10)" fill="#555753">
   <path d="m40 100a20 20 0 0 1-40 0 20 20 0 1 1 40 0z" fill="#eeeeee"/>
   <path d="m20 87.5c6.9035 0 12.5 5.5964 12.5 12.5h-5.3571c0-3.9449-3.198-7.1429-7.1428-7.1429-3.9449 0-7.1429 3.198-7.1429 7.1429 0 2.0384 0.86101 3.8449 2.2322 5.1339l3.3482-3.3482v10.714h-10.714l3.5714-3.5714c-2.389-2.3238-3.7946-5.5105-3.7946-8.9286 0-6.9036 5.5964-12.5 12.5-12.5z"/>
  </g>
  <g id="d" transform="matrix(.9 0 0 .9 10 20)" fill="#555753">
   <path d="m120 180a20 20 0 0 1-40 0 20 20 0 1 1 40 0z" fill="#eeeeee"/>
   <path d="m95 170-10 10 10 10v-6.9375h10v7l10-10-10-9.9375v6.9375h-10z"/>
  </g>
  <use transform="rotate(90,182,182)" width="100%" height="100%" xlink:href="#d"/>
  <use transform="matrix(-1,0,0,1,118,-82)" width="100%" height="100%" xlink:href="#c"/>
 </g>
</svg>
