<?xml version="1.0" encoding="UTF-8"?>
<svg width="26" height="26" version="1.1" viewBox="0 0 6.8792 6.8792" xmlns="http://www.w3.org/2000/svg">
 <g transform="translate(0 -290.12)">
  <g id="b" transform="matrix(-.17198 0 0 .17198 6.8792 276.36)">
   <path d="m40 100a20 20 0 0 1-40 0 20 20 0 1 1 40 0z" fill="#fafafa"/>
   <path d="m20 87.5c6.9035 0 12.5 5.5964 12.5 12.5h-5.3571c0-3.9449-3.198-7.1428-7.1428-7.1428-3.9449 0-7.1429 3.198-7.1429 7.1428 0 2.0384 0.86101 3.8449 2.2322 5.1339l3.3482-3.3482v10.714h-10.714l3.5714-3.5714c-2.389-2.3238-3.7946-5.5105-3.7946-8.9286 0-6.9036 5.5964-12.5 12.5-12.5z" fill="#626460"/>
  </g>
 </g>
</svg>
