<?xml version="1.0" encoding="UTF-8"?>
<svg width="200" height="200" version="1.1" xmlns="http://www.w3.org/2000/svg" xmlns:xlink="http://www.w3.org/1999/xlink">
 <path d="m200 100a100 100 0 0 1-200 0 100 100 0 1 1 200 0z" fill="#7a7d78"/>
 <path d="m174 100a74 74 0 0 1-148 0 74 74 0 1 1 148 0z" fill="#eeeeee"/>
 <g id="b" transform="matrix(-.65 0 0 .65 113 -52)">
  <path d="m40 100a20 20 0 0 1-40 0 20 20 0 1 1 40 0z" fill="#ffffff"/>
  <path d="m20 87.5c6.9035 0 12.5 5.5964 12.5 12.5h-5.3571c0-3.9449-3.198-7.1428-7.1428-7.1428-3.9449 0-7.1429 3.198-7.1429 7.1428 0 2.0384 0.86101 3.8449 2.2322 5.1339l3.3482-3.3482v10.714h-10.714l3.5714-3.5714c-2.389-2.3238-3.7946-5.5105-3.7946-8.9286 0-6.9036 5.5964-12.5 12.5-12.5z" fill="#555753"/>
 </g>
 <g id="a" transform="matrix(0 .65 -.65 0 304 35)">
  <path d="m120 180a20 20 0 0 1-40 0 20 20 0 1 1 40 0z" fill="#ffffff"/>
  <path d="m95 170-10 10 10 9.9375v-6.9375h10v7l10-10-10-9.9375v6.9375h-10z" fill="#555753"/>
 </g>
 <use transform="matrix(-1,0,0,1,113,87)" width="100%" height="100%" xlink:href="#b"/>
 <use transform="rotate(90 100 100)" width="100%" height="100%" xlink:href="#a"/>
</svg>
