<?xml version="1.0" encoding="UTF-8"?>
<svg width="64" height="64" version="1.1" xmlns="http://www.w3.org/2000/svg" xmlns:xlink="http://www.w3.org/1999/xlink">
 <path d="m6.0026 45-0.0026 8.5891c-0.00663 2.4375 1.9543 4.3966 4.3875 4.4109h8.6125v-12.995l-8.6607-0.0052z" fill="#edd400" stroke-width="1.3"/>
 <g id="f" transform="matrix(1.3 0 0 1.3 .80003 .80012)">
  <rect x="24" y="4" width="10" height="10" fill="#73d216"/>
  <path d="m24 14h10v-10l-1 1v8h-8z" fill="#4e9a06"/>
  <path d="m24 14v-10h10l-1 1h-8v8z" fill="#8ae234"/>
 </g>
 <use transform="translate(3 2.9999)" x="10" y="10" width="100%" height="100%" xlink:href="#f"/>
 <use transform="translate(3 5.9999)" x="10" y="20" width="100%" height="100%" xlink:href="#f"/>
 <g id="e" transform="matrix(1.3 0 0 1.3 .80003 .80012)">
  <rect x="14" y="24" width="10" height="10" fill="#3465a4"/>
  <path d="m14 34h10v-10l-1 1v8h-8z" fill="#204a87"/>
  <path d="m14 34v-10h10l-1 1h-8v8z" fill="#558bc5"/>
 </g>
 <use transform="translate(3 -.00012)" x="10" width="100%" height="100%" xlink:href="#e"/>
 <use transform="translate(3 2.9999)" x="10" y="10" width="100%" height="100%" xlink:href="#e"/>
 <g id="d" transform="matrix(1.3 0 0 1.3 .80003 .80012)">
  <rect x="4" y="14" width="10" height="10" fill="#edd400"/>
  <path d="m4 24h10v-10l-1 1v8h-8z" fill="#c4a000"/>
  <path d="m4 24v-10h10l-1 1h-8v8z" fill="#fce94f"/>
 </g>
 <use transform="translate(-3e-5 2.9999)" y="10" width="100%" height="100%" xlink:href="#d"/>
 <use transform="translate(3 5.9999)" x="10" y="20" width="100%" height="100%" xlink:href="#d"/>
 <g id="b" transform="matrix(1.3 0 0 1.3 13.8 .80012)">
  <rect x="4" y="4" width="10" height="10" fill="#c00"/>
  <path d="m4 14h10v-10l-1 1v8h-8z" fill="#a40000"/>
  <path d="m4 14v-10h10l-1 1h-8v8z" fill="#ef2929"/>
 </g>
 <g transform="matrix(1.3 0 0 1.3 36.167 -5.0109)">
  <path d="m-19.832 8.47c-1.8649 0.00569-3.3624 1.5081-3.373 3.373v6.627h9.9961l0.0039-6.6641v-3.336z" fill="#c00"/>
  <path d="m-23.205 18.47h10v-10l-1 1v8h-8z" fill="#a40000"/>
  <path d="m-19.83 8.47c-1.8649 0.00569-3.3643 1.5081-3.375 3.373v6.625l1-0.99805v-8h8l1-1h-6.625zm-3.375 9.998 2e-3 2e-3z" fill="#ef2929"/>
 </g>
 <path d="m18.995 44.991-1.2949 1.2949v10.4h-10.4l-0.01274 0.01274c0.79282 0.79128 1.8862 1.2804 3.0976 1.2873h8.6151v-12.995h-0.0051z" fill="#c4a000" stroke-width="1.3"/>
 <path d="m6.0026 44.987-0.0026 8.5891c-0.00338 1.2233 0.48867 2.3257 1.2873 3.1239l0.01274-0.0117v-10.4h10.4l1.2949-1.2949-8.6555-0.0051h-4.3367z" fill="#fce94f" stroke-width="1.3"/>
 <g transform="matrix(1.3 0 0 1.3 -39.532 10.083)">
  <path d="m65.031 26.86-0.0059 7.498v2.502h6.627c1.8582-0.0057 3.3518-1.4978 3.373-3.3535v-6.646z" fill="#3465a4"/>
  <path d="m75.025 26.86-1 1v8h-8l-1 1h6.627c1.8649-0.0057 3.3624-1.5081 3.373-3.373z" fill="#204a87"/>
  <path d="m65.025 36.86v-10h10l-1 1h-8v8z" fill="#558bc5"/>
 </g>
 <g transform="matrix(1.3 0 0 1.3 -26.499 -28.45)">
  <path d="m54.999 26.5v9.9961l6.664 4e-3h3.336v-6.627c-6e-3 -1.865-1.508-3.362-3.373-3.373z" fill="#73d216"/>
  <path d="m64.005 27.49-0.0098 0.0098v8h-8l-0.99609 0.99609 6.6602 0.0039h3.3359v-6.627c-0.0028-0.93246-0.37834-1.7735-0.98828-2.3828-3.55e-4 -3.55e-4 -0.0016 3.55e-4 -2e-3 0z" fill="#4e9a06"/>
  <path d="m54.999 26.504v9.9961h0.0039l0.99609-0.99609v-8h8l0.0098-0.0098c-0.60986-0.60868-1.4509-0.98489-2.3828-0.99023h-6.627z" fill="#8ae234"/>
 </g>
 <use id="a" transform="translate(13 13)" width="100%" height="100%" xlink:href="#b"/>
 <use transform="translate(-13)" width="100%" height="100%" xlink:href="#a"/>
</svg>
