<?xml version="1.0" encoding="UTF-8" standalone="no"?>
<svg xmlns:rdf="http://www.w3.org/1999/02/22-rdf-syntax-ns#" xmlns="http://www.w3.org/2000/svg" height="280" width="280" version="1.1" xmlns:cc="http://creativecommons.org/ns#" xmlns:xlink="http://www.w3.org/1999/xlink" xmlns:dc="http://purl.org/dc/elements/1.1/">
<g id="a" transform="translate(98)">
<rect height="14" width="14" y="0" x="0" fill="#9a9298"/>
<g transform="matrix(.9285714 0 0 .9285754 .5 .4999427)">
<path d="m14 0.00006172h-14v13.99994l0.6999999-0.699997v-12.59994h12.6z" fill="#767074"/>
<path d="m14 0.0000617-0.7 0.6999969v12.59994h-12.6l-0.7 0.7h14z" fill="#b2acb0"/>
</g>
</g>
<use xlink:href="#a" transform="translate(-98 98)" height="100%" width="100%" y="0" x="0"/>
<use xlink:href="#a" transform="translate(-98,112)" height="100%" width="100%" y="0" x="0"/>
<use xlink:href="#a" transform="translate(-98,126)" height="100%" width="100%" y="0" x="0"/>
<use xlink:href="#a" transform="translate(-98,140)" height="100%" width="100%" y="0" x="0"/>
<use xlink:href="#a" transform="translate(-98,154)" height="100%" width="100%" y="0" x="0"/>
<use xlink:href="#a" transform="translate(-98,168)" height="100%" width="100%" y="0" x="0"/>
<use xlink:href="#a" transform="translate(-84 84)" height="100%" width="100%" y="0" x="0"/>
<use xlink:href="#a" transform="translate(-84 98)" height="100%" width="100%" y="0" x="0"/>
<use xlink:href="#a" transform="translate(-84,112)" height="100%" width="100%" y="0" x="0"/>
<use xlink:href="#a" transform="translate(-84,126)" height="100%" width="100%" y="0" x="0"/>
<use xlink:href="#a" transform="translate(-84,140)" height="100%" width="100%" y="0" x="0"/>
<use xlink:href="#a" transform="translate(-84,154)" height="100%" width="100%" y="0" x="0"/>
<use xlink:href="#a" transform="translate(-84,168)" height="100%" width="100%" y="0" x="0"/>
<use xlink:href="#a" transform="translate(-84,182)" height="100%" width="100%" y="0" x="0"/>
<use xlink:href="#a" transform="translate(-70 70)" height="100%" width="100%" y="0" x="0"/>
<use xlink:href="#a" transform="translate(-70 84)" height="100%" width="100%" y="0" x="0"/>
<use xlink:href="#a" transform="translate(-70 98)" height="100%" width="100%" y="0" x="0"/>
<use xlink:href="#a" transform="translate(-70,112)" height="100%" width="100%" y="0" x="0"/>
<use xlink:href="#a" transform="translate(-70,126)" height="100%" width="100%" y="0" x="0"/>
<use xlink:href="#a" transform="translate(-70,140)" height="100%" width="100%" y="0" x="0"/>
<use xlink:href="#a" transform="translate(-70,154)" height="100%" width="100%" y="0" x="0"/>
<use xlink:href="#a" transform="translate(-70,168)" height="100%" width="100%" y="0" x="0"/>
<use xlink:href="#a" transform="translate(-70,182)" height="100%" width="100%" y="0" x="0"/>
<use xlink:href="#a" transform="translate(-70,196)" height="100%" width="100%" y="0" x="0"/>
<use xlink:href="#a" transform="translate(-56,56)" height="100%" width="100%" y="0" x="0"/>
<use xlink:href="#a" transform="translate(-56 70)" height="100%" width="100%" y="0" x="0"/>
<use xlink:href="#a" transform="translate(-56 84)" height="100%" width="100%" y="0" x="0"/>
<use xlink:href="#a" transform="translate(-56 98)" height="100%" width="100%" y="0" x="0"/>
<use xlink:href="#a" transform="translate(-56,112)" height="100%" width="100%" y="0" x="0"/>
<use xlink:href="#a" transform="translate(-56,126)" height="100%" width="100%" y="0" x="0"/>
<use xlink:href="#a" transform="translate(-56,140)" height="100%" width="100%" y="0" x="0"/>
<use xlink:href="#a" transform="translate(-56,154)" height="100%" width="100%" y="0" x="0"/>
<use xlink:href="#a" transform="translate(-56,168)" height="100%" width="100%" y="0" x="0"/>
<use xlink:href="#a" transform="translate(-56,182)" height="100%" width="100%" y="0" x="0"/>
<use xlink:href="#a" transform="translate(-56,196)" height="100%" width="100%" y="0" x="0"/>
<use xlink:href="#a" transform="translate(-56,210)" height="100%" width="100%" y="0" x="0"/>
<use xlink:href="#a" transform="translate(-42 42)" height="100%" width="100%" y="0" x="0"/>
<use xlink:href="#a" transform="translate(-42 56)" height="100%" width="100%" y="0" x="0"/>
<use xlink:href="#a" transform="translate(-42 70)" height="100%" width="100%" y="0" x="0"/>
<use xlink:href="#a" transform="translate(-42 84)" height="100%" width="100%" y="0" x="0"/>
<use xlink:href="#a" transform="translate(-42 98)" height="100%" width="100%" y="0" x="0"/>
<use xlink:href="#a" transform="translate(-42 112)" height="100%" width="100%" y="0" x="0"/>
<use xlink:href="#a" transform="translate(-42 126)" height="100%" width="100%" y="0" x="0"/>
<use xlink:href="#a" transform="translate(-42 140)" height="100%" width="100%" y="0" x="0"/>
<use xlink:href="#a" transform="translate(-42 154)" height="100%" width="100%" y="0" x="0"/>
<use xlink:href="#a" transform="translate(-42 168)" height="100%" width="100%" y="0" x="0"/>
<use xlink:href="#a" transform="translate(-42 182)" height="100%" width="100%" y="0" x="0"/>
<use xlink:href="#a" transform="translate(-42 196)" height="100%" width="100%" y="0" x="0"/>
<use xlink:href="#a" transform="translate(-42 210)" height="100%" width="100%" y="0" x="0"/>
<use xlink:href="#a" transform="translate(-42 224)" height="100%" width="100%" y="0" x="0"/>
<use xlink:href="#a" transform="translate(-28 28)" height="100%" width="100%" y="0" x="0"/>
<use xlink:href="#a" transform="translate(-28 42)" height="100%" width="100%" y="0" x="0"/>
<use xlink:href="#a" transform="translate(-28 56)" height="100%" width="100%" y="0" x="0"/>
<use xlink:href="#a" transform="translate(-28 70)" height="100%" width="100%" y="0" x="0"/>
<use xlink:href="#a" transform="translate(-28 84)" height="100%" width="100%" y="0" x="0"/>
<use xlink:href="#a" transform="translate(-28 98)" height="100%" width="100%" y="0" x="0"/>
<use xlink:href="#a" transform="translate(-28 112)" height="100%" width="100%" y="0" x="0"/>
<use xlink:href="#a" transform="translate(-28 126)" height="100%" width="100%" y="0" x="0"/>
<use xlink:href="#a" transform="translate(-28 140)" height="100%" width="100%" y="0" x="0"/>
<use xlink:href="#a" transform="translate(-28 154)" height="100%" width="100%" y="0" x="0"/>
<use xlink:href="#a" transform="translate(-28 168)" height="100%" width="100%" y="0" x="0"/>
<use xlink:href="#a" transform="translate(-28 182)" height="100%" width="100%" y="0" x="0"/>
<use xlink:href="#a" transform="translate(-28 196)" height="100%" width="100%" y="0" x="0"/>
<use xlink:href="#a" transform="translate(-28 210)" height="100%" width="100%" y="0" x="0"/>
<use xlink:href="#a" transform="translate(-28 224)" height="100%" width="100%" y="0" x="0"/>
<use xlink:href="#a" transform="translate(-28 238)" height="100%" width="100%" y="0" x="0"/>
<use xlink:href="#a" transform="translate(-14 14)" height="100%" width="100%" y="0" x="0"/>
<use xlink:href="#a" transform="translate(-14 28)" height="100%" width="100%" y="0" x="0"/>
<use xlink:href="#a" transform="translate(-14 42)" height="100%" width="100%" y="0" x="0"/>
<use xlink:href="#a" transform="translate(-14 56)" height="100%" width="100%" y="0" x="0"/>
<use xlink:href="#a" transform="translate(-14 70)" height="100%" width="100%" y="0" x="0"/>
<use xlink:href="#a" transform="translate(-14 84)" height="100%" width="100%" y="0" x="0"/>
<use xlink:href="#a" transform="translate(-14 98)" height="100%" width="100%" y="0" x="0"/>
<use xlink:href="#a" transform="translate(-14 112)" height="100%" width="100%" y="0" x="0"/>
<use xlink:href="#a" transform="translate(-14 126)" height="100%" width="100%" y="0" x="0"/>
<use xlink:href="#a" transform="translate(-14 140)" height="100%" width="100%" y="0" x="0"/>
<use xlink:href="#a" transform="translate(-14 154)" height="100%" width="100%" y="0" x="0"/>
<use xlink:href="#a" transform="translate(-14 168)" height="100%" width="100%" y="0" x="0"/>
<use xlink:href="#a" transform="translate(-14 182)" height="100%" width="100%" y="0" x="0"/>
<use xlink:href="#a" transform="translate(-14 196)" height="100%" width="100%" y="0" x="0"/>
<use xlink:href="#a" transform="translate(-14 210)" height="100%" width="100%" y="0" x="0"/>
<use xlink:href="#a" transform="translate(-14 224)" height="100%" width="100%" y="0" x="0"/>
<use xlink:href="#a" transform="translate(-14 238)" height="100%" width="100%" y="0" x="0"/>
<use xlink:href="#a" transform="translate(-14 252)" height="100%" width="100%" y="0" x="0"/>
<use xlink:href="#a" transform="translate(-4.95e-6,14)" height="100%" width="100%" y="0" x="0"/>
<use xlink:href="#a" transform="translate(-4.95e-6,28)" height="100%" width="100%" y="0" x="0"/>
<use xlink:href="#a" transform="translate(-4.95e-6,42)" height="100%" width="100%" y="0" x="0"/>
<use xlink:href="#a" transform="translate(-4.95e-6,56)" height="100%" width="100%" y="0" x="0"/>
<use xlink:href="#a" transform="translate(-.00000495 70)" height="100%" width="100%" y="0" x="0"/>
<use xlink:href="#a" transform="translate(-.00000495 84)" height="100%" width="100%" y="0" x="0"/>
<use xlink:href="#a" transform="translate(-.00000495 98)" height="100%" width="100%" y="0" x="0"/>
<use xlink:href="#a" transform="translate(-4.95e-6,112)" height="100%" width="100%" y="0" x="0"/>
<use xlink:href="#a" transform="translate(-4.95e-6,154)" height="100%" width="100%" y="0" x="0"/>
<use xlink:href="#a" transform="translate(-4.95e-6,168)" height="100%" width="100%" y="0" x="0"/>
<use xlink:href="#a" transform="translate(-4.95e-6,182)" height="100%" width="100%" y="0" x="0"/>
<use xlink:href="#a" transform="translate(-4.95e-6,196)" height="100%" width="100%" y="0" x="0"/>
<use xlink:href="#a" transform="translate(-4.95e-6,210)" height="100%" width="100%" y="0" x="0"/>
<use xlink:href="#a" transform="translate(-4.95e-6,224)" height="100%" width="100%" y="0" x="0"/>
<use xlink:href="#a" transform="translate(-4.95e-6,238)" height="100%" width="100%" y="0" x="0"/>
<use xlink:href="#a" transform="translate(-4.95e-6,252)" height="100%" width="100%" y="0" x="0"/>
<use xlink:href="#a" transform="translate(-4.95e-6,266)" height="100%" width="100%" y="0" x="0"/>
<use xlink:href="#a" transform="translate(14)" height="100%" width="100%" y="0" x="0"/>
<use xlink:href="#a" transform="translate(14 14)" height="100%" width="100%" y="0" x="0"/>
<use xlink:href="#a" transform="translate(14 28)" height="100%" width="100%" y="0" x="0"/>
<use xlink:href="#a" transform="translate(14 42)" height="100%" width="100%" y="0" x="0"/>
<use xlink:href="#a" transform="translate(14 56)" height="100%" width="100%" y="0" x="0"/>
<use xlink:href="#a" transform="translate(14 70)" height="100%" width="100%" y="0" x="0"/>
<use xlink:href="#a" transform="translate(14 84)" height="100%" width="100%" y="0" x="0"/>
<use xlink:href="#a" transform="translate(14 98)" height="100%" width="100%" y="0" x="0"/>
<use xlink:href="#a" transform="translate(14 168)" height="100%" width="100%" y="0" x="0"/>
<use xlink:href="#a" transform="translate(14 182)" height="100%" width="100%" y="0" x="0"/>
<use xlink:href="#a" transform="translate(14 196)" height="100%" width="100%" y="0" x="0"/>
<use xlink:href="#a" transform="translate(14 210)" height="100%" width="100%" y="0" x="0"/>
<use xlink:href="#a" transform="translate(14 224)" height="100%" width="100%" y="0" x="0"/>
<use xlink:href="#a" transform="translate(14 238)" height="100%" width="100%" y="0" x="0"/>
<use xlink:href="#a" transform="translate(14 252)" height="100%" width="100%" y="0" x="0"/>
<use xlink:href="#a" transform="translate(14 266)" height="100%" width="100%" y="0" x="0"/>
<use xlink:href="#a" transform="translate(28)" height="100%" width="100%" y="0" x="0"/>
<use xlink:href="#a" transform="translate(28 14)" height="100%" width="100%" y="0" x="0"/>
<use xlink:href="#a" transform="translate(28 28)" height="100%" width="100%" y="0" x="0"/>
<use xlink:href="#a" transform="translate(28 42)" height="100%" width="100%" y="0" x="0"/>
<use xlink:href="#a" transform="translate(28 56)" height="100%" width="100%" y="0" x="0"/>
<use xlink:href="#a" transform="translate(28 70)" height="100%" width="100%" y="0" x="0"/>
<use xlink:href="#a" transform="translate(28 84)" height="100%" width="100%" y="0" x="0"/>
<use xlink:href="#a" transform="translate(28 182)" height="100%" width="100%" y="0" x="0"/>
<use xlink:href="#a" transform="translate(28 196)" height="100%" width="100%" y="0" x="0"/>
<use xlink:href="#a" transform="translate(28 210)" height="100%" width="100%" y="0" x="0"/>
<use xlink:href="#a" transform="translate(28 224)" height="100%" width="100%" y="0" x="0"/>
<use xlink:href="#a" transform="translate(28 238)" height="100%" width="100%" y="0" x="0"/>
<use xlink:href="#a" transform="translate(28 252)" height="100%" width="100%" y="0" x="0"/>
<use xlink:href="#a" transform="translate(28 266)" height="100%" width="100%" y="0" x="0"/>
<use xlink:href="#a" transform="translate(42)" height="100%" width="100%" y="0" x="0"/>
<use xlink:href="#a" transform="translate(42 14)" height="100%" width="100%" y="0" x="0"/>
<use xlink:href="#a" transform="translate(42 28)" height="100%" width="100%" y="0" x="0"/>
<use xlink:href="#a" transform="translate(42 42)" height="100%" width="100%" y="0" x="0"/>
<use xlink:href="#a" transform="translate(42 56)" height="100%" width="100%" y="0" x="0"/>
<use xlink:href="#a" transform="translate(42 70)" height="100%" width="100%" y="0" x="0"/>
<use xlink:href="#a" transform="translate(42 84)" height="100%" width="100%" y="0" x="0"/>
<use xlink:href="#a" transform="translate(42 182)" height="100%" width="100%" y="0" x="0"/>
<use xlink:href="#a" transform="translate(42 196)" height="100%" width="100%" y="0" x="0"/>
<use xlink:href="#a" transform="translate(42 210)" height="100%" width="100%" y="0" x="0"/>
<use xlink:href="#a" transform="translate(42 224)" height="100%" width="100%" y="0" x="0"/>
<use xlink:href="#a" transform="translate(42 238)" height="100%" width="100%" y="0" x="0"/>
<use xlink:href="#a" transform="translate(42 252)" height="100%" width="100%" y="0" x="0"/>
<use xlink:href="#a" transform="translate(42 266)" height="100%" width="100%" y="0" x="0"/>
<use xlink:href="#a" transform="translate(56)" height="100%" width="100%" y="0" x="0"/>
<use xlink:href="#a" transform="translate(56 14)" height="100%" width="100%" y="0" x="0"/>
<use xlink:href="#a" transform="translate(56 28)" height="100%" width="100%" y="0" x="0"/>
<use xlink:href="#a" transform="translate(56 42)" height="100%" width="100%" y="0" x="0"/>
<use xlink:href="#a" transform="translate(56 56)" height="100%" width="100%" y="0" x="0"/>
<use xlink:href="#a" transform="translate(56 70)" height="100%" width="100%" y="0" x="0"/>
<use xlink:href="#a" transform="translate(56 84)" height="100%" width="100%" y="0" x="0"/>
<use xlink:href="#a" transform="translate(56 98)" height="100%" width="100%" y="0" x="0"/>
<use xlink:href="#a" transform="translate(56 168)" height="100%" width="100%" y="0" x="0"/>
<use xlink:href="#a" transform="translate(56 182)" height="100%" width="100%" y="0" x="0"/>
<use xlink:href="#a" transform="translate(56 196)" height="100%" width="100%" y="0" x="0"/>
<use xlink:href="#a" transform="translate(56 210)" height="100%" width="100%" y="0" x="0"/>
<use xlink:href="#a" transform="translate(56 224)" height="100%" width="100%" y="0" x="0"/>
<use xlink:href="#a" transform="translate(56 238)" height="100%" width="100%" y="0" x="0"/>
<use xlink:href="#a" transform="translate(56 252)" height="100%" width="100%" y="0" x="0"/>
<use xlink:href="#a" transform="translate(56 266)" height="100%" width="100%" y="0" x="0"/>
<use xlink:href="#a" transform="translate(70)" height="100%" width="100%" y="0" x="0"/>
<use xlink:href="#a" transform="translate(70 14)" height="100%" width="100%" y="0" x="0"/>
<use xlink:href="#a" transform="translate(70 28)" height="100%" width="100%" y="0" x="0"/>
<use xlink:href="#a" transform="translate(70 42)" height="100%" width="100%" y="0" x="0"/>
<use xlink:href="#a" transform="translate(70 56)" height="100%" width="100%" y="0" x="0"/>
<use xlink:href="#a" transform="translate(70 70)" height="100%" width="100%" y="0" x="0"/>
<use xlink:href="#a" transform="translate(70 84)" height="100%" width="100%" y="0" x="0"/>
<use xlink:href="#a" transform="translate(70 98)" height="100%" width="100%" y="0" x="0"/>
<use xlink:href="#a" transform="translate(70 112)" height="100%" width="100%" y="0" x="0"/>
<use xlink:href="#a" transform="translate(70 154)" height="100%" width="100%" y="0" x="0"/>
<use xlink:href="#a" transform="translate(70 168)" height="100%" width="100%" y="0" x="0"/>
<use xlink:href="#a" transform="translate(70 182)" height="100%" width="100%" y="0" x="0"/>
<use xlink:href="#a" transform="translate(70 196)" height="100%" width="100%" y="0" x="0"/>
<use xlink:href="#a" transform="translate(70 210)" height="100%" width="100%" y="0" x="0"/>
<use xlink:href="#a" transform="translate(70 224)" height="100%" width="100%" y="0" x="0"/>
<use xlink:href="#a" transform="translate(70 238)" height="100%" width="100%" y="0" x="0"/>
<use xlink:href="#a" transform="translate(70 252)" height="100%" width="100%" y="0" x="0"/>
<use xlink:href="#a" transform="translate(70 266)" height="100%" width="100%" y="0" x="0"/>
<use xlink:href="#a" transform="translate(84 14)" height="100%" width="100%" y="0" x="0"/>
<use xlink:href="#a" transform="translate(84 28)" height="100%" width="100%" y="0" x="0"/>
<use xlink:href="#a" transform="translate(84 42)" height="100%" width="100%" y="0" x="0"/>
<use xlink:href="#a" transform="translate(84 56)" height="100%" width="100%" y="0" x="0"/>
<use xlink:href="#a" transform="translate(84 70)" height="100%" width="100%" y="0" x="0"/>
<use xlink:href="#a" transform="translate(84 84)" height="100%" width="100%" y="0" x="0"/>
<use xlink:href="#a" transform="translate(84 98)" height="100%" width="100%" y="0" x="0"/>
<use xlink:href="#a" transform="translate(84 112)" height="100%" width="100%" y="0" x="0"/>
<use xlink:href="#a" transform="translate(84 126)" height="100%" width="100%" y="0" x="0"/>
<use xlink:href="#a" transform="translate(84 140)" height="100%" width="100%" y="0" x="0"/>
<use xlink:href="#a" transform="translate(84 154)" height="100%" width="100%" y="0" x="0"/>
<use xlink:href="#a" transform="translate(84 168)" height="100%" width="100%" y="0" x="0"/>
<use xlink:href="#a" transform="translate(84 182)" height="100%" width="100%" y="0" x="0"/>
<use xlink:href="#a" transform="translate(84 196)" height="100%" width="100%" y="0" x="0"/>
<use xlink:href="#a" transform="translate(84 210)" height="100%" width="100%" y="0" x="0"/>
<use xlink:href="#a" transform="translate(84 224)" height="100%" width="100%" y="0" x="0"/>
<use xlink:href="#a" transform="translate(84 238)" height="100%" width="100%" y="0" x="0"/>
<use xlink:href="#a" transform="translate(84 252)" height="100%" width="100%" y="0" x="0"/>
<use xlink:href="#a" transform="translate(98 28)" height="100%" width="100%" y="0" x="0"/>
<use xlink:href="#a" transform="translate(98 42)" height="100%" width="100%" y="0" x="0"/>
<use xlink:href="#a" transform="translate(98 56)" height="100%" width="100%" y="0" x="0"/>
<use xlink:href="#a" transform="translate(98 70)" height="100%" width="100%" y="0" x="0"/>
<use xlink:href="#a" transform="translate(98 84)" height="100%" width="100%" y="0" x="0"/>
<use xlink:href="#a" transform="translate(98 98)" height="100%" width="100%" y="0" x="0"/>
<use xlink:href="#a" transform="translate(98 112)" height="100%" width="100%" y="0" x="0"/>
<use xlink:href="#a" transform="translate(98 126)" height="100%" width="100%" y="0" x="0"/>
<use xlink:href="#a" transform="translate(98 140)" height="100%" width="100%" y="0" x="0"/>
<use xlink:href="#a" transform="translate(98 154)" height="100%" width="100%" y="0" x="0"/>
<use xlink:href="#a" transform="translate(98 168)" height="100%" width="100%" y="0" x="0"/>
<use xlink:href="#a" transform="translate(98 182)" height="100%" width="100%" y="0" x="0"/>
<use xlink:href="#a" transform="translate(98 196)" height="100%" width="100%" y="0" x="0"/>
<use xlink:href="#a" transform="translate(98 210)" height="100%" width="100%" y="0" x="0"/>
<use xlink:href="#a" transform="translate(98 224)" height="100%" width="100%" y="0" x="0"/>
<use xlink:href="#a" transform="translate(98 238)" height="100%" width="100%" y="0" x="0"/>
<use xlink:href="#a" transform="translate(112 42)" height="100%" width="100%" y="0" x="0"/>
<use xlink:href="#a" transform="translate(112 56)" height="100%" width="100%" y="0" x="0"/>
<use xlink:href="#a" transform="translate(112 70)" height="100%" width="100%" y="0" x="0"/>
<use xlink:href="#a" transform="translate(112 84)" height="100%" width="100%" y="0" x="0"/>
<use xlink:href="#a" transform="translate(112 98)" height="100%" width="100%" y="0" x="0"/>
<use xlink:href="#a" transform="translate(112 112)" height="100%" width="100%" y="0" x="0"/>
<use xlink:href="#a" transform="translate(112 126)" height="100%" width="100%" y="0" x="0"/>
<use xlink:href="#a" transform="translate(112 140)" height="100%" width="100%" y="0" x="0"/>
<use xlink:href="#a" transform="translate(112 154)" height="100%" width="100%" y="0" x="0"/>
<use xlink:href="#a" transform="translate(112 168)" height="100%" width="100%" y="0" x="0"/>
<use xlink:href="#a" transform="translate(112 182)" height="100%" width="100%" y="0" x="0"/>
<use xlink:href="#a" transform="translate(112 196)" height="100%" width="100%" y="0" x="0"/>
<use xlink:href="#a" transform="translate(112 210)" height="100%" width="100%" y="0" x="0"/>
<use xlink:href="#a" transform="translate(112 224)" height="100%" width="100%" y="0" x="0"/>
<use xlink:href="#a" transform="translate(126 56)" height="100%" width="100%" y="0" x="0"/>
<use xlink:href="#a" transform="translate(126 70)" height="100%" width="100%" y="0" x="0"/>
<use xlink:href="#a" transform="translate(126 84)" height="100%" width="100%" y="0" x="0"/>
<use xlink:href="#a" transform="translate(126 98)" height="100%" width="100%" y="0" x="0"/>
<use xlink:href="#a" transform="translate(126 112)" height="100%" width="100%" y="0" x="0"/>
<use xlink:href="#a" transform="translate(126 126)" height="100%" width="100%" y="0" x="0"/>
<use xlink:href="#a" transform="translate(126 140)" height="100%" width="100%" y="0" x="0"/>
<use xlink:href="#a" transform="translate(126 154)" height="100%" width="100%" y="0" x="0"/>
<use xlink:href="#a" transform="translate(126 168)" height="100%" width="100%" y="0" x="0"/>
<use xlink:href="#a" transform="translate(126 182)" height="100%" width="100%" y="0" x="0"/>
<use xlink:href="#a" transform="translate(126 196)" height="100%" width="100%" y="0" x="0"/>
<use xlink:href="#a" transform="translate(126 210)" height="100%" width="100%" y="0" x="0"/>
<use xlink:href="#a" transform="translate(140 70)" height="100%" width="100%" y="0" x="0"/>
<use xlink:href="#a" transform="translate(140 84)" height="100%" width="100%" y="0" x="0"/>
<use xlink:href="#a" transform="translate(140 98)" height="100%" width="100%" y="0" x="0"/>
<use xlink:href="#a" transform="translate(140 112)" height="100%" width="100%" y="0" x="0"/>
<use xlink:href="#a" transform="translate(140 126)" height="100%" width="100%" y="0" x="0"/>
<use xlink:href="#a" transform="translate(140 140)" height="100%" width="100%" y="0" x="0"/>
<use xlink:href="#a" transform="translate(140 154)" height="100%" width="100%" y="0" x="0"/>
<use xlink:href="#a" transform="translate(140 168)" height="100%" width="100%" y="0" x="0"/>
<use xlink:href="#a" transform="translate(140 182)" height="100%" width="100%" y="0" x="0"/>
<use xlink:href="#a" transform="translate(140 196)" height="100%" width="100%" y="0" x="0"/>
<use xlink:href="#a" transform="translate(154 84)" height="100%" width="100%" y="0" x="0"/>
<use xlink:href="#a" transform="translate(154 98)" height="100%" width="100%" y="0" x="0"/>
<use xlink:href="#a" transform="translate(154 112)" height="100%" width="100%" y="0" x="0"/>
<use xlink:href="#a" transform="translate(154 126)" height="100%" width="100%" y="0" x="0"/>
<use xlink:href="#a" transform="translate(154 140)" height="100%" width="100%" y="0" x="0"/>
<use xlink:href="#a" transform="translate(154 154)" height="100%" width="100%" y="0" x="0"/>
<use xlink:href="#a" transform="translate(154 168)" height="100%" width="100%" y="0" x="0"/>
<use xlink:href="#a" transform="translate(154 182)" height="100%" width="100%" y="0" x="0"/>
<use xlink:href="#a" transform="translate(168 98)" height="100%" width="100%" y="0" x="0"/>
<use xlink:href="#a" transform="translate(168 112)" height="100%" width="100%" y="0" x="0"/>
<use xlink:href="#a" transform="translate(168 126)" height="100%" width="100%" y="0" x="0"/>
<use xlink:href="#a" transform="translate(168 140)" height="100%" width="100%" y="0" x="0"/>
<use xlink:href="#a" transform="translate(168 154)" height="100%" width="100%" y="0" x="0"/>
<use xlink:href="#a" transform="translate(168 168)" height="100%" width="100%" y="0" x="0"/>
<g id="b" transform="translate(1,-42)">
<path d="m125 140h14v14h-14v-14z" fill="#9a9298"/>
<g>
<rect height="13" width="13" y="140.5" x="125.5" fill="#696267"/>
<path d="m138.5 140.5h-13v13c0.20607-0.23426 0.49108-0.43581 0.65-0.6896v-11.6604h11.7l0.65-0.65z" fill="#5a5458"/>
<path d="m138.5 140.5c-0.20607 0.23426-0.49108 0.43581-0.65 0.6896v11.66039h-11.7l-0.65 0.65h13v-12.99999z" fill="#797276"/>
</g>
</g>
<use xlink:href="#b" transform="translate(-28,28)" height="100%" width="100%" y="0" x="0"/>
<use xlink:href="#b" transform="translate(-28,42)" height="100%" width="100%" y="0" x="0"/>
<use xlink:href="#b" transform="translate(-14,14)" height="100%" width="100%" y="0" x="0"/>
<use xlink:href="#b" transform="translate(-14,28)" height="100%" width="100%" y="0" x="0"/>
<use xlink:href="#b" transform="translate(-14,42)" height="100%" width="100%" y="0" x="0"/>
<use xlink:href="#b" transform="translate(-14,56)" height="100%" width="100%" y="0" x="0"/>
<use xlink:href="#b" transform="translate(0,14)" height="100%" width="100%" y="0" x="0"/>
<use xlink:href="#b" transform="translate(0,28)" height="100%" width="100%" y="0" x="0"/>
<use xlink:href="#b" transform="translate(0,42)" height="100%" width="100%" y="0" x="0"/>
<use xlink:href="#b" transform="translate(0,56)" height="100%" width="100%" y="0" x="0"/>
<use xlink:href="#b" transform="translate(0,70)" height="100%" width="100%" y="0" x="0"/>
<use xlink:href="#b" transform="translate(14)" height="100%" width="100%" y="0" x="0"/>
<use xlink:href="#b" transform="translate(14,14)" height="100%" width="100%" y="0" x="0"/>
<use xlink:href="#b" transform="translate(14,28)" height="100%" width="100%" y="0" x="0"/>
<use xlink:href="#b" transform="translate(14,42)" height="100%" width="100%" y="0" x="0"/>
<use xlink:href="#b" transform="translate(14,56)" height="100%" width="100%" y="0" x="0"/>
<use xlink:href="#b" transform="translate(14,70)" height="100%" width="100%" y="0" x="0"/>
<use xlink:href="#b" transform="translate(28,14)" height="100%" width="100%" y="0" x="0"/>
<use xlink:href="#b" transform="translate(28,28)" height="100%" width="100%" y="0" x="0"/>
<use xlink:href="#b" transform="translate(28,42)" height="100%" width="100%" y="0" x="0"/>
<use xlink:href="#b" transform="translate(28,56)" height="100%" width="100%" y="0" x="0"/>
<use xlink:href="#b" transform="translate(42,28)" height="100%" width="100%" y="0" x="0"/>
<use xlink:href="#b" transform="translate(42,42)" height="100%" width="100%" y="0" x="0"/>
</svg>
