<?xml version="1.0" encoding="UTF-8" standalone="no"?>
<svg xmlns:rdf="http://www.w3.org/1999/02/22-rdf-syntax-ns#" xmlns="http://www.w3.org/2000/svg" height="280" width="280" version="1.1" xmlns:cc="http://creativecommons.org/ns#" xmlns:xlink="http://www.w3.org/1999/xlink" xmlns:dc="http://purl.org/dc/elements/1.1/">
<path fill="#9a9298" d="m0 0h280v280h-280z"/>
<path fill="#0073cf" d="m94 90a4 4 0 0 1 -8 0 4 4 0 1 1 8 0z" fill-rule="evenodd"/>
<path fill="#00c000" d="m194 190a4 4 0 0 1 -8 0 4 4 0 1 1 8 0z" fill-rule="evenodd"/>
<g id="b">
<g id="a">
<path d="m20 6.8e-7h-20v20l1-1v-18h18z" fill="#767074"/>
<path d="m20-7e-7 -1 1v18h-18l-1 1h20z" fill="#b2acb0"/>
</g>
<use y="0" x="0" xlink:href="#a"/>
<use xlink:href="#a" transform="translate(20)" y="0" x="0"/>
<use xlink:href="#a" transform="translate(40)" y="0" x="0"/>
<use xlink:href="#a" transform="translate(60)" y="0" x="0"/>
<use xlink:href="#a" transform="translate(80)" y="0" x="0"/>
<use xlink:href="#a" transform="translate(100)" y="0" x="0"/>
<use xlink:href="#a" transform="translate(120)" y="0" x="0"/>
<use xlink:href="#a" transform="translate(140)" y="0" x="0"/>
<use xlink:href="#a" transform="translate(160)" y="0" x="0"/>
<use xlink:href="#a" transform="translate(180)" y="0" x="0"/>
<use xlink:href="#a" transform="translate(200)" y="0" x="0"/>
<use xlink:href="#a" transform="translate(220)" y="0" x="0"/>
<use xlink:href="#a" transform="translate(240)" y="0" x="0"/>
<use xlink:href="#a" transform="translate(260)" y="0" x="0"/>
</g>
<use xlink:href="#b" transform="translate(0 20)" y="0" x="0"/>
<use xlink:href="#b" transform="translate(0 40)" y="0" x="0"/>
<use xlink:href="#b" transform="translate(0 60)" y="0" x="0"/>
<use xlink:href="#b" transform="translate(0 80)" y="0" x="0"/>
<use xlink:href="#b" transform="translate(0,100)" y="0" x="0"/>
<use xlink:href="#b" transform="translate(0,120)" y="0" x="0"/>
<use xlink:href="#b" transform="translate(0,140)" y="0" x="0"/>
<use xlink:href="#b" transform="translate(0 160)" y="0" x="0"/>
<use xlink:href="#b" transform="translate(0 180)" y="0" x="0"/>
<use xlink:href="#b" transform="translate(0 200)" y="0" x="0"/>
<use xlink:href="#b" transform="translate(0 220)" y="0" x="0"/>
<use xlink:href="#b" transform="translate(0 240)" y="0" x="0"/>
<use xlink:href="#b" transform="translate(0 260)" y="0" x="0"/>
</svg>
