<?xml version="1.0" encoding="UTF-8" standalone="no"?>
<!-- Created with Inkscape (http://www.inkscape.org/) -->
<svg xmlns:rdf="http://www.w3.org/1999/02/22-rdf-syntax-ns#" xmlns="http://www.w3.org/2000/svg" height="280" width="280" version="1.1" xmlns:cc="http://creativecommons.org/ns#" xmlns:xlink="http://www.w3.org/1999/xlink" xmlns:dc="http://purl.org/dc/elements/1.1/">
<metadata>
<rdf:RDF>
<cc:Work rdf:about="">
<dc:format>image/svg+xml</dc:format>
<dc:type rdf:resource="http://purl.org/dc/dcmitype/StillImage"/>
<dc:title/>
</cc:Work>
</rdf:RDF>
</metadata>
<path d="m0,0,280,0,0,280-280,0z" fill="#aaa3a8"/>
<g id="use3961" fill-opacity="0.23529412" transform="matrix(0.69999986,0,0,0.69999693,60.110384,-632.0284)">
<path d="m-65.9,903-20,0,0,20,1-1,0-18,18,0z" fill="#000"/>
<path d="m-65.9,903-1,1,0,18-18,0-1,1,20,0z" fill="#FFF"/>
</g>
<use xlink:href="#use3961" transform="translate(0,14)" height="280" width="280" y="0" x="0"/>
<use xlink:href="#use3961" transform="translate(0,28)" height="280" width="280" y="0" x="0"/>
<use xlink:href="#use3961" transform="translate(0,42)" height="280" width="280" y="0" x="0"/>
<use xlink:href="#use3961" transform="translate(0,56)" height="280" width="280" y="0" x="0"/>
<use xlink:href="#use3961" transform="translate(0,70)" height="280" width="280" y="0" x="0"/>
<use xlink:href="#use3961" transform="translate(0,84)" height="280" width="280" y="0" x="0"/>
<use xlink:href="#use3961" transform="translate(0,98)" height="280" width="280" y="0" x="0"/>
<use xlink:href="#use3961" transform="translate(0,112)" height="280" width="280" y="0" x="0"/>
<use xlink:href="#use3961" transform="translate(0,126)" height="280" width="280" y="0" x="0"/>
<use xlink:href="#use3961" transform="translate(0,140)" height="280" width="280" y="0" x="0"/>
<use xlink:href="#use3961" transform="translate(0,154)" height="280" width="280" y="0" x="0"/>
<use xlink:href="#use3961" transform="translate(0,168)" height="280" width="280" y="0" x="0"/>
<use xlink:href="#use3961" transform="translate(0,182)" height="280" width="280" y="0" x="0"/>
<use xlink:href="#use3961" transform="translate(0,196)" height="280" width="280" y="0" x="0"/>
<use xlink:href="#use3961" transform="translate(0,210)" height="280" width="280" y="0" x="0"/>
<use xlink:href="#use3961" transform="translate(0,224)" height="280" width="280" y="0" x="0"/>
<use xlink:href="#use3961" transform="translate(0,238)" height="280" width="280" y="0" x="0"/>
<use xlink:href="#use3961" transform="translate(0,252)" height="280" width="280" y="0" x="0"/>
<use xlink:href="#use3961" transform="translate(0,266)" height="280" width="280" y="0" x="0"/>
<use xlink:href="#use3961" transform="translate(14,0)" height="280" width="280" y="0" x="0"/>
<use xlink:href="#use3961" transform="translate(14,14)" height="280" width="280" y="0" x="0"/>
<use xlink:href="#use3961" transform="translate(14,28)" height="280" width="280" y="0" x="0"/>
<use xlink:href="#use3961" transform="translate(14,42)" height="280" width="280" y="0" x="0"/>
<use xlink:href="#use3961" transform="translate(14,56)" height="280" width="280" y="0" x="0"/>
<use xlink:href="#use3961" transform="translate(14,70)" height="280" width="280" y="0" x="0"/>
<use xlink:href="#use3961" transform="translate(14,84)" height="280" width="280" y="0" x="0"/>
<use xlink:href="#use3961" transform="translate(14,98)" height="280" width="280" y="0" x="0"/>
<use xlink:href="#use3961" transform="translate(14,112)" height="280" width="280" y="0" x="0"/>
<use xlink:href="#use3961" transform="translate(14,126)" height="280" width="280" y="0" x="0"/>
<use xlink:href="#use3961" transform="translate(14,140)" height="280" width="280" y="0" x="0"/>
<use xlink:href="#use3961" transform="translate(14,154)" height="280" width="280" y="0" x="0"/>
<use xlink:href="#use3961" transform="translate(14,168)" height="280" width="280" y="0" x="0"/>
<use xlink:href="#use3961" transform="translate(14,182)" height="280" width="280" y="0" x="0"/>
<use xlink:href="#use3961" transform="translate(14,196)" height="280" width="280" y="0" x="0"/>
<use xlink:href="#use3961" transform="translate(14,210)" height="280" width="280" y="0" x="0"/>
<use xlink:href="#use3961" transform="translate(14,224)" height="280" width="280" y="0" x="0"/>
<use xlink:href="#use3961" transform="translate(14,238)" height="280" width="280" y="0" x="0"/>
<use xlink:href="#use3961" transform="translate(14,252)" height="280" width="280" y="0" x="0"/>
<use xlink:href="#use3961" transform="translate(14,266)" height="280" width="280" y="0" x="0"/>
<use xlink:href="#use3961" transform="translate(28,0)" height="280" width="280" y="0" x="0"/>
<use xlink:href="#use3961" transform="translate(28,14)" height="280" width="280" y="0" x="0"/>
<use xlink:href="#use3961" transform="translate(28,28)" height="280" width="280" y="0" x="0"/>
<use xlink:href="#use3961" transform="translate(28,42)" height="280" width="280" y="0" x="0"/>
<use xlink:href="#use3961" transform="translate(28,56)" height="280" width="280" y="0" x="0"/>
<use xlink:href="#use3961" transform="translate(28,70)" height="280" width="280" y="0" x="0"/>
<use xlink:href="#use3961" transform="translate(28,84)" height="280" width="280" y="0" x="0"/>
<use xlink:href="#use3961" transform="translate(28,98)" height="280" width="280" y="0" x="0"/>
<use xlink:href="#use3961" transform="translate(28,112)" height="280" width="280" y="0" x="0"/>
<use xlink:href="#use3961" transform="translate(28,126)" height="280" width="280" y="0" x="0"/>
<use xlink:href="#use3961" transform="translate(28,140)" height="280" width="280" y="0" x="0"/>
<use xlink:href="#use3961" transform="translate(28,154)" height="280" width="280" y="0" x="0"/>
<use xlink:href="#use3961" transform="translate(28,168)" height="280" width="280" y="0" x="0"/>
<use xlink:href="#use3961" transform="translate(28,182)" height="280" width="280" y="0" x="0"/>
<use xlink:href="#use3961" transform="translate(28,196)" height="280" width="280" y="0" x="0"/>
<use xlink:href="#use3961" transform="translate(28,210)" height="280" width="280" y="0" x="0"/>
<use xlink:href="#use3961" transform="translate(28,224)" height="280" width="280" y="0" x="0"/>
<use xlink:href="#use3961" transform="translate(28,238)" height="280" width="280" y="0" x="0"/>
<use xlink:href="#use3961" transform="translate(28,252)" height="280" width="280" y="0" x="0"/>
<use xlink:href="#use3961" transform="translate(28,266)" height="280" width="280" y="0" x="0"/>
<use xlink:href="#use3961" transform="translate(42,0)" height="280" width="280" y="0" x="0"/>
<use xlink:href="#use3961" transform="translate(42,14)" height="280" width="280" y="0" x="0"/>
<use xlink:href="#use3961" transform="translate(42,28)" height="280" width="280" y="0" x="0"/>
<use xlink:href="#use3961" transform="translate(42,42)" height="280" width="280" y="0" x="0"/>
<use xlink:href="#use3961" transform="translate(42,56)" height="280" width="280" y="0" x="0"/>
<use xlink:href="#use3961" transform="translate(42,70)" height="280" width="280" y="0" x="0"/>
<use xlink:href="#use3961" transform="translate(42,84)" height="280" width="280" y="0" x="0"/>
<use xlink:href="#use3961" transform="translate(42,98)" height="280" width="280" y="0" x="0"/>
<use xlink:href="#use3961" transform="translate(42,112)" height="280" width="280" y="0" x="0"/>
<use xlink:href="#use3961" transform="translate(42,126)" height="280" width="280" y="0" x="0"/>
<use xlink:href="#use3961" transform="translate(42,140)" height="280" width="280" y="0" x="0"/>
<use xlink:href="#use3961" transform="translate(42,154)" height="280" width="280" y="0" x="0"/>
<use xlink:href="#use3961" transform="translate(42,168)" height="280" width="280" y="0" x="0"/>
<use xlink:href="#use3961" transform="translate(42,182)" height="280" width="280" y="0" x="0"/>
<use xlink:href="#use3961" transform="translate(42,196)" height="280" width="280" y="0" x="0"/>
<use xlink:href="#use3961" transform="translate(42,210)" height="280" width="280" y="0" x="0"/>
<use xlink:href="#use3961" transform="translate(42,224)" height="280" width="280" y="0" x="0"/>
<use xlink:href="#use3961" transform="translate(42,238)" height="280" width="280" y="0" x="0"/>
<use xlink:href="#use3961" transform="translate(42,252)" height="280" width="280" y="0" x="0"/>
<use xlink:href="#use3961" transform="translate(42,266)" height="280" width="280" y="0" x="0"/>
<use xlink:href="#use3961" transform="translate(56,0)" height="280" width="280" y="0" x="0"/>
<use xlink:href="#use3961" transform="translate(56,14)" height="280" width="280" y="0" x="0"/>
<use xlink:href="#use3961" transform="translate(56,28)" height="280" width="280" y="0" x="0"/>
<use xlink:href="#use3961" transform="translate(56,42)" height="280" width="280" y="0" x="0"/>
<use xlink:href="#use3961" transform="translate(56,56)" height="280" width="280" y="0" x="0"/>
<use xlink:href="#use3961" transform="translate(56,70)" height="280" width="280" y="0" x="0"/>
<use xlink:href="#use3961" transform="translate(56,84)" height="280" width="280" y="0" x="0"/>
<use xlink:href="#use3961" transform="translate(56,98)" height="280" width="280" y="0" x="0"/>
<use xlink:href="#use3961" transform="translate(56,112)" height="280" width="280" y="0" x="0"/>
<use xlink:href="#use3961" transform="translate(56,126)" height="280" width="280" y="0" x="0"/>
<use xlink:href="#use3961" transform="translate(56,140)" height="280" width="280" y="0" x="0"/>
<use xlink:href="#use3961" transform="translate(56,154)" height="280" width="280" y="0" x="0"/>
<use xlink:href="#use3961" transform="translate(56,168)" height="280" width="280" y="0" x="0"/>
<use xlink:href="#use3961" transform="translate(56,182)" height="280" width="280" y="0" x="0"/>
<use xlink:href="#use3961" transform="translate(56,196)" height="280" width="280" y="0" x="0"/>
<use xlink:href="#use3961" transform="translate(56,210)" height="280" width="280" y="0" x="0"/>
<use xlink:href="#use3961" transform="translate(56,224)" height="280" width="280" y="0" x="0"/>
<use xlink:href="#use3961" transform="translate(56,238)" height="280" width="280" y="0" x="0"/>
<use xlink:href="#use3961" transform="translate(56,252)" height="280" width="280" y="0" x="0"/>
<use xlink:href="#use3961" transform="translate(56,266)" height="280" width="280" y="0" x="0"/>
<use xlink:href="#use3961" transform="translate(70,0)" height="280" width="280" y="0" x="0"/>
<use xlink:href="#use3961" transform="translate(70,14)" height="280" width="280" y="0" x="0"/>
<use xlink:href="#use3961" transform="translate(70,28)" height="280" width="280" y="0" x="0"/>
<use xlink:href="#use3961" transform="translate(70,42)" height="280" width="280" y="0" x="0"/>
<use xlink:href="#use3961" transform="translate(70,56)" height="280" width="280" y="0" x="0"/>
<use xlink:href="#use3961" transform="translate(70,70)" height="280" width="280" y="0" x="0"/>
<use xlink:href="#use3961" transform="translate(70,84)" height="280" width="280" y="0" x="0"/>
<use xlink:href="#use3961" transform="translate(70,98)" height="280" width="280" y="0" x="0"/>
<use xlink:href="#use3961" transform="translate(70,112)" height="280" width="280" y="0" x="0"/>
<use xlink:href="#use3961" transform="translate(70,126)" height="280" width="280" y="0" x="0"/>
<use xlink:href="#use3961" transform="translate(70,140)" height="280" width="280" y="0" x="0"/>
<use xlink:href="#use3961" transform="translate(70,154)" height="280" width="280" y="0" x="0"/>
<use xlink:href="#use3961" transform="translate(70,168)" height="280" width="280" y="0" x="0"/>
<use xlink:href="#use3961" transform="translate(70,182)" height="280" width="280" y="0" x="0"/>
<use xlink:href="#use3961" transform="translate(70,196)" height="280" width="280" y="0" x="0"/>
<use xlink:href="#use3961" transform="translate(70,210)" height="280" width="280" y="0" x="0"/>
<use xlink:href="#use3961" transform="translate(70,224)" height="280" width="280" y="0" x="0"/>
<use xlink:href="#use3961" transform="translate(70,238)" height="280" width="280" y="0" x="0"/>
<use xlink:href="#use3961" transform="translate(70,252)" height="280" width="280" y="0" x="0"/>
<use xlink:href="#use3961" transform="translate(70,266)" height="280" width="280" y="0" x="0"/>
<use xlink:href="#use3961" transform="translate(84,0)" height="280" width="280" y="0" x="0"/>
<use xlink:href="#use3961" transform="translate(84,14)" height="280" width="280" y="0" x="0"/>
<use xlink:href="#use3961" transform="translate(84,28)" height="280" width="280" y="0" x="0"/>
<use xlink:href="#use3961" transform="translate(84,42)" height="280" width="280" y="0" x="0"/>
<use xlink:href="#use3961" transform="translate(84,56)" height="280" width="280" y="0" x="0"/>
<use xlink:href="#use3961" transform="translate(84,70)" height="280" width="280" y="0" x="0"/>
<use xlink:href="#use3961" transform="translate(84,84)" height="280" width="280" y="0" x="0"/>
<use xlink:href="#use3961" transform="translate(84,98)" height="280" width="280" y="0" x="0"/>
<use xlink:href="#use3961" transform="translate(84,112)" height="280" width="280" y="0" x="0"/>
<use xlink:href="#use3961" transform="translate(84,126)" height="280" width="280" y="0" x="0"/>
<use xlink:href="#use3961" transform="translate(84,140)" height="280" width="280" y="0" x="0"/>
<use xlink:href="#use3961" transform="translate(84,154)" height="280" width="280" y="0" x="0"/>
<use xlink:href="#use3961" transform="translate(84,168)" height="280" width="280" y="0" x="0"/>
<use xlink:href="#use3961" transform="translate(84,182)" height="280" width="280" y="0" x="0"/>
<use xlink:href="#use3961" transform="translate(84,196)" height="280" width="280" y="0" x="0"/>
<use xlink:href="#use3961" transform="translate(84,210)" height="280" width="280" y="0" x="0"/>
<use xlink:href="#use3961" transform="translate(84,224)" height="280" width="280" y="0" x="0"/>
<use xlink:href="#use3961" transform="translate(84,238)" height="280" width="280" y="0" x="0"/>
<use xlink:href="#use3961" transform="translate(84,252)" height="280" width="280" y="0" x="0"/>
<use xlink:href="#use3961" transform="translate(84,266)" height="280" width="280" y="0" x="0"/>
<use xlink:href="#use3961" transform="translate(98,0)" height="280" width="280" y="0" x="0"/>
<use xlink:href="#use3961" transform="translate(98,14)" height="280" width="280" y="0" x="0"/>
<use xlink:href="#use3961" transform="translate(98,28)" height="280" width="280" y="0" x="0"/>
<use xlink:href="#use3961" transform="translate(98,42)" height="280" width="280" y="0" x="0"/>
<use xlink:href="#use3961" transform="translate(98,56)" height="280" width="280" y="0" x="0"/>
<use xlink:href="#use3961" transform="translate(98,70)" height="280" width="280" y="0" x="0"/>
<use xlink:href="#use3961" transform="translate(98,84)" height="280" width="280" y="0" x="0"/>
<use xlink:href="#use3961" transform="translate(98,98)" height="280" width="280" y="0" x="0"/>
<use xlink:href="#use3961" transform="translate(98,112)" height="280" width="280" y="0" x="0"/>
<use xlink:href="#use3961" transform="translate(98,126)" height="280" width="280" y="0" x="0"/>
<use xlink:href="#use3961" transform="translate(98,140)" height="280" width="280" y="0" x="0"/>
<use xlink:href="#use3961" transform="translate(98,154)" height="280" width="280" y="0" x="0"/>
<use xlink:href="#use3961" transform="translate(98,168)" height="280" width="280" y="0" x="0"/>
<use xlink:href="#use3961" transform="translate(98,182)" height="280" width="280" y="0" x="0"/>
<use xlink:href="#use3961" transform="translate(98,196)" height="280" width="280" y="0" x="0"/>
<use xlink:href="#use3961" transform="translate(98,210)" height="280" width="280" y="0" x="0"/>
<use xlink:href="#use3961" transform="translate(98,224)" height="280" width="280" y="0" x="0"/>
<use xlink:href="#use3961" transform="translate(98,238)" height="280" width="280" y="0" x="0"/>
<use xlink:href="#use3961" transform="translate(98,252)" height="280" width="280" y="0" x="0"/>
<use xlink:href="#use3961" transform="translate(98,266)" height="280" width="280" y="0" x="0"/>
<use xlink:href="#use3961" transform="translate(112,0)" height="280" width="280" y="0" x="0"/>
<use xlink:href="#use3961" transform="translate(112,14)" height="280" width="280" y="0" x="0"/>
<use xlink:href="#use3961" transform="translate(112,28)" height="280" width="280" y="0" x="0"/>
<use xlink:href="#use3961" transform="translate(112,42)" height="280" width="280" y="0" x="0"/>
<use xlink:href="#use3961" transform="translate(112,56)" height="280" width="280" y="0" x="0"/>
<use xlink:href="#use3961" transform="translate(112,70)" height="280" width="280" y="0" x="0"/>
<use xlink:href="#use3961" transform="translate(112,84)" height="280" width="280" y="0" x="0"/>
<use xlink:href="#use3961" transform="translate(112,98)" height="280" width="280" y="0" x="0"/>
<use xlink:href="#use3961" transform="translate(112,112)" height="280" width="280" y="0" x="0"/>
<use xlink:href="#use3961" transform="translate(112,126)" height="280" width="280" y="0" x="0"/>
<use xlink:href="#use3961" transform="translate(112,140)" height="280" width="280" y="0" x="0"/>
<use xlink:href="#use3961" transform="translate(112,154)" height="280" width="280" y="0" x="0"/>
<use xlink:href="#use3961" transform="translate(112,168)" height="280" width="280" y="0" x="0"/>
<use xlink:href="#use3961" transform="translate(112,182)" height="280" width="280" y="0" x="0"/>
<use xlink:href="#use3961" transform="translate(112,196)" height="280" width="280" y="0" x="0"/>
<use xlink:href="#use3961" transform="translate(112,210)" height="280" width="280" y="0" x="0"/>
<use xlink:href="#use3961" transform="translate(112,224)" height="280" width="280" y="0" x="0"/>
<use xlink:href="#use3961" transform="translate(112,238)" height="280" width="280" y="0" x="0"/>
<use xlink:href="#use3961" transform="translate(112,252)" height="280" width="280" y="0" x="0"/>
<use xlink:href="#use3961" transform="translate(112,266)" height="280" width="280" y="0" x="0"/>
<use xlink:href="#use3961" transform="translate(126,0)" height="280" width="280" y="0" x="0"/>
<use xlink:href="#use3961" transform="translate(126,14)" height="280" width="280" y="0" x="0"/>
<use xlink:href="#use3961" transform="translate(126,28)" height="280" width="280" y="0" x="0"/>
<use xlink:href="#use3961" transform="translate(126,42)" height="280" width="280" y="0" x="0"/>
<use xlink:href="#use3961" transform="translate(126,56)" height="280" width="280" y="0" x="0"/>
<use xlink:href="#use3961" transform="translate(126,70)" height="280" width="280" y="0" x="0"/>
<use xlink:href="#use3961" transform="translate(126,84)" height="280" width="280" y="0" x="0"/>
<use xlink:href="#use3961" transform="translate(126,98)" height="280" width="280" y="0" x="0"/>
<use xlink:href="#use3961" transform="translate(126,112)" height="280" width="280" y="0" x="0"/>
<use xlink:href="#use3961" transform="translate(126,126)" height="280" width="280" y="0" x="0"/>
<use xlink:href="#use3961" transform="translate(126,140)" height="280" width="280" y="0" x="0"/>
<use xlink:href="#use3961" transform="translate(126,154)" height="280" width="280" y="0" x="0"/>
<use xlink:href="#use3961" transform="translate(126,168)" height="280" width="280" y="0" x="0"/>
<use xlink:href="#use3961" transform="translate(126,182)" height="280" width="280" y="0" x="0"/>
<use xlink:href="#use3961" transform="translate(126,196)" height="280" width="280" y="0" x="0"/>
<use xlink:href="#use3961" transform="translate(126,210)" height="280" width="280" y="0" x="0"/>
<use xlink:href="#use3961" transform="translate(126,224)" height="280" width="280" y="0" x="0"/>
<use xlink:href="#use3961" transform="translate(126,238)" height="280" width="280" y="0" x="0"/>
<use xlink:href="#use3961" transform="translate(126,252)" height="280" width="280" y="0" x="0"/>
<use xlink:href="#use3961" transform="translate(126,266)" height="280" width="280" y="0" x="0"/>
<use xlink:href="#use3961" transform="translate(140,0)" height="280" width="280" y="0" x="0"/>
<use xlink:href="#use3961" transform="translate(140,14)" height="280" width="280" y="0" x="0"/>
<use xlink:href="#use3961" transform="translate(140,28)" height="280" width="280" y="0" x="0"/>
<use xlink:href="#use3961" transform="translate(140,42)" height="280" width="280" y="0" x="0"/>
<use xlink:href="#use3961" transform="translate(140,56)" height="280" width="280" y="0" x="0"/>
<use xlink:href="#use3961" transform="translate(140,70)" height="280" width="280" y="0" x="0"/>
<use xlink:href="#use3961" transform="translate(140,84)" height="280" width="280" y="0" x="0"/>
<use xlink:href="#use3961" transform="translate(140,98)" height="280" width="280" y="0" x="0"/>
<use xlink:href="#use3961" transform="translate(140,112)" height="280" width="280" y="0" x="0"/>
<use xlink:href="#use3961" transform="translate(140,126)" height="280" width="280" y="0" x="0"/>
<use xlink:href="#use3961" transform="translate(140,140)" height="280" width="280" y="0" x="0"/>
<use xlink:href="#use3961" transform="translate(140,154)" height="280" width="280" y="0" x="0"/>
<use xlink:href="#use3961" transform="translate(140,168)" height="280" width="280" y="0" x="0"/>
<use xlink:href="#use3961" transform="translate(140,182)" height="280" width="280" y="0" x="0"/>
<use xlink:href="#use3961" transform="translate(140,196)" height="280" width="280" y="0" x="0"/>
<use xlink:href="#use3961" transform="translate(140,210)" height="280" width="280" y="0" x="0"/>
<use xlink:href="#use3961" transform="translate(140,224)" height="280" width="280" y="0" x="0"/>
<use xlink:href="#use3961" transform="translate(140,238)" height="280" width="280" y="0" x="0"/>
<use xlink:href="#use3961" transform="translate(140,252)" height="280" width="280" y="0" x="0"/>
<use xlink:href="#use3961" transform="translate(140,266)" height="280" width="280" y="0" x="0"/>
<use xlink:href="#use3961" transform="translate(154,0)" height="280" width="280" y="0" x="0"/>
<use xlink:href="#use3961" transform="translate(154,14)" height="280" width="280" y="0" x="0"/>
<use xlink:href="#use3961" transform="translate(154,28)" height="280" width="280" y="0" x="0"/>
<use xlink:href="#use3961" transform="translate(154,42)" height="280" width="280" y="0" x="0"/>
<use xlink:href="#use3961" transform="translate(154,56)" height="280" width="280" y="0" x="0"/>
<use xlink:href="#use3961" transform="translate(154,70)" height="280" width="280" y="0" x="0"/>
<use xlink:href="#use3961" transform="translate(154,84)" height="280" width="280" y="0" x="0"/>
<use xlink:href="#use3961" transform="translate(154,98)" height="280" width="280" y="0" x="0"/>
<use xlink:href="#use3961" transform="translate(154,112)" height="280" width="280" y="0" x="0"/>
<use xlink:href="#use3961" transform="translate(154,126)" height="280" width="280" y="0" x="0"/>
<use xlink:href="#use3961" transform="translate(154,140)" height="280" width="280" y="0" x="0"/>
<use xlink:href="#use3961" transform="translate(154,154)" height="280" width="280" y="0" x="0"/>
<use xlink:href="#use3961" transform="translate(154,168)" height="280" width="280" y="0" x="0"/>
<use xlink:href="#use3961" transform="translate(154,182)" height="280" width="280" y="0" x="0"/>
<use xlink:href="#use3961" transform="translate(154,196)" height="280" width="280" y="0" x="0"/>
<use xlink:href="#use3961" transform="translate(154,210)" height="280" width="280" y="0" x="0"/>
<use xlink:href="#use3961" transform="translate(154,224)" height="280" width="280" y="0" x="0"/>
<use xlink:href="#use3961" transform="translate(154,238)" height="280" width="280" y="0" x="0"/>
<use xlink:href="#use3961" transform="translate(154,252)" height="280" width="280" y="0" x="0"/>
<use xlink:href="#use3961" transform="translate(154,266)" height="280" width="280" y="0" x="0"/>
<use xlink:href="#use3961" transform="translate(168,0)" height="280" width="280" y="0" x="0"/>
<use xlink:href="#use3961" transform="translate(168,14)" height="280" width="280" y="0" x="0"/>
<use xlink:href="#use3961" transform="translate(168,28)" height="280" width="280" y="0" x="0"/>
<use xlink:href="#use3961" transform="translate(168,42)" height="280" width="280" y="0" x="0"/>
<use xlink:href="#use3961" transform="translate(168,56)" height="280" width="280" y="0" x="0"/>
<use xlink:href="#use3961" transform="translate(168,70)" height="280" width="280" y="0" x="0"/>
<use xlink:href="#use3961" transform="translate(168,84)" height="280" width="280" y="0" x="0"/>
<use xlink:href="#use3961" transform="translate(168,98)" height="280" width="280" y="0" x="0"/>
<use xlink:href="#use3961" transform="translate(168,112)" height="280" width="280" y="0" x="0"/>
<use xlink:href="#use3961" transform="translate(168,126)" height="280" width="280" y="0" x="0"/>
<use xlink:href="#use3961" transform="translate(168,140)" height="280" width="280" y="0" x="0"/>
<use xlink:href="#use3961" transform="translate(168,154)" height="280" width="280" y="0" x="0"/>
<use xlink:href="#use3961" transform="translate(168,168)" height="280" width="280" y="0" x="0"/>
<use xlink:href="#use3961" transform="translate(168,182)" height="280" width="280" y="0" x="0"/>
<use xlink:href="#use3961" transform="translate(168,196)" height="280" width="280" y="0" x="0"/>
<use xlink:href="#use3961" transform="translate(168,210)" height="280" width="280" y="0" x="0"/>
<use xlink:href="#use3961" transform="translate(168,224)" height="280" width="280" y="0" x="0"/>
<use xlink:href="#use3961" transform="translate(168,238)" height="280" width="280" y="0" x="0"/>
<use xlink:href="#use3961" transform="translate(168,252)" height="280" width="280" y="0" x="0"/>
<use xlink:href="#use3961" transform="translate(168,266)" height="280" width="280" y="0" x="0"/>
<use xlink:href="#use3961" transform="translate(182,0)" height="280" width="280" y="0" x="0"/>
<use xlink:href="#use3961" transform="translate(182,14)" height="280" width="280" y="0" x="0"/>
<use xlink:href="#use3961" transform="translate(182,28)" height="280" width="280" y="0" x="0"/>
<use xlink:href="#use3961" transform="translate(182,42)" height="280" width="280" y="0" x="0"/>
<use xlink:href="#use3961" transform="translate(182,56)" height="280" width="280" y="0" x="0"/>
<use xlink:href="#use3961" transform="translate(182,70)" height="280" width="280" y="0" x="0"/>
<use xlink:href="#use3961" transform="translate(182,84)" height="280" width="280" y="0" x="0"/>
<use xlink:href="#use3961" transform="translate(182,98)" height="280" width="280" y="0" x="0"/>
<use xlink:href="#use3961" transform="translate(182,112)" height="280" width="280" y="0" x="0"/>
<use xlink:href="#use3961" transform="translate(182,126)" height="280" width="280" y="0" x="0"/>
<use xlink:href="#use3961" transform="translate(182,140)" height="280" width="280" y="0" x="0"/>
<use xlink:href="#use3961" transform="translate(182,154)" height="280" width="280" y="0" x="0"/>
<use xlink:href="#use3961" transform="translate(182,168)" height="280" width="280" y="0" x="0"/>
<use xlink:href="#use3961" transform="translate(182,182)" height="280" width="280" y="0" x="0"/>
<use xlink:href="#use3961" transform="translate(182,196)" height="280" width="280" y="0" x="0"/>
<use xlink:href="#use3961" transform="translate(182,210)" height="280" width="280" y="0" x="0"/>
<use xlink:href="#use3961" transform="translate(182,224)" height="280" width="280" y="0" x="0"/>
<use xlink:href="#use3961" transform="translate(182,238)" height="280" width="280" y="0" x="0"/>
<use xlink:href="#use3961" transform="translate(182,252)" height="280" width="280" y="0" x="0"/>
<use xlink:href="#use3961" transform="translate(182,266)" height="280" width="280" y="0" x="0"/>
<use xlink:href="#use3961" transform="translate(196,0)" height="280" width="280" y="0" x="0"/>
<use xlink:href="#use3961" transform="translate(196,14)" height="280" width="280" y="0" x="0"/>
<use xlink:href="#use3961" transform="translate(196,28)" height="280" width="280" y="0" x="0"/>
<use xlink:href="#use3961" transform="translate(196,42)" height="280" width="280" y="0" x="0"/>
<use xlink:href="#use3961" transform="translate(196,56)" height="280" width="280" y="0" x="0"/>
<use xlink:href="#use3961" transform="translate(196,70)" height="280" width="280" y="0" x="0"/>
<use xlink:href="#use3961" transform="translate(196,84)" height="280" width="280" y="0" x="0"/>
<use xlink:href="#use3961" transform="translate(196,98)" height="280" width="280" y="0" x="0"/>
<use xlink:href="#use3961" transform="translate(196,112)" height="280" width="280" y="0" x="0"/>
<use xlink:href="#use3961" transform="translate(196,126)" height="280" width="280" y="0" x="0"/>
<use xlink:href="#use3961" transform="translate(196,140)" height="280" width="280" y="0" x="0"/>
<use xlink:href="#use3961" transform="translate(196,154)" height="280" width="280" y="0" x="0"/>
<use xlink:href="#use3961" transform="translate(196,168)" height="280" width="280" y="0" x="0"/>
<use xlink:href="#use3961" transform="translate(196,182)" height="280" width="280" y="0" x="0"/>
<use xlink:href="#use3961" transform="translate(196,196)" height="280" width="280" y="0" x="0"/>
<use xlink:href="#use3961" transform="translate(196,210)" height="280" width="280" y="0" x="0"/>
<use xlink:href="#use3961" transform="translate(196,224)" height="280" width="280" y="0" x="0"/>
<use xlink:href="#use3961" transform="translate(196,238)" height="280" width="280" y="0" x="0"/>
<use xlink:href="#use3961" transform="translate(196,252)" height="280" width="280" y="0" x="0"/>
<use xlink:href="#use3961" transform="translate(196,266)" height="280" width="280" y="0" x="0"/>
<use xlink:href="#use3961" transform="translate(210,0)" height="280" width="280" y="0" x="0"/>
<use xlink:href="#use3961" transform="translate(210,14)" height="280" width="280" y="0" x="0"/>
<use xlink:href="#use3961" transform="translate(210,28)" height="280" width="280" y="0" x="0"/>
<use xlink:href="#use3961" transform="translate(210,42)" height="280" width="280" y="0" x="0"/>
<use xlink:href="#use3961" transform="translate(210,56)" height="280" width="280" y="0" x="0"/>
<use xlink:href="#use3961" transform="translate(210,70)" height="280" width="280" y="0" x="0"/>
<use xlink:href="#use3961" transform="translate(210,84)" height="280" width="280" y="0" x="0"/>
<use xlink:href="#use3961" transform="translate(210,98)" height="280" width="280" y="0" x="0"/>
<use xlink:href="#use3961" transform="translate(210,112)" height="280" width="280" y="0" x="0"/>
<use xlink:href="#use3961" transform="translate(210,126)" height="280" width="280" y="0" x="0"/>
<use xlink:href="#use3961" transform="translate(210,140)" height="280" width="280" y="0" x="0"/>
<use xlink:href="#use3961" transform="translate(210,154)" height="280" width="280" y="0" x="0"/>
<use xlink:href="#use3961" transform="translate(210,168)" height="280" width="280" y="0" x="0"/>
<use xlink:href="#use3961" transform="translate(210,182)" height="280" width="280" y="0" x="0"/>
<use xlink:href="#use3961" transform="translate(210,196)" height="280" width="280" y="0" x="0"/>
<use xlink:href="#use3961" transform="translate(210,210)" height="280" width="280" y="0" x="0"/>
<use xlink:href="#use3961" transform="translate(210,224)" height="280" width="280" y="0" x="0"/>
<use xlink:href="#use3961" transform="translate(210,238)" height="280" width="280" y="0" x="0"/>
<use xlink:href="#use3961" transform="translate(210,252)" height="280" width="280" y="0" x="0"/>
<use xlink:href="#use3961" transform="translate(210,266)" height="280" width="280" y="0" x="0"/>
<use xlink:href="#use3961" transform="translate(224,0)" height="280" width="280" y="0" x="0"/>
<use xlink:href="#use3961" transform="translate(224,14)" height="280" width="280" y="0" x="0"/>
<use xlink:href="#use3961" transform="translate(224,28)" height="280" width="280" y="0" x="0"/>
<use xlink:href="#use3961" transform="translate(224,42)" height="280" width="280" y="0" x="0"/>
<use xlink:href="#use3961" transform="translate(224,56)" height="280" width="280" y="0" x="0"/>
<use xlink:href="#use3961" transform="translate(224,70)" height="280" width="280" y="0" x="0"/>
<use xlink:href="#use3961" transform="translate(224,84)" height="280" width="280" y="0" x="0"/>
<use xlink:href="#use3961" transform="translate(224,98)" height="280" width="280" y="0" x="0"/>
<use xlink:href="#use3961" transform="translate(224,112)" height="280" width="280" y="0" x="0"/>
<use xlink:href="#use3961" transform="translate(224,126)" height="280" width="280" y="0" x="0"/>
<use xlink:href="#use3961" transform="translate(224,140)" height="280" width="280" y="0" x="0"/>
<use xlink:href="#use3961" transform="translate(224,154)" height="280" width="280" y="0" x="0"/>
<use xlink:href="#use3961" transform="translate(224,168)" height="280" width="280" y="0" x="0"/>
<use xlink:href="#use3961" transform="translate(224,182)" height="280" width="280" y="0" x="0"/>
<use xlink:href="#use3961" transform="translate(224,196)" height="280" width="280" y="0" x="0"/>
<use xlink:href="#use3961" transform="translate(224,210)" height="280" width="280" y="0" x="0"/>
<use xlink:href="#use3961" transform="translate(224,224)" height="280" width="280" y="0" x="0"/>
<use xlink:href="#use3961" transform="translate(224,238)" height="280" width="280" y="0" x="0"/>
<use xlink:href="#use3961" transform="translate(224,252)" height="280" width="280" y="0" x="0"/>
<use xlink:href="#use3961" transform="translate(224,266)" height="280" width="280" y="0" x="0"/>
<use xlink:href="#use3961" transform="translate(238,0)" height="280" width="280" y="0" x="0"/>
<use xlink:href="#use3961" transform="translate(238,14)" height="280" width="280" y="0" x="0"/>
<use xlink:href="#use3961" transform="translate(238,28)" height="280" width="280" y="0" x="0"/>
<use xlink:href="#use3961" transform="translate(238,42)" height="280" width="280" y="0" x="0"/>
<use xlink:href="#use3961" transform="translate(238,56)" height="280" width="280" y="0" x="0"/>
<use xlink:href="#use3961" transform="translate(238,70)" height="280" width="280" y="0" x="0"/>
<use xlink:href="#use3961" transform="translate(238,84)" height="280" width="280" y="0" x="0"/>
<use xlink:href="#use3961" transform="translate(238,98)" height="280" width="280" y="0" x="0"/>
<use xlink:href="#use3961" transform="translate(238,112)" height="280" width="280" y="0" x="0"/>
<use xlink:href="#use3961" transform="translate(238,126)" height="280" width="280" y="0" x="0"/>
<use xlink:href="#use3961" transform="translate(238,140)" height="280" width="280" y="0" x="0"/>
<use xlink:href="#use3961" transform="translate(238,154)" height="280" width="280" y="0" x="0"/>
<use xlink:href="#use3961" transform="translate(238,168)" height="280" width="280" y="0" x="0"/>
<use xlink:href="#use3961" transform="translate(238,182)" height="280" width="280" y="0" x="0"/>
<use xlink:href="#use3961" transform="translate(238,196)" height="280" width="280" y="0" x="0"/>
<use xlink:href="#use3961" transform="translate(238,210)" height="280" width="280" y="0" x="0"/>
<use xlink:href="#use3961" transform="translate(238,224)" height="280" width="280" y="0" x="0"/>
<use xlink:href="#use3961" transform="translate(238,238)" height="280" width="280" y="0" x="0"/>
<use xlink:href="#use3961" transform="translate(238,252)" height="280" width="280" y="0" x="0"/>
<use xlink:href="#use3961" transform="translate(238,266)" height="280" width="280" y="0" x="0"/>
<use xlink:href="#use3961" transform="translate(252,0)" height="280" width="280" y="0" x="0"/>
<use xlink:href="#use3961" transform="translate(252,14)" height="280" width="280" y="0" x="0"/>
<use xlink:href="#use3961" transform="translate(252,28)" height="280" width="280" y="0" x="0"/>
<use xlink:href="#use3961" transform="translate(252,42)" height="280" width="280" y="0" x="0"/>
<use xlink:href="#use3961" transform="translate(252,56)" height="280" width="280" y="0" x="0"/>
<use xlink:href="#use3961" transform="translate(252,70)" height="280" width="280" y="0" x="0"/>
<use xlink:href="#use3961" transform="translate(252,84)" height="280" width="280" y="0" x="0"/>
<use xlink:href="#use3961" transform="translate(252,98)" height="280" width="280" y="0" x="0"/>
<use xlink:href="#use3961" transform="translate(252,112)" height="280" width="280" y="0" x="0"/>
<use xlink:href="#use3961" transform="translate(252,126)" height="280" width="280" y="0" x="0"/>
<use xlink:href="#use3961" transform="translate(252,140)" height="280" width="280" y="0" x="0"/>
<use xlink:href="#use3961" transform="translate(252,154)" height="280" width="280" y="0" x="0"/>
<use xlink:href="#use3961" transform="translate(252,168)" height="280" width="280" y="0" x="0"/>
<use xlink:href="#use3961" transform="translate(252,182)" height="280" width="280" y="0" x="0"/>
<use xlink:href="#use3961" transform="translate(252,196)" height="280" width="280" y="0" x="0"/>
<use xlink:href="#use3961" transform="translate(252,210)" height="280" width="280" y="0" x="0"/>
<use xlink:href="#use3961" transform="translate(252,224)" height="280" width="280" y="0" x="0"/>
<use xlink:href="#use3961" transform="translate(252,238)" height="280" width="280" y="0" x="0"/>
<use xlink:href="#use3961" transform="translate(252,252)" height="280" width="280" y="0" x="0"/>
<use xlink:href="#use3961" transform="translate(252,266)" height="280" width="280" y="0" x="0"/>
<use xlink:href="#use3961" transform="translate(266,0)" height="280" width="280" y="0" x="0"/>
<use xlink:href="#use3961" transform="translate(266,14)" height="280" width="280" y="0" x="0"/>
<use xlink:href="#use3961" transform="translate(266,28)" height="280" width="280" y="0" x="0"/>
<use xlink:href="#use3961" transform="translate(266,42)" height="280" width="280" y="0" x="0"/>
<use xlink:href="#use3961" transform="translate(266,56)" height="280" width="280" y="0" x="0"/>
<use xlink:href="#use3961" transform="translate(266,70)" height="280" width="280" y="0" x="0"/>
<use xlink:href="#use3961" transform="translate(266,84)" height="280" width="280" y="0" x="0"/>
<use xlink:href="#use3961" transform="translate(266,98)" height="280" width="280" y="0" x="0"/>
<use xlink:href="#use3961" transform="translate(266,112)" height="280" width="280" y="0" x="0"/>
<use xlink:href="#use3961" transform="translate(266,126)" height="280" width="280" y="0" x="0"/>
<use xlink:href="#use3961" transform="translate(266,140)" height="280" width="280" y="0" x="0"/>
<use xlink:href="#use3961" transform="translate(266,154)" height="280" width="280" y="0" x="0"/>
<use xlink:href="#use3961" transform="translate(266,168)" height="280" width="280" y="0" x="0"/>
<use xlink:href="#use3961" transform="translate(266,182)" height="280" width="280" y="0" x="0"/>
<use xlink:href="#use3961" transform="translate(266,196)" height="280" width="280" y="0" x="0"/>
<use xlink:href="#use3961" transform="translate(266,210)" height="280" width="280" y="0" x="0"/>
<use xlink:href="#use3961" transform="translate(266,224)" height="280" width="280" y="0" x="0"/>
<use xlink:href="#use3961" transform="translate(266,238)" height="280" width="280" y="0" x="0"/>
<use xlink:href="#use3961" transform="translate(266,252)" height="280" width="280" y="0" x="0"/>
<use xlink:href="#use3961" transform="translate(266,266)" height="280" width="280" y="0" x="0"/>
<path fill-rule="evenodd" d="m10,273a3,3,0,0,1,-6,0,3,3,0,1,1,6,0z" fill="#00c000"/>
<path fill-rule="evenodd" d="m6.78,4a3,3,0,0,0,-2.78,3,3,3,0,0,0,6,0,3,3,0,0,0,-3.22,-3z" fill="#0073cf"/>
<path fill-rule="evenodd" d="m276,7a3,3,0,0,1,-6,0,3,3,0,1,1,6,0z" fill="#ebcd23"/>
<path fill-rule="evenodd" d="m276,273a3,3,0,0,1,-6,0,3,3,0,1,1,6,0z" fill="#e63e2c"/>
</svg>
