<?xml version="1.0" encoding="UTF-8" standalone="no"?>
<!-- Created with Inkscape (http://www.inkscape.org/) -->
<svg xmlns:rdf="http://www.w3.org/1999/02/22-rdf-syntax-ns#" xmlns="http://www.w3.org/2000/svg" height="280" width="280" version="1.1" xmlns:cc="http://creativecommons.org/ns#" xmlns:xlink="http://www.w3.org/1999/xlink" xmlns:dc="http://purl.org/dc/elements/1.1/">
<metadata>
<rdf:RDF>
<cc:Work rdf:about="">
<dc:format>image/svg+xml</dc:format>
<dc:type rdf:resource="http://purl.org/dc/dcmitype/StillImage"/>
<dc:title/>
</cc:Work>
</rdf:RDF>
</metadata>
<path d="m0,0,280,0,0,280-280,0z" fill="#9a9298"/>
<g id="x" transform="translate(85.871994,-902.9029)" fill-opacity="0.23529412">
<path d="m-65.9,903-20,0,0,20,1-1,0-18,18,0z" fill="#000"/>
<path d="m-65.9,903-1,1,0,18-18,0-1,1,20,0z" fill="#FFF"/>
</g>
<use xlink:href="#x" transform="translate(0,20)"/>
<use xlink:href="#x" transform="translate(0,40)"/>
<use xlink:href="#x" transform="translate(0,60)"/>
<use xlink:href="#x" transform="translate(0,80)"/>
<use xlink:href="#x" transform="translate(0,100)"/>
<use xlink:href="#x" transform="translate(0,120)"/>
<use xlink:href="#x" transform="translate(0,140)"/>
<use xlink:href="#x" transform="translate(0,160)"/>
<use xlink:href="#x" transform="translate(0,180)"/>
<use xlink:href="#x" transform="translate(0,200)"/>
<use xlink:href="#x" transform="translate(0,220)"/>
<use xlink:href="#x" transform="translate(0,240)"/>
<use xlink:href="#x" transform="translate(0,260)"/>
<use xlink:href="#x" transform="translate(20,0)"/>
<use xlink:href="#x" transform="translate(20,20)"/>
<use xlink:href="#x" transform="translate(20,40)"/>
<use xlink:href="#x" transform="translate(20,60)"/>
<use xlink:href="#x" transform="translate(20,80)"/>
<use xlink:href="#x" transform="translate(20,100)"/>
<use xlink:href="#x" transform="translate(20,120)"/>
<use xlink:href="#x" transform="translate(20,140)"/>
<use xlink:href="#x" transform="translate(20,160)"/>
<use xlink:href="#x" transform="translate(20,180)"/>
<use xlink:href="#x" transform="translate(20,200)"/>
<use xlink:href="#x" transform="translate(20,220)"/>
<use xlink:href="#x" transform="translate(20,240)"/>
<use xlink:href="#x" transform="translate(20,260)"/>
<use xlink:href="#x" transform="translate(40,0)"/>
<use xlink:href="#x" transform="translate(40,20)"/>
<use xlink:href="#x" transform="translate(40,40)"/>
<use xlink:href="#x" transform="translate(40,60)"/>
<use xlink:href="#x" transform="translate(40,80)"/>
<use xlink:href="#x" transform="translate(40,100)"/>
<use xlink:href="#x" transform="translate(40,120)"/>
<use xlink:href="#x" transform="translate(40,140)"/>
<use xlink:href="#x" transform="translate(40,160)"/>
<use xlink:href="#x" transform="translate(40,180)"/>
<use xlink:href="#x" transform="translate(40,200)"/>
<use xlink:href="#x" transform="translate(40,220)"/>
<use xlink:href="#x" transform="translate(40,240)"/>
<use xlink:href="#x" transform="translate(40,260)"/>
<use xlink:href="#x" transform="translate(60,0)"/>
<use xlink:href="#x" transform="translate(60,20)"/>
<use xlink:href="#x" transform="translate(60,40)"/>
<use xlink:href="#x" transform="translate(60,60)"/>
<use xlink:href="#x" transform="translate(60,80)"/>
<use xlink:href="#x" transform="translate(60,100)"/>
<use xlink:href="#x" transform="translate(60,120)"/>
<use xlink:href="#x" transform="translate(60,140)"/>
<use xlink:href="#x" transform="translate(60,160)"/>
<use xlink:href="#x" transform="translate(60,180)"/>
<use xlink:href="#x" transform="translate(60,200)"/>
<use xlink:href="#x" transform="translate(60,220)"/>
<use xlink:href="#x" transform="translate(60,240)"/>
<use xlink:href="#x" transform="translate(60,260)"/>
<use xlink:href="#x" transform="translate(80,0)"/>
<use xlink:href="#x" transform="translate(80,20)"/>
<use xlink:href="#x" transform="translate(80,40)"/>
<use xlink:href="#x" transform="translate(80,60)"/>
<use xlink:href="#x" transform="translate(80,80)"/>
<use xlink:href="#x" transform="translate(80,100)"/>
<use xlink:href="#x" transform="translate(80,120)"/>
<use xlink:href="#x" transform="translate(80,140)"/>
<use xlink:href="#x" transform="translate(80,160)"/>
<use xlink:href="#x" transform="translate(80,180)"/>
<use xlink:href="#x" transform="translate(80,200)"/>
<use xlink:href="#x" transform="translate(80,220)"/>
<use xlink:href="#x" transform="translate(80,240)"/>
<use xlink:href="#x" transform="translate(80,260)"/>
<use xlink:href="#x" transform="translate(100,0)"/>
<use xlink:href="#x" transform="translate(100,20)"/>
<use xlink:href="#x" transform="translate(100,40)"/>
<use xlink:href="#x" transform="translate(100,60)"/>
<use xlink:href="#x" transform="translate(100,80)"/>
<use xlink:href="#x" transform="translate(100,100)"/>
<use xlink:href="#x" transform="translate(100,120)"/>
<use xlink:href="#x" transform="translate(100,140)"/>
<use xlink:href="#x" transform="translate(100,160)"/>
<use xlink:href="#x" transform="translate(100,180)"/>
<use xlink:href="#x" transform="translate(100,200)"/>
<use xlink:href="#x" transform="translate(100,220)"/>
<use xlink:href="#x" transform="translate(100,240)"/>
<use xlink:href="#x" transform="translate(100,260)"/>
<use xlink:href="#x" transform="translate(120,0)"/>
<use xlink:href="#x" transform="translate(120,20)"/>
<use xlink:href="#x" transform="translate(120,40)"/>
<use xlink:href="#x" transform="translate(120,60)"/>
<use xlink:href="#x" transform="translate(120,80)"/>
<use xlink:href="#x" transform="translate(120,100)"/>
<use xlink:href="#x" transform="translate(120,120)"/>
<use xlink:href="#x" transform="translate(120,140)"/>
<use xlink:href="#x" transform="translate(120,160)"/>
<use xlink:href="#x" transform="translate(120,180)"/>
<use xlink:href="#x" transform="translate(120,200)"/>
<use xlink:href="#x" transform="translate(120,220)"/>
<use xlink:href="#x" transform="translate(120,240)"/>
<use xlink:href="#x" transform="translate(120,260)"/>
<use xlink:href="#x" transform="translate(140,0)"/>
<use xlink:href="#x" transform="translate(140,20)"/>
<use xlink:href="#x" transform="translate(140,40)"/>
<use xlink:href="#x" transform="translate(140,60)"/>
<use xlink:href="#x" transform="translate(140,80)"/>
<use xlink:href="#x" transform="translate(140,100)"/>
<use xlink:href="#x" transform="translate(140,120)"/>
<use xlink:href="#x" transform="translate(140,140)"/>
<use xlink:href="#x" transform="translate(140,160)"/>
<use xlink:href="#x" transform="translate(140,180)"/>
<use xlink:href="#x" transform="translate(140,200)"/>
<use xlink:href="#x" transform="translate(140,220)"/>
<use xlink:href="#x" transform="translate(140,240)"/>
<use xlink:href="#x" transform="translate(140,260)"/>
<use xlink:href="#x" transform="translate(160,0)"/>
<use xlink:href="#x" transform="translate(160,20)"/>
<use xlink:href="#x" transform="translate(160,40)"/>
<use xlink:href="#x" transform="translate(160,60)"/>
<use xlink:href="#x" transform="translate(160,80)"/>
<use xlink:href="#x" transform="translate(160,100)"/>
<use xlink:href="#x" transform="translate(160,120)"/>
<use xlink:href="#x" transform="translate(160,140)"/>
<use xlink:href="#x" transform="translate(160,160)"/>
<use xlink:href="#x" transform="translate(160,180)"/>
<use xlink:href="#x" transform="translate(160,200)"/>
<use xlink:href="#x" transform="translate(160,220)"/>
<use xlink:href="#x" transform="translate(160,240)"/>
<use xlink:href="#x" transform="translate(160,260)"/>
<use xlink:href="#x" transform="translate(180,0)"/>
<use xlink:href="#x" transform="translate(180,20)"/>
<use xlink:href="#x" transform="translate(180,40)"/>
<use xlink:href="#x" transform="translate(180,60)"/>
<use xlink:href="#x" transform="translate(180,80)"/>
<use xlink:href="#x" transform="translate(180,100)"/>
<use xlink:href="#x" transform="translate(180,120)"/>
<use xlink:href="#x" transform="translate(180,140)"/>
<use xlink:href="#x" transform="translate(180,160)"/>
<use xlink:href="#x" transform="translate(180,180)"/>
<use xlink:href="#x" transform="translate(180,200)"/>
<use xlink:href="#x" transform="translate(180,220)"/>
<use xlink:href="#x" transform="translate(180,240)"/>
<use xlink:href="#x" transform="translate(180,260)"/>
<use xlink:href="#x" transform="translate(200,0)"/>
<use xlink:href="#x" transform="translate(200,20)"/>
<use xlink:href="#x" transform="translate(200,40)"/>
<use xlink:href="#x" transform="translate(200,60)"/>
<use xlink:href="#x" transform="translate(200,80)"/>
<use xlink:href="#x" transform="translate(200,100)"/>
<use xlink:href="#x" transform="translate(200,120)"/>
<use xlink:href="#x" transform="translate(200,140)"/>
<use xlink:href="#x" transform="translate(200,160)"/>
<use xlink:href="#x" transform="translate(200,180)"/>
<use xlink:href="#x" transform="translate(200,200)"/>
<use xlink:href="#x" transform="translate(200,220)"/>
<use xlink:href="#x" transform="translate(200,240)"/>
<use xlink:href="#x" transform="translate(200,260)"/>
<use xlink:href="#x" transform="translate(220,0)"/>
<use xlink:href="#x" transform="translate(220,20)"/>
<use xlink:href="#x" transform="translate(220,40)"/>
<use xlink:href="#x" transform="translate(220,60)"/>
<use xlink:href="#x" transform="translate(220,80)"/>
<use xlink:href="#x" transform="translate(220,100)"/>
<use xlink:href="#x" transform="translate(220,120)"/>
<use xlink:href="#x" transform="translate(220,140)"/>
<use xlink:href="#x" transform="translate(220,160)"/>
<use xlink:href="#x" transform="translate(220,180)"/>
<use xlink:href="#x" transform="translate(220,200)"/>
<use xlink:href="#x" transform="translate(220,220)"/>
<use xlink:href="#x" transform="translate(220,240)"/>
<use xlink:href="#x" transform="translate(220,260)"/>
<use xlink:href="#x" transform="translate(240,0)"/>
<use xlink:href="#x" transform="translate(240,20)"/>
<use xlink:href="#x" transform="translate(240,40)"/>
<use xlink:href="#x" transform="translate(240,60)"/>
<use xlink:href="#x" transform="translate(240,80)"/>
<use xlink:href="#x" transform="translate(240,100)"/>
<use xlink:href="#x" transform="translate(240,120)"/>
<use xlink:href="#x" transform="translate(240,140)"/>
<use xlink:href="#x" transform="translate(240,160)"/>
<use xlink:href="#x" transform="translate(240,180)"/>
<use xlink:href="#x" transform="translate(240,200)"/>
<use xlink:href="#x" transform="translate(240,220)"/>
<use xlink:href="#x" transform="translate(240,240)"/>
<use xlink:href="#x" transform="translate(240,260)"/>
<use xlink:href="#x" transform="translate(260,0)"/>
<use xlink:href="#x" transform="translate(260,20)"/>
<use xlink:href="#x" transform="translate(260,40)"/>
<use xlink:href="#x" transform="translate(260,60)"/>
<use xlink:href="#x" transform="translate(260,80)"/>
<use xlink:href="#x" transform="translate(260,100)"/>
<use xlink:href="#x" transform="translate(260,120)"/>
<use xlink:href="#x" transform="translate(260,140)"/>
<use xlink:href="#x" transform="translate(260,160)"/>
<use xlink:href="#x" transform="translate(260,180)"/>
<use xlink:href="#x" transform="translate(260,200)"/>
<use xlink:href="#x" transform="translate(260,220)"/>
<use xlink:href="#x" transform="translate(260,240)"/>
<use xlink:href="#x" transform="translate(260,260)"/>
<path fill="#0073cf" d="m94,90a4,4,0,0,1,-8,0,4,4,0,1,1,8,0z" fill-rule="evenodd"/>
<path fill="#00c000" d="m194,190a4,4,0,0,1,-8,0,4,4,0,1,1,8,0z" fill-rule="evenodd"/>
</svg>
