<?xml version="1.0" encoding="UTF-8" standalone="no"?>
<svg xmlns:rdf="http://www.w3.org/1999/02/22-rdf-syntax-ns#" xmlns="http://www.w3.org/2000/svg" height="360" width="360" version="1.1" xmlns:cc="http://creativecommons.org/ns#" xmlns:xlink="http://www.w3.org/1999/xlink" xmlns:dc="http://purl.org/dc/elements/1.1/">
<path d="m90 0-90 180 90 180h180l90-180-90-180z" fill="#9a9298"/>
<g id="c">
<path d="m80 20 1.732-1.155l8.268-16.845v-2z" fill="#767074"/>
<path d="m80 20h20l-10-20v2l8.27 16.845h-16.538z" fill="#B2ACB0"/>
</g>
<g id="d">
<path d="m110 0-1.732 1.155l-8.268 16.845v2z" fill="#B2ACB0"/>
<path d="m110 0h-20l10 20v-2l-8.27-16.845h16.538z" fill="#767074"/>
</g>
<use xlink:href="#d" x="-90" y="180"/>
<use xlink:href="#d" x="-80" y="200"/>
<use xlink:href="#d" x="-70" y="140"/>
<use xlink:href="#d" x="-80" y="160"/>
<use xlink:href="#d" x="-70" y="180"/>
<use xlink:href="#d" x="-60" y="200"/>
<use xlink:href="#d" x="-70" y="220"/>
<use xlink:href="#d" x="-60" y="240"/>
<use xlink:href="#d" x="-50" y="100"/>
<use xlink:href="#d" x="-60" y="120"/>
<use xlink:href="#d" x="-50" y="140"/>
<use xlink:href="#d" x="-60" y="160"/>
<use xlink:href="#d" x="-50" y="180"/>
<use xlink:href="#d" x="-40" y="200"/>
<use xlink:href="#d" x="-50" y="220"/>
<use xlink:href="#d" x="-40" y="240"/>
<use xlink:href="#d" x="-50" y="260"/>
<use xlink:href="#d" x="-40" y="280"/>
<use xlink:href="#d" x="-30" y="60"/>
<use xlink:href="#d" x="-40" y="80"/>
<use xlink:href="#d" x="-30" y="100"/>
<use xlink:href="#d" x="-40" y="120"/>
<use xlink:href="#d" x="-30" y="140"/>
<use xlink:href="#d" x="-40" y="160"/>
<use xlink:href="#d" x="-30" y="180"/>
<use xlink:href="#d" x="-20" y="200"/>
<use xlink:href="#d" x="-30" y="220"/>
<use xlink:href="#d" x="-20" y="240"/>
<use xlink:href="#d" x="-30" y="260"/>
<use xlink:href="#d" x="-20" y="280"/>
<use xlink:href="#d" x="-30" y="300"/>
<use xlink:href="#d" x="-20" y="320"/>
<use xlink:href="#d" x="-10" y="20"/>
<use xlink:href="#d" x="-20" y="40"/>
<use xlink:href="#d" x="-10" y="60"/>
<use xlink:href="#d" x="-20" y="80"/>
<use xlink:href="#d" x="-10" y="100"/>
<use xlink:href="#d" x="-20" y="120"/>
<use xlink:href="#d" x="-10" y="140"/>
<use xlink:href="#d" x="-20" y="160"/>
<use xlink:href="#d" x="-10" y="180"/>
<use xlink:href="#d" y="200"/>
<use xlink:href="#d" x="-10" y="220"/>
<use xlink:href="#d" y="240"/>
<use xlink:href="#d" x="-10" y="260"/>
<use xlink:href="#d" y="280"/>
<use xlink:href="#d" x="-10" y="300"/>
<use xlink:href="#d" y="320"/>
<use xlink:href="#d" x="-10" y="340"/>
<use xlink:href="#d" x="10" y="20"/>
<use xlink:href="#d" y="40"/>
<use xlink:href="#d" x="10" y="60"/>
<use xlink:href="#d" y="80"/>
<use xlink:href="#d" x="10" y="100"/>
<use xlink:href="#d" y="120"/>
<use xlink:href="#d" x="10" y="140"/>
<use xlink:href="#d" y="160"/>
<use xlink:href="#d" x="10" y="180"/>
<use xlink:href="#d" x="20" y="200"/>
<use xlink:href="#d" x="10" y="220"/>
<use xlink:href="#d" x="20" y="240"/>
<use xlink:href="#d" x="10" y="260"/>
<use xlink:href="#d" x="20" y="280"/>
<use xlink:href="#d" x="10" y="300"/>
<use xlink:href="#d" x="20" y="320"/>
<use xlink:href="#d" x="10" y="340"/>
<use xlink:href="#d" x="20"/>
<use xlink:href="#d" x="30" y="20"/>
<use xlink:href="#d" x="20" y="40"/>
<use xlink:href="#d" x="30" y="60"/>
<use xlink:href="#d" x="20" y="80"/>
<use xlink:href="#d" x="30" y="100"/>
<use xlink:href="#d" x="20" y="120"/>
<use xlink:href="#d" x="30" y="140"/>
<use xlink:href="#d" x="20" y="160"/>
<use xlink:href="#d" x="30" y="180"/>
<use xlink:href="#d" x="40" y="200"/>
<use xlink:href="#d" x="30" y="220"/>
<use xlink:href="#d" x="40" y="240"/>
<use xlink:href="#d" x="30" y="260"/>
<use xlink:href="#d" x="40" y="280"/>
<use xlink:href="#d" x="30" y="300"/>
<use xlink:href="#d" x="40" y="320"/>
<use xlink:href="#d" x="30" y="340"/>
<use xlink:href="#d" x="40"/>
<use xlink:href="#d" x="50" y="20"/>
<use xlink:href="#d" x="40" y="40"/>
<use xlink:href="#d" x="50" y="60"/>
<use xlink:href="#d" x="40" y="80"/>
<use xlink:href="#d" x="50" y="100"/>
<use xlink:href="#d" x="40" y="120"/>
<use xlink:href="#d" x="50" y="140"/>
<use xlink:href="#d" x="40" y="160"/>
<use xlink:href="#d" x="50" y="180"/>
<use xlink:href="#d" x="60" y="200"/>
<use xlink:href="#d" x="50" y="220"/>
<use xlink:href="#d" x="60" y="240"/>
<use xlink:href="#d" x="50" y="260"/>
<use xlink:href="#d" x="60" y="280"/>
<use xlink:href="#d" x="50" y="300"/>
<use xlink:href="#d" x="60" y="320"/>
<use xlink:href="#d" x="50" y="340"/>
<use xlink:href="#d" x="60"/>
<use xlink:href="#d" x="70" y="20"/>
<use xlink:href="#d" x="60" y="40"/>
<use xlink:href="#d" x="70" y="60"/>
<use xlink:href="#d" x="60" y="80"/>
<use xlink:href="#d" x="70" y="100"/>
<use xlink:href="#d" x="60" y="120"/>
<use xlink:href="#d" x="70" y="140"/>
<use xlink:href="#d" x="60" y="160"/>
<use xlink:href="#d" x="70" y="180"/>
<use xlink:href="#d" x="80" y="200"/>
<use xlink:href="#d" x="70" y="220"/>
<use xlink:href="#d" x="80" y="240"/>
<use xlink:href="#d" x="70" y="260"/>
<use xlink:href="#d" x="80" y="280"/>
<use xlink:href="#d" x="70" y="300"/>
<use xlink:href="#d" x="80" y="320"/>
<use xlink:href="#d" x="70" y="340"/>
<use xlink:href="#d" x="80"/>
<use xlink:href="#d" x="90" y="20"/>
<use xlink:href="#d" x="80" y="40"/>
<use xlink:href="#d" x="90" y="60"/>
<use xlink:href="#d" x="80" y="80"/>
<use xlink:href="#d" x="90" y="100"/>
<use xlink:href="#d" x="80" y="120"/>
<use xlink:href="#d" x="90" y="140"/>
<use xlink:href="#d" x="80" y="160"/>
<use xlink:href="#d" x="90" y="180"/>
<use xlink:href="#d" x="100" y="200"/>
<use xlink:href="#d" x="90" y="220"/>
<use xlink:href="#d" x="100" y="240"/>
<use xlink:href="#d" x="90" y="260"/>
<use xlink:href="#d" x="100" y="280"/>
<use xlink:href="#d" x="90" y="300"/>
<use xlink:href="#d" x="100" y="320"/>
<use xlink:href="#d" x="90" y="340"/>
<use xlink:href="#d" x="100"/>
<use xlink:href="#d" x="110" y="20"/>
<use xlink:href="#d" x="100" y="40"/>
<use xlink:href="#d" x="110" y="60"/>
<use xlink:href="#d" x="100" y="80"/>
<use xlink:href="#d" x="110" y="100"/>
<use xlink:href="#d" x="100" y="120"/>
<use xlink:href="#d" x="110" y="140"/>
<use xlink:href="#d" x="100" y="160"/>
<use xlink:href="#d" x="110" y="180"/>
<use xlink:href="#d" x="120" y="200"/>
<use xlink:href="#d" x="110" y="220"/>
<use xlink:href="#d" x="120" y="240"/>
<use xlink:href="#d" x="110" y="260"/>
<use xlink:href="#d" x="120" y="280"/>
<use xlink:href="#d" x="110" y="300"/>
<use xlink:href="#d" x="120" y="320"/>
<use xlink:href="#d" x="110" y="340"/>
<use xlink:href="#d" x="120"/>
<use xlink:href="#d" x="130" y="20"/>
<use xlink:href="#d" x="120" y="40"/>
<use xlink:href="#d" x="130" y="60"/>
<use xlink:href="#d" x="120" y="80"/>
<use xlink:href="#d" x="130" y="100"/>
<use xlink:href="#d" x="120" y="120"/>
<use xlink:href="#d" x="130" y="140"/>
<use xlink:href="#d" x="120" y="160"/>
<use xlink:href="#d" x="130" y="180"/>
<use xlink:href="#d" x="140" y="200"/>
<use xlink:href="#d" x="130" y="220"/>
<use xlink:href="#d" x="140" y="240"/>
<use xlink:href="#d" x="130" y="260"/>
<use xlink:href="#d" x="140" y="280"/>
<use xlink:href="#d" x="130" y="300"/>
<use xlink:href="#d" x="140" y="320"/>
<use xlink:href="#d" x="130" y="340"/>
<use xlink:href="#d" x="140"/>
<use xlink:href="#d" x="150" y="20"/>
<use xlink:href="#d" x="140" y="40"/>
<use xlink:href="#d" x="150" y="60"/>
<use xlink:href="#d" x="140" y="80"/>
<use xlink:href="#d" x="150" y="100"/>
<use xlink:href="#d" x="140" y="120"/>
<use xlink:href="#d" x="150" y="140"/>
<use xlink:href="#d" x="140" y="160"/>
<use xlink:href="#d" x="150" y="180"/>
<use xlink:href="#d" x="160" y="200"/>
<use xlink:href="#d" x="150" y="220"/>
<use xlink:href="#d" x="160" y="240"/>
<use xlink:href="#d" x="150" y="260"/>
<use xlink:href="#d" x="160" y="280"/>
<use xlink:href="#d" x="150" y="300"/>
<use xlink:href="#d" x="160" y="320"/>
<use xlink:href="#d" x="150" y="340"/>
<use xlink:href="#d" x="160"/>
<use xlink:href="#d" x="170" y="20"/>
<use xlink:href="#d" x="160" y="40"/>
<use xlink:href="#d" x="170" y="60"/>
<use xlink:href="#d" x="160" y="80"/>
<use xlink:href="#d" x="170" y="100"/>
<use xlink:href="#d" x="160" y="120"/>
<use xlink:href="#d" x="170" y="140"/>
<use xlink:href="#d" x="160" y="160"/>
<use xlink:href="#d" x="170" y="180"/>
<use xlink:href="#d" x="180" y="200"/>
<use xlink:href="#d" x="170" y="220"/>
<use xlink:href="#d" x="180" y="240"/>
<use xlink:href="#d" x="170" y="260"/>
<use xlink:href="#d" x="180" y="280"/>
<use xlink:href="#d" x="170" y="300"/>
<use xlink:href="#d" x="180" y="320"/>
<use xlink:href="#d" x="170" y="340"/>
<use xlink:href="#d" x="180" y="40"/>
<use xlink:href="#d" x="190" y="60"/>
<use xlink:href="#d" x="180" y="80"/>
<use xlink:href="#d" x="190" y="100"/>
<use xlink:href="#d" x="180" y="120"/>
<use xlink:href="#d" x="190" y="140"/>
<use xlink:href="#d" x="180" y="160"/>
<use xlink:href="#d" x="190" y="180"/>
<use xlink:href="#d" x="200" y="200"/>
<use xlink:href="#d" x="190" y="220"/>
<use xlink:href="#d" x="200" y="240"/>
<use xlink:href="#d" x="190" y="260"/>
<use xlink:href="#d" x="200" y="280"/>
<use xlink:href="#d" x="190" y="300"/>
<use xlink:href="#d" x="200" y="80"/>
<use xlink:href="#d" x="210" y="100"/>
<use xlink:href="#d" x="200" y="120"/>
<use xlink:href="#d" x="210" y="140"/>
<use xlink:href="#d" x="200" y="160"/>
<use xlink:href="#d" x="210" y="180"/>
<use xlink:href="#d" x="220" y="200"/>
<use xlink:href="#d" x="210" y="220"/>
<use xlink:href="#d" x="220" y="240"/>
<use xlink:href="#d" x="210" y="260"/>
<use xlink:href="#d" x="220" y="120"/>
<use xlink:href="#d" x="230" y="140"/>
<use xlink:href="#d" x="220" y="160"/>
<use xlink:href="#d" x="230" y="180"/>
<use xlink:href="#d" x="240" y="200"/>
<use xlink:href="#d" x="230" y="220"/>
<use xlink:href="#d" x="240" y="160"/>
<use xlink:href="#d" x="250" y="180"/>
<use xlink:href="#c" x="-70" y="140"/>
<use xlink:href="#c" x="-80" y="160"/>
<use xlink:href="#c" x="-70" y="180"/>
<use xlink:href="#c" x="-60" y="200"/>
<use xlink:href="#c" x="-50" y="100"/>
<use xlink:href="#c" x="-60" y="120"/>
<use xlink:href="#c" x="-50" y="140"/>
<use xlink:href="#c" x="-60" y="160"/>
<use xlink:href="#c" x="-50" y="180"/>
<use xlink:href="#c" x="-40" y="200"/>
<use xlink:href="#c" x="-50" y="220"/>
<use xlink:href="#c" x="-40" y="240"/>
<use xlink:href="#c" x="-30" y="60"/>
<use xlink:href="#c" x="-40" y="80"/>
<use xlink:href="#c" x="-30" y="100"/>
<use xlink:href="#c" x="-40" y="120"/>
<use xlink:href="#c" x="-30" y="140"/>
<use xlink:href="#c" x="-40" y="160"/>
<use xlink:href="#c" x="-30" y="180"/>
<use xlink:href="#c" x="-20" y="200"/>
<use xlink:href="#c" x="-30" y="220"/>
<use xlink:href="#c" x="-20" y="240"/>
<use xlink:href="#c" x="-30" y="260"/>
<use xlink:href="#c" x="-20" y="280"/>
<use xlink:href="#c" x="-10" y="20"/>
<use xlink:href="#c" x="-20" y="40"/>
<use xlink:href="#c" x="-10" y="60"/>
<use xlink:href="#c" x="-20" y="80"/>
<use xlink:href="#c" x="-10" y="100"/>
<use xlink:href="#c" x="-20" y="120"/>
<use xlink:href="#c" x="-10" y="140"/>
<use xlink:href="#c" x="-20" y="160"/>
<use xlink:href="#c" x="-10" y="180"/>
<use xlink:href="#c" y="200"/>
<use xlink:href="#c" x="-10" y="220"/>
<use xlink:href="#c" y="240"/>
<use xlink:href="#c" x="-10" y="260"/>
<use xlink:href="#c" y="280"/>
<use xlink:href="#c" x="-10" y="300"/>
<use xlink:href="#c" y="320"/>
<use xlink:href="#c" x="10" y="20"/>
<use xlink:href="#c" y="40"/>
<use xlink:href="#c" x="10" y="60"/>
<use xlink:href="#c" y="80"/>
<use xlink:href="#c" x="10" y="100"/>
<use xlink:href="#c" y="120"/>
<use xlink:href="#c" x="10" y="140"/>
<use xlink:href="#c" y="160"/>
<use xlink:href="#c" x="10" y="180"/>
<use xlink:href="#c" x="20" y="200"/>
<use xlink:href="#c" x="10" y="220"/>
<use xlink:href="#c" x="20" y="240"/>
<use xlink:href="#c" x="10" y="260"/>
<use xlink:href="#c" x="20" y="280"/>
<use xlink:href="#c" x="10" y="300"/>
<use xlink:href="#c" x="20" y="320"/>
<use xlink:href="#c" x="10" y="340"/>
<use xlink:href="#c" x="20"/>
<use xlink:href="#c" x="30" y="20"/>
<use xlink:href="#c" x="20" y="40"/>
<use xlink:href="#c" x="30" y="60"/>
<use xlink:href="#c" x="20" y="80"/>
<use xlink:href="#c" x="30" y="100"/>
<use xlink:href="#c" x="20" y="120"/>
<use xlink:href="#c" x="30" y="140"/>
<use xlink:href="#c" x="20" y="160"/>
<use xlink:href="#c" x="30" y="180"/>
<use xlink:href="#c" x="40" y="200"/>
<use xlink:href="#c" x="30" y="220"/>
<use xlink:href="#c" x="40" y="240"/>
<use xlink:href="#c" x="30" y="260"/>
<use xlink:href="#c" x="40" y="280"/>
<use xlink:href="#c" x="30" y="300"/>
<use xlink:href="#c" x="40" y="320"/>
<use xlink:href="#c" x="30" y="340"/>
<use xlink:href="#c" x="40"/>
<use xlink:href="#c" x="50" y="20"/>
<use xlink:href="#c" x="40" y="40"/>
<use xlink:href="#c" x="50" y="60"/>
<use xlink:href="#c" x="40" y="80"/>
<use xlink:href="#c" x="50" y="100"/>
<use xlink:href="#c" x="40" y="120"/>
<use xlink:href="#c" x="50" y="140"/>
<use xlink:href="#c" x="40" y="160"/>
<use xlink:href="#c" x="50" y="180"/>
<use xlink:href="#c" x="60" y="200"/>
<use xlink:href="#c" x="50" y="220"/>
<use xlink:href="#c" x="60" y="240"/>
<use xlink:href="#c" x="50" y="260"/>
<use xlink:href="#c" x="60" y="280"/>
<use xlink:href="#c" x="50" y="300"/>
<use xlink:href="#c" x="60" y="320"/>
<use xlink:href="#c" x="50" y="340"/>
<use xlink:href="#c" x="60"/>
<use xlink:href="#c" x="70" y="20"/>
<use xlink:href="#c" x="60" y="40"/>
<use xlink:href="#c" x="70" y="60"/>
<use xlink:href="#c" x="60" y="80"/>
<use xlink:href="#c" x="70" y="100"/>
<use xlink:href="#c" x="60" y="120"/>
<use xlink:href="#c" x="70" y="140"/>
<use xlink:href="#c" x="60" y="160"/>
<use xlink:href="#c" x="70" y="180"/>
<use xlink:href="#c" x="80" y="200"/>
<use xlink:href="#c" x="70" y="220"/>
<use xlink:href="#c" x="80" y="240"/>
<use xlink:href="#c" x="70" y="260"/>
<use xlink:href="#c" x="80" y="280"/>
<use xlink:href="#c" x="70" y="300"/>
<use xlink:href="#c" x="80" y="320"/>
<use xlink:href="#c" x="70" y="340"/>
<use xlink:href="#c" x="80"/>
<use xlink:href="#c" x="90" y="20"/>
<use xlink:href="#c" x="80" y="40"/>
<use xlink:href="#c" x="90" y="60"/>
<use xlink:href="#c" x="80" y="80"/>
<use xlink:href="#c" x="90" y="100"/>
<use xlink:href="#c" x="80" y="120"/>
<use xlink:href="#c" x="90" y="140"/>
<use xlink:href="#c" x="80" y="160"/>
<use xlink:href="#c" x="90" y="180"/>
<use xlink:href="#c" x="100" y="200"/>
<use xlink:href="#c" x="90" y="220"/>
<use xlink:href="#c" x="100" y="240"/>
<use xlink:href="#c" x="90" y="260"/>
<use xlink:href="#c" x="100" y="280"/>
<use xlink:href="#c" x="90" y="300"/>
<use xlink:href="#c" x="100" y="320"/>
<use xlink:href="#c" x="90" y="340"/>
<use xlink:href="#c" x="100"/>
<use xlink:href="#c" x="110" y="20"/>
<use xlink:href="#c" x="100" y="40"/>
<use xlink:href="#c" x="110" y="60"/>
<use xlink:href="#c" x="100" y="80"/>
<use xlink:href="#c" x="110" y="100"/>
<use xlink:href="#c" x="100" y="120"/>
<use xlink:href="#c" x="110" y="140"/>
<use xlink:href="#c" x="100" y="160"/>
<use xlink:href="#c" x="110" y="180"/>
<use xlink:href="#c" x="120" y="200"/>
<use xlink:href="#c" x="110" y="220"/>
<use xlink:href="#c" x="120" y="240"/>
<use xlink:href="#c" x="110" y="260"/>
<use xlink:href="#c" x="120" y="280"/>
<use xlink:href="#c" x="110" y="300"/>
<use xlink:href="#c" x="120" y="320"/>
<use xlink:href="#c" x="110" y="340"/>
<use xlink:href="#c" x="120"/>
<use xlink:href="#c" x="130" y="20"/>
<use xlink:href="#c" x="120" y="40"/>
<use xlink:href="#c" x="130" y="60"/>
<use xlink:href="#c" x="120" y="80"/>
<use xlink:href="#c" x="130" y="100"/>
<use xlink:href="#c" x="120" y="120"/>
<use xlink:href="#c" x="130" y="140"/>
<use xlink:href="#c" x="120" y="160"/>
<use xlink:href="#c" x="130" y="180"/>
<use xlink:href="#c" x="140" y="200"/>
<use xlink:href="#c" x="130" y="220"/>
<use xlink:href="#c" x="140" y="240"/>
<use xlink:href="#c" x="130" y="260"/>
<use xlink:href="#c" x="140" y="280"/>
<use xlink:href="#c" x="130" y="300"/>
<use xlink:href="#c" x="140" y="320"/>
<use xlink:href="#c" x="130" y="340"/>
<use xlink:href="#c" x="140"/>
<use xlink:href="#c" x="150" y="20"/>
<use xlink:href="#c" x="140" y="40"/>
<use xlink:href="#c" x="150" y="60"/>
<use xlink:href="#c" x="140" y="80"/>
<use xlink:href="#c" x="150" y="100"/>
<use xlink:href="#c" x="140" y="120"/>
<use xlink:href="#c" x="150" y="140"/>
<use xlink:href="#c" x="140" y="160"/>
<use xlink:href="#c" x="150" y="180"/>
<use xlink:href="#c" x="160" y="200"/>
<use xlink:href="#c" x="150" y="220"/>
<use xlink:href="#c" x="160" y="240"/>
<use xlink:href="#c" x="150" y="260"/>
<use xlink:href="#c" x="160" y="280"/>
<use xlink:href="#c" x="150" y="300"/>
<use xlink:href="#c" x="160" y="320"/>
<use xlink:href="#c" x="150" y="340"/>
<use xlink:href="#c" x="160"/>
<use xlink:href="#c" x="170" y="20"/>
<use xlink:href="#c" x="160" y="40"/>
<use xlink:href="#c" x="170" y="60"/>
<use xlink:href="#c" x="160" y="80"/>
<use xlink:href="#c" x="170" y="100"/>
<use xlink:href="#c" x="160" y="120"/>
<use xlink:href="#c" x="170" y="140"/>
<use xlink:href="#c" x="160" y="160"/>
<use xlink:href="#c" x="170" y="180"/>
<use xlink:href="#c" x="180" y="200"/>
<use xlink:href="#c" x="170" y="220"/>
<use xlink:href="#c" x="180" y="240"/>
<use xlink:href="#c" x="170" y="260"/>
<use xlink:href="#c" x="180" y="280"/>
<use xlink:href="#c" x="170" y="300"/>
<use xlink:href="#c" x="180" y="320"/>
<use xlink:href="#c" x="170" y="340"/>
<use xlink:href="#c" x="180"/>
<use xlink:href="#c" x="190" y="20"/>
<use xlink:href="#c" x="180" y="40"/>
<use xlink:href="#c" x="190" y="60"/>
<use xlink:href="#c" x="180" y="80"/>
<use xlink:href="#c" x="190" y="100"/>
<use xlink:href="#c" x="180" y="120"/>
<use xlink:href="#c" x="190" y="140"/>
<use xlink:href="#c" x="180" y="160"/>
<use xlink:href="#c" x="190" y="180"/>
<use xlink:href="#c" x="200" y="200"/>
<use xlink:href="#c" x="190" y="220"/>
<use xlink:href="#c" x="200" y="240"/>
<use xlink:href="#c" x="190" y="260"/>
<use xlink:href="#c" x="200" y="280"/>
<use xlink:href="#c" x="190" y="300"/>
<use xlink:href="#c" x="200" y="40"/>
<use xlink:href="#c" x="210" y="60"/>
<use xlink:href="#c" x="200" y="80"/>
<use xlink:href="#c" x="210" y="100"/>
<use xlink:href="#c" x="200" y="120"/>
<use xlink:href="#c" x="210" y="140"/>
<use xlink:href="#c" x="200" y="160"/>
<use xlink:href="#c" x="210" y="180"/>
<use xlink:href="#c" x="220" y="200"/>
<use xlink:href="#c" x="210" y="220"/>
<use xlink:href="#c" x="220" y="240"/>
<use xlink:href="#c" x="210" y="260"/>
<use xlink:href="#c" x="220" y="80"/>
<use xlink:href="#c" x="230" y="100"/>
<use xlink:href="#c" x="220" y="120"/>
<use xlink:href="#c" x="230" y="140"/>
<use xlink:href="#c" x="220" y="160"/>
<use xlink:href="#c" x="230" y="180"/>
<use xlink:href="#c" x="240" y="200"/>
<use xlink:href="#c" x="230" y="220"/>
<use xlink:href="#c" x="240" y="120"/>
<use xlink:href="#c" x="250" y="140"/>
<use xlink:href="#c" x="240" y="160"/>
<use xlink:href="#c" x="250" y="180"/>
<use xlink:href="#c" x="260" y="160"/>
</svg>
