<?xml version="1.0" encoding="UTF-8" standalone="no"?>
<svg xmlns:rdf="http://www.w3.org/1999/02/22-rdf-syntax-ns#" xmlns="http://www.w3.org/2000/svg" height="343" width="343" version="1.1" xmlns:cc="http://creativecommons.org/ns#" xmlns:xlink="http://www.w3.org/1999/xlink" xmlns:dc="http://purl.org/dc/elements/1.1/">
<path d="m0 0h343v343h-343z" fill="#9a9298"/>
<g id="a">
<g id="c">
<path d="m0 28v-21h7l-0.999999 1h-5.000002v19z" fill="#726c70"/>
<path d="m0 28 0.999999-1h5.000002v-19l0.999999-1v21z" fill="#b2acb0"/>
</g>
<use xlink:href="#c" transform="translate(0,28)" height="100%" width="100%" y="0" x="0"/>
<use xlink:href="#c" transform="translate(0,56)" height="100%" width="100%" y="0" x="0"/>
<use xlink:href="#c" transform="translate(0,84)" height="100%" width="100%" y="0" x="0"/>
<use xlink:href="#c" transform="translate(0,112)" height="100%" width="100%" y="0" x="0"/>
<use xlink:href="#c" transform="translate(0,140)" height="100%" width="100%" y="0" x="0"/>
<use xlink:href="#c" transform="translate(0,168)" height="100%" width="100%" y="0" x="0"/>
<use xlink:href="#c" transform="translate(0,196)" height="100%" width="100%" y="0" x="0"/>
<use xlink:href="#c" transform="translate(0,224)" height="100%" width="100%" y="0" x="0"/>
<use xlink:href="#c" transform="translate(0,252)" height="100%" width="100%" y="0" x="0"/>
<use xlink:href="#c" transform="translate(0,280)" height="100%" width="100%" y="0" x="0"/>
<use xlink:href="#c" transform="translate(0,308)" height="100%" width="100%" y="0" x="0"/>
</g>
<use xlink:href="#a" transform="translate(28)" height="100%" width="100%" y="0" x="0"/>
<use xlink:href="#a" transform="translate(56)" height="100%" width="100%" y="0" x="0"/>
<use xlink:href="#a" transform="translate(84)" height="100%" width="100%" y="0" x="0"/>
<use xlink:href="#a" transform="translate(112)" height="100%" width="100%" y="0" x="0"/>
<use xlink:href="#a" transform="translate(140)" height="100%" width="100%" y="0" x="0"/>
<use xlink:href="#a" transform="translate(168)" height="100%" width="100%" y="0" x="0"/>
<use xlink:href="#a" transform="translate(196)" height="100%" width="100%" y="0" x="0"/>
<use xlink:href="#a" transform="translate(224)" height="100%" width="100%" y="0" x="0"/>
<use xlink:href="#a" transform="translate(252)" height="100%" width="100%" y="0" x="0"/>
<use xlink:href="#a" transform="translate(280)" height="100%" width="100%" y="0" x="0"/>
<use xlink:href="#a" transform="translate(308)" height="100%" width="100%" y="0" x="0"/>
<use xlink:href="#a" transform="translate(336)" height="100%" width="100%" y="0" x="0"/>
<use id="b" xlink:href="#a" transform="matrix(0,1,1,0,0,0)" height="100%" width="100%" y="0" x="0"/>
<use xlink:href="#b" transform="translate(0,28)" height="100%" width="100%" y="0" x="0"/>
<use xlink:href="#b" transform="translate(0,56)" height="100%" width="100%" y="0" x="0"/>
<use xlink:href="#b" transform="translate(0,84)" height="100%" width="100%" y="0" x="0"/>
<use xlink:href="#b" transform="translate(0,112)" height="100%" width="100%" y="0" x="0"/>
<use xlink:href="#b" transform="translate(0,140)" height="100%" width="100%" y="0" x="0"/>
<use xlink:href="#b" transform="translate(0,168)" height="100%" width="100%" y="0" x="0"/>
<use xlink:href="#b" transform="translate(0,196)" height="100%" width="100%" y="0" x="0"/>
<use xlink:href="#b" transform="translate(0,224)" height="100%" width="100%" y="0" x="0"/>
<use xlink:href="#b" transform="translate(0,252)" height="100%" width="100%" y="0" x="0"/>
<use xlink:href="#b" transform="translate(0,280)" height="100%" width="100%" y="0" x="0"/>
<use xlink:href="#b" transform="translate(0,308)" height="100%" width="100%" y="0" x="0"/>
<use xlink:href="#b" transform="translate(0,336)" height="100%" width="100%" y="0" x="0"/>
</svg>
