<?xml version="1.0" encoding="UTF-8" standalone="no"?>
<svg xmlns:rdf="http://www.w3.org/1999/02/22-rdf-syntax-ns#" xmlns="http://www.w3.org/2000/svg" height="280" width="280" version="1.1" xmlns:cc="http://creativecommons.org/ns#" xmlns:xlink="http://www.w3.org/1999/xlink" xmlns:dc="http://purl.org/dc/elements/1.1/">
<path d="m0 0h280v280h-280z" fill="#9a9298"/>
<g fill-rule="evenodd">
<path d="m10 273a3 3 0 0 1 -6 0 3 3 0 1 1 6 0z" fill="#00c000"/>
<path d="m6.78 4a3 3 0 0 0 -2.78 3 3 3 0 0 0 6 0 3 3 0 0 0 -3.22 -3z" fill="#0073cf"/>
<path d="m276 7a3 3 0 0 1 -6 0 3 3 0 1 1 6 0z" fill="#ebcd23"/>
<path d="m276 273a3 3 0 0 1 -6 0 3 3 0 1 1 6 0z" fill="#e63e2c"/>
</g>
<g id="b">
<g id="a">
<path d="m14 0.00006172h-14v13.99994l0.6999999-0.699997v-12.59994h12.6z" fill="#767074"/>
<path d="m14 0.0000617-0.7 0.6999969v12.59994h-12.6l-0.7 0.7h14z" fill="#b2acb0"/>
</g>
<use y="0" x="0" xlink:href="#a"/>
<use xlink:href="#a" transform="translate(14)" y="0" x="0"/>
<use xlink:href="#a" transform="translate(28)" y="0" x="0"/>
<use xlink:href="#a" transform="translate(42)" y="0" x="0"/>
<use xlink:href="#a" transform="translate(56)" y="0" x="0"/>
<use xlink:href="#a" transform="translate(70)" y="0" x="0"/>
<use xlink:href="#a" transform="translate(83.99999)" y="0" x="0"/>
<use xlink:href="#a" transform="translate(97.99999)" y="0" x="0"/>
<use xlink:href="#a" transform="translate(112)" y="0" x="0"/>
<use xlink:href="#a" transform="translate(126)" y="0" x="0"/>
<use xlink:href="#a" transform="translate(140)" y="0" x="0"/>
<use xlink:href="#a" transform="translate(154)" y="0" x="0"/>
<use xlink:href="#a" transform="translate(168)" y="0" x="0"/>
<use xlink:href="#a" transform="translate(182)" y="0" x="0"/>
<use xlink:href="#a" transform="translate(196)" y="0" x="0"/>
<use xlink:href="#a" transform="translate(210)" y="0" x="0"/>
<use xlink:href="#a" transform="translate(224)" y="0" x="0"/>
<use xlink:href="#a" transform="translate(238)" y="0" x="0"/>
<use xlink:href="#a" transform="translate(252)" y="0" x="0"/>
<use xlink:href="#a" transform="translate(266)" y="0" x="0"/>
</g>
<use xlink:href="#b" transform="translate(0 13.99994)" y="0" x="0"/>
<use xlink:href="#b" transform="translate(0 27.99988)" y="0" x="0"/>
<use xlink:href="#b" transform="translate(0 41.99982)" y="0" x="0"/>
<use xlink:href="#b" transform="translate(0 55.99975)" y="0" x="0"/>
<use xlink:href="#b" transform="translate(0 69.99969)" y="0" x="0"/>
<use xlink:href="#b" transform="translate(0,83.99963)" y="0" x="0"/>
<use xlink:href="#b" transform="translate(0 97.99957)" y="0" x="0"/>
<use xlink:href="#b" transform="translate(0 111.9995)" y="0" x="0"/>
<use xlink:href="#b" transform="translate(0 125.9994)" y="0" x="0"/>
<use xlink:href="#b" transform="translate(0 139.9994)" y="0" x="0"/>
<use xlink:href="#b" transform="translate(0 153.9993)" y="0" x="0"/>
<use xlink:href="#b" transform="translate(0 167.9993)" y="0" x="0"/>
<use xlink:href="#b" transform="translate(0,181.9992)" y="0" x="0"/>
<use xlink:href="#b" transform="translate(0 195.9991)" y="0" x="0"/>
<use xlink:href="#b" transform="translate(0 209.9991)" y="0" x="0"/>
<use xlink:href="#b" transform="translate(0 223.999)" y="0" x="0"/>
<use xlink:href="#b" transform="translate(0 237.999)" y="0" x="0"/>
<use xlink:href="#b" transform="translate(0 251.9989)" y="0" x="0"/>
<use xlink:href="#b" transform="translate(0 265.9988)" y="0" x="0"/>
</svg>
