<?xml version="1.0" encoding="UTF-8" standalone="no"?>
<svg xmlns:rdf="http://www.w3.org/1999/02/22-rdf-syntax-ns#" xmlns="http://www.w3.org/2000/svg" height="220" width="220" version="1.1" xmlns:cc="http://creativecommons.org/ns#" xmlns:xlink="http://www.w3.org/1999/xlink" xmlns:dc="http://purl.org/dc/elements/1.1/">
 <path fill="#9a9298" d="m70 0h80l70 70v80l-70 70h-80l-70-70v-80z"/>
 <g id="b" fill-rule="evenodd" transform="translate(50,-210)">
  <path d="m10 240 10-10h-1l-9 9z" fill="#b2acb0"/>
  <path d="m10 240-10-10h1l9 9z" fill="#b2acb0"/>
  <path d="m10 220-10 10h1l9-9z" fill="#767074"/>
  <path d="m10 220 10 10h-1l-9-9z" fill="#767074"/>
 </g>
 <g id="f" transform="translate(9.4342e-7 .0000995)">
  <g id="c" transform="translate(0,-160)">
   <path d="m10 240 10-10h-1l-9 9z" fill-rule="evenodd" fill="#b2acb0"/>
   <path d="m10 240-10-10h1l9 9z" fill-rule="evenodd" fill="#b2acb0"/>
   <path d="m10 220-10 10h1l9-9z" fill-rule="evenodd" fill="#767074"/>
   <path d="m10 220 10 10h-1l-9-9z" fill-rule="evenodd" fill="#767074"/>
  </g>
  <use xlink:href="#c" transform="translate(20)" height="100%" width="100%" y="0" x="0"/>
  <use xlink:href="#c" transform="translate(40)" height="100%" width="100%" y="0" x="0"/>
  <use xlink:href="#c" transform="translate(60)" height="100%" width="100%" y="0" x="0"/>
  <use xlink:href="#c" transform="translate(80)" height="100%" width="100%" y="0" x="0"/>
  <use xlink:href="#c" transform="translate(100)" height="100%" width="100%" y="0" x="0"/>
  <use xlink:href="#c" transform="translate(120)" height="100%" width="100%" y="0" x="0"/>
  <use xlink:href="#c" transform="translate(140)" height="100%" width="100%" y="0" x="0"/>
  <use xlink:href="#c" transform="translate(160)" height="100%" width="100%" y="0" x="0"/>
  <use xlink:href="#c" transform="translate(180)" height="100%" width="100%" y="0" x="0"/>
  <use xlink:href="#c" transform="translate(200)" height="100%" width="100%" y="0" x="0"/>
 </g>
 <use xlink:href="#f" transform="translate(-9.4342e-7 20)" height="100%" width="100%" y="0" x="0"/>
 <use xlink:href="#f" transform="translate(-9.4342e-7 40)" height="100%" width="100%" y="0" x="0"/>
 <use xlink:href="#f" transform="translate(-9.4342e-7 60)" height="100%" width="100%" y="0" x="0"/>
 <use xlink:href="#f" transform="translate(-9.4342e-7 80)" height="100%" width="100%" y="0" x="0"/>
 <g id="e" transform="translate(9.4342e-7 -20)">
  <g id="d" transform="translate(10,-150)">
   <path d="m10 240 10-10h-1l-9 9z" fill-rule="evenodd" fill="#b2acb0"/>
   <path d="m10 240-10-10h1l9 9z" fill-rule="evenodd" fill="#b2acb0"/>
   <path d="m10 220-10 10h1l9-9z" fill-rule="evenodd" fill="#767074"/>
   <path d="m10 220 10 10h-1l-9-9z" fill-rule="evenodd" fill="#767074"/>
  </g>
  <use xlink:href="#d" transform="translate(20)" height="100%" width="100%" y="0" x="0"/>
  <use xlink:href="#d" transform="translate(40)" height="100%" width="100%" y="0" x="0"/>
  <use xlink:href="#d" transform="translate(60)" height="100%" width="100%" y="0" x="0"/>
  <use xlink:href="#d" transform="translate(80)" height="100%" width="100%" y="0" x="0"/>
  <use xlink:href="#d" transform="translate(100)" height="100%" width="100%" y="0" x="0"/>
  <use xlink:href="#d" transform="translate(120)" height="100%" width="100%" y="0" x="0"/>
  <use xlink:href="#d" transform="translate(140)" height="100%" width="100%" y="0" x="0"/>
  <use xlink:href="#d" transform="translate(160)" height="100%" width="100%" y="0" x="0"/>
  <use xlink:href="#d" transform="translate(180)" height="100%" width="100%" y="0" x="0"/>
 </g>
 <use xlink:href="#e" transform="translate(-9.4342e-7 20)" height="100%" width="100%" y="0" x="0"/>
 <use xlink:href="#e" transform="translate(-9.4342e-7 40)" height="100%" width="100%" y="0" x="0"/>
 <use xlink:href="#e" transform="translate(-9.4342e-7 60)" height="100%" width="100%" y="0" x="0"/>
 <use xlink:href="#e" transform="translate(-9.4342e-7 80)" height="100%" width="100%" y="0" x="0"/>
 <use xlink:href="#e" transform="translate(-9.4342e-7 100)" height="100%" width="100%" y="0" x="0"/>
 <use xlink:href="#b" transform="translate(-20 20)" height="100%" width="100%" y="0" x="0"/>
 <use xlink:href="#b" transform="translate(-20 160)" height="100%" width="100%" y="0" x="0"/>
 <use xlink:href="#b" transform="translate(0 20)" height="100%" width="100%" y="0" x="0"/>
 <use xlink:href="#b" transform="translate(0 160)" height="100%" width="100%" y="0" x="0"/>
 <use xlink:href="#b" transform="translate(0 180)" height="100%" width="100%" y="0" x="0"/>
 <use xlink:href="#b" transform="translate(20,-1.86e-5)" height="100%" width="100%" y="0" x="0"/>
 <use xlink:href="#b" transform="translate(20 20)" height="100%" width="100%" y="0" x="0"/>
 <use xlink:href="#b" transform="translate(20 160)" height="100%" width="100%" y="0" x="0"/>
 <use xlink:href="#b" transform="translate(20 180)" height="100%" width="100%" y="0" x="0"/>
 <use xlink:href="#b" transform="translate(40,-1.86e-5)" height="100%" width="100%" y="0" x="0"/>
 <use xlink:href="#b" transform="translate(40 20)" height="100%" width="100%" y="0" x="0"/>
 <use xlink:href="#b" transform="translate(40 160)" height="100%" width="100%" y="0" x="0"/>
 <use xlink:href="#b" transform="translate(40 180)" height="100%" width="100%" y="0" x="0"/>
 <use xlink:href="#b" transform="translate(60,-1.86e-5)" height="100%" width="100%" y="0" x="0"/>
 <use xlink:href="#b" transform="translate(60 20)" height="100%" width="100%" y="0" x="0"/>
 <use xlink:href="#b" transform="translate(60 160)" height="100%" width="100%" y="0" x="0"/>
 <use xlink:href="#b" transform="translate(60 180)" height="100%" width="100%" y="0" x="0"/>
 <use xlink:href="#b" transform="translate(80,-1.86e-5)" height="100%" width="100%" y="0" x="0"/>
 <use xlink:href="#b" transform="translate(80 20)" height="100%" width="100%" y="0" x="0"/>
 <use xlink:href="#b" transform="translate(80 160)" height="100%" width="100%" y="0" x="0"/>
 <use xlink:href="#b" transform="translate(80 180)" height="100%" width="100%" y="0" x="0"/>
 <use xlink:href="#b" transform="translate(100,-1.86e-5)" height="100%" width="100%" y="0" x="0"/>
 <use xlink:href="#b" transform="translate(100 20)" height="100%" width="100%" y="0" x="0"/>
 <use xlink:href="#b" transform="translate(100 160)" height="100%" width="100%" y="0" x="0"/>
 <use xlink:href="#b" transform="translate(100 180)" height="100%" width="100%" y="0" x="0"/>
 <use xlink:href="#b" transform="translate(120 20)" height="100%" width="100%" y="0" x="0"/>
 <use xlink:href="#b" transform="translate(120 160)" height="100%" width="100%" y="0" x="0"/>
 <use id="a" xlink:href="#b" transform="translate(10 -10)" height="100%" width="100%" y="0" x="0"/>
 <use xlink:href="#a" transform="translate(-40 40)" height="100%" width="100%" y="0" x="0"/>
 <use xlink:href="#a" transform="translate(-40 160)" height="100%" width="100%" y="0" x="0"/>
 <use xlink:href="#a" transform="translate(-20 20)" height="100%" width="100%" y="0" x="0"/>
 <use xlink:href="#a" transform="translate(-20 40)" height="100%" width="100%" y="0" x="0"/>
 <use xlink:href="#a" transform="translate(-20 160)" height="100%" width="100%" y="0" x="0"/>
 <use xlink:href="#a" transform="translate(-20 180)" height="100%" width="100%" y="0" x="0"/>
 <use xlink:href="#a" transform="translate(1.9e-7 20)" height="100%" width="100%" y="0" x="0"/>
 <use xlink:href="#a" transform="translate(1.9e-7 40)" height="100%" width="100%" y="0" x="0"/>
 <use xlink:href="#a" transform="translate(1.9e-7 160)" height="100%" width="100%" y="0" x="0"/>
 <use xlink:href="#a" transform="translate(1.9e-7 180)" height="100%" width="100%" y="0" x="0"/>
 <use xlink:href="#a" transform="translate(1.9e-7 200)" height="100%" width="100%" y="0" x="0"/>
 <use xlink:href="#a" transform="translate(20)" height="100%" width="100%" y="0" x="0"/>
 <use xlink:href="#a" transform="translate(20 20)" height="100%" width="100%" y="0" x="0"/>
 <use xlink:href="#a" transform="translate(20 40)" height="100%" width="100%" y="0" x="0"/>
 <use xlink:href="#a" transform="translate(20 160)" height="100%" width="100%" y="0" x="0"/>
 <use xlink:href="#a" transform="translate(20 180)" height="100%" width="100%" y="0" x="0"/>
 <use xlink:href="#a" transform="translate(20 200)" height="100%" width="100%" y="0" x="0"/>
 <use xlink:href="#a" transform="translate(40)" height="100%" width="100%" y="0" x="0"/>
 <use xlink:href="#a" transform="translate(40 20)" height="100%" width="100%" y="0" x="0"/>
 <use xlink:href="#a" transform="translate(40 40)" height="100%" width="100%" y="0" x="0"/>
 <use xlink:href="#a" transform="translate(40 160)" height="100%" width="100%" y="0" x="0"/>
 <use xlink:href="#a" transform="translate(40 180)" height="100%" width="100%" y="0" x="0"/>
 <use xlink:href="#a" transform="translate(40 200)" height="100%" width="100%" y="0" x="0"/>
 <use xlink:href="#a" transform="translate(60)" height="100%" width="100%" y="0" x="0"/>
 <use xlink:href="#a" transform="translate(60 20)" height="100%" width="100%" y="0" x="0"/>
 <use xlink:href="#a" transform="translate(60 40)" height="100%" width="100%" y="0" x="0"/>
 <use xlink:href="#a" transform="translate(60 160)" height="100%" width="100%" y="0" x="0"/>
 <use xlink:href="#a" transform="translate(60 180)" height="100%" width="100%" y="0" x="0"/>
 <use xlink:href="#a" transform="translate(60 200)" height="100%" width="100%" y="0" x="0"/>
 <use xlink:href="#a" transform="translate(80)" height="100%" width="100%" y="0" x="0"/>
 <use xlink:href="#a" transform="translate(80 20)" height="100%" width="100%" y="0" x="0"/>
 <use xlink:href="#a" transform="translate(80 40)" height="100%" width="100%" y="0" x="0"/>
 <use xlink:href="#a" transform="translate(80 160)" height="100%" width="100%" y="0" x="0"/>
 <use xlink:href="#a" transform="translate(80 180)" height="100%" width="100%" y="0" x="0"/>
 <use xlink:href="#a" transform="translate(80 200)" height="100%" width="100%" y="0" x="0"/>
 <use xlink:href="#a" transform="translate(100 20)" height="100%" width="100%" y="0" x="0"/>
 <use xlink:href="#a" transform="translate(100 40)" height="100%" width="100%" y="0" x="0"/>
 <use xlink:href="#a" transform="translate(100 160)" height="100%" width="100%" y="0" x="0"/>
 <use xlink:href="#a" transform="translate(100 180)" height="100%" width="100%" y="0" x="0"/>
 <use xlink:href="#a" transform="translate(120 40)" height="100%" width="100%" y="0" x="0"/>
 <use xlink:href="#a" transform="translate(120 160)" height="100%" width="100%" y="0" x="0"/>
 <g id="j" fill-rule="evenodd" transform="translate(-60,110)">
  <path d="m60-20 10-10h-1l-9 9z" fill="#b2acb0"/>
  <path d="m60-40 10 10h-1l-9-9z" fill="#767074"/>
 </g>
 <use xlink:href="#j" transform="translate(0 20)" y="0" x="0"/>
 <use xlink:href="#j" transform="translate(0 40)" y="0" x="0"/>
 <use xlink:href="#j" transform="translate(0 60)" y="0" x="0"/>
 <g id="i" fill-rule="evenodd" transform="translate(20,30)" fill="#b2acb0">
  <path d="m60-20-10-10h1l9 9z"/>
  <path d="m60-20 10-10h-1l-9 9z"/>
 </g>
 <use xlink:href="#i" transform="translate(20)" y="0" x="0"/>
 <use xlink:href="#i" transform="translate(40)" y="0" x="0"/>
 <use xlink:href="#i" transform="translate(60)" y="0" x="0"/>
 <g id="h" fill-rule="evenodd" transform="translate(20,250)" fill="#767074">
  <path d="m60-40-10 10h1l9-9z"/>
  <path d="m60-40 10 10h-1l-9-9z"/>
 </g>
 <use xlink:href="#h" transform="translate(20)" y="0" x="0"/>
 <use xlink:href="#h" transform="translate(40)" y="0" x="0"/>
 <use xlink:href="#h" transform="translate(60)" y="0" x="0"/>
 <g id="g" fill-rule="evenodd" transform="translate(160,110)">
  <path d="m60-20-10-10h1l9 9z" fill="#b2acb0"/>
  <path d="m60-40-10 10h1l9-9z" fill="#767074"/>
 </g>
 <use xlink:href="#g" transform="translate(0 20)" y="0" x="0"/>
 <use xlink:href="#g" transform="translate(0 40)" y="0" x="0"/>
 <use xlink:href="#g" transform="translate(0 60)" y="0" x="0"/>
</svg>
