<?xml version="1.0" encoding="UTF-8" standalone="no"?>
<svg xmlns:rdf="http://www.w3.org/1999/02/22-rdf-syntax-ns#" xmlns="http://www.w3.org/2000/svg" height="343" width="343" version="1.1" xmlns:cc="http://creativecommons.org/ns#" xmlns:xlink="http://www.w3.org/1999/xlink" xmlns:dc="http://purl.org/dc/elements/1.1/">
<path fill="#9a9298" d="m0 0h343v343h-343z"/>
<path id="i" fill-rule="evenodd" fill="#00c000" d="m47 283.5a1.5 1.5 0 0 1 -3 0 1.5 1.5 0 1 1 3 0z"/>
<path id="j" fill-rule="evenodd" fill="#0073cf" d="m45.39 58.00404a1.499995 1.498256 0 0 0 -1.389995 1.498256 1.499995 1.498256 0 0 0 2.999989 0 1.499995 1.498256 0 0 0 -1.60999 -1.49826z"/>
<path id="k" fill-rule="evenodd" fill="#ebcd23" d="m271 59.5a1.5 1.5 0 0 1 -3 0 1.5 1.5 0 1 1 3 0z"/>
<path id="l" fill-rule="evenodd" fill="#e63e2c" d="m271 283.5a1.5 1.5 0 0 1 -3 0 1.5 1.5 0 1 1 3 0z"/>
<use xlink:href="#j" transform="translate(28)" height="100%" width="100%" y="0" x="0"/>
<use xlink:href="#j" transform="translate(14,-14)" height="100%" width="100%" y="0" x="0"/>
<use xlink:href="#j" transform="translate(14,14)" height="100%" width="100%" y="0" x="0"/>
<use xlink:href="#k" transform="translate(14,-14)" height="100%" width="100%" y="0" x="0"/>
<use xlink:href="#k" transform="translate(28)" height="100%" width="100%" y="0" x="0"/>
<use xlink:href="#k" transform="translate(14,14)" height="100%" width="100%" y="0" x="0"/>
<use xlink:href="#i" transform="translate(28)" height="100%" width="100%" y="0" x="0"/>
<use xlink:href="#i" transform="translate(14,-14)" height="100%" width="100%" y="0" x="0"/>
<use xlink:href="#i" transform="translate(14,14)" height="100%" width="100%" y="0" x="0"/>
<use xlink:href="#l" transform="translate(28)" height="100%" width="100%" y="0" x="0"/>
<use xlink:href="#l" transform="translate(14,-14)" height="100%" width="100%" y="0" x="0"/>
<use xlink:href="#l" transform="translate(14,14)" height="100%" width="100%" y="0" x="0"/>
<g id="b">
<g id="h">
<path d="m0 28v-21h7l-0.999999 1h-5.000002v19z" fill="#726c70"/>
<path d="m0 28 0.999999-1h5.000002v-19l0.999999-1v21z" fill="#b2acb0"/>
</g>
<use xlink:href="#h" transform="translate(0,28)" height="100%" width="100%" y="0" x="0"/>
<use xlink:href="#h" transform="translate(0,56)" height="100%" width="100%" y="0" x="0"/>
<use xlink:href="#h" transform="translate(0,84)" height="100%" width="100%" y="0" x="0"/>
<use xlink:href="#h" transform="translate(0,112)" height="100%" width="100%" y="0" x="0"/>
<use xlink:href="#h" transform="translate(0,140)" height="100%" width="100%" y="0" x="0"/>
<use xlink:href="#h" transform="translate(0,168)" height="100%" width="100%" y="0" x="0"/>
<use xlink:href="#h" transform="translate(0,196)" height="100%" width="100%" y="0" x="0"/>
<use xlink:href="#h" transform="translate(0,224)" height="100%" width="100%" y="0" x="0"/>
<use xlink:href="#h" transform="translate(0,252)" height="100%" width="100%" y="0" x="0"/>
<use xlink:href="#h" transform="translate(0,280)" height="100%" width="100%" y="0" x="0"/>
<use xlink:href="#h" transform="translate(0,308)" height="100%" width="100%" y="0" x="0"/>
</g>
<use xlink:href="#b" transform="translate(28)" height="100%" width="100%" y="0" x="0"/>
<use xlink:href="#b" transform="translate(56)" height="100%" width="100%" y="0" x="0"/>
<use xlink:href="#b" transform="translate(84)" height="100%" width="100%" y="0" x="0"/>
<use xlink:href="#b" transform="translate(112)" height="100%" width="100%" y="0" x="0"/>
<use xlink:href="#b" transform="translate(140)" height="100%" width="100%" y="0" x="0"/>
<use xlink:href="#b" transform="translate(168)" height="100%" width="100%" y="0" x="0"/>
<use xlink:href="#b" transform="translate(196)" height="100%" width="100%" y="0" x="0"/>
<use xlink:href="#b" transform="translate(224)" height="100%" width="100%" y="0" x="0"/>
<use xlink:href="#b" transform="translate(252)" height="100%" width="100%" y="0" x="0"/>
<use xlink:href="#b" transform="translate(280)" height="100%" width="100%" y="0" x="0"/>
<use xlink:href="#b" transform="translate(308)" height="100%" width="100%" y="0" x="0"/>
<use xlink:href="#b" transform="translate(336)" height="100%" width="100%" y="0" x="0"/>
<use id="g" xlink:href="#b" transform="matrix(0,1,1,0,0,0)" height="100%" width="100%" y="0" x="0"/>
<use xlink:href="#g" transform="translate(0,28)" height="100%" width="100%" y="0" x="0"/>
<use xlink:href="#g" transform="translate(0,56)" height="100%" width="100%" y="0" x="0"/>
<use xlink:href="#g" transform="translate(0,84)" height="100%" width="100%" y="0" x="0"/>
<use xlink:href="#g" transform="translate(0,112)" height="100%" width="100%" y="0" x="0"/>
<use xlink:href="#g" transform="translate(0,140)" height="100%" width="100%" y="0" x="0"/>
<use xlink:href="#g" transform="translate(0,168)" height="100%" width="100%" y="0" x="0"/>
<use xlink:href="#g" transform="translate(0,196)" height="100%" width="100%" y="0" x="0"/>
<use xlink:href="#g" transform="translate(0,224)" height="100%" width="100%" y="0" x="0"/>
<use xlink:href="#g" transform="translate(0,252)" height="100%" width="100%" y="0" x="0"/>
<use xlink:href="#g" transform="translate(0,280)" height="100%" width="100%" y="0" x="0"/>
<use xlink:href="#g" transform="translate(0,308)" height="100%" width="100%" y="0" x="0"/>
<use xlink:href="#g" transform="translate(0,336)" height="100%" width="100%" y="0" x="0"/>
</svg>
