<?xml version="1.0" encoding="UTF-8" standalone="no"?>
<!-- Created with Inkscape (http://www.inkscape.org/) -->
<svg xmlns:rdf="http://www.w3.org/1999/02/22-rdf-syntax-ns#" xmlns="http://www.w3.org/2000/svg" height="280" width="280" version="1.1" xmlns:cc="http://creativecommons.org/ns#" xmlns:xlink="http://www.w3.org/1999/xlink" xmlns:dc="http://purl.org/dc/elements/1.1/">
<metadata>
<rdf:RDF>
<cc:Work rdf:about="">
<dc:format>image/svg+xml</dc:format>
<dc:type rdf:resource="http://purl.org/dc/dcmitype/StillImage"/>
<dc:title/>
</cc:Work>
</rdf:RDF>
</metadata>
<path d="m0,0,280,0,0,280-280,0z" fill="#aea7ac"/>
<g id="g3956" transform="translate(85.871994,-902.9029)">
<path d="m-65.9,903-20,0,0,20,1-1,0-18,18,0z" fill="#82777e"/>
<path d="m-65.9,903-1,1,0,18-18,0-1,1,20,0z" fill="#cac6c9"/>
</g>
<use xlink:href="#g3956" transform="translate(-1.8554687e-8,20.00009)" height="280" width="280" y="0" x="0"/>
<use xlink:href="#g3956" transform="translate(-1.8554687e-8,40.000175)" height="280" width="280" y="0" x="0"/>
<use xlink:href="#g3956" transform="translate(-1.8554687e-8,60.000263)" height="280" width="280" y="0" x="0"/>
<use xlink:href="#g3956" transform="translate(-1.8554687e-8,80.000351)" height="280" width="280" y="0" x="0"/>
<use xlink:href="#g3956" transform="translate(-1.8554687e-8,100.00044)" height="280" width="280" y="0" x="0"/>
<use xlink:href="#g3956" transform="translate(-1.8554687e-8,120.00053)" height="280" width="280" y="0" x="0"/>
<use xlink:href="#g3956" transform="translate(-1.8554687e-8,140.00061)" height="280" width="280" y="0" x="0"/>
<use xlink:href="#g3956" transform="translate(-1.8554687e-8,160.0007)" height="280" width="280" y="0" x="0"/>
<use xlink:href="#g3956" transform="translate(-1.8554687e-8,180.00079)" height="280" width="280" y="0" x="0"/>
<use xlink:href="#g3956" transform="translate(-1.8554687e-8,200.00088)" height="280" width="280" y="0" x="0"/>
<use xlink:href="#g3956" transform="translate(-1.8554687e-8,220.00096)" height="280" width="280" y="0" x="0"/>
<use xlink:href="#g3956" transform="translate(-1.8554687e-8,240.00105)" height="280" width="280" y="0" x="0"/>
<use xlink:href="#g3956" transform="translate(-1.8554687e-8,260.00114)" height="280" width="280" y="0" x="0"/>
<use xlink:href="#g3956" transform="translate(20.000006,0)" height="280" width="280" y="0" x="0"/>
<use xlink:href="#g3956" transform="translate(20.000006,20.00009)" height="280" width="280" y="0" x="0"/>
<use xlink:href="#g3956" transform="translate(20.000006,40.000175)" height="280" width="280" y="0" x="0"/>
<use xlink:href="#g3956" transform="translate(20.000006,60.000263)" height="280" width="280" y="0" x="0"/>
<use xlink:href="#g3956" transform="translate(20.000006,80.000351)" height="280" width="280" y="0" x="0"/>
<use xlink:href="#g3956" transform="translate(20.000006,100.00044)" height="280" width="280" y="0" x="0"/>
<use xlink:href="#g3956" transform="translate(20.000006,120.00053)" height="280" width="280" y="0" x="0"/>
<use xlink:href="#g3956" transform="translate(20.000006,140.00061)" height="280" width="280" y="0" x="0"/>
<use xlink:href="#g3956" transform="translate(20.000006,160.0007)" height="280" width="280" y="0" x="0"/>
<use xlink:href="#g3956" transform="translate(20.000006,180.00079)" height="280" width="280" y="0" x="0"/>
<use xlink:href="#g3956" transform="translate(20.000006,200.00088)" height="280" width="280" y="0" x="0"/>
<use xlink:href="#g3956" transform="translate(20.000006,220.00096)" height="280" width="280" y="0" x="0"/>
<use xlink:href="#g3956" transform="translate(20.000006,240.00105)" height="280" width="280" y="0" x="0"/>
<use xlink:href="#g3956" transform="translate(20.000006,260.00114)" height="280" width="280" y="0" x="0"/>
<use xlink:href="#g3956" transform="translate(40.000006,0)" height="280" width="280" y="0" x="0"/>
<use xlink:href="#g3956" transform="translate(40.000006,20.00009)" height="280" width="280" y="0" x="0"/>
<use xlink:href="#g3956" transform="translate(40.000006,40.000175)" height="280" width="280" y="0" x="0"/>
<use xlink:href="#g3956" transform="translate(40.000006,60.000263)" height="280" width="280" y="0" x="0"/>
<use xlink:href="#g3956" transform="translate(40.000006,80.000351)" height="280" width="280" y="0" x="0"/>
<use xlink:href="#g3956" transform="translate(40.000006,100.00044)" height="280" width="280" y="0" x="0"/>
<use xlink:href="#g3956" transform="translate(40.000006,120.00053)" height="280" width="280" y="0" x="0"/>
<use xlink:href="#g3956" transform="translate(40.000006,140.00061)" height="280" width="280" y="0" x="0"/>
<use xlink:href="#g3956" transform="translate(40.000006,160.0007)" height="280" width="280" y="0" x="0"/>
<use xlink:href="#g3956" transform="translate(40.000006,180.00079)" height="280" width="280" y="0" x="0"/>
<use xlink:href="#g3956" transform="translate(40.000006,200.00088)" height="280" width="280" y="0" x="0"/>
<use xlink:href="#g3956" transform="translate(40.000006,220.00096)" height="280" width="280" y="0" x="0"/>
<use xlink:href="#g3956" transform="translate(40.000006,240.00105)" height="280" width="280" y="0" x="0"/>
<use xlink:href="#g3956" transform="translate(40.000006,260.00114)" height="280" width="280" y="0" x="0"/>
<use xlink:href="#g3956" transform="translate(60.000016,0)" height="280" width="280" y="0" x="0"/>
<use xlink:href="#g3956" transform="translate(60.000016,20.00009)" height="280" width="280" y="0" x="0"/>
<use xlink:href="#g3956" transform="translate(60.000016,40.000175)" height="280" width="280" y="0" x="0"/>
<use xlink:href="#g3956" transform="translate(60.000016,60.000263)" height="280" width="280" y="0" x="0"/>
<use xlink:href="#g3956" transform="translate(60.000016,80.000351)" height="280" width="280" y="0" x="0"/>
<use xlink:href="#g3956" transform="translate(60.000016,100.00044)" height="280" width="280" y="0" x="0"/>
<use xlink:href="#g3956" transform="translate(60.000016,120.00053)" height="280" width="280" y="0" x="0"/>
<use xlink:href="#g3956" transform="translate(60.000016,140.00061)" height="280" width="280" y="0" x="0"/>
<use xlink:href="#g3956" transform="translate(60.000016,160.0007)" height="280" width="280" y="0" x="0"/>
<use xlink:href="#g3956" transform="translate(60.000016,180.00079)" height="280" width="280" y="0" x="0"/>
<use xlink:href="#g3956" transform="translate(60.000016,200.00088)" height="280" width="280" y="0" x="0"/>
<use xlink:href="#g3956" transform="translate(60.000016,220.00096)" height="280" width="280" y="0" x="0"/>
<use xlink:href="#g3956" transform="translate(60.000016,240.00105)" height="280" width="280" y="0" x="0"/>
<use xlink:href="#g3956" transform="translate(60.000016,260.00114)" height="280" width="280" y="0" x="0"/>
<use xlink:href="#g3956" transform="translate(80.000016,0)" height="280" width="280" y="0" x="0"/>
<use xlink:href="#g3956" transform="translate(80.000016,20.00009)" height="280" width="280" y="0" x="0"/>
<use xlink:href="#g3956" transform="translate(80.000016,40.000175)" height="280" width="280" y="0" x="0"/>
<use xlink:href="#g3956" transform="translate(80.000016,60.000263)" height="280" width="280" y="0" x="0"/>
<use xlink:href="#g3956" transform="translate(80.000016,80.000351)" height="280" width="280" y="0" x="0"/>
<use xlink:href="#g3956" transform="translate(80.000016,100.00044)" height="280" width="280" y="0" x="0"/>
<use xlink:href="#g3956" transform="translate(80.000016,120.00053)" height="280" width="280" y="0" x="0"/>
<use xlink:href="#g3956" transform="translate(80.000016,140.00061)" height="280" width="280" y="0" x="0"/>
<use xlink:href="#g3956" transform="translate(80.000016,160.0007)" height="280" width="280" y="0" x="0"/>
<use xlink:href="#g3956" transform="translate(80.000016,180.00079)" height="280" width="280" y="0" x="0"/>
<use xlink:href="#g3956" transform="translate(80.000016,200.00088)" height="280" width="280" y="0" x="0"/>
<use xlink:href="#g3956" transform="translate(80.000016,220.00096)" height="280" width="280" y="0" x="0"/>
<use xlink:href="#g3956" transform="translate(80.000016,240.00105)" height="280" width="280" y="0" x="0"/>
<use xlink:href="#g3956" transform="translate(80.000016,260.00114)" height="280" width="280" y="0" x="0"/>
<use xlink:href="#g3956" transform="translate(100.00002,0)" height="280" width="280" y="0" x="0"/>
<use xlink:href="#g3956" transform="translate(100.00002,20.00009)" height="280" width="280" y="0" x="0"/>
<use xlink:href="#g3956" transform="translate(100.00002,40.000175)" height="280" width="280" y="0" x="0"/>
<use xlink:href="#g3956" transform="translate(100.00002,60.000263)" height="280" width="280" y="0" x="0"/>
<use xlink:href="#g3956" transform="translate(100.00002,80.000351)" height="280" width="280" y="0" x="0"/>
<use xlink:href="#g3956" transform="translate(100.00002,100.00044)" height="280" width="280" y="0" x="0"/>
<use xlink:href="#g3956" transform="translate(100.00002,120.00053)" height="280" width="280" y="0" x="0"/>
<use xlink:href="#g3956" transform="translate(100.00002,140.00061)" height="280" width="280" y="0" x="0"/>
<use xlink:href="#g3956" transform="translate(100.00002,160.0007)" height="280" width="280" y="0" x="0"/>
<use xlink:href="#g3956" transform="translate(100.00002,180.00079)" height="280" width="280" y="0" x="0"/>
<use xlink:href="#g3956" transform="translate(100.00002,200.00088)" height="280" width="280" y="0" x="0"/>
<use xlink:href="#g3956" transform="translate(100.00002,220.00096)" height="280" width="280" y="0" x="0"/>
<use xlink:href="#g3956" transform="translate(100.00002,240.00105)" height="280" width="280" y="0" x="0"/>
<use xlink:href="#g3956" transform="translate(100.00002,260.00114)" height="280" width="280" y="0" x="0"/>
<use xlink:href="#g3956" transform="translate(120.00002,0)" height="280" width="280" y="0" x="0"/>
<use xlink:href="#g3956" transform="translate(120.00002,20.00009)" height="280" width="280" y="0" x="0"/>
<use xlink:href="#g3956" transform="translate(120.00002,40.000175)" height="280" width="280" y="0" x="0"/>
<use xlink:href="#g3956" transform="translate(120.00002,60.000263)" height="280" width="280" y="0" x="0"/>
<use xlink:href="#g3956" transform="translate(120.00002,80.000351)" height="280" width="280" y="0" x="0"/>
<use xlink:href="#g3956" transform="translate(120.00002,100.00044)" height="280" width="280" y="0" x="0"/>
<use xlink:href="#g3956" transform="translate(120.00002,120.00053)" height="280" width="280" y="0" x="0"/>
<use xlink:href="#g3956" transform="translate(120.00002,140.00061)" height="280" width="280" y="0" x="0"/>
<use xlink:href="#g3956" transform="translate(120.00002,160.0007)" height="280" width="280" y="0" x="0"/>
<use xlink:href="#g3956" transform="translate(120.00002,180.00079)" height="280" width="280" y="0" x="0"/>
<use xlink:href="#g3956" transform="translate(120.00002,200.00088)" height="280" width="280" y="0" x="0"/>
<use xlink:href="#g3956" transform="translate(120.00002,220.00096)" height="280" width="280" y="0" x="0"/>
<use xlink:href="#g3956" transform="translate(120.00002,240.00105)" height="280" width="280" y="0" x="0"/>
<use xlink:href="#g3956" transform="translate(120.00002,260.00114)" height="280" width="280" y="0" x="0"/>
<use xlink:href="#g3956" transform="translate(140.00003,0)" height="280" width="280" y="0" x="0"/>
<use xlink:href="#g3956" transform="translate(140.00003,20.00009)" height="280" width="280" y="0" x="0"/>
<use xlink:href="#g3956" transform="translate(140.00003,40.000175)" height="280" width="280" y="0" x="0"/>
<use xlink:href="#g3956" transform="translate(140.00003,60.000263)" height="280" width="280" y="0" x="0"/>
<use xlink:href="#g3956" transform="translate(140.00003,80.000351)" height="280" width="280" y="0" x="0"/>
<use xlink:href="#g3956" transform="translate(140.00003,100.00044)" height="280" width="280" y="0" x="0"/>
<use xlink:href="#g3956" transform="translate(140.00003,120.00053)" height="280" width="280" y="0" x="0"/>
<use xlink:href="#g3956" transform="translate(140.00003,140.00061)" height="280" width="280" y="0" x="0"/>
<use xlink:href="#g3956" transform="translate(140.00003,160.0007)" height="280" width="280" y="0" x="0"/>
<use xlink:href="#g3956" transform="translate(140.00003,180.00079)" height="280" width="280" y="0" x="0"/>
<use xlink:href="#g3956" transform="translate(140.00003,200.00088)" height="280" width="280" y="0" x="0"/>
<use xlink:href="#g3956" transform="translate(140.00003,220.00096)" height="280" width="280" y="0" x="0"/>
<use xlink:href="#g3956" transform="translate(140.00003,240.00105)" height="280" width="280" y="0" x="0"/>
<use xlink:href="#g3956" transform="translate(140.00003,260.00114)" height="280" width="280" y="0" x="0"/>
<use xlink:href="#g3956" transform="translate(160.00003,0)" height="280" width="280" y="0" x="0"/>
<use xlink:href="#g3956" transform="translate(160.00003,20.00009)" height="280" width="280" y="0" x="0"/>
<use xlink:href="#g3956" transform="translate(160.00003,40.000175)" height="280" width="280" y="0" x="0"/>
<use xlink:href="#g3956" transform="translate(160.00003,60.000263)" height="280" width="280" y="0" x="0"/>
<use xlink:href="#g3956" transform="translate(160.00003,80.000351)" height="280" width="280" y="0" x="0"/>
<use xlink:href="#g3956" transform="translate(160.00003,100.00044)" height="280" width="280" y="0" x="0"/>
<use xlink:href="#g3956" transform="translate(160.00003,120.00053)" height="280" width="280" y="0" x="0"/>
<use xlink:href="#g3956" transform="translate(160.00003,140.00061)" height="280" width="280" y="0" x="0"/>
<use xlink:href="#g3956" transform="translate(160.00003,160.0007)" height="280" width="280" y="0" x="0"/>
<use xlink:href="#g3956" transform="translate(160.00003,180.00079)" height="280" width="280" y="0" x="0"/>
<use xlink:href="#g3956" transform="translate(160.00003,200.00088)" height="280" width="280" y="0" x="0"/>
<use xlink:href="#g3956" transform="translate(160.00003,220.00096)" height="280" width="280" y="0" x="0"/>
<use xlink:href="#g3956" transform="translate(160.00003,240.00105)" height="280" width="280" y="0" x="0"/>
<use xlink:href="#g3956" transform="translate(160.00003,260.00114)" height="280" width="280" y="0" x="0"/>
<use xlink:href="#g3956" transform="translate(180.00004,0)" height="280" width="280" y="0" x="0"/>
<use xlink:href="#g3956" transform="translate(180.00004,20.00009)" height="280" width="280" y="0" x="0"/>
<use xlink:href="#g3956" transform="translate(180.00004,40.000175)" height="280" width="280" y="0" x="0"/>
<use xlink:href="#g3956" transform="translate(180.00004,60.000263)" height="280" width="280" y="0" x="0"/>
<use xlink:href="#g3956" transform="translate(180.00004,80.000351)" height="280" width="280" y="0" x="0"/>
<use xlink:href="#g3956" transform="translate(180.00004,100.00044)" height="280" width="280" y="0" x="0"/>
<use xlink:href="#g3956" transform="translate(180.00004,120.00053)" height="280" width="280" y="0" x="0"/>
<use xlink:href="#g3956" transform="translate(180.00004,140.00061)" height="280" width="280" y="0" x="0"/>
<use xlink:href="#g3956" transform="translate(180.00004,160.0007)" height="280" width="280" y="0" x="0"/>
<use xlink:href="#g3956" transform="translate(180.00004,180.00079)" height="280" width="280" y="0" x="0"/>
<use xlink:href="#g3956" transform="translate(180.00004,200.00088)" height="280" width="280" y="0" x="0"/>
<use xlink:href="#g3956" transform="translate(180.00004,220.00096)" height="280" width="280" y="0" x="0"/>
<use xlink:href="#g3956" transform="translate(180.00004,240.00105)" height="280" width="280" y="0" x="0"/>
<use xlink:href="#g3956" transform="translate(180.00004,260.00114)" height="280" width="280" y="0" x="0"/>
<use xlink:href="#g3956" transform="translate(200.00004,0)" height="280" width="280" y="0" x="0"/>
<use xlink:href="#g3956" transform="translate(200.00004,20.00009)" height="280" width="280" y="0" x="0"/>
<use xlink:href="#g3956" transform="translate(200.00004,40.000175)" height="280" width="280" y="0" x="0"/>
<use xlink:href="#g3956" transform="translate(200.00004,60.000263)" height="280" width="280" y="0" x="0"/>
<use xlink:href="#g3956" transform="translate(200.00004,80.000351)" height="280" width="280" y="0" x="0"/>
<use xlink:href="#g3956" transform="translate(200.00004,100.00044)" height="280" width="280" y="0" x="0"/>
<use xlink:href="#g3956" transform="translate(200.00004,120.00053)" height="280" width="280" y="0" x="0"/>
<use xlink:href="#g3956" transform="translate(200.00004,140.00061)" height="280" width="280" y="0" x="0"/>
<use xlink:href="#g3956" transform="translate(200.00004,160.0007)" height="280" width="280" y="0" x="0"/>
<use xlink:href="#g3956" transform="translate(200.00004,180.00079)" height="280" width="280" y="0" x="0"/>
<use xlink:href="#g3956" transform="translate(200.00004,200.00088)" height="280" width="280" y="0" x="0"/>
<use xlink:href="#g3956" transform="translate(200.00004,220.00096)" height="280" width="280" y="0" x="0"/>
<use xlink:href="#g3956" transform="translate(200.00004,240.00105)" height="280" width="280" y="0" x="0"/>
<use xlink:href="#g3956" transform="translate(200.00004,260.00114)" height="280" width="280" y="0" x="0"/>
<use xlink:href="#g3956" transform="translate(220.00004,0)" height="280" width="280" y="0" x="0"/>
<use xlink:href="#g3956" transform="translate(220.00004,20.00009)" height="280" width="280" y="0" x="0"/>
<use xlink:href="#g3956" transform="translate(220.00004,40.000175)" height="280" width="280" y="0" x="0"/>
<use xlink:href="#g3956" transform="translate(220.00004,60.000263)" height="280" width="280" y="0" x="0"/>
<use xlink:href="#g3956" transform="translate(220.00004,80.000351)" height="280" width="280" y="0" x="0"/>
<use xlink:href="#g3956" transform="translate(220.00004,100.00044)" height="280" width="280" y="0" x="0"/>
<use xlink:href="#g3956" transform="translate(220.00004,120.00053)" height="280" width="280" y="0" x="0"/>
<use xlink:href="#g3956" transform="translate(220.00004,140.00061)" height="280" width="280" y="0" x="0"/>
<use xlink:href="#g3956" transform="translate(220.00004,160.0007)" height="280" width="280" y="0" x="0"/>
<use xlink:href="#g3956" transform="translate(220.00004,180.00079)" height="280" width="280" y="0" x="0"/>
<use xlink:href="#g3956" transform="translate(220.00004,200.00088)" height="280" width="280" y="0" x="0"/>
<use xlink:href="#g3956" transform="translate(220.00004,220.00096)" height="280" width="280" y="0" x="0"/>
<use xlink:href="#g3956" transform="translate(220.00004,240.00105)" height="280" width="280" y="0" x="0"/>
<use xlink:href="#g3956" transform="translate(220.00004,260.00114)" height="280" width="280" y="0" x="0"/>
<use xlink:href="#g3956" transform="translate(240.00005,0)" height="280" width="280" y="0" x="0"/>
<use xlink:href="#g3956" transform="translate(240.00005,20.00009)" height="280" width="280" y="0" x="0"/>
<use xlink:href="#g3956" transform="translate(240.00005,40.000175)" height="280" width="280" y="0" x="0"/>
<use xlink:href="#g3956" transform="translate(240.00005,60.000263)" height="280" width="280" y="0" x="0"/>
<use xlink:href="#g3956" transform="translate(240.00005,80.000351)" height="280" width="280" y="0" x="0"/>
<use xlink:href="#g3956" transform="translate(240.00005,100.00044)" height="280" width="280" y="0" x="0"/>
<use xlink:href="#g3956" transform="translate(240.00005,120.00053)" height="280" width="280" y="0" x="0"/>
<use xlink:href="#g3956" transform="translate(240.00005,140.00061)" height="280" width="280" y="0" x="0"/>
<use xlink:href="#g3956" transform="translate(240.00005,160.0007)" height="280" width="280" y="0" x="0"/>
<use xlink:href="#g3956" transform="translate(240.00005,180.00079)" height="280" width="280" y="0" x="0"/>
<use xlink:href="#g3956" transform="translate(240.00005,200.00088)" height="280" width="280" y="0" x="0"/>
<use xlink:href="#g3956" transform="translate(240.00005,220.00096)" height="280" width="280" y="0" x="0"/>
<use xlink:href="#g3956" transform="translate(240.00005,240.00105)" height="280" width="280" y="0" x="0"/>
<use xlink:href="#g3956" transform="translate(240.00005,260.00114)" height="280" width="280" y="0" x="0"/>
<use xlink:href="#g3956" transform="translate(260.00005,0)" height="280" width="280" y="0" x="0"/>
<use xlink:href="#g3956" transform="translate(260.00005,20.00009)" height="280" width="280" y="0" x="0"/>
<use xlink:href="#g3956" transform="translate(260,40.00114)" height="280" width="280" y="0" x="0"/>
<use xlink:href="#g3956" transform="translate(260,60.00114)" height="280" width="280" y="0" x="0"/>
<use xlink:href="#g3956" transform="translate(260.00005,80.000351)" height="280" width="280" y="0" x="0"/>
<use xlink:href="#g3956" transform="translate(260.00005,100.00044)" height="280" width="280" y="0" x="0"/>
<use xlink:href="#g3956" transform="translate(260.00005,120.00053)" height="280" width="280" y="0" x="0"/>
<use xlink:href="#g3956" transform="translate(260.00005,140.00061)" height="280" width="280" y="0" x="0"/>
<use xlink:href="#g3956" transform="translate(260.00005,160.0007)" height="280" width="280" y="0" x="0"/>
<use xlink:href="#g3956" transform="translate(260.00005,180.00079)" height="280" width="280" y="0" x="0"/>
<use xlink:href="#g3956" transform="translate(260.00005,200.00088)" height="280" width="280" y="0" x="0"/>
<use xlink:href="#g3956" transform="translate(260.00005,220.00096)" height="280" width="280" y="0" x="0"/>
<use xlink:href="#g3956" transform="translate(260.00005,240.00105)" height="280" width="280" y="0" x="0"/>
<use xlink:href="#g3956" transform="translate(260.00005,260.00114)" height="280" width="280" y="0" x="0"/>
<path d="m94,90a4,4,0,0,1,-8,0,4,4,0,1,1,8,0z" fill="#0073cf" fill-rule="evenodd"/>
<path d="m194,190a4,4,0,0,1,-8,0,4,4,0,1,1,8,0z" fill="#00c000" fill-rule="evenodd"/>
</svg>
