<?xml version="1.0" encoding="UTF-8" standalone="no"?>
<svg xmlns:rdf="http://www.w3.org/1999/02/22-rdf-syntax-ns#" xmlns="http://www.w3.org/2000/svg" height="200" width="200" version="1.1" xmlns:cc="http://creativecommons.org/ns#" xmlns:dc="http://purl.org/dc/elements/1.1/">
 <path d="m200 100a100 100 0 0 1 -200 0 100 100 0 1 1 200 0z" fill="#70716d"/>
 <path d="m164 100a64 64 0 0 1 -128 0 64 64 0 1 1 128 0z" fill="#9c9c90"/>
 <path fill="#fafafa" d="m36 100a18 18 0 0 1 -36 0 18 18 0 1 1 36 0z"/>
 <path fill="#555753" d="m18 88.75c6.2132 0 11.25 5.0368 11.25 11.25h-4.8214c0-3.5504-2.8782-6.4285-6.4285-6.4285-3.5504 0-6.4286 2.8782-6.4286 6.4285 0 1.8346 0.77491 3.4604 2.009 4.6205l3.0134-3.0134v9.6426h-9.6426l3.2143-3.2143c-2.1501-2.0914-3.4151-4.9594-3.4151-8.0357 0-6.2132 5.0368-11.25 11.25-11.25z"/>
 <path fill="#fafafa" d="m118 182a18 18 0 0 1 -36 0 18 18 0 1 1 36 0z"/>
 <path fill="#555753" d="m95.5 173-9 9 9 8.9438v-6.2438h9v6.3l9-9-9-8.9438v6.2438h-9z"/>
 <g transform="matrix(-.9 0 0 .9 200 10)">
  <path fill="#fafafa" d="m40 100a20 20 0 0 1 -40 0 20 20 0 1 1 40 0z"/>
  <path fill="#555753" d="m20 87.5c6.9035 0 12.5 5.5964 12.5 12.5h-5.3571c0-3.9449-3.198-7.1428-7.1428-7.1428-3.9449 0-7.1429 3.198-7.1429 7.1428 0 2.0384 0.86101 3.8449 2.2322 5.1339l3.3482-3.3482v10.714h-10.714l3.5714-3.5714c-2.389-2.3238-3.7946-5.5105-3.7946-8.9286 0-6.9036 5.5964-12.5 12.5-12.5z"/>
 </g>
 <g transform="matrix(0 .9 -.9 0 262 -72)">
  <path fill="#fafafa" d="m120 180a20 20 0 0 1 -40 0 20 20 0 1 1 40 0z"/>
  <path fill="#555753" d="m95 170-10 10 10 9.9375v-6.9375h10v7l10-10-10-9.9375v6.9375h-10z"/>
 </g>
</svg>
