<?xml version="1.0" encoding="UTF-8" standalone="no"?>
<svg xmlns:rdf="http://www.w3.org/1999/02/22-rdf-syntax-ns#" xmlns="http://www.w3.org/2000/svg" height="280" width="280" version="1.1" xmlns:cc="http://creativecommons.org/ns#" xmlns:xlink="http://www.w3.org/1999/xlink" xmlns:dc="http://purl.org/dc/elements/1.1/">
 <path d="m10 0h260l10 10v260l-10 10h-260l-10-10v-260z" fill="#494347"/>
 <g id="b">
  <g id="c" transform="translate(-10,80)">
   <path d="m10-70 10-10 10 10h-1l-9-9-9 9h-1z" fill-rule="evenodd" fill="#3b3639"/>
   <path d="m20-60 10-10h-1l-9 9z" fill-rule="evenodd" fill="#6d686b"/>
   <path d="m20-60-10-10h1l9 9z" fill-rule="evenodd" fill="#6d686b"/>
  </g>
  <use xlink:href="#c" transform="translate(20)" y="0" x="0"/>
  <use xlink:href="#c" transform="translate(40)" y="0" x="0"/>
  <use xlink:href="#c" transform="translate(60)" y="0" x="0"/>
  <use xlink:href="#c" transform="translate(80)" y="0" x="0"/>
  <use xlink:href="#c" transform="translate(100)" y="0" x="0"/>
  <use xlink:href="#c" transform="translate(120)" y="0" x="0"/>
  <use xlink:href="#c" transform="translate(140)" y="0" x="0"/>
  <use xlink:href="#c" transform="translate(160)" y="0" x="0"/>
  <use xlink:href="#c" transform="translate(180)" y="0" x="0"/>
  <use xlink:href="#c" transform="translate(200)" y="0" x="0"/>
  <use xlink:href="#c" transform="translate(220)" y="0" x="0"/>
  <use xlink:href="#c" transform="translate(240)" y="0" x="0"/>
  <use xlink:href="#c" transform="translate(260)" y="0" x="0"/>
 </g>
 <use xlink:href="#b" transform="translate(0,20)" y="0" x="0"/>
 <use xlink:href="#b" transform="translate(0,40)" y="0" x="0"/>
 <use xlink:href="#b" transform="translate(0,60)" y="0" x="0"/>
 <use xlink:href="#b" transform="translate(0,80)" y="0" x="0"/>
 <use xlink:href="#b" transform="translate(0,100)" y="0" x="0"/>
 <use xlink:href="#b" transform="translate(0,120)" y="0" x="0"/>
 <use xlink:href="#b" transform="translate(0,140)" y="0" x="0"/>
 <use xlink:href="#b" transform="translate(0,160)" y="0" x="0"/>
 <use xlink:href="#b" transform="translate(0,180)" y="0" x="0"/>
 <use xlink:href="#b" transform="translate(0,200)" y="0" x="0"/>
 <use xlink:href="#b" transform="translate(0,220)" y="0" x="0"/>
 <use xlink:href="#b" transform="translate(0,240)" y="0" x="0"/>
 <use xlink:href="#b" transform="translate(0,260)" y="0" x="0"/>
 <g id="h" transform="translate(0,-280)">
  <g id="a" transform="translate(40,30)">
   <path d="m-30 270 10-10 10 10h-1l-9-9-9 9h-1z" fill-rule="evenodd" fill="#3b3639"/>
   <path d="m-20 280 10-10h-1l-9 9z" fill-rule="evenodd" fill="#6d686b"/>
   <path d="m-20 280-10-10h1l9 9z" fill-rule="evenodd" fill="#6d686b"/>
  </g>
  <use xlink:href="#a" height="100%" width="100%" y="0" x="0"/>
  <use xlink:href="#a" transform="translate(20)" height="100%" width="100%" y="0" x="0"/>
  <use xlink:href="#a" transform="translate(40)" height="100%" width="100%" y="0" x="0"/>
  <use xlink:href="#a" transform="translate(60)" height="100%" width="100%" y="0" x="0"/>
  <use xlink:href="#a" transform="translate(80)" height="100%" width="100%" y="0" x="0"/>
  <use xlink:href="#a" transform="translate(100)" height="100%" width="100%" y="0" x="0"/>
  <use xlink:href="#a" transform="translate(120)" height="100%" width="100%" y="0" x="0"/>
  <use xlink:href="#a" transform="translate(140)" height="100%" width="100%" y="0" x="0"/>
  <use xlink:href="#a" transform="translate(160)" height="100%" width="100%" y="0" x="0"/>
  <use xlink:href="#a" transform="translate(180)" height="100%" width="100%" y="0" x="0"/>
  <use xlink:href="#a" transform="translate(200)" height="100%" width="100%" y="0" x="0"/>
  <use xlink:href="#a" transform="translate(220)" height="100%" width="100%" y="0" x="0"/>
  <use xlink:href="#a" transform="translate(240)" height="100%" width="100%" y="0" x="0"/>
 </g>
 <use xlink:href="#h" transform="translate(0,20)" height="100%" width="100%" y="0" x="0"/>
 <use xlink:href="#h" transform="translate(0,40)" height="100%" width="100%" y="0" x="0"/>
 <use xlink:href="#h" transform="translate(0,60)" height="100%" width="100%" y="0" x="0"/>
 <use xlink:href="#h" transform="translate(0,80)" height="100%" width="100%" y="0" x="0"/>
 <use xlink:href="#h" transform="translate(0,100)" height="100%" width="100%" y="0" x="0"/>
 <use xlink:href="#h" transform="translate(0,120)" height="100%" width="100%" y="0" x="0"/>
 <use xlink:href="#h" transform="translate(0,140)" height="100%" width="100%" y="0" x="0"/>
 <use xlink:href="#h" transform="translate(0,160)" height="100%" width="100%" y="0" x="0"/>
 <use xlink:href="#h" transform="translate(0,180)" height="100%" width="100%" y="0" x="0"/>
 <use xlink:href="#h" transform="translate(0,200)" height="100%" width="100%" y="0" x="0"/>
 <use xlink:href="#h" transform="translate(0,220)" height="100%" width="100%" y="0" x="0"/>
 <use xlink:href="#h" transform="translate(0,240)" height="100%" width="100%" y="0" x="0"/>
 <path id="d" d="m10 280 10-10 10 10h-1l-9-9-9 9h-1z" fill-rule="evenodd" fill="#3b3639"/>
 <use xlink:href="#d" transform="translate(20)" y="0" x="0"/>
 <use xlink:href="#d" transform="translate(40)" y="0" x="0"/>
 <use xlink:href="#d" transform="translate(60)" y="0" x="0"/>
 <use xlink:href="#d" transform="translate(80)" y="0" x="0"/>
 <use xlink:href="#d" transform="translate(100)" y="0" x="0"/>
 <use xlink:href="#d" transform="translate(120)" y="0" x="0"/>
 <use xlink:href="#d" transform="translate(140)" y="0" x="0"/>
 <use xlink:href="#d" transform="translate(160)" y="0" x="0"/>
 <use xlink:href="#d" transform="translate(180)" y="0" x="0"/>
 <use xlink:href="#d" transform="translate(200)" y="0" x="0"/>
 <use xlink:href="#d" transform="translate(220)" y="0" x="0"/>
 <use xlink:href="#d" transform="translate(240)" y="0" x="0"/>
 <g id="g" fill-rule="evenodd" transform="translate(40,-300)" fill="#6d686b">
  <path d="m-20 310 10-10h-1l-9 9z"/>
  <path d="m-20 310-10-10h1l9 9z"/>
 </g>
 <use xlink:href="#g" transform="translate(20)" y="0" x="0"/>
 <use xlink:href="#g" transform="translate(40)" y="0" x="0"/>
 <use xlink:href="#g" transform="translate(60)" y="0" x="0"/>
 <use xlink:href="#g" transform="translate(80)" y="0" x="0"/>
 <use xlink:href="#g" transform="translate(100)" y="0" x="0"/>
 <use xlink:href="#g" transform="translate(120)" y="0" x="0"/>
 <use xlink:href="#g" transform="translate(140)" y="0" x="0"/>
 <use xlink:href="#g" transform="translate(160)" y="0" x="0"/>
 <use xlink:href="#g" transform="translate(180)" y="0" x="0"/>
 <use xlink:href="#g" transform="translate(200)" y="0" x="0"/>
 <use xlink:href="#g" transform="translate(220)" y="0" x="0"/>
 <use xlink:href="#g" transform="translate(240)" y="0" x="0"/>
 <g id="e" fill-rule="evenodd" transform="translate(20,-280)">
  <path d="m-20 310 10-10h-1l-9 9z" fill="#6d686b"/>
  <path d="m-20 290 10 10h-1l-9-9z" fill="#3b3639"/>
 </g>
 <g id="f" fill-rule="evenodd" transform="translate(300,-280)">
  <path d="m-20 310-10-10h1l9 9z" fill="#6d686b"/>
  <path d="m-20 290-10 10h1l9-9z" fill="#3b3639"/>
 </g>
 <use xlink:href="#f" transform="translate(0,20)" y="0" x="0"/>
 <use xlink:href="#f" transform="translate(0,40)" y="0" x="0"/>
 <use xlink:href="#f" transform="translate(0,60)" y="0" x="0"/>
 <use xlink:href="#f" transform="translate(0,80)" y="0" x="0"/>
 <use xlink:href="#f" transform="translate(0,100)" y="0" x="0"/>
 <use xlink:href="#f" transform="translate(0,120)" y="0" x="0"/>
 <use xlink:href="#f" transform="translate(0,140)" y="0" x="0"/>
 <use xlink:href="#f" transform="translate(0,160)" y="0" x="0"/>
 <use xlink:href="#f" transform="translate(0,180)" y="0" x="0"/>
 <use xlink:href="#f" transform="translate(0,200)" y="0" x="0"/>
 <use xlink:href="#f" transform="translate(0,220)" y="0" x="0"/>
 <use xlink:href="#f" transform="translate(0,240)" y="0" x="0"/>
 <use xlink:href="#e" transform="translate(0,20)" y="0" x="0"/>
 <use xlink:href="#e" transform="translate(0,40)" y="0" x="0"/>
 <use xlink:href="#e" transform="translate(0,60)" y="0" x="0"/>
 <use xlink:href="#e" transform="translate(0,80)" y="0" x="0"/>
 <use xlink:href="#e" transform="translate(0,100)" y="0" x="0"/>
 <use xlink:href="#e" transform="translate(0,120)" y="0" x="0"/>
 <use xlink:href="#e" transform="translate(0,140)" y="0" x="0"/>
 <use xlink:href="#e" transform="translate(0,160)" y="0" x="0"/>
 <use xlink:href="#e" transform="translate(0,180)" y="0" x="0"/>
 <use xlink:href="#e" transform="translate(0,200)" y="0" x="0"/>
 <use xlink:href="#e" transform="translate(0,220)" y="0" x="0"/>
 <use xlink:href="#e" transform="translate(0,240)" y="0" x="0"/>
</svg>
