<?xml version="1.0" encoding="UTF-8"?>
<svg width="280" height="280" version="1.1" xmlns="http://www.w3.org/2000/svg" xmlns:xlink="http://www.w3.org/1999/xlink">
 <path d="m10 0h260l10 10v260l-10 10h-260l-10-10v-260z" fill="#494347"/>
 <g id="b">
  <g id="c" transform="translate(-10,80)">
   <path d="m10-70 10-10 10 10h-1l-9-9-9 9h-1z" fill="#3b3639" fill-rule="evenodd"/>
   <path d="m20-60 10-10h-1l-9 9z" fill="#6d686b" fill-rule="evenodd"/>
   <path d="m20-60-10-10h1l9 9z" fill="#6d686b" fill-rule="evenodd"/>
  </g>
  <use transform="translate(20)" xlink:href="#c"/>
  <use transform="translate(40)" xlink:href="#c"/>
  <use transform="translate(60)" xlink:href="#c"/>
  <use transform="translate(80)" xlink:href="#c"/>
  <use transform="translate(100)" xlink:href="#c"/>
  <use transform="translate(120)" xlink:href="#c"/>
  <use transform="translate(140)" xlink:href="#c"/>
  <use transform="translate(160)" xlink:href="#c"/>
  <use transform="translate(180)" xlink:href="#c"/>
  <use transform="translate(200)" xlink:href="#c"/>
  <use transform="translate(220)" xlink:href="#c"/>
  <use transform="translate(240)" xlink:href="#c"/>
  <use transform="translate(260)" xlink:href="#c"/>
 </g>
 <use transform="translate(0,20)" xlink:href="#b"/>
 <use transform="translate(0,40)" xlink:href="#b"/>
 <use transform="translate(0,60)" xlink:href="#b"/>
 <use transform="translate(0,80)" xlink:href="#b"/>
 <use transform="translate(0,100)" xlink:href="#b"/>
 <use transform="translate(0,120)" xlink:href="#b"/>
 <use transform="translate(0,140)" xlink:href="#b"/>
 <use transform="translate(0,160)" xlink:href="#b"/>
 <use transform="translate(0,180)" xlink:href="#b"/>
 <use transform="translate(0,200)" xlink:href="#b"/>
 <use transform="translate(0,220)" xlink:href="#b"/>
 <use transform="translate(0,240)" xlink:href="#b"/>
 <use transform="translate(0,260)" xlink:href="#b"/>
 <g id="h">
  <g id="a" transform="translate(40,-250)">
   <path d="m-30 270 10-10 10 10h-1l-9-9-9 9z" fill="#3b3639" fill-rule="evenodd"/>
   <path d="m-20 280 10-10h-1l-9 9z" fill="#6d686b" fill-rule="evenodd"/>
   <path d="m-20 280-10-10h1l9 9z" fill="#6d686b" fill-rule="evenodd"/>
  </g>
  <use transform="translate(20)" width="100%" height="100%" xlink:href="#a"/>
  <use transform="translate(40)" width="100%" height="100%" xlink:href="#a"/>
  <use transform="translate(60)" width="100%" height="100%" xlink:href="#a"/>
  <use transform="translate(80)" width="100%" height="100%" xlink:href="#a"/>
  <use transform="translate(100)" width="100%" height="100%" xlink:href="#a"/>
  <use transform="translate(120)" width="100%" height="100%" xlink:href="#a"/>
  <use transform="translate(140)" width="100%" height="100%" xlink:href="#a"/>
  <use transform="translate(160)" width="100%" height="100%" xlink:href="#a"/>
  <use transform="translate(180)" width="100%" height="100%" xlink:href="#a"/>
  <use transform="translate(200)" width="100%" height="100%" xlink:href="#a"/>
  <use transform="translate(220)" width="100%" height="100%" xlink:href="#a"/>
  <use transform="translate(240)" width="100%" height="100%" xlink:href="#a"/>
 </g>
 <path id="d" d="m10 280 10-10 10 10h-1l-9-9-9 9h-1z" fill="#3b3639" fill-rule="evenodd"/>
 <use transform="translate(20)" xlink:href="#d"/>
 <use transform="translate(40)" xlink:href="#d"/>
 <use transform="translate(60)" xlink:href="#d"/>
 <use transform="translate(80)" xlink:href="#d"/>
 <use transform="translate(100)" xlink:href="#d"/>
 <use transform="translate(120)" xlink:href="#d"/>
 <use transform="translate(140)" xlink:href="#d"/>
 <use transform="translate(160)" xlink:href="#d"/>
 <use transform="translate(180)" xlink:href="#d"/>
 <use transform="translate(200)" xlink:href="#d"/>
 <use transform="translate(220)" xlink:href="#d"/>
 <use transform="translate(240)" xlink:href="#d"/>
 <g id="g" transform="translate(40,-300)" fill="#6d686b" fill-rule="evenodd">
  <path d="m-20 310 10-10h-1l-9 9z"/>
  <path d="m-20 310-10-10h1l9 9z"/>
 </g>
 <use transform="translate(20)" xlink:href="#g"/>
 <use transform="translate(40)" xlink:href="#g"/>
 <use transform="translate(60)" xlink:href="#g"/>
 <use transform="translate(80)" xlink:href="#g"/>
 <use transform="translate(100)" xlink:href="#g"/>
 <use transform="translate(120)" xlink:href="#g"/>
 <use transform="translate(140)" xlink:href="#g"/>
 <use transform="translate(160)" xlink:href="#g"/>
 <use transform="translate(180)" xlink:href="#g"/>
 <use transform="translate(200)" xlink:href="#g"/>
 <use transform="translate(220)" xlink:href="#g"/>
 <use transform="translate(240)" xlink:href="#g"/>
 <g id="e" transform="translate(20,-280)" fill-rule="evenodd">
  <path d="m-20 310 10-10h-1l-9 9z" fill="#6d686b"/>
  <path d="m-20 290 10 10h-1l-9-9z" fill="#3b3639"/>
 </g>
 <g id="f" transform="translate(300,-280)" fill-rule="evenodd">
  <path d="m-20 310-10-10h1l9 9z" fill="#6d686b"/>
  <path d="m-20 290-10 10h1l9-9z" fill="#3b3639"/>
 </g>
 <use transform="translate(0,20)" xlink:href="#f"/>
 <use transform="translate(0,40)" xlink:href="#f"/>
 <use transform="translate(0,60)" xlink:href="#f"/>
 <use transform="translate(0,80)" xlink:href="#f"/>
 <use transform="translate(0,100)" xlink:href="#f"/>
 <use transform="translate(0,120)" xlink:href="#f"/>
 <use transform="translate(0,140)" xlink:href="#f"/>
 <use transform="translate(0,160)" xlink:href="#f"/>
 <use transform="translate(0,180)" xlink:href="#f"/>
 <use transform="translate(0,200)" xlink:href="#f"/>
 <use transform="translate(0,220)" xlink:href="#f"/>
 <use transform="translate(0,240)" xlink:href="#f"/>
 <use transform="translate(0,20)" xlink:href="#e"/>
 <use transform="translate(0,40)" xlink:href="#e"/>
 <use transform="translate(0,60)" xlink:href="#e"/>
 <use transform="translate(0,80)" xlink:href="#e"/>
 <use transform="translate(0,100)" xlink:href="#e"/>
 <use transform="translate(0,120)" xlink:href="#e"/>
 <use transform="translate(0,140)" xlink:href="#e"/>
 <use transform="translate(0,160)" xlink:href="#e"/>
 <use transform="translate(0,180)" xlink:href="#e"/>
 <use transform="translate(0,200)" xlink:href="#e"/>
 <use transform="translate(0,220)" xlink:href="#e"/>
 <use transform="translate(0,240)" xlink:href="#e"/>
 <use transform="translate(0,20)" width="100%" height="100%" xlink:href="#h"/>
 <use transform="translate(0,40)" width="100%" height="100%" xlink:href="#h"/>
 <use transform="translate(0,60)" width="100%" height="100%" xlink:href="#h"/>
 <use transform="translate(0,80)" width="100%" height="100%" xlink:href="#h"/>
 <use transform="translate(0,100)" width="100%" height="100%" xlink:href="#h"/>
 <use transform="translate(0,120)" width="100%" height="100%" xlink:href="#h"/>
 <use transform="translate(0,140)" width="100%" height="100%" xlink:href="#h"/>
 <use transform="translate(0,160)" width="100%" height="100%" xlink:href="#h"/>
 <use transform="translate(0,180)" width="100%" height="100%" xlink:href="#h"/>
 <use transform="translate(0,200)" width="100%" height="100%" xlink:href="#h"/>
 <use transform="translate(0,220)" width="100%" height="100%" xlink:href="#h"/>
 <use transform="translate(0,240)" width="100%" height="100%" xlink:href="#h"/>
</svg>
