<?xml version="1.0" encoding="UTF-8"?>
<svg width="196" height="196" version="1.1" xmlns="http://www.w3.org/2000/svg" xmlns:xlink="http://www.w3.org/1999/xlink">
 <rect width="196" height="196" fill="#494347"/>
 <g id="a">
  <g id="b" transform="translate(0,-182)">
   <path d="m14 182h-14v14l0.7-0.7v-12.6h12.6z" fill="#3b3639"/>
   <path d="m14 182-0.7 0.7v12.6h-12.6l-0.7 0.7h14z" fill="#6d686b"/>
  </g>
  <use transform="translate(14)" xlink:href="#b"/>
  <use transform="translate(28)" xlink:href="#b"/>
  <use transform="translate(42)" xlink:href="#b"/>
  <use transform="translate(56)" xlink:href="#b"/>
  <use transform="translate(70)" xlink:href="#b"/>
  <use transform="translate(84)" xlink:href="#b"/>
  <use transform="translate(98)" xlink:href="#b"/>
  <use transform="translate(112)" xlink:href="#b"/>
  <use transform="translate(126)" xlink:href="#b"/>
  <use transform="translate(140)" xlink:href="#b"/>
  <use transform="translate(154)" xlink:href="#b"/>
  <use transform="translate(168)" xlink:href="#b"/>
  <use transform="translate(182)" xlink:href="#b"/>
 </g>
 <use transform="translate(0,14)" xlink:href="#a"/>
 <use transform="translate(0,28)" xlink:href="#a"/>
 <use transform="translate(0,42)" xlink:href="#a"/>
 <use transform="translate(0,56)" xlink:href="#a"/>
 <use transform="translate(0,70)" xlink:href="#a"/>
 <use transform="translate(0,84)" xlink:href="#a"/>
 <use transform="translate(0,98)" xlink:href="#a"/>
 <use transform="translate(0,112)" xlink:href="#a"/>
 <use transform="translate(0,126)" xlink:href="#a"/>
 <use transform="translate(0,140)" xlink:href="#a"/>
 <use transform="translate(0,154)" xlink:href="#a"/>
 <use transform="translate(0,168)" xlink:href="#a"/>
 <use transform="translate(0,182)" xlink:href="#a"/>
</svg>
