<?xml version="1.0" encoding="UTF-8"?>
<svg width="200" height="200" version="1.1" xmlns="http://www.w3.org/2000/svg" xmlns:xlink="http://www.w3.org/1999/xlink">
 <path d="m102.92 0.042969a100 100 0 0 0-102.92 99.957 100 100 0 0 0 200 0 100 100 0 0 0-97.08-99.957zm-1.0508 35.984a64 64 0 0 1 62.131 63.973 64 64 0 0 1-128 0 64 64 0 0 1 65.869-63.973z" fill="#828282" fill-opacity=".75297"/>
 <g id="c" transform="matrix(.9 0 0 .9 0 10)">
  <path d="m40 100a20 20 0 0 1-40 0 20 20 0 1 1 40 0z" fill="#ccc"/>
  <path d="m20 87.5c6.9035 0 12.5 5.5964 12.5 12.5h-5.3571c0-3.9449-3.198-7.1428-7.1428-7.1428-3.9449 0-7.1429 3.198-7.1429 7.1428 0 2.0384 0.86101 3.8449 2.2322 5.1339l3.3482-3.3482v10.714h-10.714l3.5714-3.5714c-2.389-2.3238-3.7946-5.5105-3.7946-8.9286 0-6.9036 5.5964-12.5 12.5-12.5z" fill="#666"/>
 </g>
 <g id="d" transform="matrix(.9 0 0 .9 10 20)">
  <path d="m120 180a20 20 0 0 1-40 0 20 20 0 1 1 40 0z" fill="#ccc"/>
  <path d="m95 170-10 10 10 9.9375v-6.9375h10v7l10-10-10-9.9375v6.9375h-10z" fill="#666"/>
 </g>
 <use transform="matrix(-1,0,0,1,118,-82)" width="100%" height="100%" xlink:href="#c"/>
 <use transform="matrix(0,1,-1,0,364,0)" width="100%" height="100%" xlink:href="#d"/>
 <path d="m164 100a64 64 0 0 1-63.977 64 64 64 0 0 1-64.023-63.954 64 64 0 0 1 63.931-64.046 64 64 0 0 1 64.069 63.908" fill="#b5b5b5" fill-opacity=".75297"/>
</svg>
