<?xml version="1.0" encoding="UTF-8"?>
<svg width="128" height="128" version="1.1" xmlns="http://www.w3.org/2000/svg" xmlns:xlink="http://www.w3.org/1999/xlink">
 <rect x="16.89" y="8.8899" width="94.22" height="110.22" ry="2.3046" fill="#f6f5f4" stroke="#b0ada6" stroke-linejoin="round" stroke-width="3.7798"/>
 <path d="m50 64h28v-14h-14v-14h-23.692c-2.1538 0-4.3077 2.1538-4.3077 4.3077v9.6922h14z" fill="#e01b24" fill-rule="evenodd" stroke-width=".53846"/>
 <path id="h" d="m36 50 2.1538-2.1538h9.6923l2.1538 2.1538z" fill="#c6161f" fill-rule="evenodd" stroke-width=".53846"/>
 <use transform="translate(14)" width="100%" height="100%" xlink:href="#h"/>
 <use transform="translate(14 14)" width="100%" height="100%" xlink:href="#h"/>
 <use transform="translate(28 14)" width="100%" height="100%" xlink:href="#h"/>
 <path id="n" d="m50 36 2.1538 2.1538h9.6923l2.1538-2.1538z" fill="#e73b43" fill-rule="evenodd" stroke-width=".53846"/>
 <use transform="translate(7.3012e-8 14)" width="100%" height="100%" xlink:href="#n"/>
 <use transform="translate(14 14)" width="100%" height="100%" xlink:href="#n"/>
 <path id="m" d="m50 36 2.1538 2.1538v9.6922l-2.1538 2.1538z" fill="#e6323a" fill-rule="evenodd" stroke-width=".53846"/>
 <use transform="translate(7.3012e-8 14)" width="100%" height="100%" xlink:href="#m"/>
 <use transform="translate(14 14)" width="100%" height="100%" xlink:href="#m"/>
 <path id="c" d="m50 50-2.1538-2.1538v-9.6922l2.1538-2.1538z" fill="#cd1922" fill-rule="evenodd" stroke-width=".53846"/>
 <use transform="translate(14 14)" width="100%" height="100%" xlink:href="#c"/>
 <use transform="translate(14)" width="100%" height="100%" xlink:href="#c"/>
 <use transform="translate(28 14)" width="100%" height="100%" xlink:href="#c"/>
 <g transform="matrix(.53846 0 0 .53846 29.538 29.539)" fill-rule="evenodd">
  <path d="m14.503 14.542 1.4971 1.4577v18l-4 4v-18c0.02078-3.241 2.5029-5.4577 2.5029-5.4577z" fill="#e6323a"/>
  <path d="m14.533 14.527 1.467 1.4727h18l4-4h-18c-3.3465 0.04519-5.467 2.5273-5.467 2.5273z" fill="#e73b42"/>
  <path d="m64 12h44c3.9627 0.04261 7.9574 4.0799 8 8v70h-26v-52h-26z" fill="#33d17a"/>
  <path id="g" d="m64 38 4-4h18l4 4z" fill="#27bf6c" fill-rule="evenodd"/>
 </g>
 <use transform="matrix(.53846 0 0 .53846 43.538 29.539)" width="100%" height="100%" xlink:href="#g"/>
 <use transform="matrix(.53846 0 0 .53846 43.538 43.539)" width="100%" height="100%" xlink:href="#g"/>
 <use transform="matrix(.53846 0 0 .53846 43.538 57.538)" width="100%" height="100%" xlink:href="#g"/>
 <path id="f" d="m64 36 2.1538 2.1538v9.6922l-2.1538 2.1538z" fill="#42d886" fill-rule="evenodd" stroke-width=".53846"/>
 <use transform="translate(14)" width="100%" height="100%" xlink:href="#f"/>
 <use transform="translate(14 28)" width="100%" height="100%" xlink:href="#f"/>
 <use transform="translate(14 14)" width="100%" height="100%" xlink:href="#f"/>
 <path id="p" d="m64 36 2.1538 2.1538h9.6923l2.1538-2.1538z" fill="#57df95" fill-rule="evenodd" stroke-width=".53846"/>
 <use transform="translate(14 14)" width="100%" height="100%" xlink:href="#p"/>
 <use transform="translate(14 28)" width="100%" height="100%" xlink:href="#p"/>
 <path id="o" d="m78 36-2.1538 2.1538v9.6922l2.1538 2.1538z" fill="#29cb73" fill-rule="evenodd" stroke-width=".53846"/>
 <use transform="translate(14 14)" width="100%" height="100%" xlink:href="#o"/>
 <use transform="translate(14 28)" width="100%" height="100%" xlink:href="#o"/>
 <g transform="matrix(.53846 0 0 .53846 29.538 29.539)" fill-rule="evenodd">
  <path d="m90 12 4 4h18l1.4274-1.4594s-2.4274-2.5406-5.4274-2.5406z" fill="#57df95"/>
  <path d="m116 20c-0.0151-2.9828-2.5466-5.4534-2.5466-5.4534l-1.4534 1.4534v18l4 4z" fill="#29cb73"/>
  <path d="m12 38v70c0.0213 4.0053 4 7.9997 7.984 7.9997l44.015-2e-3 9.99e-4 -25.998h-26v-52z" fill="#f6d32d"/>
  <path id="j" d="m38 64h-26l4-4h18z" fill="#e1bf09" fill-rule="evenodd"/>
 </g>
 <use transform="matrix(.53846 0 0 .53846 29.538 43.539)" width="100%" height="100%" xlink:href="#j"/>
 <use transform="matrix(.53846 0 0 .53846 43.538 57.538)" width="100%" height="100%" xlink:href="#j"/>
 <path id="a" d="m50 50h-14l2.1538 2.1538h9.6923z" fill="#f9e263" fill-rule="evenodd" stroke-width=".53846"/>
 <use transform="translate(7.3012e-8 14)" width="100%" height="100%" xlink:href="#a"/>
 <use transform="translate(14 28)" width="100%" height="100%" xlink:href="#a"/>
 <path id="i" d="m36 64v-14l2.1538 2.1538v9.6922z" fill="#f7da51" fill-rule="evenodd" stroke-width=".53846"/>
 <use transform="translate(7.3012e-8 14)" width="100%" height="100%" xlink:href="#i"/>
 <use transform="translate(14 28)" width="100%" height="100%" xlink:href="#i"/>
 <path id="b" d="m50 50v14l-2.1538-2.1538v-9.6922z" fill="#efc70b" fill-rule="evenodd" stroke-width=".53846"/>
 <use transform="translate(7.3012e-8 14)" width="100%" height="100%" xlink:href="#b"/>
 <use transform="translate(14 28)" width="100%" height="100%" xlink:href="#b"/>
 <use transform="translate(7.3012e-8 28)" width="100%" height="100%" xlink:href="#b"/>
 <use transform="translate(7.3012e-8 28)" width="100%" height="100%" xlink:href="#a"/>
 <g fill-rule="evenodd" stroke-width=".53846">
  <path d="m36 87.692v-9.6922l2.1538 2.1538v9.6922l-0.78007 0.78006s-1.3508-1.0525-1.3738-2.9339z" fill="#f7da51"/>
  <path d="m50 92h-9.6923c-1.6978 0.02294-2.9339-1.3738-2.9339-1.3738l0.78007-0.78006h9.6923z" fill="#e0bb0a"/>
  <path d="m50 64h28v14h14v9.6551c0 2.2256-2.1281 4.3679-4.3077 4.3449h-23.692v-14h-14z" fill="#1c71d8"/>
  <path id="l" d="m50 78 2.1538-2.1538h9.6923l2.1538 2.1538z" fill="#1a68c7" fill-rule="evenodd" stroke-width=".53846"/>
 </g>
 <use transform="translate(14)" width="100%" height="100%" xlink:href="#l"/>
 <use transform="translate(13.999 13.999)" width="100%" height="100%" xlink:href="#l"/>
 <path d="m77.999 92h9.6923c1.6978 0.02294 2.9339-1.3738 2.9339-1.3738l-0.78007-0.78006h-9.6923z" fill="#1a68c7" fill-rule="evenodd" stroke-width=".53846"/>
 <path id="e" d="m50 64 2.1538 2.1538h9.6923l2.1538-2.1538z" fill="#3585e5" fill-rule="evenodd" stroke-width=".53846"/>
 <use transform="translate(14)" width="100%" height="100%" xlink:href="#e"/>
 <use transform="translate(14 14)" width="100%" height="100%" xlink:href="#e"/>
 <use transform="translate(28 14)" width="100%" height="100%" xlink:href="#e"/>
 <path id="d" d="m50 78 2.1538-2.1538v-9.6922l-2.1538-2.1538z" fill="#2078e2" fill-rule="evenodd" stroke-width=".53846"/>
 <use transform="translate(14)" width="100%" height="100%" xlink:href="#d"/>
 <use transform="translate(14 14)" width="100%" height="100%" xlink:href="#d"/>
 <use transform="translate(27.999 13.999)" width="100%" height="100%" xlink:href="#d"/>
 <path id="k" d="m64 78-2.1538-2.1538v-9.6922l2.1538-2.1538z" fill="#1b6bce" fill-rule="evenodd" stroke-width=".53846"/>
 <use transform="translate(14)" width="100%" height="100%" xlink:href="#k"/>
 <use transform="translate(14 14)" width="100%" height="100%" xlink:href="#k"/>
 <path d="m92 87.692v-9.6922l-2.1538 2.1538v9.6922l0.78007 0.78006s1.3508-1.0525 1.3738-2.9339z" fill="#1b6bce" fill-rule="evenodd" stroke-width=".53846"/>
</svg>
