<?xml version="1.0" encoding="UTF-8"?>
<svg width="128" height="128" version="1.1" xmlns="http://www.w3.org/2000/svg" xmlns:xlink="http://www.w3.org/1999/xlink">
 <rect x="16.89" y="8.8899" width="94.22" height="110.22" ry="2.3046" fill="#f6f5f4" stroke="#b0ada6" stroke-linejoin="round" stroke-width="3.7798"/>
 <path d="m50 64h28v-14h-14v-14h-23.692c-2.1538 0-4.3077 2.1538-4.3077 4.3077v9.6922h14z" fill="#e01b24" fill-rule="evenodd" stroke-width=".53846"/>
 <path id="h" d="m36 50 2.1538-2.1538h9.6923l2.1538 2.1538z" fill="#c6161f" fill-rule="evenodd" stroke-width=".53846"/>
 <use transform="translate(14)" width="100%" height="100%" xlink:href="#h"/>
 <use transform="translate(14 14)" width="100%" height="100%" xlink:href="#h"/>
 <use transform="translate(28 14)" width="100%" height="100%" xlink:href="#h"/>
 <path id="n" d="m50 36 2.1538 2.1538h9.6923l2.1538-2.1538z" fill="#e73b43" fill-rule="evenodd" stroke-width=".53846"/>
 <use transform="translate(0 14)" width="100%" height="100%" xlink:href="#n"/>
 <use transform="translate(14 14)" width="100%" height="100%" xlink:href="#n"/>
 <path id="m" d="m50 36 2.1538 2.1538v9.6922l-2.1538 2.1538z" fill="#e6323a" fill-rule="evenodd" stroke-width=".53846"/>
 <use transform="translate(0 14)" width="100%" height="100%" xlink:href="#m"/>
 <use transform="translate(14 14)" width="100%" height="100%" xlink:href="#m"/>
 <path id="c" d="m50 50-2.1538-2.1538v-9.6922l2.1538-2.1538z" fill="#cd1922" fill-rule="evenodd" stroke-width=".53846"/>
 <use transform="translate(14 14)" width="100%" height="100%" xlink:href="#c"/>
 <use transform="translate(14)" width="100%" height="100%" xlink:href="#c"/>
 <use transform="translate(28 14)" width="100%" height="100%" xlink:href="#c"/>
 <g fill-rule="evenodd" stroke-width=".53846">
  <path d="m37.348 37.369 0.80613 0.78491v9.6922l-2.1538 2.1538v-9.6922c0.01119-1.7451 1.3477-2.9387 1.3477-2.9387z" fill="#e6323a"/>
  <path d="m37.364 37.361 0.78992 0.79299h9.6923l2.1538-2.1538h-9.6923c-1.802 0.02433-2.9438 1.3608-2.9438 1.3608z" fill="#e73b42"/>
  <path d="m64 36h23.692c2.1338 0.022943 4.2848 2.1969 4.3077 4.3077v37.692h-14v-28h-14z" fill="#2ec27e"/>
  <path id="g" d="m64 50 2.1538-2.1538h9.6923l2.1538 2.1538z" fill="#2ab073" fill-rule="evenodd" stroke-width=".53846"/>
 </g>
 <use transform="translate(14)" width="100%" height="100%" xlink:href="#g"/>
 <use transform="translate(14 14)" width="100%" height="100%" xlink:href="#g"/>
 <use transform="translate(14 28)" width="100%" height="100%" xlink:href="#g"/>
 <path id="f" d="m64 36 2.1538 2.1538v9.6922l-2.1538 2.1538z" fill="#30ca85" fill-rule="evenodd" stroke-width=".53846"/>
 <use transform="translate(14)" width="100%" height="100%" xlink:href="#f"/>
 <use transform="translate(14 28)" width="100%" height="100%" xlink:href="#f"/>
 <use transform="translate(14 14)" width="100%" height="100%" xlink:href="#f"/>
 <path id="p" d="m64 36 2.1538 2.1538h9.6923l2.1538-2.1538z" fill="#4fd398" fill-rule="evenodd" stroke-width=".53846"/>
 <use transform="translate(14 14)" width="100%" height="100%" xlink:href="#p"/>
 <use transform="translate(14 28)" width="100%" height="100%" xlink:href="#p"/>
 <path id="o" d="m78 36-2.1538 2.1538v9.6922l2.1538 2.1538z" fill="#2fbb7c" fill-rule="evenodd" stroke-width=".53846"/>
 <use transform="translate(14 14)" width="100%" height="100%" xlink:href="#o"/>
 <use transform="translate(14 28)" width="100%" height="100%" xlink:href="#o"/>
 <g transform="matrix(.53846 0 0 .53846 29.538 29.539)" fill-rule="evenodd">
  <path d="m90 12 4 4h18l1.4274-1.4594s-2.4274-2.5406-5.4274-2.5406z" fill="#4fd398"/>
  <path d="m116 20c-0.0151-2.9828-2.5466-5.4534-2.5466-5.4534l-1.4534 1.4534v18l4 4z" fill="#2fbb7c"/>
  <path d="m12 38v70c0.0213 4.0053 4 7.9997 7.984 7.9997l44.015-2e-3 9.99e-4 -25.998h-26v-52z" fill="#f6d32d"/>
  <path id="j" d="m38 64h-26l4-4h18z" fill="#e1bf09" fill-rule="evenodd"/>
 </g>
 <use transform="matrix(.53846 0 0 .53846 29.538 43.539)" width="100%" height="100%" xlink:href="#j"/>
 <use transform="matrix(.53846 0 0 .53846 43.538 57.538)" width="100%" height="100%" xlink:href="#j"/>
 <path id="a" d="m50 50h-14l2.1538 2.1538h9.6923z" fill="#f9e263" fill-rule="evenodd" stroke-width=".53846"/>
 <use transform="translate(0 14)" width="100%" height="100%" xlink:href="#a"/>
 <use transform="translate(14 28)" width="100%" height="100%" xlink:href="#a"/>
 <path id="i" d="m36 64v-14l2.1538 2.1538v9.6922z" fill="#f7da51" fill-rule="evenodd" stroke-width=".53846"/>
 <use transform="translate(0 14)" width="100%" height="100%" xlink:href="#i"/>
 <use transform="translate(14 28)" width="100%" height="100%" xlink:href="#i"/>
 <path id="b" d="m50 50v14l-2.1538-2.1538v-9.6922z" fill="#efc70b" fill-rule="evenodd" stroke-width=".53846"/>
 <use transform="translate(0 14)" width="100%" height="100%" xlink:href="#b"/>
 <use transform="translate(14 28)" width="100%" height="100%" xlink:href="#b"/>
 <use transform="translate(0 28)" width="100%" height="100%" xlink:href="#b"/>
 <use transform="translate(0 28)" width="100%" height="100%" xlink:href="#a"/>
 <g transform="matrix(.53846 0 0 .53846 29.538 29.539)" fill-rule="evenodd">
  <path d="m12 108v-18l4 4v18l-1.4487 1.4487s-2.5087-1.9547-2.5513-5.4487z" fill="#f7da51"/>
  <path d="m38 116h-18c-3.1531 0.0426-5.4487-2.5513-5.4487-2.5513l1.4487-1.4487h18z" fill="#e0bb0a"/>
  <path d="m38 64h52v26h26v17.931c0 4.1332-3.9521 8.1118-8 8.0692h-44v-26h-26z" fill="#1c71d8"/>
  <path id="l" d="m38 90 4-4h18l4 4z" fill="#1a68c7" fill-rule="evenodd"/>
 </g>
 <use transform="matrix(.53846 0 0 .53846 43.538 29.539)" width="100%" height="100%" xlink:href="#l"/>
 <use transform="matrix(.53846 0 0 .53846 43.538 43.537)" width="100%" height="100%" xlink:href="#l"/>
 <path d="m77.999 92h9.6923c1.6978 0.02294 2.9339-1.3738 2.9339-1.3738l-0.78007-0.78006h-9.6923z" fill="#1a68c7" fill-rule="evenodd" stroke-width=".53846"/>
 <path id="e" d="m50 64 2.1538 2.1538h9.6923l2.1538-2.1538z" fill="#3585e5" fill-rule="evenodd" stroke-width=".53846"/>
 <use transform="translate(14)" width="100%" height="100%" xlink:href="#e"/>
 <use transform="translate(14 14)" width="100%" height="100%" xlink:href="#e"/>
 <use transform="translate(28 14)" width="100%" height="100%" xlink:href="#e"/>
 <path id="d" d="m50 78 2.1538-2.1538v-9.6922l-2.1538-2.1538z" fill="#2078e2" fill-rule="evenodd" stroke-width=".53846"/>
 <use transform="translate(14)" width="100%" height="100%" xlink:href="#d"/>
 <use transform="translate(14 14)" width="100%" height="100%" xlink:href="#d"/>
 <use transform="translate(27.999 13.999)" width="100%" height="100%" xlink:href="#d"/>
 <path id="k" d="m64 78-2.1538-2.1538v-9.6922l2.1538-2.1538z" fill="#1b6bce" fill-rule="evenodd" stroke-width=".53846"/>
 <use transform="translate(14)" width="100%" height="100%" xlink:href="#k"/>
 <use transform="translate(14 14)" width="100%" height="100%" xlink:href="#k"/>
 <path d="m92 87.692v-9.6922l-2.1538 2.1538v9.6922l0.78007 0.78006s1.3508-1.0525 1.3738-2.9339z" fill="#1b6bce" fill-rule="evenodd" stroke-width=".53846"/>
</svg>
