<?xml version="1.0" encoding="UTF-8"?>
<svg width="48" height="48" version="1.1" xmlns="http://www.w3.org/2000/svg" xmlns:xlink="http://www.w3.org/1999/xlink">
 <g>
  <rect x="5.5003" y="2.4997" width="37" height="43" ry=".89909" fill="#f6f5f4" stroke="#b0ada6" stroke-linejoin="round"/>
  <path d="m19 24h10v-5h-5v-5h-8.4615c-0.76923 0-1.5385 0.76923-1.5385 1.5385v3.4615h5z" fill="#e01b24" fill-rule="evenodd"/>
  <path id="h" d="m14 19 0.76923-0.76923h3.4615l0.76923 0.76923z" fill="#c6161f" fill-rule="evenodd"/>
 </g>
 <use transform="translate(5)" width="100%" height="100%" xlink:href="#h"/>
 <use transform="translate(5,5)" width="100%" height="100%" xlink:href="#h"/>
 <use transform="translate(10,5)" width="100%" height="100%" xlink:href="#h"/>
 <path id="n" d="m19 14 0.76923 0.76923h3.4615l0.76923-0.76923z" fill="#e73b43" fill-rule="evenodd"/>
 <use transform="translate(0 5)" width="100%" height="100%" xlink:href="#n"/>
 <use transform="translate(5 5)" width="100%" height="100%" xlink:href="#n"/>
 <path id="m" d="m19 14 0.76923 0.76923v3.4615l-0.76923 0.76923z" fill="#e6323a" fill-rule="evenodd"/>
 <use transform="translate(0 5)" width="100%" height="100%" xlink:href="#m"/>
 <use transform="translate(5 5)" width="100%" height="100%" xlink:href="#m"/>
 <path id="c" d="m19 19-0.76923-0.76923v-3.4615l0.76923-0.76923z" fill="#cd1922" fill-rule="evenodd"/>
 <use transform="translate(5 5)" width="100%" height="100%" xlink:href="#c"/>
 <use transform="translate(5)" width="100%" height="100%" xlink:href="#c"/>
 <use transform="translate(10 5)" width="100%" height="100%" xlink:href="#c"/>
 <g fill-rule="evenodd">
  <path d="m14.481 14.489 0.28791 0.28032v3.4615l-0.76923 0.76923v-3.4615c4e-3 -0.62327 0.48132-1.0495 0.48132-1.0495z" fill="#e6323a"/>
  <path d="m14.487 14.486 0.28212 0.28322h3.4615l0.76923-0.76923h-3.4615c-0.64356 0.0087-1.0513 0.48601-1.0513 0.48601z" fill="#e73b42"/>
  <path d="m24 14h8.4615c0.76206 0.0082 1.5303 0.78459 1.5385 1.5385v13.461h-5v-10h-5z" fill="#33d17a"/>
  <path id="g" d="m24 19 0.76923-0.76923h3.4615l0.76923 0.76923z" fill="#27bf6c" fill-rule="evenodd"/>
 </g>
 <use transform="translate(5)" width="100%" height="100%" xlink:href="#g"/>
 <use transform="translate(5 5)" width="100%" height="100%" xlink:href="#g"/>
 <use transform="translate(5 10)" width="100%" height="100%" xlink:href="#g"/>
 <path id="f" d="m24 14 0.76923 0.76923v3.4615l-0.76923 0.76923z" fill="#42d886" fill-rule="evenodd"/>
 <use transform="translate(5)" width="100%" height="100%" xlink:href="#f"/>
 <use transform="translate(5 10)" width="100%" height="100%" xlink:href="#f"/>
 <use transform="translate(5 5)" width="100%" height="100%" xlink:href="#f"/>
 <path id="p" d="m24 14 0.76923 0.76923h3.4615l0.76923-0.76923z" fill="#57df95" fill-rule="evenodd"/>
 <use transform="translate(5 5)" width="100%" height="100%" xlink:href="#p"/>
 <use transform="translate(5 10)" width="100%" height="100%" xlink:href="#p"/>
 <path id="o" d="m29 14-0.76923 0.76923v3.4615l0.76923 0.76923z" fill="#29cb73" fill-rule="evenodd"/>
 <use transform="translate(5 5)" width="100%" height="100%" xlink:href="#o"/>
 <use transform="translate(5 10)" width="100%" height="100%" xlink:href="#o"/>
 <g fill-rule="evenodd">
  <path d="m29 14 0.76923 0.76923h3.4615l0.27451-0.28065s-0.46681-0.48858-1.0437-0.48858z" fill="#57df95"/>
  <path d="m34 15.538c-0.0029-0.57362-0.48972-1.0487-0.48972-1.0487l-0.27951 0.27951v3.4615l0.76923 0.76923z" fill="#29cb73"/>
  <path d="m14 19v13.461c0.0041 0.77025 0.76923 1.5384 1.5354 1.5384l8.4644-3.25e-4 1.92e-4 -4.9996h-5v-10z" fill="#f6d32d"/>
  <path id="j" d="m19 24h-5l0.76923-0.76923h3.4615z" fill="#e1bf09" fill-rule="evenodd"/>
 </g>
 <use transform="translate(0 5)" width="100%" height="100%" xlink:href="#j"/>
 <use transform="translate(5 10)" width="100%" height="100%" xlink:href="#j"/>
 <path id="a" d="m19 19h-5l0.76923 0.76923h3.4615z" fill="#f9e263" fill-rule="evenodd"/>
 <use transform="translate(0 5)" width="100%" height="100%" xlink:href="#a"/>
 <use transform="translate(5 10)" width="100%" height="100%" xlink:href="#a"/>
 <path id="i" d="m14 24v-5l0.76923 0.76923v3.4615z" fill="#f7da51" fill-rule="evenodd"/>
 <use transform="translate(0 5)" width="100%" height="100%" xlink:href="#i"/>
 <use transform="translate(5 10)" width="100%" height="100%" xlink:href="#i"/>
 <path id="b" d="m19 19v5l-0.76923-0.76923v-3.4615z" fill="#efc70b" fill-rule="evenodd"/>
 <use transform="translate(0 5)" width="100%" height="100%" xlink:href="#b"/>
 <use transform="translate(5 10)" width="100%" height="100%" xlink:href="#b"/>
 <use transform="translate(0 10)" width="100%" height="100%" xlink:href="#b"/>
 <use transform="translate(0 10)" width="100%" height="100%" xlink:href="#a"/>
 <g fill-rule="evenodd">
  <path d="m14 32.461v-3.4615l0.76923 0.76923v3.4615l-0.2786 0.2786s-0.48243-0.37591-0.49063-1.0478z" fill="#f7da51"/>
  <path d="m19 34h-3.4615c-0.60637 0.0082-1.0478-0.49062-1.0478-0.49062l0.2786-0.2786h3.4615z" fill="#e0bb0a"/>
  <path d="m19 24h10v5h5v3.4482c0 0.79483-0.76001 1.56-1.5385 1.5518h-8.4615v-5h-5z" fill="#3584e4"/>
  <path id="l" d="m19 29 0.76923-0.76923h3.4615l0.76923 0.76923z" fill="#1a75e0" fill-rule="evenodd"/>
 </g>
 <use transform="translate(5)" width="100%" height="100%" xlink:href="#l"/>
 <use transform="translate(4.9998 4.9996)" width="100%" height="100%" xlink:href="#l"/>
 <path d="m29 34h3.4615c0.60637 0.0082 1.0478-0.49062 1.0478-0.49062l-0.2786-0.2786h-3.4615z" fill="#1e74dc" fill-rule="evenodd"/>
 <path id="e" d="m19 24 0.76923 0.76923h3.4615l0.76923-0.76923z" fill="#4d94e9" fill-rule="evenodd"/>
 <use transform="translate(5)" width="100%" height="100%" xlink:href="#e"/>
 <use transform="translate(5 5)" width="100%" height="100%" xlink:href="#e"/>
 <use transform="translate(10 5)" width="100%" height="100%" xlink:href="#e"/>
 <path id="d" d="m19 29 0.76923-0.76923v-3.4615l-0.76923-0.76923z" fill="#478fe7" fill-rule="evenodd"/>
 <use transform="translate(5)" width="100%" height="100%" xlink:href="#d"/>
 <use transform="translate(5 5)" width="100%" height="100%" xlink:href="#d"/>
 <use transform="translate(9.9998 4.9996)" width="100%" height="100%" xlink:href="#d"/>
 <path id="k" d="m24 29-0.76923-0.76923v-3.4615l0.76923-0.76923z" fill="#277ce3" fill-rule="evenodd"/>
 <use transform="translate(5)" width="100%" height="100%" xlink:href="#k"/>
 <use transform="translate(5 5)" width="100%" height="100%" xlink:href="#k"/>
 <path d="m34 32.461v-3.4615l-0.76923 0.76923v3.4615l0.2786 0.2786s0.48243-0.37591 0.49063-1.0478z" fill="#277ce3" fill-rule="evenodd"/>
</svg>
