<?xml version="1.0" encoding="UTF-8"?>
<svg width="32" height="32" version="1.1" xmlns="http://www.w3.org/2000/svg" xmlns:xlink="http://www.w3.org/1999/xlink">
 <path d="m2.0014 23-0.0014 4.6248c-0.00357 1.3125 1.0523 2.3674 2.3625 2.3751h4.6375v-6.9971l-4.6635-0.0028z" fill="#edd400" stroke-width=".69999"/>
 <g id="f" transform="matrix(.7 0 0 .69999 -.79998 -.79993)">
  <rect x="24" y="4" width="10" height="10" fill="#73d216"/>
  <path d="m24 14h10v-10l-1 1v8h-8z" fill="#4e9a06"/>
  <path d="m24 14v-10h10l-1 1h-8v8z" fill="#8ae234"/>
 </g>
 <use transform="translate(-3 -2.9999)" x="10" y="10" width="100%" height="100%" xlink:href="#f"/>
 <use transform="translate(-3 -5.9999)" x="10" y="20" width="100%" height="100%" xlink:href="#f"/>
 <g id="e" transform="matrix(.7 0 0 .69999 -.79998 -.79993)">
  <rect x="14" y="24" width="10" height="10" fill="#3465a4"/>
  <path d="m14 34h10v-10l-1 1v8h-8z" fill="#204a87"/>
  <path d="m14 34v-10h10l-1 1h-8v8z" fill="#558bc5"/>
 </g>
 <use transform="translate(-3 .00017)" x="10" width="100%" height="100%" xlink:href="#e"/>
 <use transform="translate(-3 -2.9997)" x="10" y="10" width="100%" height="100%" xlink:href="#e"/>
 <g id="d" transform="matrix(.7 0 0 .69999 -.79998 -.79993)">
  <rect x="4" y="14" width="10" height="10" fill="#edd400"/>
  <path d="m4 24h10v-10l-1 1v8h-8z" fill="#c4a000"/>
  <path d="m4 24v-10h10l-1 1h-8v8z" fill="#fce94f"/>
 </g>
 <use transform="translate(-2e-5 -2.9998)" y="10" width="100%" height="100%" xlink:href="#d"/>
 <use transform="translate(-3 -5.9998)" x="10" y="20" width="100%" height="100%" xlink:href="#d"/>
 <g id="b" transform="matrix(.7 0 0 .69999 6.2 -.79993)">
  <rect x="4" y="4" width="10" height="10" fill="#c00"/>
  <path d="m4 14h10v-10l-1 1v8h-8z" fill="#a40000"/>
  <path d="m4 14v-10h10l-1 1h-8v8z" fill="#ef2929"/>
 </g>
 <g transform="matrix(.7 0 0 .69999 18.244 -3.9289)">
  <path d="m-19.832 8.47c-1.8649 0.00569-3.3624 1.5081-3.373 3.373v6.627h9.9961l0.0039-6.6641v-3.336z" fill="#c00"/>
  <path d="m-23.205 18.47h10v-10l-1 1v8h-8z" fill="#a40000"/>
  <path d="m-19.83 8.47c-1.8649 0.00569-3.3643 1.5081-3.375 3.373v6.625l1-0.99805v-8h8l1-1h-6.625zm-3.375 9.998 2e-3 2e-3z" fill="#ef2929"/>
 </g>
 <path d="m8.9972 22.995-0.69726 0.69725v5.5999h-5.6l-0.00686 0.0069c0.4269 0.42607 1.0156 0.68941 1.668 0.69315h4.6389v-6.9972h-0.00273z" fill="#c4a000" stroke-width=".69999"/>
 <path d="m2.0014 22.993-0.0014 4.6248c-0.00182 0.65869 0.26313 1.2523 0.69314 1.6821l0.00686-0.0063v-5.5999h5.5999l0.69726-0.69725-4.6607-0.0027h-2.3351z" fill="#fce94f" stroke-width=".69999"/>
 <g transform="matrix(.7 0 0 .69999 -22.517 4.1983)">
  <path d="m65.031 26.86-0.0059 7.498v2.502h6.627c1.8582-0.0057 3.3518-1.4978 3.373-3.3535v-6.646z" fill="#3465a4"/>
  <path d="m75.025 26.86-1 1v8h-8l-1 1h6.627c1.8649-0.0057 3.3624-1.5081 3.373-3.373z" fill="#204a87"/>
  <path d="m65.025 36.86v-10h10l-1 1h-8v8z" fill="#558bc5"/>
 </g>
 <g transform="matrix(.7 0 0 .69999 -15.499 -16.55)">
  <path d="m54.999 26.5v9.9961l6.664 4e-3h3.336v-6.627c-6e-3 -1.865-1.508-3.362-3.373-3.373z" fill="#73d216"/>
  <path d="m64.005 27.49-0.0098 0.0098v8h-8l-0.99609 0.99609 6.6602 0.0039h3.3359v-6.627c-0.0028-0.93246-0.37834-1.7735-0.98828-2.3828-3.55e-4 -3.55e-4 -0.0016 3.55e-4 -2e-3 0z" fill="#4e9a06"/>
  <path d="m54.999 26.504v9.9961h0.0039l0.99609-0.99609v-8h8l0.0098-0.0098c-0.60986-0.60868-1.4509-0.98489-2.3828-0.99023h-6.627z" fill="#8ae234"/>
 </g>
 <use id="a" transform="translate(7 7)" width="100%" height="100%" xlink:href="#b"/>
 <use transform="translate(-7 1e-4)" width="100%" height="100%" xlink:href="#a"/>
</svg>
