<?xml version="1.0" encoding="UTF-8" standalone="no"?>
<svg xmlns="http://www.w3.org/2000/svg" height="32" width="32" version="1.1" xmlns:xlink="http://www.w3.org/1999/xlink">
 <rect stroke-linejoin="round" ry="1.15" height="27" width="23" stroke="#555753" y="2.5" x="4.5" fill="#eeeeec"/>
 <path d="m10.001 19-0.001 1.982c-0.0015 0.563 0.451 1.015 1.012 1.018h1.988v-2.999l-1.999-0.001z" stroke-width="0.3" fill="#edd400"/>
 <g id="f" transform="matrix(.3 0 0 .3 8.8 8.8)">
  <rect height="10" width="10" y="4" x="24" fill="#73d216"/>
  <path d="m24 14h10v-10l-1 1v8h-8z" fill="#4e9a06"/>
  <path d="m24 14v-10h10l-1 1h-8v8z" fill="#8ae234"/>
 </g>
 <use xlink:href="#f" transform="translate(-7,-7)" height="100%" width="100%" y="10" x="10"/>
 <use xlink:href="#f" transform="translate(-7,-14)" height="100%" width="100%" y="20" x="10"/>
 <g id="e" transform="matrix(.3 0 0 .3 8.8 8.8)">
  <rect height="10" width="10" y="24" x="14" fill="#3465a4"/>
  <path d="m14 34h10v-10l-1 1v8h-8z" fill="#204a87"/>
  <path d="m14 34v-10h10l-1 1h-8v8z" fill="#558bc5"/>
 </g>
 <use xlink:href="#e" transform="translate(-7)" height="100%" width="100%" y="0" x="10"/>
 <use xlink:href="#e" transform="translate(-7,-7)" height="100%" width="100%" y="10" x="10"/>
 <g id="d" transform="matrix(.3 0 0 .3 8.8 8.8)">
  <rect height="10" width="10" y="14" x="4" fill="#edd400"/>
  <path d="m4 24h10v-10l-1 1v8h-8z" fill="#c4a000"/>
  <path d="m4 24v-10h10l-1 1h-8v8z" fill="#fce94f"/>
 </g>
 <use xlink:href="#d" transform="translate(0,-7)" height="100%" width="100%" y="10" x="0"/>
 <use xlink:href="#d" transform="translate(-7,-14)" height="100%" width="100%" y="20" x="10"/>
 <g id="b" transform="matrix(.3 0 0 .3 11.8 8.8)">
  <rect height="10" width="10" y="4" x="4" fill="#c00"/>
  <path d="m4 14h10v-10l-1 1v8h-8z" fill="#a40000"/>
  <path d="m4 14v-10h10l-1 1h-8v8z" fill="#ef2929"/>
 </g>
 <g transform="matrix(.3 0 0 .3 16.962 7.459)">
  <path d="m-19.832 8.47c-1.8649 0.00569-3.3624 1.5081-3.373 3.373v6.627h9.9961l0.0039-6.6641v-3.336z" fill="#c00"/>
  <path d="m-23.205 18.47h10v-10l-1 1v8h-8z" fill="#a40000"/>
  <path d="m-19.83 8.47c-1.8649 0.00569-3.3643 1.5081-3.375 3.373v6.625l1-0.99805v-8h8l1-1h-6.625zm-3.375 9.998 0.002 0.002z" fill="#ef2929"/>
 </g>
 <path d="m12.999 18.998-0.29883 0.29883v2.4h-2.4l-0.0029 0.0029c0.18296 0.1826 0.43527 0.29547 0.71484 0.29707h1.9881v-2.9988h-0.0012z" stroke-width="0.3" fill="#c4a000"/>
 <path d="m10.001 18.997-0.001 1.982c-0.00078 0.2823 0.11277 0.5367 0.29706 0.7209l0.003-0.003v-2.4h2.4l0.29882-0.29883-1.9974-0.0012h-1.0008z" stroke-width="0.3" fill="#fce94f"/>
 <g transform="matrix(.3 0 0 .3 -.5075 10.942)">
  <path d="m65.031 26.86-0.0059 7.498v2.502h6.627c1.8582-0.0057 3.3518-1.4978 3.373-3.3535v-6.646z" fill="#3465a4"/>
  <path d="m75.025 26.86-1 1v8h-8l-1 1h6.627c1.8649-0.0057 3.3624-1.5081 3.373-3.373z" fill="#204a87"/>
  <path d="m65.025 36.86v-10h10l-1 1h-8v8z" fill="#558bc5"/>
 </g>
 <g transform="matrix(.3 0 0 .3 2.5003 2.05)">
  <path d="m54.999 26.5v9.9961l6.664 0.004h3.336v-6.627c-0.006-1.865-1.508-3.362-3.373-3.373z" fill="#73d216"/>
  <path d="m64.005 27.49-0.0098 0.0098v8h-8l-0.99609 0.99609 6.6602 0.0039h3.3359v-6.627c-0.0028-0.93246-0.37834-1.7735-0.98828-2.3828-0.000355-0.000355-0.0016 0.000355-0.002 0z" fill="#4e9a06"/>
  <path d="m54.999 26.504v9.9961h0.0039l0.99609-0.99609v-8h8l0.0098-0.0098c-0.60986-0.60868-1.4509-0.98489-2.3828-0.99023h-6.627z" fill="#8ae234"/>
 </g>
 <use id="a" xlink:href="#b" transform="translate(0,3)" height="100%" width="100%" y="0" x="0"/>
 <use xlink:href="#a" transform="translate(3)" height="100%" width="100%" y="0" x="0"/>
</svg>
