<?xml version="1.0" encoding="UTF-8" standalone="no"?>
<svg xmlns:rdf="http://www.w3.org/1999/02/22-rdf-syntax-ns#" xmlns="http://www.w3.org/2000/svg" height="280" width="280" version="1.1" xmlns:cc="http://creativecommons.org/ns#" xmlns:xlink="http://www.w3.org/1999/xlink" xmlns:dc="http://purl.org/dc/elements/1.1/">
<metadata>
<rdf:RDF>
<cc:Work rdf:about="">
<dc:format>image/svg+xml</dc:format>
<dc:type rdf:resource="http://purl.org/dc/dcmitype/StillImage"/>
<dc:title/>
</cc:Work>
</rdf:RDF>
</metadata>
<path d="m0,0,280,0,0,280-280,0z" fill="#494347"/>
<g id="x" fill-opacity="0.2" transform="matrix(0.69999986,0,0,0.69999693,60.110384,-632.0284)">
<path d="m-65.9,903-20,0,0,20,1-1,0-18,18,0z" fill="#000"/>
<path d="m-65.9,903-1,1,0,18-18,0-1,1,20,0z" fill="#FFF"/>
</g>
<use xlink:href="#x" transform="translate(0,14)"/>
<use xlink:href="#x" transform="translate(0,28)"/>
<use xlink:href="#x" transform="translate(0,42)"/>
<use xlink:href="#x" transform="translate(0,56)"/>
<use xlink:href="#x" transform="translate(0,70)"/>
<use xlink:href="#x" transform="translate(0,84)"/>
<use xlink:href="#x" transform="translate(0,98)"/>
<use xlink:href="#x" transform="translate(0,112)"/>
<use xlink:href="#x" transform="translate(0,126)"/>
<use xlink:href="#x" transform="translate(0,140)"/>
<use xlink:href="#x" transform="translate(0,154)"/>
<use xlink:href="#x" transform="translate(0,168)"/>
<use xlink:href="#x" transform="translate(0,182)"/>
<use xlink:href="#x" transform="translate(0,196)"/>
<use xlink:href="#x" transform="translate(0,210)"/>
<use xlink:href="#x" transform="translate(0,224)"/>
<use xlink:href="#x" transform="translate(0,238)"/>
<use xlink:href="#x" transform="translate(0,252)"/>
<use xlink:href="#x" transform="translate(0,266)"/>
<use xlink:href="#x" transform="translate(14,0)"/>
<use xlink:href="#x" transform="translate(14,14)"/>
<use xlink:href="#x" transform="translate(14,28)"/>
<use xlink:href="#x" transform="translate(14,42)"/>
<use xlink:href="#x" transform="translate(14,56)"/>
<use xlink:href="#x" transform="translate(14,70)"/>
<use xlink:href="#x" transform="translate(14,84)"/>
<use xlink:href="#x" transform="translate(14,98)"/>
<use xlink:href="#x" transform="translate(14,112)"/>
<use xlink:href="#x" transform="translate(14,126)"/>
<use xlink:href="#x" transform="translate(14,140)"/>
<use xlink:href="#x" transform="translate(14,154)"/>
<use xlink:href="#x" transform="translate(14,168)"/>
<use xlink:href="#x" transform="translate(14,182)"/>
<use xlink:href="#x" transform="translate(14,196)"/>
<use xlink:href="#x" transform="translate(14,210)"/>
<use xlink:href="#x" transform="translate(14,224)"/>
<use xlink:href="#x" transform="translate(14,238)"/>
<use xlink:href="#x" transform="translate(14,252)"/>
<use xlink:href="#x" transform="translate(14,266)"/>
<use xlink:href="#x" transform="translate(28,0)"/>
<use xlink:href="#x" transform="translate(28,14)"/>
<use xlink:href="#x" transform="translate(28,28)"/>
<use xlink:href="#x" transform="translate(28,42)"/>
<use xlink:href="#x" transform="translate(28,56)"/>
<use xlink:href="#x" transform="translate(28,70)"/>
<use xlink:href="#x" transform="translate(28,84)"/>
<use xlink:href="#x" transform="translate(28,98)"/>
<use xlink:href="#x" transform="translate(28,112)"/>
<use xlink:href="#x" transform="translate(28,126)"/>
<use xlink:href="#x" transform="translate(28,140)"/>
<use xlink:href="#x" transform="translate(28,154)"/>
<use xlink:href="#x" transform="translate(28,168)"/>
<use xlink:href="#x" transform="translate(28,182)"/>
<use xlink:href="#x" transform="translate(28,196)"/>
<use xlink:href="#x" transform="translate(28,210)"/>
<use xlink:href="#x" transform="translate(28,224)"/>
<use xlink:href="#x" transform="translate(28,238)"/>
<use xlink:href="#x" transform="translate(28,252)"/>
<use xlink:href="#x" transform="translate(28,266)"/>
<use xlink:href="#x" transform="translate(42,0)"/>
<use xlink:href="#x" transform="translate(42,14)"/>
<use xlink:href="#x" transform="translate(42,28)"/>
<use xlink:href="#x" transform="translate(42,42)"/>
<use xlink:href="#x" transform="translate(42,56)"/>
<use xlink:href="#x" transform="translate(42,70)"/>
<use xlink:href="#x" transform="translate(42,84)"/>
<use xlink:href="#x" transform="translate(42,98)"/>
<use xlink:href="#x" transform="translate(42,112)"/>
<use xlink:href="#x" transform="translate(42,126)"/>
<use xlink:href="#x" transform="translate(42,140)"/>
<use xlink:href="#x" transform="translate(42,154)"/>
<use xlink:href="#x" transform="translate(42,168)"/>
<use xlink:href="#x" transform="translate(42,182)"/>
<use xlink:href="#x" transform="translate(42,196)"/>
<use xlink:href="#x" transform="translate(42,210)"/>
<use xlink:href="#x" transform="translate(42,224)"/>
<use xlink:href="#x" transform="translate(42,238)"/>
<use xlink:href="#x" transform="translate(42,252)"/>
<use xlink:href="#x" transform="translate(42,266)"/>
<use xlink:href="#x" transform="translate(56,0)"/>
<use xlink:href="#x" transform="translate(56,14)"/>
<use xlink:href="#x" transform="translate(56,28)"/>
<use xlink:href="#x" transform="translate(56,42)"/>
<use xlink:href="#x" transform="translate(56,56)"/>
<use xlink:href="#x" transform="translate(56,70)"/>
<use xlink:href="#x" transform="translate(56,84)"/>
<use xlink:href="#x" transform="translate(56,98)"/>
<use xlink:href="#x" transform="translate(56,112)"/>
<use xlink:href="#x" transform="translate(56,126)"/>
<use xlink:href="#x" transform="translate(56,140)"/>
<use xlink:href="#x" transform="translate(56,154)"/>
<use xlink:href="#x" transform="translate(56,168)"/>
<use xlink:href="#x" transform="translate(56,182)"/>
<use xlink:href="#x" transform="translate(56,196)"/>
<use xlink:href="#x" transform="translate(56,210)"/>
<use xlink:href="#x" transform="translate(56,224)"/>
<use xlink:href="#x" transform="translate(56,238)"/>
<use xlink:href="#x" transform="translate(56,252)"/>
<use xlink:href="#x" transform="translate(56,266)"/>
<use xlink:href="#x" transform="translate(70,0)"/>
<use xlink:href="#x" transform="translate(70,14)"/>
<use xlink:href="#x" transform="translate(70,28)"/>
<use xlink:href="#x" transform="translate(70,42)"/>
<use xlink:href="#x" transform="translate(70,56)"/>
<use xlink:href="#x" transform="translate(70,70)"/>
<use xlink:href="#x" transform="translate(70,84)"/>
<use xlink:href="#x" transform="translate(70,98)"/>
<use xlink:href="#x" transform="translate(70,112)"/>
<use xlink:href="#x" transform="translate(70,126)"/>
<use xlink:href="#x" transform="translate(70,140)"/>
<use xlink:href="#x" transform="translate(70,154)"/>
<use xlink:href="#x" transform="translate(70,168)"/>
<use xlink:href="#x" transform="translate(70,182)"/>
<use xlink:href="#x" transform="translate(70,196)"/>
<use xlink:href="#x" transform="translate(70,210)"/>
<use xlink:href="#x" transform="translate(70,224)"/>
<use xlink:href="#x" transform="translate(70,238)"/>
<use xlink:href="#x" transform="translate(70,252)"/>
<use xlink:href="#x" transform="translate(70,266)"/>
<use xlink:href="#x" transform="translate(84,0)"/>
<use xlink:href="#x" transform="translate(84,14)"/>
<use xlink:href="#x" transform="translate(84,28)"/>
<use xlink:href="#x" transform="translate(84,42)"/>
<use xlink:href="#x" transform="translate(84,56)"/>
<use xlink:href="#x" transform="translate(84,70)"/>
<use xlink:href="#x" transform="translate(84,84)"/>
<use xlink:href="#x" transform="translate(84,98)"/>
<use xlink:href="#x" transform="translate(84,112)"/>
<use xlink:href="#x" transform="translate(84,126)"/>
<use xlink:href="#x" transform="translate(84,140)"/>
<use xlink:href="#x" transform="translate(84,154)"/>
<use xlink:href="#x" transform="translate(84,168)"/>
<use xlink:href="#x" transform="translate(84,182)"/>
<use xlink:href="#x" transform="translate(84,196)"/>
<use xlink:href="#x" transform="translate(84,210)"/>
<use xlink:href="#x" transform="translate(84,224)"/>
<use xlink:href="#x" transform="translate(84,238)"/>
<use xlink:href="#x" transform="translate(84,252)"/>
<use xlink:href="#x" transform="translate(84,266)"/>
<use xlink:href="#x" transform="translate(98,0)"/>
<use xlink:href="#x" transform="translate(98,14)"/>
<use xlink:href="#x" transform="translate(98,28)"/>
<use xlink:href="#x" transform="translate(98,42)"/>
<use xlink:href="#x" transform="translate(98,56)"/>
<use xlink:href="#x" transform="translate(98,70)"/>
<use xlink:href="#x" transform="translate(98,84)"/>
<use xlink:href="#x" transform="translate(98,98)"/>
<use xlink:href="#x" transform="translate(98,112)"/>
<use xlink:href="#x" transform="translate(98,126)"/>
<use xlink:href="#x" transform="translate(98,140)"/>
<use xlink:href="#x" transform="translate(98,154)"/>
<use xlink:href="#x" transform="translate(98,168)"/>
<use xlink:href="#x" transform="translate(98,182)"/>
<use xlink:href="#x" transform="translate(98,196)"/>
<use xlink:href="#x" transform="translate(98,210)"/>
<use xlink:href="#x" transform="translate(98,224)"/>
<use xlink:href="#x" transform="translate(98,238)"/>
<use xlink:href="#x" transform="translate(98,252)"/>
<use xlink:href="#x" transform="translate(98,266)"/>
<use xlink:href="#x" transform="translate(112,0)"/>
<use xlink:href="#x" transform="translate(112,14)"/>
<use xlink:href="#x" transform="translate(112,28)"/>
<use xlink:href="#x" transform="translate(112,42)"/>
<use xlink:href="#x" transform="translate(112,56)"/>
<use xlink:href="#x" transform="translate(112,70)"/>
<use xlink:href="#x" transform="translate(112,84)"/>
<use xlink:href="#x" transform="translate(112,98)"/>
<use xlink:href="#x" transform="translate(112,112)"/>
<use xlink:href="#x" transform="translate(112,126)"/>
<use xlink:href="#x" transform="translate(112,140)"/>
<use xlink:href="#x" transform="translate(112,154)"/>
<use xlink:href="#x" transform="translate(112,168)"/>
<use xlink:href="#x" transform="translate(112,182)"/>
<use xlink:href="#x" transform="translate(112,196)"/>
<use xlink:href="#x" transform="translate(112,210)"/>
<use xlink:href="#x" transform="translate(112,224)"/>
<use xlink:href="#x" transform="translate(112,238)"/>
<use xlink:href="#x" transform="translate(112,252)"/>
<use xlink:href="#x" transform="translate(112,266)"/>
<use xlink:href="#x" transform="translate(126,0)"/>
<use xlink:href="#x" transform="translate(126,14)"/>
<use xlink:href="#x" transform="translate(126,28)"/>
<use xlink:href="#x" transform="translate(126,42)"/>
<use xlink:href="#x" transform="translate(126,56)"/>
<use xlink:href="#x" transform="translate(126,70)"/>
<use xlink:href="#x" transform="translate(126,84)"/>
<use xlink:href="#x" transform="translate(126,98)"/>
<use xlink:href="#x" transform="translate(126,112)"/>
<use xlink:href="#x" transform="translate(126,126)"/>
<use xlink:href="#x" transform="translate(126,140)"/>
<use xlink:href="#x" transform="translate(126,154)"/>
<use xlink:href="#x" transform="translate(126,168)"/>
<use xlink:href="#x" transform="translate(126,182)"/>
<use xlink:href="#x" transform="translate(126,196)"/>
<use xlink:href="#x" transform="translate(126,210)"/>
<use xlink:href="#x" transform="translate(126,224)"/>
<use xlink:href="#x" transform="translate(126,238)"/>
<use xlink:href="#x" transform="translate(126,252)"/>
<use xlink:href="#x" transform="translate(126,266)"/>
<use xlink:href="#x" transform="translate(140,0)"/>
<use xlink:href="#x" transform="translate(140,14)"/>
<use xlink:href="#x" transform="translate(140,28)"/>
<use xlink:href="#x" transform="translate(140,42)"/>
<use xlink:href="#x" transform="translate(140,56)"/>
<use xlink:href="#x" transform="translate(140,70)"/>
<use xlink:href="#x" transform="translate(140,84)"/>
<use xlink:href="#x" transform="translate(140,98)"/>
<use xlink:href="#x" transform="translate(140,112)"/>
<use xlink:href="#x" transform="translate(140,126)"/>
<use xlink:href="#x" transform="translate(140,140)"/>
<use xlink:href="#x" transform="translate(140,154)"/>
<use xlink:href="#x" transform="translate(140,168)"/>
<use xlink:href="#x" transform="translate(140,182)"/>
<use xlink:href="#x" transform="translate(140,196)"/>
<use xlink:href="#x" transform="translate(140,210)"/>
<use xlink:href="#x" transform="translate(140,224)"/>
<use xlink:href="#x" transform="translate(140,238)"/>
<use xlink:href="#x" transform="translate(140,252)"/>
<use xlink:href="#x" transform="translate(140,266)"/>
<use xlink:href="#x" transform="translate(154,0)"/>
<use xlink:href="#x" transform="translate(154,14)"/>
<use xlink:href="#x" transform="translate(154,28)"/>
<use xlink:href="#x" transform="translate(154,42)"/>
<use xlink:href="#x" transform="translate(154,56)"/>
<use xlink:href="#x" transform="translate(154,70)"/>
<use xlink:href="#x" transform="translate(154,84)"/>
<use xlink:href="#x" transform="translate(154,98)"/>
<use xlink:href="#x" transform="translate(154,112)"/>
<use xlink:href="#x" transform="translate(154,126)"/>
<use xlink:href="#x" transform="translate(154,140)"/>
<use xlink:href="#x" transform="translate(154,154)"/>
<use xlink:href="#x" transform="translate(154,168)"/>
<use xlink:href="#x" transform="translate(154,182)"/>
<use xlink:href="#x" transform="translate(154,196)"/>
<use xlink:href="#x" transform="translate(154,210)"/>
<use xlink:href="#x" transform="translate(154,224)"/>
<use xlink:href="#x" transform="translate(154,238)"/>
<use xlink:href="#x" transform="translate(154,252)"/>
<use xlink:href="#x" transform="translate(154,266)"/>
<use xlink:href="#x" transform="translate(168,0)"/>
<use xlink:href="#x" transform="translate(168,14)"/>
<use xlink:href="#x" transform="translate(168,28)"/>
<use xlink:href="#x" transform="translate(168,42)"/>
<use xlink:href="#x" transform="translate(168,56)"/>
<use xlink:href="#x" transform="translate(168,70)"/>
<use xlink:href="#x" transform="translate(168,84)"/>
<use xlink:href="#x" transform="translate(168,98)"/>
<use xlink:href="#x" transform="translate(168,112)"/>
<use xlink:href="#x" transform="translate(168,126)"/>
<use xlink:href="#x" transform="translate(168,140)"/>
<use xlink:href="#x" transform="translate(168,154)"/>
<use xlink:href="#x" transform="translate(168,168)"/>
<use xlink:href="#x" transform="translate(168,182)"/>
<use xlink:href="#x" transform="translate(168,196)"/>
<use xlink:href="#x" transform="translate(168,210)"/>
<use xlink:href="#x" transform="translate(168,224)"/>
<use xlink:href="#x" transform="translate(168,238)"/>
<use xlink:href="#x" transform="translate(168,252)"/>
<use xlink:href="#x" transform="translate(168,266)"/>
<use xlink:href="#x" transform="translate(182,0)"/>
<use xlink:href="#x" transform="translate(182,14)"/>
<use xlink:href="#x" transform="translate(182,28)"/>
<use xlink:href="#x" transform="translate(182,42)"/>
<use xlink:href="#x" transform="translate(182,56)"/>
<use xlink:href="#x" transform="translate(182,70)"/>
<use xlink:href="#x" transform="translate(182,84)"/>
<use xlink:href="#x" transform="translate(182,98)"/>
<use xlink:href="#x" transform="translate(182,112)"/>
<use xlink:href="#x" transform="translate(182,126)"/>
<use xlink:href="#x" transform="translate(182,140)"/>
<use xlink:href="#x" transform="translate(182,154)"/>
<use xlink:href="#x" transform="translate(182,168)"/>
<use xlink:href="#x" transform="translate(182,182)"/>
<use xlink:href="#x" transform="translate(182,196)"/>
<use xlink:href="#x" transform="translate(182,210)"/>
<use xlink:href="#x" transform="translate(182,224)"/>
<use xlink:href="#x" transform="translate(182,238)"/>
<use xlink:href="#x" transform="translate(182,252)"/>
<use xlink:href="#x" transform="translate(182,266)"/>
<use xlink:href="#x" transform="translate(196,0)"/>
<use xlink:href="#x" transform="translate(196,14)"/>
<use xlink:href="#x" transform="translate(196,28)"/>
<use xlink:href="#x" transform="translate(196,42)"/>
<use xlink:href="#x" transform="translate(196,56)"/>
<use xlink:href="#x" transform="translate(196,70)"/>
<use xlink:href="#x" transform="translate(196,84)"/>
<use xlink:href="#x" transform="translate(196,98)"/>
<use xlink:href="#x" transform="translate(196,112)"/>
<use xlink:href="#x" transform="translate(196,126)"/>
<use xlink:href="#x" transform="translate(196,140)"/>
<use xlink:href="#x" transform="translate(196,154)"/>
<use xlink:href="#x" transform="translate(196,168)"/>
<use xlink:href="#x" transform="translate(196,182)"/>
<use xlink:href="#x" transform="translate(196,196)"/>
<use xlink:href="#x" transform="translate(196,210)"/>
<use xlink:href="#x" transform="translate(196,224)"/>
<use xlink:href="#x" transform="translate(196,238)"/>
<use xlink:href="#x" transform="translate(196,252)"/>
<use xlink:href="#x" transform="translate(196,266)"/>
<use xlink:href="#x" transform="translate(210,0)"/>
<use xlink:href="#x" transform="translate(210,14)"/>
<use xlink:href="#x" transform="translate(210,28)"/>
<use xlink:href="#x" transform="translate(210,42)"/>
<use xlink:href="#x" transform="translate(210,56)"/>
<use xlink:href="#x" transform="translate(210,70)"/>
<use xlink:href="#x" transform="translate(210,84)"/>
<use xlink:href="#x" transform="translate(210,98)"/>
<use xlink:href="#x" transform="translate(210,112)"/>
<use xlink:href="#x" transform="translate(210,126)"/>
<use xlink:href="#x" transform="translate(210,140)"/>
<use xlink:href="#x" transform="translate(210,154)"/>
<use xlink:href="#x" transform="translate(210,168)"/>
<use xlink:href="#x" transform="translate(210,182)"/>
<use xlink:href="#x" transform="translate(210,196)"/>
<use xlink:href="#x" transform="translate(210,210)"/>
<use xlink:href="#x" transform="translate(210,224)"/>
<use xlink:href="#x" transform="translate(210,238)"/>
<use xlink:href="#x" transform="translate(210,252)"/>
<use xlink:href="#x" transform="translate(210,266)"/>
<use xlink:href="#x" transform="translate(224,0)"/>
<use xlink:href="#x" transform="translate(224,14)"/>
<use xlink:href="#x" transform="translate(224,28)"/>
<use xlink:href="#x" transform="translate(224,42)"/>
<use xlink:href="#x" transform="translate(224,56)"/>
<use xlink:href="#x" transform="translate(224,70)"/>
<use xlink:href="#x" transform="translate(224,84)"/>
<use xlink:href="#x" transform="translate(224,98)"/>
<use xlink:href="#x" transform="translate(224,112)"/>
<use xlink:href="#x" transform="translate(224,126)"/>
<use xlink:href="#x" transform="translate(224,140)"/>
<use xlink:href="#x" transform="translate(224,154)"/>
<use xlink:href="#x" transform="translate(224,168)"/>
<use xlink:href="#x" transform="translate(224,182)"/>
<use xlink:href="#x" transform="translate(224,196)"/>
<use xlink:href="#x" transform="translate(224,210)"/>
<use xlink:href="#x" transform="translate(224,224)"/>
<use xlink:href="#x" transform="translate(224,238)"/>
<use xlink:href="#x" transform="translate(224,252)"/>
<use xlink:href="#x" transform="translate(224,266)"/>
<use xlink:href="#x" transform="translate(238,0)"/>
<use xlink:href="#x" transform="translate(238,14)"/>
<use xlink:href="#x" transform="translate(238,28)"/>
<use xlink:href="#x" transform="translate(238,42)"/>
<use xlink:href="#x" transform="translate(238,56)"/>
<use xlink:href="#x" transform="translate(238,70)"/>
<use xlink:href="#x" transform="translate(238,84)"/>
<use xlink:href="#x" transform="translate(238,98)"/>
<use xlink:href="#x" transform="translate(238,112)"/>
<use xlink:href="#x" transform="translate(238,126)"/>
<use xlink:href="#x" transform="translate(238,140)"/>
<use xlink:href="#x" transform="translate(238,154)"/>
<use xlink:href="#x" transform="translate(238,168)"/>
<use xlink:href="#x" transform="translate(238,182)"/>
<use xlink:href="#x" transform="translate(238,196)"/>
<use xlink:href="#x" transform="translate(238,210)"/>
<use xlink:href="#x" transform="translate(238,224)"/>
<use xlink:href="#x" transform="translate(238,238)"/>
<use xlink:href="#x" transform="translate(238,252)"/>
<use xlink:href="#x" transform="translate(238,266)"/>
<use xlink:href="#x" transform="translate(252,0)"/>
<use xlink:href="#x" transform="translate(252,14)"/>
<use xlink:href="#x" transform="translate(252,28)"/>
<use xlink:href="#x" transform="translate(252,42)"/>
<use xlink:href="#x" transform="translate(252,56)"/>
<use xlink:href="#x" transform="translate(252,70)"/>
<use xlink:href="#x" transform="translate(252,84)"/>
<use xlink:href="#x" transform="translate(252,98)"/>
<use xlink:href="#x" transform="translate(252,112)"/>
<use xlink:href="#x" transform="translate(252,126)"/>
<use xlink:href="#x" transform="translate(252,140)"/>
<use xlink:href="#x" transform="translate(252,154)"/>
<use xlink:href="#x" transform="translate(252,168)"/>
<use xlink:href="#x" transform="translate(252,182)"/>
<use xlink:href="#x" transform="translate(252,196)"/>
<use xlink:href="#x" transform="translate(252,210)"/>
<use xlink:href="#x" transform="translate(252,224)"/>
<use xlink:href="#x" transform="translate(252,238)"/>
<use xlink:href="#x" transform="translate(252,252)"/>
<use xlink:href="#x" transform="translate(252,266)"/>
<use xlink:href="#x" transform="translate(266,0)"/>
<use xlink:href="#x" transform="translate(266,14)"/>
<use xlink:href="#x" transform="translate(266,28)"/>
<use xlink:href="#x" transform="translate(266,42)"/>
<use xlink:href="#x" transform="translate(266,56)"/>
<use xlink:href="#x" transform="translate(266,70)"/>
<use xlink:href="#x" transform="translate(266,84)"/>
<use xlink:href="#x" transform="translate(266,98)"/>
<use xlink:href="#x" transform="translate(266,112)"/>
<use xlink:href="#x" transform="translate(266,126)"/>
<use xlink:href="#x" transform="translate(266,140)"/>
<use xlink:href="#x" transform="translate(266,154)"/>
<use xlink:href="#x" transform="translate(266,168)"/>
<use xlink:href="#x" transform="translate(266,182)"/>
<use xlink:href="#x" transform="translate(266,196)"/>
<use xlink:href="#x" transform="translate(266,210)"/>
<use xlink:href="#x" transform="translate(266,224)"/>
<use xlink:href="#x" transform="translate(266,238)"/>
<use xlink:href="#x" transform="translate(266,252)"/>
<use xlink:href="#x" transform="translate(266,266)"/>
<path fill-rule="evenodd" d="m10,273a3,3,0,0,1,-6,0,3,3,0,1,1,6,0z" fill="#00c000"/>
<path fill-rule="evenodd" d="m6.78,4a3,3,0,0,0,-2.78,3,3,3,0,0,0,6,0,3,3,0,0,0,-3.22,-3z" fill="#0073cf"/>
<path fill-rule="evenodd" d="m276,7a3,3,0,0,1,-6,0,3,3,0,1,1,6,0z" fill="#ebcd23"/>
<path fill-rule="evenodd" d="m276,273a3,3,0,0,1,-6,0,3,3,0,1,1,6,0z" fill="#e63e2c"/>
</svg>
