<?xml version="1.0" encoding="UTF-8" standalone="no"?>
<!-- Created with Inkscape (http://www.inkscape.org/) -->

<svg
   xmlns:dc="http://purl.org/dc/elements/1.1/"
   xmlns:cc="http://creativecommons.org/ns#"
   xmlns:rdf="http://www.w3.org/1999/02/22-rdf-syntax-ns#"
   xmlns:svg="http://www.w3.org/2000/svg"
   xmlns="http://www.w3.org/2000/svg"
   xmlns:xlink="http://www.w3.org/1999/xlink"
   version="1.1"
   width="280"
   height="280"
   id="svg2">
  <defs
     id="defs4" />
  <metadata
     id="metadata7">
    <rdf:RDF>
      <cc:Work
         rdf:about="">
        <dc:format>image/svg+xml</dc:format>
        <dc:type
           rdf:resource="http://purl.org/dc/dcmitype/StillImage" />
        <dc:title></dc:title>
      </cc:Work>
    </rdf:RDF>
  </metadata>
  <g
     transform="translate(85.871994,-902.9029)"
     id="g3956">
    <rect
       width="20"
       height="20"
       x="65.871994"
       y="-922.90167"
       transform="scale(-1,-1)"
       id="rect2984"
       style="fill:#494347;fill-opacity:1;fill-rule:evenodd;stroke:none" />
    <path
       d="m -65.87199,902.90176 -20,0 0,20 1,-1 0,-18 18,0 z"
       id="path3757"
       style="fill:#000000;fill-opacity:0.19607843;stroke:none" />
    <path
       d="m -65.87199,902.90176 -1,1 0,18 -18,0 -1,1 20,0 z"
       id="path3759"
       style="fill:#ffffff;fill-opacity:0.19607843;stroke:none" />
  </g>
  <path
     d="m 278.87202,59.45883 a 3,3 0 0 1 -6,0 3,3 0 1 1 6,0 z"
     id="path3184"
     style="fill:#00c000;fill-opacity:1;fill-rule:evenodd;stroke:none" />
  <use
     transform="translate(-1.8554687e-8,20.00009)"
     id="use3963"
     x="0"
     y="0"
     width="280"
     height="280"
     xlink:href="#g3956" />
  <use
     transform="translate(-1.8554687e-8,40.000175)"
     id="use3965"
     x="0"
     y="0"
     width="280"
     height="280"
     xlink:href="#g3956" />
  <use
     transform="translate(-1.8554687e-8,60.000263)"
     id="use3967"
     x="0"
     y="0"
     width="280"
     height="280"
     xlink:href="#g3956" />
  <use
     transform="translate(-1.8554687e-8,80.000351)"
     id="use3969"
     x="0"
     y="0"
     width="280"
     height="280"
     xlink:href="#g3956" />
  <use
     transform="translate(-1.8554687e-8,100.00044)"
     id="use3971"
     x="0"
     y="0"
     width="280"
     height="280"
     xlink:href="#g3956" />
  <use
     transform="translate(-1.8554687e-8,120.00053)"
     id="use3973"
     x="0"
     y="0"
     width="280"
     height="280"
     xlink:href="#g3956" />
  <use
     transform="translate(-1.8554687e-8,140.00061)"
     id="use3975"
     x="0"
     y="0"
     width="280"
     height="280"
     xlink:href="#g3956" />
  <use
     transform="translate(-1.8554687e-8,160.0007)"
     id="use3977"
     x="0"
     y="0"
     width="280"
     height="280"
     xlink:href="#g3956" />
  <use
     transform="translate(-1.8554687e-8,180.00079)"
     id="use3979"
     x="0"
     y="0"
     width="280"
     height="280"
     xlink:href="#g3956" />
  <use
     transform="translate(-1.8554687e-8,200.00088)"
     id="use3981"
     x="0"
     y="0"
     width="280"
     height="280"
     xlink:href="#g3956" />
  <use
     transform="translate(-1.8554687e-8,220.00096)"
     id="use3983"
     x="0"
     y="0"
     width="280"
     height="280"
     xlink:href="#g3956" />
  <use
     transform="translate(-1.8554687e-8,240.00105)"
     id="use3985"
     x="0"
     y="0"
     width="280"
     height="280"
     xlink:href="#g3956" />
  <use
     transform="translate(-1.8554687e-8,260.00114)"
     id="use3987"
     x="0"
     y="0"
     width="280"
     height="280"
     xlink:href="#g3956" />
  <use
     transform="translate(20.000006,0)"
     id="use3989"
     x="0"
     y="0"
     width="280"
     height="280"
     xlink:href="#g3956" />
  <use
     transform="translate(20.000006,20.00009)"
     id="use3991"
     x="0"
     y="0"
     width="280"
     height="280"
     xlink:href="#g3956" />
  <use
     transform="translate(20.000006,40.000175)"
     id="use3993"
     x="0"
     y="0"
     width="280"
     height="280"
     xlink:href="#g3956" />
  <use
     transform="translate(20.000006,60.000263)"
     id="use3995"
     x="0"
     y="0"
     width="280"
     height="280"
     xlink:href="#g3956" />
  <use
     transform="translate(20.000006,80.000351)"
     id="use3997"
     x="0"
     y="0"
     width="280"
     height="280"
     xlink:href="#g3956" />
  <use
     transform="translate(20.000006,100.00044)"
     id="use3999"
     x="0"
     y="0"
     width="280"
     height="280"
     xlink:href="#g3956" />
  <use
     transform="translate(20.000006,120.00053)"
     id="use4001"
     x="0"
     y="0"
     width="280"
     height="280"
     xlink:href="#g3956" />
  <use
     transform="translate(20.000006,140.00061)"
     id="use4003"
     x="0"
     y="0"
     width="280"
     height="280"
     xlink:href="#g3956" />
  <use
     transform="translate(20.000006,160.0007)"
     id="use4005"
     x="0"
     y="0"
     width="280"
     height="280"
     xlink:href="#g3956" />
  <use
     transform="translate(20.000006,180.00079)"
     id="use4007"
     x="0"
     y="0"
     width="280"
     height="280"
     xlink:href="#g3956" />
  <use
     transform="translate(20.000006,200.00088)"
     id="use4009"
     x="0"
     y="0"
     width="280"
     height="280"
     xlink:href="#g3956" />
  <use
     transform="translate(20.000006,220.00096)"
     id="use4011"
     x="0"
     y="0"
     width="280"
     height="280"
     xlink:href="#g3956" />
  <use
     transform="translate(20.000006,240.00105)"
     id="use4013"
     x="0"
     y="0"
     width="280"
     height="280"
     xlink:href="#g3956" />
  <use
     transform="translate(20.000006,260.00114)"
     id="use4015"
     x="0"
     y="0"
     width="280"
     height="280"
     xlink:href="#g3956" />
  <use
     transform="translate(40.000006,0)"
     id="use4017"
     x="0"
     y="0"
     width="280"
     height="280"
     xlink:href="#g3956" />
  <use
     transform="translate(40.000006,20.00009)"
     id="use4019"
     x="0"
     y="0"
     width="280"
     height="280"
     xlink:href="#g3956" />
  <use
     transform="translate(40.000006,40.000175)"
     id="use4021"
     x="0"
     y="0"
     width="280"
     height="280"
     xlink:href="#g3956" />
  <use
     transform="translate(40.000006,60.000263)"
     id="use4023"
     x="0"
     y="0"
     width="280"
     height="280"
     xlink:href="#g3956" />
  <use
     transform="translate(40.000006,80.000351)"
     id="use4025"
     x="0"
     y="0"
     width="280"
     height="280"
     xlink:href="#g3956" />
  <use
     transform="translate(40.000006,100.00044)"
     id="use4027"
     x="0"
     y="0"
     width="280"
     height="280"
     xlink:href="#g3956" />
  <use
     transform="translate(40.000006,120.00053)"
     id="use4029"
     x="0"
     y="0"
     width="280"
     height="280"
     xlink:href="#g3956" />
  <use
     transform="translate(40.000006,140.00061)"
     id="use4031"
     x="0"
     y="0"
     width="280"
     height="280"
     xlink:href="#g3956" />
  <use
     transform="translate(40.000006,160.0007)"
     id="use4033"
     x="0"
     y="0"
     width="280"
     height="280"
     xlink:href="#g3956" />
  <use
     transform="translate(40.000006,180.00079)"
     id="use4035"
     x="0"
     y="0"
     width="280"
     height="280"
     xlink:href="#g3956" />
  <use
     transform="translate(40.000006,200.00088)"
     id="use4037"
     x="0"
     y="0"
     width="280"
     height="280"
     xlink:href="#g3956" />
  <use
     transform="translate(40.000006,220.00096)"
     id="use4039"
     x="0"
     y="0"
     width="280"
     height="280"
     xlink:href="#g3956" />
  <use
     transform="translate(40.000006,240.00105)"
     id="use4041"
     x="0"
     y="0"
     width="280"
     height="280"
     xlink:href="#g3956" />
  <use
     transform="translate(40.000006,260.00114)"
     id="use4043"
     x="0"
     y="0"
     width="280"
     height="280"
     xlink:href="#g3956" />
  <use
     transform="translate(60.000016,0)"
     id="use4045"
     x="0"
     y="0"
     width="280"
     height="280"
     xlink:href="#g3956" />
  <use
     transform="translate(60.000016,20.00009)"
     id="use4047"
     x="0"
     y="0"
     width="280"
     height="280"
     xlink:href="#g3956" />
  <use
     transform="translate(60.000016,40.000175)"
     id="use4049"
     x="0"
     y="0"
     width="280"
     height="280"
     xlink:href="#g3956" />
  <use
     transform="translate(60.000016,60.000263)"
     id="use4051"
     x="0"
     y="0"
     width="280"
     height="280"
     xlink:href="#g3956" />
  <use
     transform="translate(60.000016,80.000351)"
     id="use4053"
     x="0"
     y="0"
     width="280"
     height="280"
     xlink:href="#g3956" />
  <use
     transform="translate(60.000016,100.00044)"
     id="use4055"
     x="0"
     y="0"
     width="280"
     height="280"
     xlink:href="#g3956" />
  <use
     transform="translate(60.000016,120.00053)"
     id="use4057"
     x="0"
     y="0"
     width="280"
     height="280"
     xlink:href="#g3956" />
  <use
     transform="translate(60.000016,140.00061)"
     id="use4059"
     x="0"
     y="0"
     width="280"
     height="280"
     xlink:href="#g3956" />
  <use
     transform="translate(60.000016,160.0007)"
     id="use4061"
     x="0"
     y="0"
     width="280"
     height="280"
     xlink:href="#g3956" />
  <use
     transform="translate(60.000016,180.00079)"
     id="use4063"
     x="0"
     y="0"
     width="280"
     height="280"
     xlink:href="#g3956" />
  <use
     transform="translate(60.000016,200.00088)"
     id="use4065"
     x="0"
     y="0"
     width="280"
     height="280"
     xlink:href="#g3956" />
  <use
     transform="translate(60.000016,220.00096)"
     id="use4067"
     x="0"
     y="0"
     width="280"
     height="280"
     xlink:href="#g3956" />
  <use
     transform="translate(60.000016,240.00105)"
     id="use4069"
     x="0"
     y="0"
     width="280"
     height="280"
     xlink:href="#g3956" />
  <use
     transform="translate(60.000016,260.00114)"
     id="use4071"
     x="0"
     y="0"
     width="280"
     height="280"
     xlink:href="#g3956" />
  <use
     transform="translate(80.000016,0)"
     id="use4073"
     x="0"
     y="0"
     width="280"
     height="280"
     xlink:href="#g3956" />
  <use
     transform="translate(80.000016,20.00009)"
     id="use4075"
     x="0"
     y="0"
     width="280"
     height="280"
     xlink:href="#g3956" />
  <use
     transform="translate(80.000016,40.000175)"
     id="use4077"
     x="0"
     y="0"
     width="280"
     height="280"
     xlink:href="#g3956" />
  <use
     transform="translate(80.000016,60.000263)"
     id="use4079"
     x="0"
     y="0"
     width="280"
     height="280"
     xlink:href="#g3956" />
  <use
     transform="translate(80.000016,80.000351)"
     id="use4081"
     x="0"
     y="0"
     width="280"
     height="280"
     xlink:href="#g3956" />
  <use
     transform="translate(80.000016,100.00044)"
     id="use4083"
     x="0"
     y="0"
     width="280"
     height="280"
     xlink:href="#g3956" />
  <use
     transform="translate(80.000016,120.00053)"
     id="use4085"
     x="0"
     y="0"
     width="280"
     height="280"
     xlink:href="#g3956" />
  <use
     transform="translate(80.000016,140.00061)"
     id="use4087"
     x="0"
     y="0"
     width="280"
     height="280"
     xlink:href="#g3956" />
  <use
     transform="translate(80.000016,160.0007)"
     id="use4089"
     x="0"
     y="0"
     width="280"
     height="280"
     xlink:href="#g3956" />
  <use
     transform="translate(80.000016,180.00079)"
     id="use4091"
     x="0"
     y="0"
     width="280"
     height="280"
     xlink:href="#g3956" />
  <use
     transform="translate(80.000016,200.00088)"
     id="use4093"
     x="0"
     y="0"
     width="280"
     height="280"
     xlink:href="#g3956" />
  <use
     transform="translate(80.000016,220.00096)"
     id="use4095"
     x="0"
     y="0"
     width="280"
     height="280"
     xlink:href="#g3956" />
  <use
     transform="translate(80.000016,240.00105)"
     id="use4097"
     x="0"
     y="0"
     width="280"
     height="280"
     xlink:href="#g3956" />
  <use
     transform="translate(80.000016,260.00114)"
     id="use4099"
     x="0"
     y="0"
     width="280"
     height="280"
     xlink:href="#g3956" />
  <use
     transform="translate(100.00002,0)"
     id="use4101"
     x="0"
     y="0"
     width="280"
     height="280"
     xlink:href="#g3956" />
  <use
     transform="translate(100.00002,20.00009)"
     id="use4103"
     x="0"
     y="0"
     width="280"
     height="280"
     xlink:href="#g3956" />
  <use
     transform="translate(100.00002,40.000175)"
     id="use4105"
     x="0"
     y="0"
     width="280"
     height="280"
     xlink:href="#g3956" />
  <use
     transform="translate(100.00002,60.000263)"
     id="use4107"
     x="0"
     y="0"
     width="280"
     height="280"
     xlink:href="#g3956" />
  <use
     transform="translate(100.00002,80.000351)"
     id="use4109"
     x="0"
     y="0"
     width="280"
     height="280"
     xlink:href="#g3956" />
  <use
     transform="translate(100.00002,100.00044)"
     id="use4111"
     x="0"
     y="0"
     width="280"
     height="280"
     xlink:href="#g3956" />
  <use
     transform="translate(100.00002,120.00053)"
     id="use4113"
     x="0"
     y="0"
     width="280"
     height="280"
     xlink:href="#g3956" />
  <use
     transform="translate(100.00002,140.00061)"
     id="use4115"
     x="0"
     y="0"
     width="280"
     height="280"
     xlink:href="#g3956" />
  <use
     transform="translate(100.00002,160.0007)"
     id="use4117"
     x="0"
     y="0"
     width="280"
     height="280"
     xlink:href="#g3956" />
  <use
     transform="translate(100.00002,180.00079)"
     id="use4119"
     x="0"
     y="0"
     width="280"
     height="280"
     xlink:href="#g3956" />
  <use
     transform="translate(100.00002,200.00088)"
     id="use4121"
     x="0"
     y="0"
     width="280"
     height="280"
     xlink:href="#g3956" />
  <use
     transform="translate(100.00002,220.00096)"
     id="use4123"
     x="0"
     y="0"
     width="280"
     height="280"
     xlink:href="#g3956" />
  <use
     transform="translate(100.00002,240.00105)"
     id="use4125"
     x="0"
     y="0"
     width="280"
     height="280"
     xlink:href="#g3956" />
  <use
     transform="translate(100.00002,260.00114)"
     id="use4127"
     x="0"
     y="0"
     width="280"
     height="280"
     xlink:href="#g3956" />
  <use
     transform="translate(120.00002,0)"
     id="use4129"
     x="0"
     y="0"
     width="280"
     height="280"
     xlink:href="#g3956" />
  <use
     transform="translate(120.00002,20.00009)"
     id="use4131"
     x="0"
     y="0"
     width="280"
     height="280"
     xlink:href="#g3956" />
  <use
     transform="translate(120.00002,40.000175)"
     id="use4133"
     x="0"
     y="0"
     width="280"
     height="280"
     xlink:href="#g3956" />
  <use
     transform="translate(120.00002,60.000263)"
     id="use4135"
     x="0"
     y="0"
     width="280"
     height="280"
     xlink:href="#g3956" />
  <use
     transform="translate(120.00002,80.000351)"
     id="use4137"
     x="0"
     y="0"
     width="280"
     height="280"
     xlink:href="#g3956" />
  <use
     transform="translate(120.00002,100.00044)"
     id="use4139"
     x="0"
     y="0"
     width="280"
     height="280"
     xlink:href="#g3956" />
  <use
     transform="translate(120.00002,120.00053)"
     id="use4141"
     x="0"
     y="0"
     width="280"
     height="280"
     xlink:href="#g3956" />
  <use
     transform="translate(120.00002,140.00061)"
     id="use4143"
     x="0"
     y="0"
     width="280"
     height="280"
     xlink:href="#g3956" />
  <use
     transform="translate(120.00002,160.0007)"
     id="use4145"
     x="0"
     y="0"
     width="280"
     height="280"
     xlink:href="#g3956" />
  <use
     transform="translate(120.00002,180.00079)"
     id="use4147"
     x="0"
     y="0"
     width="280"
     height="280"
     xlink:href="#g3956" />
  <use
     transform="translate(120.00002,200.00088)"
     id="use4149"
     x="0"
     y="0"
     width="280"
     height="280"
     xlink:href="#g3956" />
  <use
     transform="translate(120.00002,220.00096)"
     id="use4151"
     x="0"
     y="0"
     width="280"
     height="280"
     xlink:href="#g3956" />
  <use
     transform="translate(120.00002,240.00105)"
     id="use4153"
     x="0"
     y="0"
     width="280"
     height="280"
     xlink:href="#g3956" />
  <use
     transform="translate(120.00002,260.00114)"
     id="use4155"
     x="0"
     y="0"
     width="280"
     height="280"
     xlink:href="#g3956" />
  <use
     transform="translate(140.00003,0)"
     id="use4157"
     x="0"
     y="0"
     width="280"
     height="280"
     xlink:href="#g3956" />
  <use
     transform="translate(140.00003,20.00009)"
     id="use4159"
     x="0"
     y="0"
     width="280"
     height="280"
     xlink:href="#g3956" />
  <use
     transform="translate(140.00003,40.000175)"
     id="use4161"
     x="0"
     y="0"
     width="280"
     height="280"
     xlink:href="#g3956" />
  <use
     transform="translate(140.00003,60.000263)"
     id="use4163"
     x="0"
     y="0"
     width="280"
     height="280"
     xlink:href="#g3956" />
  <use
     transform="translate(140.00003,80.000351)"
     id="use4165"
     x="0"
     y="0"
     width="280"
     height="280"
     xlink:href="#g3956" />
  <use
     transform="translate(140.00003,100.00044)"
     id="use4167"
     x="0"
     y="0"
     width="280"
     height="280"
     xlink:href="#g3956" />
  <use
     transform="translate(140.00003,120.00053)"
     id="use4169"
     x="0"
     y="0"
     width="280"
     height="280"
     xlink:href="#g3956" />
  <use
     transform="translate(140.00003,140.00061)"
     id="use4171"
     x="0"
     y="0"
     width="280"
     height="280"
     xlink:href="#g3956" />
  <use
     transform="translate(140.00003,160.0007)"
     id="use4173"
     x="0"
     y="0"
     width="280"
     height="280"
     xlink:href="#g3956" />
  <use
     transform="translate(140.00003,180.00079)"
     id="use4175"
     x="0"
     y="0"
     width="280"
     height="280"
     xlink:href="#g3956" />
  <use
     transform="translate(140.00003,200.00088)"
     id="use4177"
     x="0"
     y="0"
     width="280"
     height="280"
     xlink:href="#g3956" />
  <use
     transform="translate(140.00003,220.00096)"
     id="use4179"
     x="0"
     y="0"
     width="280"
     height="280"
     xlink:href="#g3956" />
  <use
     transform="translate(140.00003,240.00105)"
     id="use4181"
     x="0"
     y="0"
     width="280"
     height="280"
     xlink:href="#g3956" />
  <use
     transform="translate(140.00003,260.00114)"
     id="use4183"
     x="0"
     y="0"
     width="280"
     height="280"
     xlink:href="#g3956" />
  <use
     transform="translate(160.00003,0)"
     id="use4185"
     x="0"
     y="0"
     width="280"
     height="280"
     xlink:href="#g3956" />
  <use
     transform="translate(160.00003,20.00009)"
     id="use4187"
     x="0"
     y="0"
     width="280"
     height="280"
     xlink:href="#g3956" />
  <use
     transform="translate(160.00003,40.000175)"
     id="use4189"
     x="0"
     y="0"
     width="280"
     height="280"
     xlink:href="#g3956" />
  <use
     transform="translate(160.00003,60.000263)"
     id="use4191"
     x="0"
     y="0"
     width="280"
     height="280"
     xlink:href="#g3956" />
  <use
     transform="translate(160.00003,80.000351)"
     id="use4193"
     x="0"
     y="0"
     width="280"
     height="280"
     xlink:href="#g3956" />
  <use
     transform="translate(160.00003,100.00044)"
     id="use4195"
     x="0"
     y="0"
     width="280"
     height="280"
     xlink:href="#g3956" />
  <use
     transform="translate(160.00003,120.00053)"
     id="use4197"
     x="0"
     y="0"
     width="280"
     height="280"
     xlink:href="#g3956" />
  <use
     transform="translate(160.00003,140.00061)"
     id="use4199"
     x="0"
     y="0"
     width="280"
     height="280"
     xlink:href="#g3956" />
  <use
     transform="translate(160.00003,160.0007)"
     id="use4201"
     x="0"
     y="0"
     width="280"
     height="280"
     xlink:href="#g3956" />
  <use
     transform="translate(160.00003,180.00079)"
     id="use4203"
     x="0"
     y="0"
     width="280"
     height="280"
     xlink:href="#g3956" />
  <use
     transform="translate(160.00003,200.00088)"
     id="use4205"
     x="0"
     y="0"
     width="280"
     height="280"
     xlink:href="#g3956" />
  <use
     transform="translate(160.00003,220.00096)"
     id="use4207"
     x="0"
     y="0"
     width="280"
     height="280"
     xlink:href="#g3956" />
  <use
     transform="translate(160.00003,240.00105)"
     id="use4209"
     x="0"
     y="0"
     width="280"
     height="280"
     xlink:href="#g3956" />
  <use
     transform="translate(160.00003,260.00114)"
     id="use4211"
     x="0"
     y="0"
     width="280"
     height="280"
     xlink:href="#g3956" />
  <use
     transform="translate(180.00004,0)"
     id="use4213"
     x="0"
     y="0"
     width="280"
     height="280"
     xlink:href="#g3956" />
  <use
     transform="translate(180.00004,20.00009)"
     id="use4215"
     x="0"
     y="0"
     width="280"
     height="280"
     xlink:href="#g3956" />
  <use
     transform="translate(180.00004,40.000175)"
     id="use4217"
     x="0"
     y="0"
     width="280"
     height="280"
     xlink:href="#g3956" />
  <use
     transform="translate(180.00004,60.000263)"
     id="use4219"
     x="0"
     y="0"
     width="280"
     height="280"
     xlink:href="#g3956" />
  <use
     transform="translate(180.00004,80.000351)"
     id="use4221"
     x="0"
     y="0"
     width="280"
     height="280"
     xlink:href="#g3956" />
  <use
     transform="translate(180.00004,100.00044)"
     id="use4223"
     x="0"
     y="0"
     width="280"
     height="280"
     xlink:href="#g3956" />
  <use
     transform="translate(180.00004,120.00053)"
     id="use4225"
     x="0"
     y="0"
     width="280"
     height="280"
     xlink:href="#g3956" />
  <use
     transform="translate(180.00004,140.00061)"
     id="use4227"
     x="0"
     y="0"
     width="280"
     height="280"
     xlink:href="#g3956" />
  <use
     transform="translate(180.00004,160.0007)"
     id="use4229"
     x="0"
     y="0"
     width="280"
     height="280"
     xlink:href="#g3956" />
  <use
     transform="translate(180.00004,180.00079)"
     id="use4231"
     x="0"
     y="0"
     width="280"
     height="280"
     xlink:href="#g3956" />
  <use
     transform="translate(180.00004,200.00088)"
     id="use4233"
     x="0"
     y="0"
     width="280"
     height="280"
     xlink:href="#g3956" />
  <use
     transform="translate(180.00004,220.00096)"
     id="use4235"
     x="0"
     y="0"
     width="280"
     height="280"
     xlink:href="#g3956" />
  <use
     transform="translate(180.00004,240.00105)"
     id="use4237"
     x="0"
     y="0"
     width="280"
     height="280"
     xlink:href="#g3956" />
  <use
     transform="translate(180.00004,260.00114)"
     id="use4239"
     x="0"
     y="0"
     width="280"
     height="280"
     xlink:href="#g3956" />
  <use
     transform="translate(200.00004,0)"
     id="use4241"
     x="0"
     y="0"
     width="280"
     height="280"
     xlink:href="#g3956" />
  <use
     transform="translate(200.00004,20.00009)"
     id="use4243"
     x="0"
     y="0"
     width="280"
     height="280"
     xlink:href="#g3956" />
  <use
     transform="translate(200.00004,40.000175)"
     id="use4245"
     x="0"
     y="0"
     width="280"
     height="280"
     xlink:href="#g3956" />
  <use
     transform="translate(200.00004,60.000263)"
     id="use4247"
     x="0"
     y="0"
     width="280"
     height="280"
     xlink:href="#g3956" />
  <use
     transform="translate(200.00004,80.000351)"
     id="use4249"
     x="0"
     y="0"
     width="280"
     height="280"
     xlink:href="#g3956" />
  <use
     transform="translate(200.00004,100.00044)"
     id="use4251"
     x="0"
     y="0"
     width="280"
     height="280"
     xlink:href="#g3956" />
  <use
     transform="translate(200.00004,120.00053)"
     id="use4253"
     x="0"
     y="0"
     width="280"
     height="280"
     xlink:href="#g3956" />
  <use
     transform="translate(200.00004,140.00061)"
     id="use4255"
     x="0"
     y="0"
     width="280"
     height="280"
     xlink:href="#g3956" />
  <use
     transform="translate(200.00004,160.0007)"
     id="use4257"
     x="0"
     y="0"
     width="280"
     height="280"
     xlink:href="#g3956" />
  <use
     transform="translate(200.00004,180.00079)"
     id="use4259"
     x="0"
     y="0"
     width="280"
     height="280"
     xlink:href="#g3956" />
  <use
     transform="translate(200.00004,200.00088)"
     id="use4261"
     x="0"
     y="0"
     width="280"
     height="280"
     xlink:href="#g3956" />
  <use
     transform="translate(200.00004,220.00096)"
     id="use4263"
     x="0"
     y="0"
     width="280"
     height="280"
     xlink:href="#g3956" />
  <use
     transform="translate(200.00004,240.00105)"
     id="use4265"
     x="0"
     y="0"
     width="280"
     height="280"
     xlink:href="#g3956" />
  <use
     transform="translate(200.00004,260.00114)"
     id="use4267"
     x="0"
     y="0"
     width="280"
     height="280"
     xlink:href="#g3956" />
  <use
     transform="translate(220.00004,0)"
     id="use4269"
     x="0"
     y="0"
     width="280"
     height="280"
     xlink:href="#g3956" />
  <use
     transform="translate(220.00004,20.00009)"
     id="use4271"
     x="0"
     y="0"
     width="280"
     height="280"
     xlink:href="#g3956" />
  <use
     transform="translate(220.00004,40.000175)"
     id="use4273"
     x="0"
     y="0"
     width="280"
     height="280"
     xlink:href="#g3956" />
  <use
     transform="translate(220.00004,60.000263)"
     id="use4275"
     x="0"
     y="0"
     width="280"
     height="280"
     xlink:href="#g3956" />
  <use
     transform="translate(220.00004,80.000351)"
     id="use4277"
     x="0"
     y="0"
     width="280"
     height="280"
     xlink:href="#g3956" />
  <use
     transform="translate(220.00004,100.00044)"
     id="use4279"
     x="0"
     y="0"
     width="280"
     height="280"
     xlink:href="#g3956" />
  <use
     transform="translate(220.00004,120.00053)"
     id="use4281"
     x="0"
     y="0"
     width="280"
     height="280"
     xlink:href="#g3956" />
  <use
     transform="translate(220.00004,140.00061)"
     id="use4283"
     x="0"
     y="0"
     width="280"
     height="280"
     xlink:href="#g3956" />
  <use
     transform="translate(220.00004,160.0007)"
     id="use4285"
     x="0"
     y="0"
     width="280"
     height="280"
     xlink:href="#g3956" />
  <use
     transform="translate(220.00004,180.00079)"
     id="use4287"
     x="0"
     y="0"
     width="280"
     height="280"
     xlink:href="#g3956" />
  <use
     transform="translate(220.00004,200.00088)"
     id="use4289"
     x="0"
     y="0"
     width="280"
     height="280"
     xlink:href="#g3956" />
  <use
     transform="translate(220.00004,220.00096)"
     id="use4291"
     x="0"
     y="0"
     width="280"
     height="280"
     xlink:href="#g3956" />
  <use
     transform="translate(220.00004,240.00105)"
     id="use4293"
     x="0"
     y="0"
     width="280"
     height="280"
     xlink:href="#g3956" />
  <use
     transform="translate(220.00004,260.00114)"
     id="use4295"
     x="0"
     y="0"
     width="280"
     height="280"
     xlink:href="#g3956" />
  <use
     transform="translate(240.00005,0)"
     id="use4297"
     x="0"
     y="0"
     width="280"
     height="280"
     xlink:href="#g3956" />
  <use
     transform="translate(240.00005,20.00009)"
     id="use4299"
     x="0"
     y="0"
     width="280"
     height="280"
     xlink:href="#g3956" />
  <use
     transform="translate(240.00005,40.000175)"
     id="use4301"
     x="0"
     y="0"
     width="280"
     height="280"
     xlink:href="#g3956" />
  <use
     transform="translate(240.00005,60.000263)"
     id="use4303"
     x="0"
     y="0"
     width="280"
     height="280"
     xlink:href="#g3956" />
  <use
     transform="translate(240.00005,80.000351)"
     id="use4305"
     x="0"
     y="0"
     width="280"
     height="280"
     xlink:href="#g3956" />
  <use
     transform="translate(240.00005,100.00044)"
     id="use4307"
     x="0"
     y="0"
     width="280"
     height="280"
     xlink:href="#g3956" />
  <use
     transform="translate(240.00005,120.00053)"
     id="use4309"
     x="0"
     y="0"
     width="280"
     height="280"
     xlink:href="#g3956" />
  <use
     transform="translate(240.00005,140.00061)"
     id="use4311"
     x="0"
     y="0"
     width="280"
     height="280"
     xlink:href="#g3956" />
  <use
     transform="translate(240.00005,160.0007)"
     id="use4313"
     x="0"
     y="0"
     width="280"
     height="280"
     xlink:href="#g3956" />
  <use
     transform="translate(240.00005,180.00079)"
     id="use4315"
     x="0"
     y="0"
     width="280"
     height="280"
     xlink:href="#g3956" />
  <use
     transform="translate(240.00005,200.00088)"
     id="use4317"
     x="0"
     y="0"
     width="280"
     height="280"
     xlink:href="#g3956" />
  <use
     transform="translate(240.00005,220.00096)"
     id="use4319"
     x="0"
     y="0"
     width="280"
     height="280"
     xlink:href="#g3956" />
  <use
     transform="translate(240.00005,240.00105)"
     id="use4321"
     x="0"
     y="0"
     width="280"
     height="280"
     xlink:href="#g3956" />
  <use
     transform="translate(240.00005,260.00114)"
     id="use4323"
     x="0"
     y="0"
     width="280"
     height="280"
     xlink:href="#g3956" />
  <use
     transform="translate(260.00005,0)"
     id="use4325"
     x="0"
     y="0"
     width="280"
     height="280"
     xlink:href="#g3956" />
  <use
     transform="translate(260.00005,20.00009)"
     id="use4327"
     x="0"
     y="0"
     width="280"
     height="280"
     xlink:href="#g3956" />
  <use
     transform="translate(260.00005,40.000175)"
     id="use4329"
     x="0"
     y="0"
     width="280"
     height="280"
     xlink:href="#g3956" />
  <use
     transform="translate(260.00005,60.000263)"
     id="use4331"
     x="0"
     y="0"
     width="280"
     height="280"
     xlink:href="#g3956" />
  <use
     transform="translate(260.00005,80.000351)"
     id="use4333"
     x="0"
     y="0"
     width="280"
     height="280"
     xlink:href="#g3956" />
  <use
     transform="translate(260.00005,100.00044)"
     id="use4335"
     x="0"
     y="0"
     width="280"
     height="280"
     xlink:href="#g3956" />
  <use
     transform="translate(260.00005,120.00053)"
     id="use4337"
     x="0"
     y="0"
     width="280"
     height="280"
     xlink:href="#g3956" />
  <use
     transform="translate(260.00005,140.00061)"
     id="use4339"
     x="0"
     y="0"
     width="280"
     height="280"
     xlink:href="#g3956" />
  <use
     transform="translate(260.00005,160.0007)"
     id="use4341"
     x="0"
     y="0"
     width="280"
     height="280"
     xlink:href="#g3956" />
  <use
     transform="translate(260.00005,180.00079)"
     id="use4343"
     x="0"
     y="0"
     width="280"
     height="280"
     xlink:href="#g3956" />
  <use
     transform="translate(260.00005,200.00088)"
     id="use4345"
     x="0"
     y="0"
     width="280"
     height="280"
     xlink:href="#g3956" />
  <use
     transform="translate(260.00005,220.00096)"
     id="use4347"
     x="0"
     y="0"
     width="280"
     height="280"
     xlink:href="#g3956" />
  <use
     transform="translate(260.00005,240.00105)"
     id="use4349"
     x="0"
     y="0"
     width="280"
     height="280"
     xlink:href="#g3956" />
  <use
     transform="translate(260.00005,260.00114)"
     id="use4351"
     x="0"
     y="0"
     width="280"
     height="280"
     xlink:href="#g3956" />
  <path
     d="m 94.000018,89.999167 a 4,4 0 0 1 -8,0 4,4 0 1 1 8,0 z"
     id="path3184-9"
     style="fill:#0073cf;fill-opacity:1;fill-rule:evenodd;stroke:none" />
  <path
     d="m 194.00004,189.99961 a 4,4 0 0 1 -8,0 4,4 0 1 1 8,0 z"
     id="path3184-9-0"
     style="fill:#00c000;fill-opacity:1;fill-rule:evenodd;stroke:none" />
</svg>
