<?xml version="1.0" encoding="UTF-8" standalone="no"?>
<svg xmlns:rdf="http://www.w3.org/1999/02/22-rdf-syntax-ns#" xmlns="http://www.w3.org/2000/svg" height="224" width="224" version="1.1" xmlns:cc="http://creativecommons.org/ns#" xmlns:xlink="http://www.w3.org/1999/xlink" xmlns:dc="http://purl.org/dc/elements/1.1/">
<g id="a" transform="translate(98)">
<rect height="14" width="14" fill="#494347"/>
<path d="m0.5 13.5v-13h13l-0.5 0.5h-12v12z" fill="#3b3639"/>
<path d="m0.5 13.5h13v-13l-0.5 0.5v12h-12z" fill="#6d686b"/>
</g>
<use xlink:href="#a" transform="translate(-98 98)"/>
<use xlink:href="#a" transform="translate(-98 112)"/>
<use xlink:href="#a" transform="translate(-84 84)"/>
<use xlink:href="#a" transform="translate(-84 98)"/>
<use xlink:href="#a" transform="translate(-84 112)"/>
<use xlink:href="#a" transform="translate(-84 126)"/>
<use xlink:href="#a" transform="translate(-70 70)"/>
<use xlink:href="#a" transform="translate(-70 84)"/>
<use xlink:href="#a" transform="translate(-70 98)"/>
<use xlink:href="#a" transform="translate(-70 112)"/>
<use xlink:href="#a" transform="translate(-70 126)"/>
<use xlink:href="#a" transform="translate(-70 140)"/>
<use xlink:href="#a" transform="translate(-56 56)"/>
<use xlink:href="#a" transform="translate(-56 70)"/>
<use xlink:href="#a" transform="translate(-56 84)"/>
<use xlink:href="#a" transform="translate(-56 98)"/>
<use xlink:href="#a" transform="translate(-56 112)"/>
<use xlink:href="#a" transform="translate(-56 126)"/>
<use xlink:href="#a" transform="translate(-56 140)"/>
<use xlink:href="#a" transform="translate(-56 154)"/>
<use xlink:href="#a" transform="translate(-42 42)"/>
<use xlink:href="#a" transform="translate(-42 56)"/>
<use xlink:href="#a" transform="translate(-42 70)"/>
<use xlink:href="#a" transform="translate(-42 84)"/>
<use xlink:href="#a" transform="translate(-42 98)"/>
<use xlink:href="#a" transform="translate(-42 112)"/>
<use xlink:href="#a" transform="translate(-42 126)"/>
<use xlink:href="#a" transform="translate(-42 140)"/>
<use xlink:href="#a" transform="translate(-42 154)"/>
<use xlink:href="#a" transform="translate(-42 168)"/>
<use xlink:href="#a" transform="translate(-28 28)"/>
<use xlink:href="#a" transform="translate(-28 42)"/>
<use xlink:href="#a" transform="translate(-28 56)"/>
<use xlink:href="#a" transform="translate(-28 70)"/>
<use xlink:href="#a" transform="translate(-28 84)"/>
<use xlink:href="#a" transform="translate(-28 126)"/>
<use xlink:href="#a" transform="translate(-28 140)"/>
<use xlink:href="#a" transform="translate(-28 154)"/>
<use xlink:href="#a" transform="translate(-28 168)"/>
<use xlink:href="#a" transform="translate(-28 182)"/>
<use xlink:href="#a" transform="translate(-14 14)"/>
<use xlink:href="#a" transform="translate(-14 28)"/>
<use xlink:href="#a" transform="translate(-14 42)"/>
<use xlink:href="#a" transform="translate(-14 56)"/>
<use xlink:href="#a" transform="translate(-14 70)"/>
<use xlink:href="#a" transform="translate(-14 140)"/>
<use xlink:href="#a" transform="translate(-14 154)"/>
<use xlink:href="#a" transform="translate(-14 168)"/>
<use xlink:href="#a" transform="translate(-14 182)"/>
<use xlink:href="#a" transform="translate(-14 196)"/>
<use xlink:href="#a" transform="translate(0 14)"/>
<use xlink:href="#a" transform="translate(0 28)"/>
<use xlink:href="#a" transform="translate(0 42)"/>
<use xlink:href="#a" transform="translate(0 56)"/>
<use xlink:href="#a" transform="translate(0 154)"/>
<use xlink:href="#a" transform="translate(0 168)"/>
<use xlink:href="#a" transform="translate(0 182)"/>
<use xlink:href="#a" transform="translate(0 196)"/>
<use xlink:href="#a" transform="translate(0 210)"/>
<use xlink:href="#a" transform="translate(14)"/>
<use xlink:href="#a" transform="translate(14 14)"/>
<use xlink:href="#a" transform="translate(14 28)"/>
<use xlink:href="#a" transform="translate(14 42)"/>
<use xlink:href="#a" transform="translate(14 56)"/>
<use xlink:href="#a" transform="translate(14 154)"/>
<use xlink:href="#a" transform="translate(14 168)"/>
<use xlink:href="#a" transform="translate(14 182)"/>
<use xlink:href="#a" transform="translate(14 196)"/>
<use xlink:href="#a" transform="translate(14 210)"/>
<use xlink:href="#a" transform="translate(28 14)"/>
<use xlink:href="#a" transform="translate(28 28)"/>
<use xlink:href="#a" transform="translate(28 42)"/>
<use xlink:href="#a" transform="translate(28 56)"/>
<use xlink:href="#a" transform="translate(28 70)"/>
<use xlink:href="#a" transform="translate(28 140)"/>
<use xlink:href="#a" transform="translate(28 154)"/>
<use xlink:href="#a" transform="translate(28 168)"/>
<use xlink:href="#a" transform="translate(28 182)"/>
<use xlink:href="#a" transform="translate(28 196)"/>
<use xlink:href="#a" transform="translate(42 28)"/>
<use xlink:href="#a" transform="translate(42 42)"/>
<use xlink:href="#a" transform="translate(42 56)"/>
<use xlink:href="#a" transform="translate(42 70)"/>
<use xlink:href="#a" transform="translate(42 84)"/>
<use xlink:href="#a" transform="translate(42 126)"/>
<use xlink:href="#a" transform="translate(42 140)"/>
<use xlink:href="#a" transform="translate(42 154)"/>
<use xlink:href="#a" transform="translate(42 168)"/>
<use xlink:href="#a" transform="translate(42 182)"/>
<use xlink:href="#a" transform="translate(56 42)"/>
<use xlink:href="#a" transform="translate(56 56)"/>
<use xlink:href="#a" transform="translate(56 70)"/>
<use xlink:href="#a" transform="translate(56 84)"/>
<use xlink:href="#a" transform="translate(56 98)"/>
<use xlink:href="#a" transform="translate(56 112)"/>
<use xlink:href="#a" transform="translate(56 126)"/>
<use xlink:href="#a" transform="translate(56 140)"/>
<use xlink:href="#a" transform="translate(56 154)"/>
<use xlink:href="#a" transform="translate(56 168)"/>
<use xlink:href="#a" transform="translate(70 56)"/>
<use xlink:href="#a" transform="translate(70 70)"/>
<use xlink:href="#a" transform="translate(70 84)"/>
<use xlink:href="#a" transform="translate(70 98)"/>
<use xlink:href="#a" transform="translate(70 112)"/>
<use xlink:href="#a" transform="translate(70 126)"/>
<use xlink:href="#a" transform="translate(70 140)"/>
<use xlink:href="#a" transform="translate(70 154)"/>
<use xlink:href="#a" transform="translate(84 70)"/>
<use xlink:href="#a" transform="translate(84 84)"/>
<use xlink:href="#a" transform="translate(84 98)"/>
<use xlink:href="#a" transform="translate(84 112)"/>
<use xlink:href="#a" transform="translate(84 126)"/>
<use xlink:href="#a" transform="translate(84 140)"/>
<use xlink:href="#a" transform="translate(98 84)"/>
<use xlink:href="#a" transform="translate(98 98)"/>
<use xlink:href="#a" transform="translate(98 112)"/>
<use xlink:href="#a" transform="translate(98 126)"/>
<use xlink:href="#a" transform="translate(112,98)"/>
<use xlink:href="#a" transform="translate(112,112)"/>
<g id="b" transform="translate(98 70)">
<rect height="14" width="14" fill="#494347"/>
<rect height="12" width="12" y="1" x="1" fill="#696267"/>
<path d="m0.5 13.5v-13h13l-0.5 0.5h-12v12z" fill="#5a5458"/>
<path d="m0.5 13.5h13v-13l-0.5 0.5v12h-12z" fill="#797276"/>
</g>
<use xlink:href="#b" transform="translate(-28,28)"/>
<use xlink:href="#b" transform="translate(-28,42)"/>
<use xlink:href="#b" transform="translate(-14,14)"/>
<use xlink:href="#b" transform="translate(-14,28)"/>
<use xlink:href="#b" transform="translate(-14,42)"/>
<use xlink:href="#b" transform="translate(-14,56)"/>
<use xlink:href="#b" transform="translate(0,14)"/>
<use xlink:href="#b" transform="translate(0,28)"/>
<use xlink:href="#b" transform="translate(0,42)"/>
<use xlink:href="#b" transform="translate(0,56)"/>
<use xlink:href="#b" transform="translate(0,70)"/>
<use xlink:href="#b" transform="translate(14)"/>
<use xlink:href="#b" transform="translate(14,14)"/>
<use xlink:href="#b" transform="translate(14,28)"/>
<use xlink:href="#b" transform="translate(14,42)"/>
<use xlink:href="#b" transform="translate(14,56)"/>
<use xlink:href="#b" transform="translate(14,70)"/>
<use xlink:href="#b" transform="translate(28,14)"/>
<use xlink:href="#b" transform="translate(28,28)"/>
<use xlink:href="#b" transform="translate(28,42)"/>
<use xlink:href="#b" transform="translate(28,56)"/>
<use xlink:href="#b" transform="translate(42,28)"/>
<use xlink:href="#b" transform="translate(42,42)"/>
</svg>
