<?xml version="1.0" encoding="UTF-8" standalone="no"?>
<svg xmlns:rdf="http://www.w3.org/1999/02/22-rdf-syntax-ns#" xmlns="http://www.w3.org/2000/svg" height="360" width="360" version="1.1" xmlns:cc="http://creativecommons.org/ns#" xmlns:xlink="http://www.w3.org/1999/xlink" xmlns:dc="http://purl.org/dc/elements/1.1/">
<metadata>
<rdf:RDF>
<cc:Work rdf:about="">
<dc:format>image/svg+xml</dc:format>
<dc:type rdf:resource="http://purl.org/dc/dcmitype/StillImage"/>
<dc:title/>
</cc:Work>
</rdf:RDF>
</metadata>
<path d="M90,0,0,180,90,360,270,360,360,180,270,0z" fill="#494347"/>
<g id="g5421" transform="translate(-75,-140)" fill-opacity="0.19607843">
<path d="m165,140,0,2,8.27,16.845-16.538,0l-1.73,1.16h20z" fill="#FFF"/>
<path d="m155,160,1.7321-1.1547,8.2679-16.845,0-1.9999z" fill="#000"/>
</g>
<g id="x" transform="translate(-43.73,-140.15467)">
<g transform="matrix(-1,0,0,-0.99999996,308.73,300.15466)">
<path d="m165,140,0,2,8.27,16.845-16.538,0l-1.73,1.16h20z" fill="#000" fill-opacity="0.19607843"/>
</g>
<path d="m153.73,140.15-1.7321,1.1547-8.2679,16.845,0,1.9999z" fill="#FFF" fill-opacity="0.19607843"/>
</g>
<use xlink:href="#x" transform="translate(-90,180)"/>
<use xlink:href="#x" transform="translate(-80,200)"/>
<use xlink:href="#x" transform="translate(-70,140)"/>
<use xlink:href="#x" transform="translate(-80,160)"/>
<use xlink:href="#x" transform="translate(-70,180)"/>
<use xlink:href="#x" transform="translate(-60,200)"/>
<use xlink:href="#x" transform="translate(-70,220)"/>
<use xlink:href="#x" transform="translate(-60,240)"/>
<use xlink:href="#x" transform="translate(-50,100)"/>
<use xlink:href="#x" transform="translate(-60,120)"/>
<use xlink:href="#x" transform="translate(-50,140)"/>
<use xlink:href="#x" transform="translate(-60,160)"/>
<use xlink:href="#x" transform="translate(-50,180)"/>
<use xlink:href="#x" transform="translate(-40,200)"/>
<use xlink:href="#x" transform="translate(-50,220)"/>
<use xlink:href="#x" transform="translate(-40,240)"/>
<use xlink:href="#x" transform="translate(-50,260)"/>
<use xlink:href="#x" transform="translate(-40,280)"/>
<use xlink:href="#x" transform="translate(-30,60)"/>
<use xlink:href="#x" transform="translate(-40,80)"/>
<use xlink:href="#x" transform="translate(-30,100)"/>
<use xlink:href="#x" transform="translate(-40,120)"/>
<use xlink:href="#x" transform="translate(-30,140)"/>
<use xlink:href="#x" transform="translate(-40,160)"/>
<use xlink:href="#x" transform="translate(-30,180)"/>
<use xlink:href="#x" transform="translate(-20,200)"/>
<use xlink:href="#x" transform="translate(-30,220)"/>
<use xlink:href="#x" transform="translate(-20,240)"/>
<use xlink:href="#x" transform="translate(-30,260)"/>
<use xlink:href="#x" transform="translate(-20,280)"/>
<use xlink:href="#x" transform="translate(-30,300)"/>
<use xlink:href="#x" transform="translate(-20,320)"/>
<use xlink:href="#x" transform="translate(-10,20)"/>
<use xlink:href="#x" transform="translate(-20,40)"/>
<use xlink:href="#x" transform="translate(-10,60)"/>
<use xlink:href="#x" transform="translate(-20,80)"/>
<use xlink:href="#x" transform="translate(-10,100)"/>
<use xlink:href="#x" transform="translate(-20,120)"/>
<use xlink:href="#x" transform="translate(-10,140)"/>
<use xlink:href="#x" transform="translate(-20,160)"/>
<use xlink:href="#x" transform="translate(-10,180)"/>
<use xlink:href="#x" transform="translate(0,200)"/>
<use xlink:href="#x" transform="translate(-10,220)"/>
<use xlink:href="#x" transform="translate(0,240)"/>
<use xlink:href="#x" transform="translate(-10,260)"/>
<use xlink:href="#x" transform="translate(0,280)"/>
<use xlink:href="#x" transform="translate(-10,300)"/>
<use xlink:href="#x" transform="translate(0,320)"/>
<use xlink:href="#x" transform="translate(-10,340)"/>
<use xlink:href="#x" transform="translate(10,20)"/>
<use xlink:href="#x" transform="translate(0,40)"/>
<use xlink:href="#x" transform="translate(10,60)"/>
<use xlink:href="#x" transform="translate(0,80)"/>
<use xlink:href="#x" transform="translate(10,100)"/>
<use xlink:href="#x" transform="translate(0,120)"/>
<use xlink:href="#x" transform="translate(10,140)"/>
<use xlink:href="#x" transform="translate(0,160)"/>
<use xlink:href="#x" transform="translate(10,180)"/>
<use xlink:href="#x" transform="translate(20,200)"/>
<use xlink:href="#x" transform="translate(10,220)"/>
<use xlink:href="#x" transform="translate(20,240)"/>
<use xlink:href="#x" transform="translate(10,260)"/>
<use xlink:href="#x" transform="translate(20,280)"/>
<use xlink:href="#x" transform="translate(10,300)"/>
<use xlink:href="#x" transform="translate(20,320)"/>
<use xlink:href="#x" transform="translate(10,340)"/>
<use xlink:href="#x" transform="translate(20,0)"/>
<use xlink:href="#x" transform="translate(30,20)"/>
<use xlink:href="#x" transform="translate(20,40)"/>
<use xlink:href="#x" transform="translate(30,60)"/>
<use xlink:href="#x" transform="translate(20,80)"/>
<use xlink:href="#x" transform="translate(30,100)"/>
<use xlink:href="#x" transform="translate(20,120)"/>
<use xlink:href="#x" transform="translate(30,140)"/>
<use xlink:href="#x" transform="translate(20,160)"/>
<use xlink:href="#x" transform="translate(30,180)"/>
<use xlink:href="#x" transform="translate(40,200)"/>
<use xlink:href="#x" transform="translate(30,220)"/>
<use xlink:href="#x" transform="translate(40,240)"/>
<use xlink:href="#x" transform="translate(30,260)"/>
<use xlink:href="#x" transform="translate(40,280)"/>
<use xlink:href="#x" transform="translate(30,300)"/>
<use xlink:href="#x" transform="translate(40,320)"/>
<use xlink:href="#x" transform="translate(30,340)"/>
<use xlink:href="#x" transform="translate(40,0)"/>
<use xlink:href="#x" transform="translate(50,20)"/>
<use xlink:href="#x" transform="translate(40,40)"/>
<use xlink:href="#x" transform="translate(50,60)"/>
<use xlink:href="#x" transform="translate(40,80)"/>
<use xlink:href="#x" transform="translate(50,100)"/>
<use xlink:href="#x" transform="translate(40,120)"/>
<use xlink:href="#x" transform="translate(50,140)"/>
<use xlink:href="#x" transform="translate(40,160)"/>
<use xlink:href="#x" transform="translate(50,180)"/>
<use xlink:href="#x" transform="translate(60,200)"/>
<use xlink:href="#x" transform="translate(50,220)"/>
<use xlink:href="#x" transform="translate(60,240)"/>
<use xlink:href="#x" transform="translate(50,260)"/>
<use xlink:href="#x" transform="translate(60,280)"/>
<use xlink:href="#x" transform="translate(50,300)"/>
<use xlink:href="#x" transform="translate(60,320)"/>
<use xlink:href="#x" transform="translate(50,340)"/>
<use xlink:href="#x" transform="translate(60,0)"/>
<use xlink:href="#x" transform="translate(70,20)"/>
<use xlink:href="#x" transform="translate(60,40)"/>
<use xlink:href="#x" transform="translate(70,60)"/>
<use xlink:href="#x" transform="translate(60,80)"/>
<use xlink:href="#x" transform="translate(70,100)"/>
<use xlink:href="#x" transform="translate(60,120)"/>
<use xlink:href="#x" transform="translate(70,140)"/>
<use xlink:href="#x" transform="translate(60,160)"/>
<use xlink:href="#x" transform="translate(70,180)"/>
<use xlink:href="#x" transform="translate(80,200)"/>
<use xlink:href="#x" transform="translate(70,220)"/>
<use xlink:href="#x" transform="translate(80,240)"/>
<use xlink:href="#x" transform="translate(70,260)"/>
<use xlink:href="#x" transform="translate(80,280)"/>
<use xlink:href="#x" transform="translate(70,300)"/>
<use xlink:href="#x" transform="translate(80,320)"/>
<use xlink:href="#x" transform="translate(70,340)"/>
<use xlink:href="#x" transform="translate(80,0)"/>
<use xlink:href="#x" transform="translate(90,20)"/>
<use xlink:href="#x" transform="translate(80,40)"/>
<use xlink:href="#x" transform="translate(90,60)"/>
<use xlink:href="#x" transform="translate(80,80)"/>
<use xlink:href="#x" transform="translate(90,100)"/>
<use xlink:href="#x" transform="translate(80,120)"/>
<use xlink:href="#x" transform="translate(90,140)"/>
<use xlink:href="#x" transform="translate(80,160)"/>
<use xlink:href="#x" transform="translate(90,180)"/>
<use xlink:href="#x" transform="translate(100,200)"/>
<use xlink:href="#x" transform="translate(90,220)"/>
<use xlink:href="#x" transform="translate(100,240)"/>
<use xlink:href="#x" transform="translate(90,260)"/>
<use xlink:href="#x" transform="translate(100,280)"/>
<use xlink:href="#x" transform="translate(90,300)"/>
<use xlink:href="#x" transform="translate(100,320)"/>
<use xlink:href="#x" transform="translate(90,340)"/>
<use xlink:href="#x" transform="translate(100,0)"/>
<use xlink:href="#x" transform="translate(110,20)"/>
<use xlink:href="#x" transform="translate(100,40)"/>
<use xlink:href="#x" transform="translate(110,60)"/>
<use xlink:href="#x" transform="translate(100,80)"/>
<use xlink:href="#x" transform="translate(110,100)"/>
<use xlink:href="#x" transform="translate(100,120)"/>
<use xlink:href="#x" transform="translate(110,140)"/>
<use xlink:href="#x" transform="translate(100,160)"/>
<use xlink:href="#x" transform="translate(110,180)"/>
<use xlink:href="#x" transform="translate(120,200)"/>
<use xlink:href="#x" transform="translate(110,220)"/>
<use xlink:href="#x" transform="translate(120,240)"/>
<use xlink:href="#x" transform="translate(110,260)"/>
<use xlink:href="#x" transform="translate(120,280)"/>
<use xlink:href="#x" transform="translate(110,300)"/>
<use xlink:href="#x" transform="translate(120,320)"/>
<use xlink:href="#x" transform="translate(110,340)"/>
<use xlink:href="#x" transform="translate(120,0)"/>
<use xlink:href="#x" transform="translate(130,20)"/>
<use xlink:href="#x" transform="translate(120,40)"/>
<use xlink:href="#x" transform="translate(130,60)"/>
<use xlink:href="#x" transform="translate(120,80)"/>
<use xlink:href="#x" transform="translate(130,100)"/>
<use xlink:href="#x" transform="translate(120,120)"/>
<use xlink:href="#x" transform="translate(130,140)"/>
<use xlink:href="#x" transform="translate(120,160)"/>
<use xlink:href="#x" transform="translate(130,180)"/>
<use xlink:href="#x" transform="translate(140,200)"/>
<use xlink:href="#x" transform="translate(130,220)"/>
<use xlink:href="#x" transform="translate(140,240)"/>
<use xlink:href="#x" transform="translate(130,260)"/>
<use xlink:href="#x" transform="translate(140,280)"/>
<use xlink:href="#x" transform="translate(130,300)"/>
<use xlink:href="#x" transform="translate(140,320)"/>
<use xlink:href="#x" transform="translate(130,340)"/>
<use xlink:href="#x" transform="translate(140,0)"/>
<use xlink:href="#x" transform="translate(150,20)"/>
<use xlink:href="#x" transform="translate(140,40)"/>
<use xlink:href="#x" transform="translate(150,60)"/>
<use xlink:href="#x" transform="translate(140,80)"/>
<use xlink:href="#x" transform="translate(150,100)"/>
<use xlink:href="#x" transform="translate(140,120)"/>
<use xlink:href="#x" transform="translate(150,140)"/>
<use xlink:href="#x" transform="translate(140,160)"/>
<use xlink:href="#x" transform="translate(150,180)"/>
<use xlink:href="#x" transform="translate(160,200)"/>
<use xlink:href="#x" transform="translate(150,220)"/>
<use xlink:href="#x" transform="translate(160,240)"/>
<use xlink:href="#x" transform="translate(150,260)"/>
<use xlink:href="#x" transform="translate(160,280)"/>
<use xlink:href="#x" transform="translate(150,300)"/>
<use xlink:href="#x" transform="translate(160,320)"/>
<use xlink:href="#x" transform="translate(150,340)"/>
<use xlink:href="#x" transform="translate(160,0)"/>
<use xlink:href="#x" transform="translate(170,20)"/>
<use xlink:href="#x" transform="translate(160,40)"/>
<use xlink:href="#x" transform="translate(170,60)"/>
<use xlink:href="#x" transform="translate(160,80)"/>
<use xlink:href="#x" transform="translate(170,100)"/>
<use xlink:href="#x" transform="translate(160,120)"/>
<use xlink:href="#x" transform="translate(170,140)"/>
<use xlink:href="#x" transform="translate(160,160)"/>
<use xlink:href="#x" transform="translate(170,180)"/>
<use xlink:href="#x" transform="translate(180,200)"/>
<use xlink:href="#x" transform="translate(170,220)"/>
<use xlink:href="#x" transform="translate(180,240)"/>
<use xlink:href="#x" transform="translate(170,260)"/>
<use xlink:href="#x" transform="translate(180,280)"/>
<use xlink:href="#x" transform="translate(170,300)"/>
<use xlink:href="#x" transform="translate(180,320)"/>
<use xlink:href="#x" transform="translate(170,340)"/>
<use xlink:href="#x" transform="translate(180,40)"/>
<use xlink:href="#x" transform="translate(190,60)"/>
<use xlink:href="#x" transform="translate(180,80)"/>
<use xlink:href="#x" transform="translate(190,100)"/>
<use xlink:href="#x" transform="translate(180,120)"/>
<use xlink:href="#x" transform="translate(190,140)"/>
<use xlink:href="#x" transform="translate(180,160)"/>
<use xlink:href="#x" transform="translate(190,180)"/>
<use xlink:href="#x" transform="translate(200,200)"/>
<use xlink:href="#x" transform="translate(190,220)"/>
<use xlink:href="#x" transform="translate(200,240)"/>
<use xlink:href="#x" transform="translate(190,260)"/>
<use xlink:href="#x" transform="translate(200,280)"/>
<use xlink:href="#x" transform="translate(190,300)"/>
<use xlink:href="#x" transform="translate(200,80)"/>
<use xlink:href="#x" transform="translate(210,100)"/>
<use xlink:href="#x" transform="translate(200,120)"/>
<use xlink:href="#x" transform="translate(210,140)"/>
<use xlink:href="#x" transform="translate(200,160)"/>
<use xlink:href="#x" transform="translate(210,180)"/>
<use xlink:href="#x" transform="translate(220,200)"/>
<use xlink:href="#x" transform="translate(210,220)"/>
<use xlink:href="#x" transform="translate(220,240)"/>
<use xlink:href="#x" transform="translate(210,260)"/>
<use xlink:href="#x" transform="translate(220,120)"/>
<use xlink:href="#x" transform="translate(230,140)"/>
<use xlink:href="#x" transform="translate(220,160)"/>
<use xlink:href="#x" transform="translate(230,180)"/>
<use xlink:href="#x" transform="translate(240,200)"/>
<use xlink:href="#x" transform="translate(230,220)"/>
<use xlink:href="#x" transform="translate(240,160)"/>
<use xlink:href="#x" transform="translate(250,180)"/>
<use xlink:href="#g5421" transform="translate(-70,140)"/>
<use xlink:href="#g5421" transform="translate(-80,160)"/>
<use xlink:href="#g5421" transform="translate(-70,180)"/>
<use xlink:href="#g5421" transform="translate(-60,200)"/>
<use xlink:href="#g5421" transform="translate(-50,100)"/>
<use xlink:href="#g5421" transform="translate(-60,120)"/>
<use xlink:href="#g5421" transform="translate(-50,140)"/>
<use xlink:href="#g5421" transform="translate(-60,160)"/>
<use xlink:href="#g5421" transform="translate(-50,180)"/>
<use xlink:href="#g5421" transform="translate(-40,200)"/>
<use xlink:href="#g5421" transform="translate(-50,220)"/>
<use xlink:href="#g5421" transform="translate(-40,240)"/>
<use xlink:href="#g5421" transform="translate(-30,60)"/>
<use xlink:href="#g5421" transform="translate(-40,80)"/>
<use xlink:href="#g5421" transform="translate(-30,100)"/>
<use xlink:href="#g5421" transform="translate(-40,120)"/>
<use xlink:href="#g5421" transform="translate(-30,140)"/>
<use xlink:href="#g5421" transform="translate(-40,160)"/>
<use xlink:href="#g5421" transform="translate(-30,180)"/>
<use xlink:href="#g5421" transform="translate(-20,200)"/>
<use xlink:href="#g5421" transform="translate(-30,220)"/>
<use xlink:href="#g5421" transform="translate(-20,240)"/>
<use xlink:href="#g5421" transform="translate(-30,260)"/>
<use xlink:href="#g5421" transform="translate(-20,280)"/>
<use xlink:href="#g5421" transform="translate(-10,20)"/>
<use xlink:href="#g5421" transform="translate(-20,40)"/>
<use xlink:href="#g5421" transform="translate(-10,60)"/>
<use xlink:href="#g5421" transform="translate(-20,80)"/>
<use xlink:href="#g5421" transform="translate(-10,100)"/>
<use xlink:href="#g5421" transform="translate(-20,120)"/>
<use xlink:href="#g5421" transform="translate(-10,140)"/>
<use xlink:href="#g5421" transform="translate(-20,160)"/>
<use xlink:href="#g5421" transform="translate(-10,180)"/>
<use xlink:href="#g5421" transform="translate(0,200)"/>
<use xlink:href="#g5421" transform="translate(-10,220)"/>
<use xlink:href="#g5421" transform="translate(0,240)"/>
<use xlink:href="#g5421" transform="translate(-10,260)"/>
<use xlink:href="#g5421" transform="translate(0,280)"/>
<use xlink:href="#g5421" transform="translate(-10,300)"/>
<use xlink:href="#g5421" transform="translate(0,320)"/>
<use xlink:href="#g5421" transform="translate(10,20)"/>
<use xlink:href="#g5421" transform="translate(0,40)"/>
<use xlink:href="#g5421" transform="translate(10,60)"/>
<use xlink:href="#g5421" transform="translate(0,80)"/>
<use xlink:href="#g5421" transform="translate(10,100)"/>
<use xlink:href="#g5421" transform="translate(0,120)"/>
<use xlink:href="#g5421" transform="translate(10,140)"/>
<use xlink:href="#g5421" transform="translate(0,160)"/>
<use xlink:href="#g5421" transform="translate(10,180)"/>
<use xlink:href="#g5421" transform="translate(20,200)"/>
<use xlink:href="#g5421" transform="translate(10,220)"/>
<use xlink:href="#g5421" transform="translate(20,240)"/>
<use xlink:href="#g5421" transform="translate(10,260)"/>
<use xlink:href="#g5421" transform="translate(20,280)"/>
<use xlink:href="#g5421" transform="translate(10,300)"/>
<use xlink:href="#g5421" transform="translate(20,320)"/>
<use xlink:href="#g5421" transform="translate(10,340)"/>
<use xlink:href="#g5421" transform="translate(20,0)"/>
<use xlink:href="#g5421" transform="translate(30,20)"/>
<use xlink:href="#g5421" transform="translate(20,40)"/>
<use xlink:href="#g5421" transform="translate(30,60)"/>
<use xlink:href="#g5421" transform="translate(20,80)"/>
<use xlink:href="#g5421" transform="translate(30,100)"/>
<use xlink:href="#g5421" transform="translate(20,120)"/>
<use xlink:href="#g5421" transform="translate(30,140)"/>
<use xlink:href="#g5421" transform="translate(20,160)"/>
<use xlink:href="#g5421" transform="translate(30,180)"/>
<use xlink:href="#g5421" transform="translate(40,200)"/>
<use xlink:href="#g5421" transform="translate(30,220)"/>
<use xlink:href="#g5421" transform="translate(40,240)"/>
<use xlink:href="#g5421" transform="translate(30,260)"/>
<use xlink:href="#g5421" transform="translate(40,280)"/>
<use xlink:href="#g5421" transform="translate(30,300)"/>
<use xlink:href="#g5421" transform="translate(40,320)"/>
<use xlink:href="#g5421" transform="translate(30,340)"/>
<use xlink:href="#g5421" transform="translate(40,0)"/>
<use xlink:href="#g5421" transform="translate(50,20)"/>
<use xlink:href="#g5421" transform="translate(40,40)"/>
<use xlink:href="#g5421" transform="translate(50,60)"/>
<use xlink:href="#g5421" transform="translate(40,80)"/>
<use xlink:href="#g5421" transform="translate(50,100)"/>
<use xlink:href="#g5421" transform="translate(40,120)"/>
<use xlink:href="#g5421" transform="translate(50,140)"/>
<use xlink:href="#g5421" transform="translate(40,160)"/>
<use xlink:href="#g5421" transform="translate(50,180)"/>
<use xlink:href="#g5421" transform="translate(60,200)"/>
<use xlink:href="#g5421" transform="translate(50,220)"/>
<use xlink:href="#g5421" transform="translate(60,240)"/>
<use xlink:href="#g5421" transform="translate(50,260)"/>
<use xlink:href="#g5421" transform="translate(60,280)"/>
<use xlink:href="#g5421" transform="translate(50,300)"/>
<use xlink:href="#g5421" transform="translate(60,320)"/>
<use xlink:href="#g5421" transform="translate(50,340)"/>
<use xlink:href="#g5421" transform="translate(60,0)"/>
<use xlink:href="#g5421" transform="translate(70,20)"/>
<use xlink:href="#g5421" transform="translate(60,40)"/>
<use xlink:href="#g5421" transform="translate(70,60)"/>
<use xlink:href="#g5421" transform="translate(60,80)"/>
<use xlink:href="#g5421" transform="translate(70,100)"/>
<use xlink:href="#g5421" transform="translate(60,120)"/>
<use xlink:href="#g5421" transform="translate(70,140)"/>
<use xlink:href="#g5421" transform="translate(60,160)"/>
<use xlink:href="#g5421" transform="translate(70,180)"/>
<use xlink:href="#g5421" transform="translate(80,200)"/>
<use xlink:href="#g5421" transform="translate(70,220)"/>
<use xlink:href="#g5421" transform="translate(80,240)"/>
<use xlink:href="#g5421" transform="translate(70,260)"/>
<use xlink:href="#g5421" transform="translate(80,280)"/>
<use xlink:href="#g5421" transform="translate(70,300)"/>
<use xlink:href="#g5421" transform="translate(80,320)"/>
<use xlink:href="#g5421" transform="translate(70,340)"/>
<use xlink:href="#g5421" transform="translate(80,0)"/>
<use xlink:href="#g5421" transform="translate(90,20)"/>
<use xlink:href="#g5421" transform="translate(80,40)"/>
<use xlink:href="#g5421" transform="translate(90,60)"/>
<use xlink:href="#g5421" transform="translate(80,80)"/>
<use xlink:href="#g5421" transform="translate(90,100)"/>
<use xlink:href="#g5421" transform="translate(80,120)"/>
<use xlink:href="#g5421" transform="translate(90,140)"/>
<use xlink:href="#g5421" transform="translate(80,160)"/>
<use xlink:href="#g5421" transform="translate(90,180)"/>
<use xlink:href="#g5421" transform="translate(100,200)"/>
<use xlink:href="#g5421" transform="translate(90,220)"/>
<use xlink:href="#g5421" transform="translate(100,240)"/>
<use xlink:href="#g5421" transform="translate(90,260)"/>
<use xlink:href="#g5421" transform="translate(100,280)"/>
<use xlink:href="#g5421" transform="translate(90,300)"/>
<use xlink:href="#g5421" transform="translate(100,320)"/>
<use xlink:href="#g5421" transform="translate(90,340)"/>
<use xlink:href="#g5421" transform="translate(100,0)"/>
<use xlink:href="#g5421" transform="translate(110,20)"/>
<use xlink:href="#g5421" transform="translate(100,40)"/>
<use xlink:href="#g5421" transform="translate(110,60)"/>
<use xlink:href="#g5421" transform="translate(100,80)"/>
<use xlink:href="#g5421" transform="translate(110,100)"/>
<use xlink:href="#g5421" transform="translate(100,120)"/>
<use xlink:href="#g5421" transform="translate(110,140)"/>
<use xlink:href="#g5421" transform="translate(100,160)"/>
<use xlink:href="#g5421" transform="translate(110,180)"/>
<use xlink:href="#g5421" transform="translate(120,200)"/>
<use xlink:href="#g5421" transform="translate(110,220)"/>
<use xlink:href="#g5421" transform="translate(120,240)"/>
<use xlink:href="#g5421" transform="translate(110,260)"/>
<use xlink:href="#g5421" transform="translate(120,280)"/>
<use xlink:href="#g5421" transform="translate(110,300)"/>
<use xlink:href="#g5421" transform="translate(120,320)"/>
<use xlink:href="#g5421" transform="translate(110,340)"/>
<use xlink:href="#g5421" transform="translate(120,0)"/>
<use xlink:href="#g5421" transform="translate(130,20)"/>
<use xlink:href="#g5421" transform="translate(120,40)"/>
<use xlink:href="#g5421" transform="translate(130,60)"/>
<use xlink:href="#g5421" transform="translate(120,80)"/>
<use xlink:href="#g5421" transform="translate(130,100)"/>
<use xlink:href="#g5421" transform="translate(120,120)"/>
<use xlink:href="#g5421" transform="translate(130,140)"/>
<use xlink:href="#g5421" transform="translate(120,160)"/>
<use xlink:href="#g5421" transform="translate(130,180)"/>
<use xlink:href="#g5421" transform="translate(140,200)"/>
<use xlink:href="#g5421" transform="translate(130,220)"/>
<use xlink:href="#g5421" transform="translate(140,240)"/>
<use xlink:href="#g5421" transform="translate(130,260)"/>
<use xlink:href="#g5421" transform="translate(140,280)"/>
<use xlink:href="#g5421" transform="translate(130,300)"/>
<use xlink:href="#g5421" transform="translate(140,320)"/>
<use xlink:href="#g5421" transform="translate(130,340)"/>
<use xlink:href="#g5421" transform="translate(140,0)"/>
<use xlink:href="#g5421" transform="translate(150,20)"/>
<use xlink:href="#g5421" transform="translate(140,40)"/>
<use xlink:href="#g5421" transform="translate(150,60)"/>
<use xlink:href="#g5421" transform="translate(140,80)"/>
<use xlink:href="#g5421" transform="translate(150,100)"/>
<use xlink:href="#g5421" transform="translate(140,120)"/>
<use xlink:href="#g5421" transform="translate(150,140)"/>
<use xlink:href="#g5421" transform="translate(140,160)"/>
<use xlink:href="#g5421" transform="translate(150,180)"/>
<use xlink:href="#g5421" transform="translate(160,200)"/>
<use xlink:href="#g5421" transform="translate(150,220)"/>
<use xlink:href="#g5421" transform="translate(160,240)"/>
<use xlink:href="#g5421" transform="translate(150,260)"/>
<use xlink:href="#g5421" transform="translate(160,280)"/>
<use xlink:href="#g5421" transform="translate(150,300)"/>
<use xlink:href="#g5421" transform="translate(160,320)"/>
<use xlink:href="#g5421" transform="translate(150,340)"/>
<use xlink:href="#g5421" transform="translate(160,0)"/>
<use xlink:href="#g5421" transform="translate(170,20)"/>
<use xlink:href="#g5421" transform="translate(160,40)"/>
<use xlink:href="#g5421" transform="translate(170,60)"/>
<use xlink:href="#g5421" transform="translate(160,80)"/>
<use xlink:href="#g5421" transform="translate(170,100)"/>
<use xlink:href="#g5421" transform="translate(160,120)"/>
<use xlink:href="#g5421" transform="translate(170,140)"/>
<use xlink:href="#g5421" transform="translate(160,160)"/>
<use xlink:href="#g5421" transform="translate(170,180)"/>
<use xlink:href="#g5421" transform="translate(180,200)"/>
<use xlink:href="#g5421" transform="translate(170,220)"/>
<use xlink:href="#g5421" transform="translate(180,240)"/>
<use xlink:href="#g5421" transform="translate(170,260)"/>
<use xlink:href="#g5421" transform="translate(180,280)"/>
<use xlink:href="#g5421" transform="translate(170,300)"/>
<use xlink:href="#g5421" transform="translate(180,320)"/>
<use xlink:href="#g5421" transform="translate(170,340)"/>
<use xlink:href="#g5421" transform="translate(180,0)"/>
<use xlink:href="#g5421" transform="translate(190,20)"/>
<use xlink:href="#g5421" transform="translate(180,40)"/>
<use xlink:href="#g5421" transform="translate(190,60)"/>
<use xlink:href="#g5421" transform="translate(180,80)"/>
<use xlink:href="#g5421" transform="translate(190,100)"/>
<use xlink:href="#g5421" transform="translate(180,120)"/>
<use xlink:href="#g5421" transform="translate(190,140)"/>
<use xlink:href="#g5421" transform="translate(180,160)"/>
<use xlink:href="#g5421" transform="translate(190,180)"/>
<use xlink:href="#g5421" transform="translate(200,200)"/>
<use xlink:href="#g5421" transform="translate(190,220)"/>
<use xlink:href="#g5421" transform="translate(200,240)"/>
<use xlink:href="#g5421" transform="translate(190,260)"/>
<use xlink:href="#g5421" transform="translate(200,280)"/>
<use xlink:href="#g5421" transform="translate(190,300)"/>
<use xlink:href="#g5421" transform="translate(200,40)"/>
<use xlink:href="#g5421" transform="translate(210,60)"/>
<use xlink:href="#g5421" transform="translate(200,80)"/>
<use xlink:href="#g5421" transform="translate(210,100)"/>
<use xlink:href="#g5421" transform="translate(200,120)"/>
<use xlink:href="#g5421" transform="translate(210,140)"/>
<use xlink:href="#g5421" transform="translate(200,160)"/>
<use xlink:href="#g5421" transform="translate(210,180)"/>
<use xlink:href="#g5421" transform="translate(220,200)"/>
<use xlink:href="#g5421" transform="translate(210,220)"/>
<use xlink:href="#g5421" transform="translate(220,240)"/>
<use xlink:href="#g5421" transform="translate(210,260)"/>
<use xlink:href="#g5421" transform="translate(220,80)"/>
<use xlink:href="#g5421" transform="translate(230,100)"/>
<use xlink:href="#g5421" transform="translate(220,120)"/>
<use xlink:href="#g5421" transform="translate(230,140)"/>
<use xlink:href="#g5421" transform="translate(220,160)"/>
<use xlink:href="#g5421" transform="translate(230,180)"/>
<use xlink:href="#g5421" transform="translate(240,200)"/>
<use xlink:href="#g5421" transform="translate(230,220)"/>
<use xlink:href="#g5421" transform="translate(240,120)"/>
<use xlink:href="#g5421" transform="translate(250,140)"/>
<use xlink:href="#g5421" transform="translate(240,160)"/>
<use xlink:href="#g5421" transform="translate(250,180)"/>
<use xlink:href="#g5421" transform="translate(260,160)"/>
<path id="path3184-9-0" d="m182.65,73.29a2.6517,3.0458,0,0,1,-5.3034,0,2.6517,3.0458,0,1,1,5.3034,0z" fill="#82777e" fill-rule="evenodd"/>
<use xlink:href="#path3184-9-0" transform="translate(-80,53.900156)"/>
<use xlink:href="#path3184-9-0" transform="translate(80,53.900194)"/>
<use xlink:href="#path3184-9-0" transform="translate(-80,159.85521)"/>
<use xlink:href="#path3184-9-0" transform="translate(80,159.85519)"/>
<use xlink:href="#path3184-9-0" transform="translate(0,213.67543)"/>
</svg>
