<?xml version="1.0" encoding="UTF-8" standalone="no"?>
<!-- Created with Inkscape (http://www.inkscape.org/) -->
<svg xmlns:rdf="http://www.w3.org/1999/02/22-rdf-syntax-ns#" xmlns="http://www.w3.org/2000/svg" height="320" width="320" version="1.1" xmlns:cc="http://creativecommons.org/ns#" xmlns:xlink="http://www.w3.org/1999/xlink" xmlns:dc="http://purl.org/dc/elements/1.1/">
<metadata>
<rdf:RDF>
<cc:Work rdf:about="">
<dc:format>image/svg+xml</dc:format>
<dc:type rdf:resource="http://purl.org/dc/dcmitype/StillImage"/>
<dc:title/>
</cc:Work>
</rdf:RDF>
</metadata>
<path d="M0,160,80,0,240,0,320,160,240,320,80,320z" fill="#494347"/>
<g id="g5421" transform="translate(-85,-140.00016)" fill-opacity="0.19607843">
<path d="m165,140,0,2,8.27,16.845-16.538,0l-1.73,1.16h20z" fill="#FFF"/>
<path d="m155,160,1.7321-1.1547,8.2679-16.845,0-1.9999z" fill="#000"/>
</g>
<g id="g4065" transform="translate(-53.73,-140.15484)">
<g transform="matrix(-1,0,0,-0.99999996,308.73,300.15466)">
<path d="m165,140,0,2,8.27,16.845-16.538,0l-1.73,1.16h20z" fill="#000" fill-opacity="0.19607843"/>
</g>
<path d="m153.73,140.15-1.7321,1.1547-8.2679,16.845,0,1.9999z" fill="#FFF" fill-opacity="0.19607843"/>
</g>
<use xlink:href="#g4065" transform="translate(-80,160.00004)" height="360" width="360" y="0" x="0"/>
<use xlink:href="#g4065" transform="translate(-70,180.00004)" height="360" width="360" y="0" x="0"/>
<use xlink:href="#g4065" transform="translate(-60,120.00003)" height="360" width="360" y="0" x="0"/>
<use xlink:href="#g4065" transform="translate(-70,140.00003)" height="360" width="360" y="0" x="0"/>
<use xlink:href="#g4065" transform="translate(-60,160.00004)" height="360" width="360" y="0" x="0"/>
<use xlink:href="#g4065" transform="translate(-50,180.00004)" height="360" width="360" y="0" x="0"/>
<use xlink:href="#g4065" transform="translate(-60,200.00004)" height="360" width="360" y="0" x="0"/>
<use xlink:href="#g4065" transform="translate(-50,220.00005)" height="360" width="360" y="0" x="0"/>
<use xlink:href="#g4065" transform="translate(-40,80.00002)" height="360" width="360" y="0" x="0"/>
<use xlink:href="#g4065" transform="translate(-50,100.00002)" height="360" width="360" y="0" x="0"/>
<use xlink:href="#g4065" transform="translate(-40,120.00003)" height="360" width="360" y="0" x="0"/>
<use xlink:href="#g4065" transform="translate(-50,140.00003)" height="360" width="360" y="0" x="0"/>
<use xlink:href="#g4065" transform="translate(-40,160.00004)" height="360" width="360" y="0" x="0"/>
<use xlink:href="#g4065" transform="translate(-30,180.00004)" height="360" width="360" y="0" x="0"/>
<use xlink:href="#g4065" transform="translate(-40,200.00004)" height="360" width="360" y="0" x="0"/>
<use xlink:href="#g4065" transform="translate(-30,220.00005)" height="360" width="360" y="0" x="0"/>
<use xlink:href="#g4065" transform="translate(-40,240.00005)" height="360" width="360" y="0" x="0"/>
<use xlink:href="#g4065" transform="translate(-30,260.00006)" height="360" width="360" y="0" x="0"/>
<use xlink:href="#g4065" transform="translate(-20,40.000012)" height="360" width="360" y="0" x="0"/>
<use xlink:href="#g4065" transform="translate(-30,60.00002)" height="360" width="360" y="0" x="0"/>
<use xlink:href="#g4065" transform="translate(-20,80.00002)" height="360" width="360" y="0" x="0"/>
<use xlink:href="#g4065" transform="translate(-30,100.00002)" height="360" width="360" y="0" x="0"/>
<use xlink:href="#g4065" transform="translate(-20,120.00003)" height="360" width="360" y="0" x="0"/>
<use xlink:href="#g4065" transform="translate(-30,140.00003)" height="360" width="360" y="0" x="0"/>
<use xlink:href="#g4065" transform="translate(-20,160.00004)" height="360" width="360" y="0" x="0"/>
<use xlink:href="#g4065" transform="translate(-10,180.00004)" height="360" width="360" y="0" x="0"/>
<use xlink:href="#g4065" transform="translate(-20,200.00004)" height="360" width="360" y="0" x="0"/>
<use xlink:href="#g4065" transform="translate(-10,220.00005)" height="360" width="360" y="0" x="0"/>
<use xlink:href="#g4065" transform="translate(-20,240.00005)" height="360" width="360" y="0" x="0"/>
<use xlink:href="#g4065" transform="translate(-10,260.00006)" height="360" width="360" y="0" x="0"/>
<use xlink:href="#g4065" transform="translate(-20,280.00006)" height="360" width="360" y="0" x="0"/>
<use xlink:href="#g4065" transform="translate(-10,300.00006)" height="360" width="360" y="0" x="0"/>
<use xlink:href="#g4065" transform="translate(-10,20.000008)" height="360" width="360" y="0" x="0"/>
<use xlink:href="#g4065" transform="translate(0,40.000012)" height="360" width="360" y="0" x="0"/>
<use xlink:href="#g4065" transform="translate(-10,60.00002)" height="360" width="360" y="0" x="0"/>
<use xlink:href="#g4065" transform="translate(0,80.00002)" height="360" width="360" y="0" x="0"/>
<use xlink:href="#g4065" transform="translate(-10,100.00002)" height="360" width="360" y="0" x="0"/>
<use xlink:href="#g4065" transform="translate(0,120.00003)" height="360" width="360" y="0" x="0"/>
<use xlink:href="#g4065" transform="translate(-10,140.00003)" height="360" width="360" y="0" x="0"/>
<use xlink:href="#g4065" transform="translate(0,160.00004)" height="360" width="360" y="0" x="0"/>
<use xlink:href="#g4065" transform="translate(10,180.00004)" height="360" width="360" y="0" x="0"/>
<use xlink:href="#g4065" transform="translate(0,200.00004)" height="360" width="360" y="0" x="0"/>
<use xlink:href="#g4065" transform="translate(10,220.00005)" height="360" width="360" y="0" x="0"/>
<use xlink:href="#g4065" transform="translate(0,240.00005)" height="360" width="360" y="0" x="0"/>
<use xlink:href="#g4065" transform="translate(10,260.00006)" height="360" width="360" y="0" x="0"/>
<use xlink:href="#g4065" transform="translate(0,280.00006)" height="360" width="360" y="0" x="0"/>
<use xlink:href="#g4065" transform="translate(10,300.00006)" height="360" width="360" y="0" x="0"/>
<use xlink:href="#g4065" transform="translate(20,4e-6)" height="360" width="360" y="0" x="0"/>
<use xlink:href="#g4065" transform="translate(10,20.000008)" height="360" width="360" y="0" x="0"/>
<use xlink:href="#g4065" transform="translate(20,40.000012)" height="360" width="360" y="0" x="0"/>
<use xlink:href="#g4065" transform="translate(10,60.00002)" height="360" width="360" y="0" x="0"/>
<use xlink:href="#g4065" transform="translate(20,80.00002)" height="360" width="360" y="0" x="0"/>
<use xlink:href="#g4065" transform="translate(10,100.00002)" height="360" width="360" y="0" x="0"/>
<use xlink:href="#g4065" transform="translate(20,120.00003)" height="360" width="360" y="0" x="0"/>
<use xlink:href="#g4065" transform="translate(10,140.00003)" height="360" width="360" y="0" x="0"/>
<use xlink:href="#g4065" transform="translate(20,160.00004)" height="360" width="360" y="0" x="0"/>
<use xlink:href="#g4065" transform="translate(30,180.00004)" height="360" width="360" y="0" x="0"/>
<use xlink:href="#g4065" transform="translate(20,200.00004)" height="360" width="360" y="0" x="0"/>
<use xlink:href="#g4065" transform="translate(30,220.00005)" height="360" width="360" y="0" x="0"/>
<use xlink:href="#g4065" transform="translate(20,240.00005)" height="360" width="360" y="0" x="0"/>
<use xlink:href="#g4065" transform="translate(30,260.00006)" height="360" width="360" y="0" x="0"/>
<use xlink:href="#g4065" transform="translate(20,280.00006)" height="360" width="360" y="0" x="0"/>
<use xlink:href="#g4065" transform="translate(30,300.00006)" height="360" width="360" y="0" x="0"/>
<use xlink:href="#g4065" transform="translate(40,4e-6)" height="360" width="360" y="0" x="0"/>
<use xlink:href="#g4065" transform="translate(30,20.000008)" height="360" width="360" y="0" x="0"/>
<use xlink:href="#g4065" transform="translate(40,40.000012)" height="360" width="360" y="0" x="0"/>
<use xlink:href="#g4065" transform="translate(30,60.00002)" height="360" width="360" y="0" x="0"/>
<use xlink:href="#g4065" transform="translate(40,80.00002)" height="360" width="360" y="0" x="0"/>
<use xlink:href="#g4065" transform="translate(30,100.00002)" height="360" width="360" y="0" x="0"/>
<use xlink:href="#g4065" transform="translate(40,120.00003)" height="360" width="360" y="0" x="0"/>
<use xlink:href="#g4065" transform="translate(30,140.00003)" height="360" width="360" y="0" x="0"/>
<use xlink:href="#g4065" transform="translate(40,160.00004)" height="360" width="360" y="0" x="0"/>
<use xlink:href="#g4065" transform="translate(50,180.00004)" height="360" width="360" y="0" x="0"/>
<use xlink:href="#g4065" transform="translate(40,200.00004)" height="360" width="360" y="0" x="0"/>
<use xlink:href="#g4065" transform="translate(50,220.00005)" height="360" width="360" y="0" x="0"/>
<use xlink:href="#g4065" transform="translate(40,240.00005)" height="360" width="360" y="0" x="0"/>
<use xlink:href="#g4065" transform="translate(50,260.00006)" height="360" width="360" y="0" x="0"/>
<use xlink:href="#g4065" transform="translate(40,280.00006)" height="360" width="360" y="0" x="0"/>
<use xlink:href="#g4065" transform="translate(50,300.00006)" height="360" width="360" y="0" x="0"/>
<use xlink:href="#g4065" transform="translate(60,4e-6)" height="360" width="360" y="0" x="0"/>
<use xlink:href="#g4065" transform="translate(50,20.000008)" height="360" width="360" y="0" x="0"/>
<use xlink:href="#g4065" transform="translate(60,40.000012)" height="360" width="360" y="0" x="0"/>
<use xlink:href="#g4065" transform="translate(50,60.00002)" height="360" width="360" y="0" x="0"/>
<use xlink:href="#g4065" transform="translate(60,80.00002)" height="360" width="360" y="0" x="0"/>
<use xlink:href="#g4065" transform="translate(50,100.00002)" height="360" width="360" y="0" x="0"/>
<use xlink:href="#g4065" transform="translate(60,120.00003)" height="360" width="360" y="0" x="0"/>
<use xlink:href="#g4065" transform="translate(50,140.00003)" height="360" width="360" y="0" x="0"/>
<use xlink:href="#g4065" transform="translate(60,160.00004)" height="360" width="360" y="0" x="0"/>
<use xlink:href="#g4065" transform="translate(70,180.00004)" height="360" width="360" y="0" x="0"/>
<use xlink:href="#g4065" transform="translate(60,200.00004)" height="360" width="360" y="0" x="0"/>
<use xlink:href="#g4065" transform="translate(70,220.00005)" height="360" width="360" y="0" x="0"/>
<use xlink:href="#g4065" transform="translate(60,240.00005)" height="360" width="360" y="0" x="0"/>
<use xlink:href="#g4065" transform="translate(70,260.00006)" height="360" width="360" y="0" x="0"/>
<use xlink:href="#g4065" transform="translate(60,280.00006)" height="360" width="360" y="0" x="0"/>
<use xlink:href="#g4065" transform="translate(70,300.00006)" height="360" width="360" y="0" x="0"/>
<use xlink:href="#g4065" transform="translate(80,4e-6)" height="360" width="360" y="0" x="0"/>
<use xlink:href="#g4065" transform="translate(70,20.000008)" height="360" width="360" y="0" x="0"/>
<use xlink:href="#g4065" transform="translate(80,40.000012)" height="360" width="360" y="0" x="0"/>
<use xlink:href="#g4065" transform="translate(70,60.00002)" height="360" width="360" y="0" x="0"/>
<use xlink:href="#g4065" transform="translate(80,80.00002)" height="360" width="360" y="0" x="0"/>
<use xlink:href="#g4065" transform="translate(70,100.00002)" height="360" width="360" y="0" x="0"/>
<use xlink:href="#g4065" transform="translate(80,120.00003)" height="360" width="360" y="0" x="0"/>
<use xlink:href="#g4065" transform="translate(70,140.00003)" height="360" width="360" y="0" x="0"/>
<use xlink:href="#g4065" transform="translate(80,160.00004)" height="360" width="360" y="0" x="0"/>
<use xlink:href="#g4065" transform="translate(90,180.00004)" height="360" width="360" y="0" x="0"/>
<use xlink:href="#g4065" transform="translate(80,200.00004)" height="360" width="360" y="0" x="0"/>
<use xlink:href="#g4065" transform="translate(90,220.00005)" height="360" width="360" y="0" x="0"/>
<use xlink:href="#g4065" transform="translate(80,240.00005)" height="360" width="360" y="0" x="0"/>
<use xlink:href="#g4065" transform="translate(90,260.00006)" height="360" width="360" y="0" x="0"/>
<use xlink:href="#g4065" transform="translate(80,280.00006)" height="360" width="360" y="0" x="0"/>
<use xlink:href="#g4065" transform="translate(90,300.00006)" height="360" width="360" y="0" x="0"/>
<use xlink:href="#g4065" transform="translate(100,4e-6)" height="360" width="360" y="0" x="0"/>
<use xlink:href="#g4065" transform="translate(90,20.000008)" height="360" width="360" y="0" x="0"/>
<use xlink:href="#g4065" transform="translate(100,40.000012)" height="360" width="360" y="0" x="0"/>
<use xlink:href="#g4065" transform="translate(90,60.00002)" height="360" width="360" y="0" x="0"/>
<use xlink:href="#g4065" transform="translate(100,80.00002)" height="360" width="360" y="0" x="0"/>
<use xlink:href="#g4065" transform="translate(90,100.00002)" height="360" width="360" y="0" x="0"/>
<use xlink:href="#g4065" transform="translate(100,120.00003)" height="360" width="360" y="0" x="0"/>
<use xlink:href="#g4065" transform="translate(90,140.00003)" height="360" width="360" y="0" x="0"/>
<use xlink:href="#g4065" transform="translate(100,160.00004)" height="360" width="360" y="0" x="0"/>
<use xlink:href="#g4065" transform="translate(110,180.00004)" height="360" width="360" y="0" x="0"/>
<use xlink:href="#g4065" transform="translate(100,200.00004)" height="360" width="360" y="0" x="0"/>
<use xlink:href="#g4065" transform="translate(110,220.00005)" height="360" width="360" y="0" x="0"/>
<use xlink:href="#g4065" transform="translate(100,240.00005)" height="360" width="360" y="0" x="0"/>
<use xlink:href="#g4065" transform="translate(110,260.00006)" height="360" width="360" y="0" x="0"/>
<use xlink:href="#g4065" transform="translate(100,280.00006)" height="360" width="360" y="0" x="0"/>
<use xlink:href="#g4065" transform="translate(110,300.00006)" height="360" width="360" y="0" x="0"/>
<use xlink:href="#g4065" transform="translate(120,4e-6)" height="360" width="360" y="0" x="0"/>
<use xlink:href="#g4065" transform="translate(110,20.000008)" height="360" width="360" y="0" x="0"/>
<use xlink:href="#g4065" transform="translate(120,40.000012)" height="360" width="360" y="0" x="0"/>
<use xlink:href="#g4065" transform="translate(110,60.00002)" height="360" width="360" y="0" x="0"/>
<use xlink:href="#g4065" transform="translate(120,80.00002)" height="360" width="360" y="0" x="0"/>
<use xlink:href="#g4065" transform="translate(110,100.00002)" height="360" width="360" y="0" x="0"/>
<use xlink:href="#g4065" transform="translate(120,120.00003)" height="360" width="360" y="0" x="0"/>
<use xlink:href="#g4065" transform="translate(110,140.00003)" height="360" width="360" y="0" x="0"/>
<use xlink:href="#g4065" transform="translate(120,160.00004)" height="360" width="360" y="0" x="0"/>
<use xlink:href="#g4065" transform="translate(130,180.00004)" height="360" width="360" y="0" x="0"/>
<use xlink:href="#g4065" transform="translate(120,200.00004)" height="360" width="360" y="0" x="0"/>
<use xlink:href="#g4065" transform="translate(130,220.00005)" height="360" width="360" y="0" x="0"/>
<use xlink:href="#g4065" transform="translate(120,240.00005)" height="360" width="360" y="0" x="0"/>
<use xlink:href="#g4065" transform="translate(130,260.00006)" height="360" width="360" y="0" x="0"/>
<use xlink:href="#g4065" transform="translate(120,280.00006)" height="360" width="360" y="0" x="0"/>
<use xlink:href="#g4065" transform="translate(130,300.00006)" height="360" width="360" y="0" x="0"/>
<use xlink:href="#g4065" transform="translate(140,4e-6)" height="360" width="360" y="0" x="0"/>
<use xlink:href="#g4065" transform="translate(130,20.000008)" height="360" width="360" y="0" x="0"/>
<use xlink:href="#g4065" transform="translate(140,40.000012)" height="360" width="360" y="0" x="0"/>
<use xlink:href="#g4065" transform="translate(130,60.00002)" height="360" width="360" y="0" x="0"/>
<use xlink:href="#g4065" transform="translate(140,80.00002)" height="360" width="360" y="0" x="0"/>
<use xlink:href="#g4065" transform="translate(130,100.00002)" height="360" width="360" y="0" x="0"/>
<use xlink:href="#g4065" transform="translate(140,120.00003)" height="360" width="360" y="0" x="0"/>
<use xlink:href="#g4065" transform="translate(130,140.00003)" height="360" width="360" y="0" x="0"/>
<use xlink:href="#g4065" transform="translate(140,160.00004)" height="360" width="360" y="0" x="0"/>
<use xlink:href="#g4065" transform="translate(150,180.00004)" height="360" width="360" y="0" x="0"/>
<use xlink:href="#g4065" transform="translate(140,200.00004)" height="360" width="360" y="0" x="0"/>
<use xlink:href="#g4065" transform="translate(150,220.00005)" height="360" width="360" y="0" x="0"/>
<use xlink:href="#g4065" transform="translate(140,240.00005)" height="360" width="360" y="0" x="0"/>
<use xlink:href="#g4065" transform="translate(150,260.00006)" height="360" width="360" y="0" x="0"/>
<use xlink:href="#g4065" transform="translate(140,280.00006)" height="360" width="360" y="0" x="0"/>
<use xlink:href="#g4065" transform="translate(150,300.00006)" height="360" width="360" y="0" x="0"/>
<use xlink:href="#g4065" transform="translate(150,20.000008)" height="360" width="360" y="0" x="0"/>
<use xlink:href="#g4065" transform="translate(160,40.000012)" height="360" width="360" y="0" x="0"/>
<use xlink:href="#g4065" transform="translate(150,60.00002)" height="360" width="360" y="0" x="0"/>
<use xlink:href="#g4065" transform="translate(160,80.00002)" height="360" width="360" y="0" x="0"/>
<use xlink:href="#g4065" transform="translate(150,100.00002)" height="360" width="360" y="0" x="0"/>
<use xlink:href="#g4065" transform="translate(160,120.00003)" height="360" width="360" y="0" x="0"/>
<use xlink:href="#g4065" transform="translate(150,140.00003)" height="360" width="360" y="0" x="0"/>
<use xlink:href="#g4065" transform="translate(160,160.00004)" height="360" width="360" y="0" x="0"/>
<use xlink:href="#g4065" transform="translate(170,180.00004)" height="360" width="360" y="0" x="0"/>
<use xlink:href="#g4065" transform="translate(160,200.00004)" height="360" width="360" y="0" x="0"/>
<use xlink:href="#g4065" transform="translate(170,220.00005)" height="360" width="360" y="0" x="0"/>
<use xlink:href="#g4065" transform="translate(160,240.00005)" height="360" width="360" y="0" x="0"/>
<use xlink:href="#g4065" transform="translate(170,260.00006)" height="360" width="360" y="0" x="0"/>
<use xlink:href="#g4065" transform="translate(160,280.00006)" height="360" width="360" y="0" x="0"/>
<use xlink:href="#g4065" transform="translate(170,60.00002)" height="360" width="360" y="0" x="0"/>
<use xlink:href="#g4065" transform="translate(180,80.00002)" height="360" width="360" y="0" x="0"/>
<use xlink:href="#g4065" transform="translate(170,100.00002)" height="360" width="360" y="0" x="0"/>
<use xlink:href="#g4065" transform="translate(180,120.00003)" height="360" width="360" y="0" x="0"/>
<use xlink:href="#g4065" transform="translate(170,140.00003)" height="360" width="360" y="0" x="0"/>
<use xlink:href="#g4065" transform="translate(180,160.00004)" height="360" width="360" y="0" x="0"/>
<use xlink:href="#g4065" transform="translate(190,180.00004)" height="360" width="360" y="0" x="0"/>
<use xlink:href="#g4065" transform="translate(180,200.00004)" height="360" width="360" y="0" x="0"/>
<use xlink:href="#g4065" transform="translate(190,220.00005)" height="360" width="360" y="0" x="0"/>
<use xlink:href="#g4065" transform="translate(180,240.00005)" height="360" width="360" y="0" x="0"/>
<use xlink:href="#g4065" transform="translate(190,100.00002)" height="360" width="360" y="0" x="0"/>
<use xlink:href="#g4065" transform="translate(200,120.00003)" height="360" width="360" y="0" x="0"/>
<use xlink:href="#g4065" transform="translate(190,140.00003)" height="360" width="360" y="0" x="0"/>
<use xlink:href="#g4065" transform="translate(200,160.00004)" height="360" width="360" y="0" x="0"/>
<use xlink:href="#g4065" transform="translate(210,180.00004)" height="360" width="360" y="0" x="0"/>
<use xlink:href="#g4065" transform="translate(200,200.00004)" height="360" width="360" y="0" x="0"/>
<use xlink:href="#g4065" transform="translate(210,140.00003)" height="360" width="360" y="0" x="0"/>
<use xlink:href="#g4065" transform="translate(220,160.00004)" height="360" width="360" y="0" x="0"/>
<use xlink:href="#g5421" transform="translate(-60,120.00007)" height="360" width="360" y="0" x="0"/>
<use xlink:href="#g5421" transform="translate(-70,140.00008)" height="360" width="360" y="0" x="0"/>
<use xlink:href="#g5421" transform="translate(-60,160.00009)" height="360" width="360" y="0" x="0"/>
<use xlink:href="#g5421" transform="translate(-50,180.0001)" height="360" width="360" y="0" x="0"/>
<use xlink:href="#g5421" transform="translate(-40,80.00005)" height="360" width="360" y="0" x="0"/>
<use xlink:href="#g5421" transform="translate(-50,100.00006)" height="360" width="360" y="0" x="0"/>
<use xlink:href="#g5421" transform="translate(-40,120.00007)" height="360" width="360" y="0" x="0"/>
<use xlink:href="#g5421" transform="translate(-50,140.00008)" height="360" width="360" y="0" x="0"/>
<use xlink:href="#g5421" transform="translate(-40,160.00009)" height="360" width="360" y="0" x="0"/>
<use xlink:href="#g5421" transform="translate(-30,180.0001)" height="360" width="360" y="0" x="0"/>
<use xlink:href="#g5421" transform="translate(-40,200.00011)" height="360" width="360" y="0" x="0"/>
<use xlink:href="#g5421" transform="translate(-30,220.00012)" height="360" width="360" y="0" x="0"/>
<use xlink:href="#g5421" transform="translate(-20,40.00003)" height="360" width="360" y="0" x="0"/>
<use xlink:href="#g5421" transform="translate(-30,60.00004)" height="360" width="360" y="0" x="0"/>
<use xlink:href="#g5421" transform="translate(-20,80.00005)" height="360" width="360" y="0" x="0"/>
<use xlink:href="#g5421" transform="translate(-30,100.00006)" height="360" width="360" y="0" x="0"/>
<use xlink:href="#g5421" transform="translate(-20,120.00007)" height="360" width="360" y="0" x="0"/>
<use xlink:href="#g5421" transform="translate(-30,140.00008)" height="360" width="360" y="0" x="0"/>
<use xlink:href="#g5421" transform="translate(-20,160.00009)" height="360" width="360" y="0" x="0"/>
<use xlink:href="#g5421" transform="translate(-10,180.0001)" height="360" width="360" y="0" x="0"/>
<use xlink:href="#g5421" transform="translate(-20,200.00011)" height="360" width="360" y="0" x="0"/>
<use xlink:href="#g5421" transform="translate(-10,220.00012)" height="360" width="360" y="0" x="0"/>
<use xlink:href="#g5421" transform="translate(-20,240.00013)" height="360" width="360" y="0" x="0"/>
<use xlink:href="#g5421" transform="translate(-10,260.00014)" height="360" width="360" y="0" x="0"/>
<use xlink:href="#g5421" transform="translate(-10,20.00002)" height="360" width="360" y="0" x="0"/>
<use xlink:href="#g5421" transform="translate(0,40.00003)" height="360" width="360" y="0" x="0"/>
<use xlink:href="#g5421" transform="translate(-10,60.00004)" height="360" width="360" y="0" x="0"/>
<use xlink:href="#g5421" transform="translate(0,80.00005)" height="360" width="360" y="0" x="0"/>
<use xlink:href="#g5421" transform="translate(-10,100.00006)" height="360" width="360" y="0" x="0"/>
<use xlink:href="#g5421" transform="translate(0,120.00007)" height="360" width="360" y="0" x="0"/>
<use xlink:href="#g5421" transform="translate(-10,140.00008)" height="360" width="360" y="0" x="0"/>
<use xlink:href="#g5421" transform="translate(0,160.00009)" height="360" width="360" y="0" x="0"/>
<use xlink:href="#g5421" transform="translate(10,180.0001)" height="360" width="360" y="0" x="0"/>
<use xlink:href="#g5421" transform="translate(0,200.00011)" height="360" width="360" y="0" x="0"/>
<use xlink:href="#g5421" transform="translate(10,220.00012)" height="360" width="360" y="0" x="0"/>
<use xlink:href="#g5421" transform="translate(0,240.00013)" height="360" width="360" y="0" x="0"/>
<use xlink:href="#g5421" transform="translate(10,260.00014)" height="360" width="360" y="0" x="0"/>
<use xlink:href="#g5421" transform="translate(0,280.00015)" height="360" width="360" y="0" x="0"/>
<use xlink:href="#g5421" transform="translate(10,300.00016)" height="360" width="360" y="0" x="0"/>
<use xlink:href="#g5421" transform="translate(20,1e-5)" height="360" width="360" y="0" x="0"/>
<use xlink:href="#g5421" transform="translate(10,20.00002)" height="360" width="360" y="0" x="0"/>
<use xlink:href="#g5421" transform="translate(20,40.00003)" height="360" width="360" y="0" x="0"/>
<use xlink:href="#g5421" transform="translate(10,60.00004)" height="360" width="360" y="0" x="0"/>
<use xlink:href="#g5421" transform="translate(20,80.00005)" height="360" width="360" y="0" x="0"/>
<use xlink:href="#g5421" transform="translate(10,100.00006)" height="360" width="360" y="0" x="0"/>
<use xlink:href="#g5421" transform="translate(20,120.00007)" height="360" width="360" y="0" x="0"/>
<use xlink:href="#g5421" transform="translate(10,140.00008)" height="360" width="360" y="0" x="0"/>
<use xlink:href="#g5421" transform="translate(20,160.00009)" height="360" width="360" y="0" x="0"/>
<use xlink:href="#g5421" transform="translate(30,180.0001)" height="360" width="360" y="0" x="0"/>
<use xlink:href="#g5421" transform="translate(20,200.00011)" height="360" width="360" y="0" x="0"/>
<use xlink:href="#g5421" transform="translate(30,220.00012)" height="360" width="360" y="0" x="0"/>
<use xlink:href="#g5421" transform="translate(20,240.00013)" height="360" width="360" y="0" x="0"/>
<use xlink:href="#g5421" transform="translate(30,260.00014)" height="360" width="360" y="0" x="0"/>
<use xlink:href="#g5421" transform="translate(20,280.00015)" height="360" width="360" y="0" x="0"/>
<use xlink:href="#g5421" transform="translate(30,300.00016)" height="360" width="360" y="0" x="0"/>
<use xlink:href="#g5421" transform="translate(40,1e-5)" height="360" width="360" y="0" x="0"/>
<use xlink:href="#g5421" transform="translate(30,20.00002)" height="360" width="360" y="0" x="0"/>
<use xlink:href="#g5421" transform="translate(40,40.00003)" height="360" width="360" y="0" x="0"/>
<use xlink:href="#g5421" transform="translate(30,60.00004)" height="360" width="360" y="0" x="0"/>
<use xlink:href="#g5421" transform="translate(40,80.00005)" height="360" width="360" y="0" x="0"/>
<use xlink:href="#g5421" transform="translate(30,100.00006)" height="360" width="360" y="0" x="0"/>
<use xlink:href="#g5421" transform="translate(40,120.00007)" height="360" width="360" y="0" x="0"/>
<use xlink:href="#g5421" transform="translate(30,140.00008)" height="360" width="360" y="0" x="0"/>
<use xlink:href="#g5421" transform="translate(40,160.00009)" height="360" width="360" y="0" x="0"/>
<use xlink:href="#g5421" transform="translate(50,180.0001)" height="360" width="360" y="0" x="0"/>
<use xlink:href="#g5421" transform="translate(40,200.00011)" height="360" width="360" y="0" x="0"/>
<use xlink:href="#g5421" transform="translate(50,220.00012)" height="360" width="360" y="0" x="0"/>
<use xlink:href="#g5421" transform="translate(40,240.00013)" height="360" width="360" y="0" x="0"/>
<use xlink:href="#g5421" transform="translate(50,260.00014)" height="360" width="360" y="0" x="0"/>
<use xlink:href="#g5421" transform="translate(40,280.00015)" height="360" width="360" y="0" x="0"/>
<use xlink:href="#g5421" transform="translate(50,300.00016)" height="360" width="360" y="0" x="0"/>
<use xlink:href="#g5421" transform="translate(60,1e-5)" height="360" width="360" y="0" x="0"/>
<use xlink:href="#g5421" transform="translate(50,20.00002)" height="360" width="360" y="0" x="0"/>
<use xlink:href="#g5421" transform="translate(60,40.00003)" height="360" width="360" y="0" x="0"/>
<use xlink:href="#g5421" transform="translate(50,60.00004)" height="360" width="360" y="0" x="0"/>
<use xlink:href="#g5421" transform="translate(60,80.00005)" height="360" width="360" y="0" x="0"/>
<use xlink:href="#g5421" transform="translate(50,100.00006)" height="360" width="360" y="0" x="0"/>
<use xlink:href="#g5421" transform="translate(60,120.00007)" height="360" width="360" y="0" x="0"/>
<use xlink:href="#g5421" transform="translate(50,140.00008)" height="360" width="360" y="0" x="0"/>
<use xlink:href="#g5421" transform="translate(60,160.00009)" height="360" width="360" y="0" x="0"/>
<use xlink:href="#g5421" transform="translate(70,180.0001)" height="360" width="360" y="0" x="0"/>
<use xlink:href="#g5421" transform="translate(60,200.00011)" height="360" width="360" y="0" x="0"/>
<use xlink:href="#g5421" transform="translate(70,220.00012)" height="360" width="360" y="0" x="0"/>
<use xlink:href="#g5421" transform="translate(60,240.00013)" height="360" width="360" y="0" x="0"/>
<use xlink:href="#g5421" transform="translate(70,260.00014)" height="360" width="360" y="0" x="0"/>
<use xlink:href="#g5421" transform="translate(60,280.00015)" height="360" width="360" y="0" x="0"/>
<use xlink:href="#g5421" transform="translate(70,300.00016)" height="360" width="360" y="0" x="0"/>
<use xlink:href="#g5421" transform="translate(80,1e-5)" height="360" width="360" y="0" x="0"/>
<use xlink:href="#g5421" transform="translate(70,20.00002)" height="360" width="360" y="0" x="0"/>
<use xlink:href="#g5421" transform="translate(80,40.00003)" height="360" width="360" y="0" x="0"/>
<use xlink:href="#g5421" transform="translate(70,60.00004)" height="360" width="360" y="0" x="0"/>
<use xlink:href="#g5421" transform="translate(80,80.00005)" height="360" width="360" y="0" x="0"/>
<use xlink:href="#g5421" transform="translate(70,100.00006)" height="360" width="360" y="0" x="0"/>
<use xlink:href="#g5421" transform="translate(80,120.00007)" height="360" width="360" y="0" x="0"/>
<use xlink:href="#g5421" transform="translate(70,140.00008)" height="360" width="360" y="0" x="0"/>
<use xlink:href="#g5421" transform="translate(80,160.00009)" height="360" width="360" y="0" x="0"/>
<use xlink:href="#g5421" transform="translate(90,180.0001)" height="360" width="360" y="0" x="0"/>
<use xlink:href="#g5421" transform="translate(80,200.00011)" height="360" width="360" y="0" x="0"/>
<use xlink:href="#g5421" transform="translate(90,220.00012)" height="360" width="360" y="0" x="0"/>
<use xlink:href="#g5421" transform="translate(80,240.00013)" height="360" width="360" y="0" x="0"/>
<use xlink:href="#g5421" transform="translate(90,260.00014)" height="360" width="360" y="0" x="0"/>
<use xlink:href="#g5421" transform="translate(80,280.00015)" height="360" width="360" y="0" x="0"/>
<use xlink:href="#g5421" transform="translate(90,300.00016)" height="360" width="360" y="0" x="0"/>
<use xlink:href="#g5421" transform="translate(100,1e-5)" height="360" width="360" y="0" x="0"/>
<use xlink:href="#g5421" transform="translate(90,20.00002)" height="360" width="360" y="0" x="0"/>
<use xlink:href="#g5421" transform="translate(100,40.00003)" height="360" width="360" y="0" x="0"/>
<use xlink:href="#g5421" transform="translate(90,60.00004)" height="360" width="360" y="0" x="0"/>
<use xlink:href="#g5421" transform="translate(100,80.00005)" height="360" width="360" y="0" x="0"/>
<use xlink:href="#g5421" transform="translate(90,100.00006)" height="360" width="360" y="0" x="0"/>
<use xlink:href="#g5421" transform="translate(100,120.00007)" height="360" width="360" y="0" x="0"/>
<use xlink:href="#g5421" transform="translate(90,140.00008)" height="360" width="360" y="0" x="0"/>
<use xlink:href="#g5421" transform="translate(100,160.00009)" height="360" width="360" y="0" x="0"/>
<use xlink:href="#g5421" transform="translate(110,180.0001)" height="360" width="360" y="0" x="0"/>
<use xlink:href="#g5421" transform="translate(100,200.00011)" height="360" width="360" y="0" x="0"/>
<use xlink:href="#g5421" transform="translate(110,220.00012)" height="360" width="360" y="0" x="0"/>
<use xlink:href="#g5421" transform="translate(100,240.00013)" height="360" width="360" y="0" x="0"/>
<use xlink:href="#g5421" transform="translate(110,260.00014)" height="360" width="360" y="0" x="0"/>
<use xlink:href="#g5421" transform="translate(100,280.00015)" height="360" width="360" y="0" x="0"/>
<use xlink:href="#g5421" transform="translate(110,300.00016)" height="360" width="360" y="0" x="0"/>
<use xlink:href="#g5421" transform="translate(120,1e-5)" height="360" width="360" y="0" x="0"/>
<use xlink:href="#g5421" transform="translate(110,20.00002)" height="360" width="360" y="0" x="0"/>
<use xlink:href="#g5421" transform="translate(120,40.00003)" height="360" width="360" y="0" x="0"/>
<use xlink:href="#g5421" transform="translate(110,60.00004)" height="360" width="360" y="0" x="0"/>
<use xlink:href="#g5421" transform="translate(120,80.00005)" height="360" width="360" y="0" x="0"/>
<use xlink:href="#g5421" transform="translate(110,100.00006)" height="360" width="360" y="0" x="0"/>
<use xlink:href="#g5421" transform="translate(120,120.00007)" height="360" width="360" y="0" x="0"/>
<use xlink:href="#g5421" transform="translate(110,140.00008)" height="360" width="360" y="0" x="0"/>
<use xlink:href="#g5421" transform="translate(120,160.00009)" height="360" width="360" y="0" x="0"/>
<use xlink:href="#g5421" transform="translate(130,180.0001)" height="360" width="360" y="0" x="0"/>
<use xlink:href="#g5421" transform="translate(120,200.00011)" height="360" width="360" y="0" x="0"/>
<use xlink:href="#g5421" transform="translate(130,220.00012)" height="360" width="360" y="0" x="0"/>
<use xlink:href="#g5421" transform="translate(120,240.00013)" height="360" width="360" y="0" x="0"/>
<use xlink:href="#g5421" transform="translate(130,260.00014)" height="360" width="360" y="0" x="0"/>
<use xlink:href="#g5421" transform="translate(120,280.00015)" height="360" width="360" y="0" x="0"/>
<use xlink:href="#g5421" transform="translate(130,300.00016)" height="360" width="360" y="0" x="0"/>
<use xlink:href="#g5421" transform="translate(140,1e-5)" height="360" width="360" y="0" x="0"/>
<use xlink:href="#g5421" transform="translate(130,20.00002)" height="360" width="360" y="0" x="0"/>
<use xlink:href="#g5421" transform="translate(140,40.00003)" height="360" width="360" y="0" x="0"/>
<use xlink:href="#g5421" transform="translate(130,60.00004)" height="360" width="360" y="0" x="0"/>
<use xlink:href="#g5421" transform="translate(140,80.00005)" height="360" width="360" y="0" x="0"/>
<use xlink:href="#g5421" transform="translate(130,100.00006)" height="360" width="360" y="0" x="0"/>
<use xlink:href="#g5421" transform="translate(140,120.00007)" height="360" width="360" y="0" x="0"/>
<use xlink:href="#g5421" transform="translate(130,140.00008)" height="360" width="360" y="0" x="0"/>
<use xlink:href="#g5421" transform="translate(140,160.00009)" height="360" width="360" y="0" x="0"/>
<use xlink:href="#g5421" transform="translate(150,180.0001)" height="360" width="360" y="0" x="0"/>
<use xlink:href="#g5421" transform="translate(140,200.00011)" height="360" width="360" y="0" x="0"/>
<use xlink:href="#g5421" transform="translate(150,220.00012)" height="360" width="360" y="0" x="0"/>
<use xlink:href="#g5421" transform="translate(140,240.00013)" height="360" width="360" y="0" x="0"/>
<use xlink:href="#g5421" transform="translate(150,260.00014)" height="360" width="360" y="0" x="0"/>
<use xlink:href="#g5421" transform="translate(140,280.00015)" height="360" width="360" y="0" x="0"/>
<use xlink:href="#g5421" transform="translate(150,300.00016)" height="360" width="360" y="0" x="0"/>
<use xlink:href="#g5421" transform="translate(160,1e-5)" height="360" width="360" y="0" x="0"/>
<use xlink:href="#g5421" transform="translate(150,20.00002)" height="360" width="360" y="0" x="0"/>
<use xlink:href="#g5421" transform="translate(160,40.00003)" height="360" width="360" y="0" x="0"/>
<use xlink:href="#g5421" transform="translate(150,60.00004)" height="360" width="360" y="0" x="0"/>
<use xlink:href="#g5421" transform="translate(160,80.00005)" height="360" width="360" y="0" x="0"/>
<use xlink:href="#g5421" transform="translate(150,100.00006)" height="360" width="360" y="0" x="0"/>
<use xlink:href="#g5421" transform="translate(160,120.00007)" height="360" width="360" y="0" x="0"/>
<use xlink:href="#g5421" transform="translate(150,140.00008)" height="360" width="360" y="0" x="0"/>
<use xlink:href="#g5421" transform="translate(160,160.00009)" height="360" width="360" y="0" x="0"/>
<use xlink:href="#g5421" transform="translate(170,180.0001)" height="360" width="360" y="0" x="0"/>
<use xlink:href="#g5421" transform="translate(160,200.00011)" height="360" width="360" y="0" x="0"/>
<use xlink:href="#g5421" transform="translate(170,220.00012)" height="360" width="360" y="0" x="0"/>
<use xlink:href="#g5421" transform="translate(160,240.00013)" height="360" width="360" y="0" x="0"/>
<use xlink:href="#g5421" transform="translate(170,260.00014)" height="360" width="360" y="0" x="0"/>
<use xlink:href="#g5421" transform="translate(160,280.00015)" height="360" width="360" y="0" x="0"/>
<use xlink:href="#g5421" transform="translate(170,20.00002)" height="360" width="360" y="0" x="0"/>
<use xlink:href="#g5421" transform="translate(180,40.00003)" height="360" width="360" y="0" x="0"/>
<use xlink:href="#g5421" transform="translate(170,60.00004)" height="360" width="360" y="0" x="0"/>
<use xlink:href="#g5421" transform="translate(180,80.00005)" height="360" width="360" y="0" x="0"/>
<use xlink:href="#g5421" transform="translate(170,100.00006)" height="360" width="360" y="0" x="0"/>
<use xlink:href="#g5421" transform="translate(180,120.00007)" height="360" width="360" y="0" x="0"/>
<use xlink:href="#g5421" transform="translate(170,140.00008)" height="360" width="360" y="0" x="0"/>
<use xlink:href="#g5421" transform="translate(180,160.00009)" height="360" width="360" y="0" x="0"/>
<use xlink:href="#g5421" transform="translate(190,180.0001)" height="360" width="360" y="0" x="0"/>
<use xlink:href="#g5421" transform="translate(180,200.00011)" height="360" width="360" y="0" x="0"/>
<use xlink:href="#g5421" transform="translate(190,220.00012)" height="360" width="360" y="0" x="0"/>
<use xlink:href="#g5421" transform="translate(180,240.00013)" height="360" width="360" y="0" x="0"/>
<use xlink:href="#g5421" transform="translate(190,60.00004)" height="360" width="360" y="0" x="0"/>
<use xlink:href="#g5421" transform="translate(200,80.00005)" height="360" width="360" y="0" x="0"/>
<use xlink:href="#g5421" transform="translate(190,100.00006)" height="360" width="360" y="0" x="0"/>
<use xlink:href="#g5421" transform="translate(200,120.00007)" height="360" width="360" y="0" x="0"/>
<use xlink:href="#g5421" transform="translate(190,140.00008)" height="360" width="360" y="0" x="0"/>
<use xlink:href="#g5421" transform="translate(200,160.00009)" height="360" width="360" y="0" x="0"/>
<use xlink:href="#g5421" transform="translate(210,180.0001)" height="360" width="360" y="0" x="0"/>
<use xlink:href="#g5421" transform="translate(200,200.00011)" height="360" width="360" y="0" x="0"/>
<use xlink:href="#g5421" transform="translate(210,100.00006)" height="360" width="360" y="0" x="0"/>
<use xlink:href="#g5421" transform="translate(220,120.00007)" height="360" width="360" y="0" x="0"/>
<use xlink:href="#g5421" transform="translate(210,140.00008)" height="360" width="360" y="0" x="0"/>
<use xlink:href="#g5421" transform="translate(220,160.00009)" height="360" width="360" y="0" x="0"/>
<use xlink:href="#g5421" transform="translate(230,140.00008)" height="360" width="360" y="0" x="0"/>
<path id="path3184-9-0" d="m162.65,53.29a2.6517,3.0458,0,0,1,-5.3034,0,2.6517,3.0458,0,1,1,5.3034,0z" fill="#82777e" fill-rule="evenodd"/>
<use xlink:href="#path3184-9-0" transform="translate(-80,53.900156)" height="360" width="360" y="0" x="0"/>
<use xlink:href="#path3184-9-0" transform="translate(80,53.900194)" height="360" width="360" y="0" x="0"/>
<use xlink:href="#path3184-9-0" transform="translate(-80,159.85521)" height="360" width="360" y="0" x="0"/>
<use xlink:href="#path3184-9-0" transform="translate(80,159.85519)" height="360" width="360" y="0" x="0"/>
<use xlink:href="#path3184-9-0" transform="translate(0,213.67543)" height="360" width="360" y="0" x="0"/>
</svg>
