<?xml version="1.0" encoding="UTF-8" standalone="no"?>
<svg xmlns:rdf="http://www.w3.org/1999/02/22-rdf-syntax-ns#" xmlns="http://www.w3.org/2000/svg" height="320" width="320" version="1.1" xmlns:cc="http://creativecommons.org/ns#" xmlns:xlink="http://www.w3.org/1999/xlink" xmlns:dc="http://purl.org/dc/elements/1.1/">
<path d="m0 160 80-160h160l80 160-80 160h-160z" fill="#494347"/>
<g id="b" fill-opacity=".1960784" transform="translate(-85,-140)">
<path d="m165 140v2l8.27 16.845h-16.538l-1.73 1.16h20z" fill="#FFF"/>
<path d="m155 160 1.7321-1.1547 8.2679-16.845v-1.9999z"/>
</g>
<g id="a" transform="translate(-53.73 -140.1548)">
<g transform="matrix(-1 0 0 -1 308.73 300.1547)">
<path fill-opacity=".1960784" d="m165 140v2l8.27 16.845h-16.538l-1.73 1.16h20z"/>
</g>
<path fill-opacity=".1960784" d="m153.73 140.15-1.7321 1.1547-8.2679 16.845v1.9999z" fill="#FFF"/>
</g>
<use xlink:href="#a" transform="translate(-80,160)"/>
<use xlink:href="#a" transform="translate(-70,180)"/>
<use xlink:href="#a" transform="translate(-60,120)"/>
<use xlink:href="#a" transform="translate(-70,140)"/>
<use xlink:href="#a" transform="translate(-60,160)"/>
<use xlink:href="#a" transform="translate(-50,180)"/>
<use xlink:href="#a" transform="translate(-60,200)"/>
<use xlink:href="#a" transform="translate(-50,220)"/>
<use xlink:href="#a" transform="translate(-40,80)"/>
<use xlink:href="#a" transform="translate(-50,100)"/>
<use xlink:href="#a" transform="translate(-40,120)"/>
<use xlink:href="#a" transform="translate(-50,140)"/>
<use xlink:href="#a" transform="translate(-40,160)"/>
<use xlink:href="#a" transform="translate(-30,180)"/>
<use xlink:href="#a" transform="translate(-40,200)"/>
<use xlink:href="#a" transform="translate(-30,220)"/>
<use xlink:href="#a" transform="translate(-40,240)"/>
<use xlink:href="#a" transform="translate(-30,260)"/>
<use xlink:href="#a" transform="translate(-20,40)"/>
<use xlink:href="#a" transform="translate(-30,60)"/>
<use xlink:href="#a" transform="translate(-20,80)"/>
<use xlink:href="#a" transform="translate(-30,100)"/>
<use xlink:href="#a" transform="translate(-20,120)"/>
<use xlink:href="#a" transform="translate(-30,140)"/>
<use xlink:href="#a" transform="translate(-20,160)"/>
<use xlink:href="#a" transform="translate(-10,180)"/>
<use xlink:href="#a" transform="translate(-20,200)"/>
<use xlink:href="#a" transform="translate(-10,220)"/>
<use xlink:href="#a" transform="translate(-20,240)"/>
<use xlink:href="#a" transform="translate(-10,260)"/>
<use xlink:href="#a" transform="translate(-20,280)"/>
<use xlink:href="#a" transform="translate(-10,300)"/>
<use xlink:href="#a" transform="translate(-10,20)"/>
<use xlink:href="#a" transform="translate(0,40)"/>
<use xlink:href="#a" transform="translate(-10,60)"/>
<use xlink:href="#a" transform="translate(0,80)"/>
<use xlink:href="#a" transform="translate(-10,100)"/>
<use xlink:href="#a" transform="translate(0,120)"/>
<use xlink:href="#a" transform="translate(-10,140)"/>
<use xlink:href="#a" transform="translate(0,160)"/>
<use xlink:href="#a" transform="translate(10,180)"/>
<use xlink:href="#a" transform="translate(0,200)"/>
<use xlink:href="#a" transform="translate(10,220)"/>
<use xlink:href="#a" transform="translate(0,240)"/>
<use xlink:href="#a" transform="translate(10,260)"/>
<use xlink:href="#a" transform="translate(0,280)"/>
<use xlink:href="#a" transform="translate(10,300)"/>
<use xlink:href="#a" transform="translate(20)"/>
<use xlink:href="#a" transform="translate(10,20)"/>
<use xlink:href="#a" transform="translate(20,40)"/>
<use xlink:href="#a" transform="translate(10,60)"/>
<use xlink:href="#a" transform="translate(20,80)"/>
<use xlink:href="#a" transform="translate(10,100)"/>
<use xlink:href="#a" transform="translate(20,120)"/>
<use xlink:href="#a" transform="translate(10,140)"/>
<use xlink:href="#a" transform="translate(20,160)"/>
<use xlink:href="#a" transform="translate(30,180)"/>
<use xlink:href="#a" transform="translate(20,200)"/>
<use xlink:href="#a" transform="translate(30,220)"/>
<use xlink:href="#a" transform="translate(20,240)"/>
<use xlink:href="#a" transform="translate(30,260)"/>
<use xlink:href="#a" transform="translate(20,280)"/>
<use xlink:href="#a" transform="translate(30,300)"/>
<use xlink:href="#a" transform="translate(40)"/>
<use xlink:href="#a" transform="translate(30,20)"/>
<use xlink:href="#a" transform="translate(40,40)"/>
<use xlink:href="#a" transform="translate(30,60)"/>
<use xlink:href="#a" transform="translate(40,80)"/>
<use xlink:href="#a" transform="translate(30,100)"/>
<use xlink:href="#a" transform="translate(40,120)"/>
<use xlink:href="#a" transform="translate(30,140)"/>
<use xlink:href="#a" transform="translate(40,160)"/>
<use xlink:href="#a" transform="translate(50,180)"/>
<use xlink:href="#a" transform="translate(40,200)"/>
<use xlink:href="#a" transform="translate(50,220)"/>
<use xlink:href="#a" transform="translate(40,240)"/>
<use xlink:href="#a" transform="translate(50,260)"/>
<use xlink:href="#a" transform="translate(40,280)"/>
<use xlink:href="#a" transform="translate(50,300)"/>
<use xlink:href="#a" transform="translate(60)"/>
<use xlink:href="#a" transform="translate(50,20)"/>
<use xlink:href="#a" transform="translate(60,40)"/>
<use xlink:href="#a" transform="translate(50,60)"/>
<use xlink:href="#a" transform="translate(60,80)"/>
<use xlink:href="#a" transform="translate(50,100)"/>
<use xlink:href="#a" transform="translate(60,120)"/>
<use xlink:href="#a" transform="translate(50,140)"/>
<use xlink:href="#a" transform="translate(60,160)"/>
<use xlink:href="#a" transform="translate(70,180)"/>
<use xlink:href="#a" transform="translate(60,200)"/>
<use xlink:href="#a" transform="translate(70,220)"/>
<use xlink:href="#a" transform="translate(60,240)"/>
<use xlink:href="#a" transform="translate(70,260)"/>
<use xlink:href="#a" transform="translate(60,280)"/>
<use xlink:href="#a" transform="translate(70,300)"/>
<use xlink:href="#a" transform="translate(80)"/>
<use xlink:href="#a" transform="translate(70,20)"/>
<use xlink:href="#a" transform="translate(80,40)"/>
<use xlink:href="#a" transform="translate(70,60)"/>
<use xlink:href="#a" transform="translate(80,80)"/>
<use xlink:href="#a" transform="translate(70,100)"/>
<use xlink:href="#a" transform="translate(80,120)"/>
<use xlink:href="#a" transform="translate(70,140)"/>
<use xlink:href="#a" transform="translate(80,160)"/>
<use xlink:href="#a" transform="translate(90,180)"/>
<use xlink:href="#a" transform="translate(80,200)"/>
<use xlink:href="#a" transform="translate(90,220)"/>
<use xlink:href="#a" transform="translate(80,240)"/>
<use xlink:href="#a" transform="translate(90,260)"/>
<use xlink:href="#a" transform="translate(80,280)"/>
<use xlink:href="#a" transform="translate(90,300)"/>
<use xlink:href="#a" transform="translate(100)"/>
<use xlink:href="#a" transform="translate(90,20)"/>
<use xlink:href="#a" transform="translate(100,40)"/>
<use xlink:href="#a" transform="translate(90,60)"/>
<use xlink:href="#a" transform="translate(100,80)"/>
<use xlink:href="#a" transform="translate(90,100)"/>
<use xlink:href="#a" transform="translate(100,120)"/>
<use xlink:href="#a" transform="translate(90,140)"/>
<use xlink:href="#a" transform="translate(100,160)"/>
<use xlink:href="#a" transform="translate(110,180)"/>
<use xlink:href="#a" transform="translate(100,200)"/>
<use xlink:href="#a" transform="translate(110,220)"/>
<use xlink:href="#a" transform="translate(100,240)"/>
<use xlink:href="#a" transform="translate(110,260)"/>
<use xlink:href="#a" transform="translate(100,280)"/>
<use xlink:href="#a" transform="translate(110,300)"/>
<use xlink:href="#a" transform="translate(120)"/>
<use xlink:href="#a" transform="translate(110,20)"/>
<use xlink:href="#a" transform="translate(120,40)"/>
<use xlink:href="#a" transform="translate(110,60)"/>
<use xlink:href="#a" transform="translate(120,80)"/>
<use xlink:href="#a" transform="translate(110,100)"/>
<use xlink:href="#a" transform="translate(120,120)"/>
<use xlink:href="#a" transform="translate(110,140)"/>
<use xlink:href="#a" transform="translate(120,160)"/>
<use xlink:href="#a" transform="translate(130,180)"/>
<use xlink:href="#a" transform="translate(120,200)"/>
<use xlink:href="#a" transform="translate(130,220)"/>
<use xlink:href="#a" transform="translate(120,240)"/>
<use xlink:href="#a" transform="translate(130,260)"/>
<use xlink:href="#a" transform="translate(120,280)"/>
<use xlink:href="#a" transform="translate(130,300)"/>
<use xlink:href="#a" transform="translate(140)"/>
<use xlink:href="#a" transform="translate(130,20)"/>
<use xlink:href="#a" transform="translate(140,40)"/>
<use xlink:href="#a" transform="translate(130,60)"/>
<use xlink:href="#a" transform="translate(140,80)"/>
<use xlink:href="#a" transform="translate(130,100)"/>
<use xlink:href="#a" transform="translate(140,120)"/>
<use xlink:href="#a" transform="translate(130,140)"/>
<use xlink:href="#a" transform="translate(140,160)"/>
<use xlink:href="#a" transform="translate(150,180)"/>
<use xlink:href="#a" transform="translate(140,200)"/>
<use xlink:href="#a" transform="translate(150,220)"/>
<use xlink:href="#a" transform="translate(140,240)"/>
<use xlink:href="#a" transform="translate(150,260)"/>
<use xlink:href="#a" transform="translate(140,280)"/>
<use xlink:href="#a" transform="translate(150,300)"/>
<use xlink:href="#a" transform="translate(150,20)"/>
<use xlink:href="#a" transform="translate(160,40)"/>
<use xlink:href="#a" transform="translate(150,60)"/>
<use xlink:href="#a" transform="translate(160,80)"/>
<use xlink:href="#a" transform="translate(150,100)"/>
<use xlink:href="#a" transform="translate(160,120)"/>
<use xlink:href="#a" transform="translate(150,140)"/>
<use xlink:href="#a" transform="translate(160,160)"/>
<use xlink:href="#a" transform="translate(170,180)"/>
<use xlink:href="#a" transform="translate(160,200)"/>
<use xlink:href="#a" transform="translate(170,220)"/>
<use xlink:href="#a" transform="translate(160,240)"/>
<use xlink:href="#a" transform="translate(170,260)"/>
<use xlink:href="#a" transform="translate(160,280)"/>
<use xlink:href="#a" transform="translate(170,60)"/>
<use xlink:href="#a" transform="translate(180,80)"/>
<use xlink:href="#a" transform="translate(170,100)"/>
<use xlink:href="#a" transform="translate(180,120)"/>
<use xlink:href="#a" transform="translate(170,140)"/>
<use xlink:href="#a" transform="translate(180,160)"/>
<use xlink:href="#a" transform="translate(190,180)"/>
<use xlink:href="#a" transform="translate(180,200)"/>
<use xlink:href="#a" transform="translate(190,220)"/>
<use xlink:href="#a" transform="translate(180,240)"/>
<use xlink:href="#a" transform="translate(190,100)"/>
<use xlink:href="#a" transform="translate(200,120)"/>
<use xlink:href="#a" transform="translate(190,140)"/>
<use xlink:href="#a" transform="translate(200,160)"/>
<use xlink:href="#a" transform="translate(210,180)"/>
<use xlink:href="#a" transform="translate(200,200)"/>
<use xlink:href="#a" transform="translate(210,140)"/>
<use xlink:href="#a" transform="translate(220,160)"/>
<use xlink:href="#b" transform="translate(-60,120)"/>
<use xlink:href="#b" transform="translate(-70,140)"/>
<use xlink:href="#b" transform="translate(-60,160)"/>
<use xlink:href="#b" transform="translate(-50,180)"/>
<use xlink:href="#b" transform="translate(-40,80)"/>
<use xlink:href="#b" transform="translate(-50,100)"/>
<use xlink:href="#b" transform="translate(-40,120)"/>
<use xlink:href="#b" transform="translate(-50,140)"/>
<use xlink:href="#b" transform="translate(-40,160)"/>
<use xlink:href="#b" transform="translate(-30,180)"/>
<use xlink:href="#b" transform="translate(-40,200)"/>
<use xlink:href="#b" transform="translate(-30,220)"/>
<use xlink:href="#b" transform="translate(-20,40)"/>
<use xlink:href="#b" transform="translate(-30,60)"/>
<use xlink:href="#b" transform="translate(-20,80)"/>
<use xlink:href="#b" transform="translate(-30,100)"/>
<use xlink:href="#b" transform="translate(-20,120)"/>
<use xlink:href="#b" transform="translate(-30,140)"/>
<use xlink:href="#b" transform="translate(-20,160)"/>
<use xlink:href="#b" transform="translate(-10,180)"/>
<use xlink:href="#b" transform="translate(-20,200)"/>
<use xlink:href="#b" transform="translate(-10,220)"/>
<use xlink:href="#b" transform="translate(-20,240)"/>
<use xlink:href="#b" transform="translate(-10,260)"/>
<use xlink:href="#b" transform="translate(-10,20)"/>
<use xlink:href="#b" transform="translate(0,40)"/>
<use xlink:href="#b" transform="translate(-10,60)"/>
<use xlink:href="#b" transform="translate(0,80)"/>
<use xlink:href="#b" transform="translate(-10,100)"/>
<use xlink:href="#b" transform="translate(0,120)"/>
<use xlink:href="#b" transform="translate(-10,140)"/>
<use xlink:href="#b" transform="translate(0,160)"/>
<use xlink:href="#b" transform="translate(10,180)"/>
<use xlink:href="#b" transform="translate(0,200)"/>
<use xlink:href="#b" transform="translate(10,220)"/>
<use xlink:href="#b" transform="translate(0,240)"/>
<use xlink:href="#b" transform="translate(10,260)"/>
<use xlink:href="#b" transform="translate(0,280)"/>
<use xlink:href="#b" transform="translate(10,300)"/>
<use xlink:href="#b" transform="translate(20)"/>
<use xlink:href="#b" transform="translate(10,20)"/>
<use xlink:href="#b" transform="translate(20,40)"/>
<use xlink:href="#b" transform="translate(10,60)"/>
<use xlink:href="#b" transform="translate(20,80)"/>
<use xlink:href="#b" transform="translate(10,100)"/>
<use xlink:href="#b" transform="translate(20,120)"/>
<use xlink:href="#b" transform="translate(10,140)"/>
<use xlink:href="#b" transform="translate(20,160)"/>
<use xlink:href="#b" transform="translate(30,180)"/>
<use xlink:href="#b" transform="translate(20,200)"/>
<use xlink:href="#b" transform="translate(30,220)"/>
<use xlink:href="#b" transform="translate(20,240)"/>
<use xlink:href="#b" transform="translate(30,260)"/>
<use xlink:href="#b" transform="translate(20,280)"/>
<use xlink:href="#b" transform="translate(30,300)"/>
<use xlink:href="#b" transform="translate(40)"/>
<use xlink:href="#b" transform="translate(30,20)"/>
<use xlink:href="#b" transform="translate(40,40)"/>
<use xlink:href="#b" transform="translate(30,60)"/>
<use xlink:href="#b" transform="translate(40,80)"/>
<use xlink:href="#b" transform="translate(30,100)"/>
<use xlink:href="#b" transform="translate(40,120)"/>
<use xlink:href="#b" transform="translate(30,140)"/>
<use xlink:href="#b" transform="translate(40,160)"/>
<use xlink:href="#b" transform="translate(50,180)"/>
<use xlink:href="#b" transform="translate(40,200)"/>
<use xlink:href="#b" transform="translate(50,220)"/>
<use xlink:href="#b" transform="translate(40,240)"/>
<use xlink:href="#b" transform="translate(50,260)"/>
<use xlink:href="#b" transform="translate(40,280)"/>
<use xlink:href="#b" transform="translate(50,300)"/>
<use xlink:href="#b" transform="translate(60)"/>
<use xlink:href="#b" transform="translate(50,20)"/>
<use xlink:href="#b" transform="translate(60,40)"/>
<use xlink:href="#b" transform="translate(50,60)"/>
<use xlink:href="#b" transform="translate(60,80)"/>
<use xlink:href="#b" transform="translate(50,100)"/>
<use xlink:href="#b" transform="translate(60,120)"/>
<use xlink:href="#b" transform="translate(50,140)"/>
<use xlink:href="#b" transform="translate(60,160)"/>
<use xlink:href="#b" transform="translate(70,180)"/>
<use xlink:href="#b" transform="translate(60,200)"/>
<use xlink:href="#b" transform="translate(70,220)"/>
<use xlink:href="#b" transform="translate(60,240)"/>
<use xlink:href="#b" transform="translate(70,260)"/>
<use xlink:href="#b" transform="translate(60,280)"/>
<use xlink:href="#b" transform="translate(70,300)"/>
<use xlink:href="#b" transform="translate(80)"/>
<use xlink:href="#b" transform="translate(70,20)"/>
<use xlink:href="#b" transform="translate(80,40)"/>
<use xlink:href="#b" transform="translate(70,60)"/>
<use xlink:href="#b" transform="translate(80,80)"/>
<use xlink:href="#b" transform="translate(70,100)"/>
<use xlink:href="#b" transform="translate(80,120)"/>
<use xlink:href="#b" transform="translate(70,140)"/>
<use xlink:href="#b" transform="translate(80,160)"/>
<use xlink:href="#b" transform="translate(90,180)"/>
<use xlink:href="#b" transform="translate(80,200)"/>
<use xlink:href="#b" transform="translate(90,220)"/>
<use xlink:href="#b" transform="translate(80,240)"/>
<use xlink:href="#b" transform="translate(90,260)"/>
<use xlink:href="#b" transform="translate(80,280)"/>
<use xlink:href="#b" transform="translate(90,300)"/>
<use xlink:href="#b" transform="translate(100)"/>
<use xlink:href="#b" transform="translate(90,20)"/>
<use xlink:href="#b" transform="translate(100,40)"/>
<use xlink:href="#b" transform="translate(90,60)"/>
<use xlink:href="#b" transform="translate(100,80)"/>
<use xlink:href="#b" transform="translate(90,100)"/>
<use xlink:href="#b" transform="translate(100,120)"/>
<use xlink:href="#b" transform="translate(90,140)"/>
<use xlink:href="#b" transform="translate(100,160)"/>
<use xlink:href="#b" transform="translate(110,180)"/>
<use xlink:href="#b" transform="translate(100,200)"/>
<use xlink:href="#b" transform="translate(110,220)"/>
<use xlink:href="#b" transform="translate(100,240)"/>
<use xlink:href="#b" transform="translate(110,260)"/>
<use xlink:href="#b" transform="translate(100,280)"/>
<use xlink:href="#b" transform="translate(110,300)"/>
<use xlink:href="#b" transform="translate(120)"/>
<use xlink:href="#b" transform="translate(110,20)"/>
<use xlink:href="#b" transform="translate(120,40)"/>
<use xlink:href="#b" transform="translate(110,60)"/>
<use xlink:href="#b" transform="translate(120,80)"/>
<use xlink:href="#b" transform="translate(110,100)"/>
<use xlink:href="#b" transform="translate(120,120)"/>
<use xlink:href="#b" transform="translate(110,140)"/>
<use xlink:href="#b" transform="translate(120,160)"/>
<use xlink:href="#b" transform="translate(130,180)"/>
<use xlink:href="#b" transform="translate(120,200)"/>
<use xlink:href="#b" transform="translate(130,220)"/>
<use xlink:href="#b" transform="translate(120,240)"/>
<use xlink:href="#b" transform="translate(130,260)"/>
<use xlink:href="#b" transform="translate(120,280)"/>
<use xlink:href="#b" transform="translate(130,300)"/>
<use xlink:href="#b" transform="translate(140)"/>
<use xlink:href="#b" transform="translate(130,20)"/>
<use xlink:href="#b" transform="translate(140,40)"/>
<use xlink:href="#b" transform="translate(130,60)"/>
<use xlink:href="#b" transform="translate(140,80)"/>
<use xlink:href="#b" transform="translate(130,100)"/>
<use xlink:href="#b" transform="translate(140,120)"/>
<use xlink:href="#b" transform="translate(130,140)"/>
<use xlink:href="#b" transform="translate(140,160)"/>
<use xlink:href="#b" transform="translate(150,180)"/>
<use xlink:href="#b" transform="translate(140,200)"/>
<use xlink:href="#b" transform="translate(150,220)"/>
<use xlink:href="#b" transform="translate(140,240)"/>
<use xlink:href="#b" transform="translate(150,260)"/>
<use xlink:href="#b" transform="translate(140,280)"/>
<use xlink:href="#b" transform="translate(150,300)"/>
<use xlink:href="#b" transform="translate(160)"/>
<use xlink:href="#b" transform="translate(150,20)"/>
<use xlink:href="#b" transform="translate(160,40)"/>
<use xlink:href="#b" transform="translate(150,60)"/>
<use xlink:href="#b" transform="translate(160,80)"/>
<use xlink:href="#b" transform="translate(150,100)"/>
<use xlink:href="#b" transform="translate(160,120)"/>
<use xlink:href="#b" transform="translate(150,140)"/>
<use xlink:href="#b" transform="translate(160,160)"/>
<use xlink:href="#b" transform="translate(170,180)"/>
<use xlink:href="#b" transform="translate(160,200)"/>
<use xlink:href="#b" transform="translate(170,220)"/>
<use xlink:href="#b" transform="translate(160,240)"/>
<use xlink:href="#b" transform="translate(170,260)"/>
<use xlink:href="#b" transform="translate(160,280)"/>
<use xlink:href="#b" transform="translate(170,20)"/>
<use xlink:href="#b" transform="translate(180,40)"/>
<use xlink:href="#b" transform="translate(170,60)"/>
<use xlink:href="#b" transform="translate(180,80)"/>
<use xlink:href="#b" transform="translate(170,100)"/>
<use xlink:href="#b" transform="translate(180,120)"/>
<use xlink:href="#b" transform="translate(170,140)"/>
<use xlink:href="#b" transform="translate(180,160)"/>
<use xlink:href="#b" transform="translate(190,180)"/>
<use xlink:href="#b" transform="translate(180,200)"/>
<use xlink:href="#b" transform="translate(190,220)"/>
<use xlink:href="#b" transform="translate(180,240)"/>
<use xlink:href="#b" transform="translate(190,60)"/>
<use xlink:href="#b" transform="translate(200,80)"/>
<use xlink:href="#b" transform="translate(190,100)"/>
<use xlink:href="#b" transform="translate(200,120)"/>
<use xlink:href="#b" transform="translate(190,140)"/>
<use xlink:href="#b" transform="translate(200,160)"/>
<use xlink:href="#b" transform="translate(210,180)"/>
<use xlink:href="#b" transform="translate(200,200)"/>
<use xlink:href="#b" transform="translate(210,100)"/>
<use xlink:href="#b" transform="translate(220,120)"/>
<use xlink:href="#b" transform="translate(210,140)"/>
<use xlink:href="#b" transform="translate(220,160)"/>
<use xlink:href="#b" transform="translate(230,140)"/>
<path id="c" fill-rule="evenodd" fill="#82777e" d="m162.65 53.29a2.6517 3.0458 0 0 1 -5.3034 0 2.6517 3.0458 0 1 1 5.3034 0z"/>
<use xlink:href="#c" transform="translate(-80 53.90016)"/>
<use xlink:href="#c" transform="translate(80 53.90019)"/>
<use xlink:href="#c" transform="translate(-80 159.8552)"/>
<use xlink:href="#c" transform="translate(80 159.8552)"/>
<use xlink:href="#c" transform="translate(0 213.6754)"/>
</svg>
