<?xml version="1.0" encoding="UTF-8" standalone="no"?>
<svg xmlns:rdf="http://www.w3.org/1999/02/22-rdf-syntax-ns#" xmlns="http://www.w3.org/2000/svg" height="22" width="22" version="1.1" xmlns:cc="http://creativecommons.org/ns#" xmlns:dc="http://purl.org/dc/elements/1.1/">
 <path fill="#777" d="m2 0c-1.11 0-2 0.894-2 2v17c0 1.11 0.892 2 2 2h17c1.11 0 2-0.894 2-2v-17c0-1.15-0.9-2-2-2-5.6 0-11.3 0-17 0zm0 1 12.6 0c-0.158 0.336-0.373 0.631-0.523 0.962h-3.1v1.38c-0.4 0.05-0.7 0.08-1 0.19v-1.57h-8v8h8l0.047-5.61c0.3 0.26 0.6 0.54 1 0.84v4.77h8l0.047-4.09c0.3-0.267 0.654-0.579 1-0.873v14c-0.0019 0.553-0.446 1-1 1h-17c-0.55 0-1-0.4-1-1v-17c0-0.55 0.45-1 1-1zm14.2 0.04 2.8-0.04c0.554-0.00749 1 0.447 1 1v1.37c-0.3-0.04-0.6-0.03-1-0.06v-1.31h-2.3c-0.166-0.346-0.31-0.623-0.486-0.962zm-0.875 0.343c0.512 0.0155 1.05 1.93 1.47 2.21 0.394 0.266 2.46 0.0956 2.59 0.53 0.143 0.458-1.65 1.51-1.81 1.97-0.15 0.43 0.653 2.21 0.25 2.46-0.424 0.267-2.05-1-2.56-0.998-0.487 0.000001-2.05 1.28-2.44 1-0.405-0.292 0.377-2.14 0.219-2.59-0.15-0.43-1.91-1.41-1.75-1.84 0.174-0.448 2.3-0.313 2.72-0.593 0.394-0.266 0.825-2.17 1.31-2.15zm-13.3 9.62v8h8v-8zm9 0v8h8v-8z"/>
</svg>
