<?xml version="1.0" encoding="UTF-8" standalone="no"?>
<svg xmlns:rdf="http://www.w3.org/1999/02/22-rdf-syntax-ns#" xmlns="http://www.w3.org/2000/svg" height="22" width="22" version="1.1" xmlns:cc="http://creativecommons.org/ns#" xmlns:dc="http://purl.org/dc/elements/1.1/">
 <path fill="#777" d="m2.5 0c-1.35 0-2.5 1.1-2.5 2.44v15.1c0 1.35 1.1 2.44 2.44 2.44h7.56v2.02h12v-19.6c0-1.27-1.2-2.3-2.5-2.3zm16 3c0.3 0 0.522 0.258 0.522 0.562v6.44h-1v-6h-14v11h6v1l-6.42 0.002c-0.3 0-0.56-0.3-0.56-0.6v-11.9c0-0.26 0.18-0.5 0.48-0.5zm-7.5 8h10v10h-10zm1 1v4h4v-4zm4 4v4h4v-4zm-13 1h7v1h-7z"/>
</svg>
