<?xml version="1.0" encoding="UTF-8"?>
<svg width="48" height="48" version="1.1" xmlns="http://www.w3.org/2000/svg" xmlns:xlink="http://www.w3.org/1999/xlink">
 <path d="m13 24h22v-11h-11v-11h-18.615c-1.6923 0-3.3846 1.6923-3.3846 3.3846v7.6153h11z" fill="#e01b24" fill-rule="evenodd" stroke-width=".42308"/>
 <path id="h" d="m2 13 1.6923-1.6923h7.6154l1.6923 1.6923z" fill="#c6161f" fill-rule="evenodd" stroke-width=".42308"/>
 <use transform="translate(11)" width="100%" height="100%" xlink:href="#h"/>
 <use transform="translate(11 11)" width="100%" height="100%" xlink:href="#h"/>
 <use transform="translate(22 11)" width="100%" height="100%" xlink:href="#h"/>
 <path id="n" d="m13 2.0001 1.6923 1.6923h7.6154l1.6923-1.6923z" fill="#e73b43" fill-rule="evenodd" stroke-width=".42308"/>
 <use transform="translate(0 11)" width="100%" height="100%" xlink:href="#n"/>
 <use transform="translate(11 11)" width="100%" height="100%" xlink:href="#n"/>
 <path id="m" d="m13 2.0001 1.6923 1.6923v7.6153l-1.6923 1.6923z" fill="#e6323a" fill-rule="evenodd" stroke-width=".42308"/>
 <use transform="translate(0 11)" width="100%" height="100%" xlink:href="#m"/>
 <use transform="translate(11 11)" width="100%" height="100%" xlink:href="#m"/>
 <path id="c" d="m13 13-1.6923-1.6923v-7.6153l1.6923-1.6923z" fill="#cd1922" fill-rule="evenodd" stroke-width=".42308"/>
 <use transform="translate(11 11)" width="100%" height="100%" xlink:href="#c"/>
 <use transform="translate(11)" width="100%" height="100%" xlink:href="#c"/>
 <use transform="translate(22 11)" width="100%" height="100%" xlink:href="#c"/>
 <g transform="matrix(.42308 0 0 .42307 -3.0769 -3.0768)" fill-rule="evenodd">
  <path d="m14.503 14.542 1.4971 1.4577v18l-4 4v-18c0.02078-3.241 2.5029-5.4577 2.5029-5.4577z" fill="#e6323a"/>
  <path d="m14.533 14.527 1.467 1.4727h18l4-4h-18c-3.3465 0.04519-5.467 2.5273-5.467 2.5273z" fill="#e73b42"/>
  <path d="m64 12h44c3.9627 0.04261 7.9574 4.0799 8 8v70h-26v-52h-26z" fill="#33d17a"/>
  <path id="g" d="m64 38 4-4h18l4 4z" fill="#27bf6c" fill-rule="evenodd"/>
 </g>
 <use transform="matrix(.42308 0 0 .42307 7.9231 -3.0768)" width="100%" height="100%" xlink:href="#g"/>
 <use transform="matrix(.42308 0 0 .42307 7.9231 7.9232)" width="100%" height="100%" xlink:href="#g"/>
 <use transform="matrix(.42308 0 0 .42307 7.9231 18.923)" width="100%" height="100%" xlink:href="#g"/>
 <path id="f" d="m24 2.0001 1.6923 1.6923v7.6153l-1.6923 1.6923z" fill="#42d886" fill-rule="evenodd" stroke-width=".42308"/>
 <use transform="translate(11)" width="100%" height="100%" xlink:href="#f"/>
 <use transform="translate(11 22)" width="100%" height="100%" xlink:href="#f"/>
 <use transform="translate(11 11)" width="100%" height="100%" xlink:href="#f"/>
 <path id="p" d="m24 2.0001 1.6923 1.6923h7.6154l1.6923-1.6923z" fill="#57df95" fill-rule="evenodd" stroke-width=".42308"/>
 <use transform="translate(11 11)" width="100%" height="100%" xlink:href="#p"/>
 <use transform="translate(11 22)" width="100%" height="100%" xlink:href="#p"/>
 <path id="o" d="m35 2.0001-1.6923 1.6923v7.6153l1.6923 1.6923z" fill="#29cb73" fill-rule="evenodd" stroke-width=".42308"/>
 <use transform="translate(11 11)" width="100%" height="100%" xlink:href="#o"/>
 <use transform="translate(11 22)" width="100%" height="100%" xlink:href="#o"/>
 <g transform="matrix(.42308 0 0 .42307 -3.0769 -3.0768)" fill-rule="evenodd">
  <path d="m90 12 4 4h18l1.4274-1.4594s-2.4274-2.5406-5.4274-2.5406z" fill="#57df95"/>
  <path d="m116 20c-0.0151-2.9828-2.5466-5.4534-2.5466-5.4534l-1.4534 1.4534v18l4 4z" fill="#29cb73"/>
  <path d="m12 38v70c0.0213 4.0053 4 7.9997 7.984 7.9997l44.015-2e-3 9.99e-4 -25.998h-26v-52z" fill="#f6d32d"/>
  <path id="j" d="m38 64h-26l4-4h18z" fill="#e1bf09" fill-rule="evenodd"/>
 </g>
 <use transform="matrix(.42308 0 0 .42307 -3.0769 7.9232)" width="100%" height="100%" xlink:href="#j"/>
 <use transform="matrix(.42308 0 0 .42307 7.9231 18.923)" width="100%" height="100%" xlink:href="#j"/>
 <path id="a" d="m13 13h-11l1.6923 1.6923h7.6154z" fill="#f9e263" fill-rule="evenodd" stroke-width=".42308"/>
 <use transform="translate(0 11)" width="100%" height="100%" xlink:href="#a"/>
 <use transform="translate(11 22)" width="100%" height="100%" xlink:href="#a"/>
 <path id="i" d="m2 24v-11l1.6923 1.6923v7.6153z" fill="#f7da51" fill-rule="evenodd" stroke-width=".42308"/>
 <use transform="translate(0 11)" width="100%" height="100%" xlink:href="#i"/>
 <use transform="translate(11 22)" width="100%" height="100%" xlink:href="#i"/>
 <path id="b" d="m13 13v11l-1.6923-1.6923v-7.6153z" fill="#efc70b" fill-rule="evenodd" stroke-width=".42308"/>
 <use transform="translate(0 11)" width="100%" height="100%" xlink:href="#b"/>
 <use transform="translate(11 22)" width="100%" height="100%" xlink:href="#b"/>
 <use transform="translate(0 22)" width="100%" height="100%" xlink:href="#b"/>
 <use transform="translate(0 22)" width="100%" height="100%" xlink:href="#a"/>
 <g fill-rule="evenodd" stroke-width=".42308">
  <path d="m2 42.615v-7.6153l1.6923 1.6923v7.6153l-0.61291 0.61291s-1.0614-0.82698-1.0794-2.3052z" fill="#f7da51"/>
  <path d="m13 46h-7.6154c-1.334 0.018023-2.3052-1.0794-2.3052-1.0794l0.61291-0.61291h7.6154z" fill="#e0bb0a"/>
  <path d="m13 24h22v11h11v7.5861c0 1.7486-1.672 3.4319-3.3846 3.4139h-18.615v-11h-11z" fill="#1c71d8"/>
  <path id="l" d="m13 35 1.6923-1.6923h7.6154l1.6923 1.6923z" fill="#1a68c7" fill-rule="evenodd" stroke-width=".42308"/>
 </g>
 <use transform="translate(11)" width="100%" height="100%" xlink:href="#l"/>
 <use transform="translate(11 10.999)" width="100%" height="100%" xlink:href="#l"/>
 <path d="m35 46h7.6154c1.334 0.01802 2.3052-1.0794 2.3052-1.0794l-0.61291-0.61291h-7.6154z" fill="#1a68c7" fill-rule="evenodd" stroke-width=".42308"/>
 <path id="e" d="m13 24 1.6923 1.6923h7.6154l1.6923-1.6923z" fill="#3585e5" fill-rule="evenodd" stroke-width=".42308"/>
 <use transform="translate(11)" width="100%" height="100%" xlink:href="#e"/>
 <use transform="translate(11 11)" width="100%" height="100%" xlink:href="#e"/>
 <use transform="translate(22 11)" width="100%" height="100%" xlink:href="#e"/>
 <path id="d" d="m13 35 1.6923-1.6923v-7.6153l-1.6923-1.6923z" fill="#2078e2" fill-rule="evenodd" stroke-width=".42308"/>
 <use transform="translate(11)" width="100%" height="100%" xlink:href="#d"/>
 <use transform="translate(11 11)" width="100%" height="100%" xlink:href="#d"/>
 <use transform="translate(22 10.999)" width="100%" height="100%" xlink:href="#d"/>
 <path id="k" d="m24 35-1.6923-1.6923v-7.6153l1.6923-1.6923z" fill="#1b6bce" fill-rule="evenodd" stroke-width=".42308"/>
 <use transform="translate(11)" width="100%" height="100%" xlink:href="#k"/>
 <use transform="translate(11 11)" width="100%" height="100%" xlink:href="#k"/>
 <path d="m46 42.615v-7.6153l-1.6923 1.6923v7.6153l0.61291 0.61291s1.0614-0.82698 1.0794-2.3052z" fill="#1b6bce" fill-rule="evenodd" stroke-width=".42308"/>
</svg>
