<?xml version="1.0" encoding="UTF-8"?>
<svg width="48" height="48" version="1.1" xmlns="http://www.w3.org/2000/svg" xmlns:xlink="http://www.w3.org/1999/xlink">
 <path d="m13 24h22v-11h-11v-11h-18.615c-1.6923 0-3.3846 1.6923-3.3846 3.3846v7.6153h11z" fill="#e01b24" fill-rule="evenodd" stroke-width=".42308"/>
 <path id="h" d="m2 13 1.6923-1.6923h7.6154l1.6923 1.6923z" fill="#c6161f" fill-rule="evenodd" stroke-width=".42308"/>
 <use transform="translate(11)" width="100%" height="100%" xlink:href="#h"/>
 <use transform="translate(11 11)" width="100%" height="100%" xlink:href="#h"/>
 <use transform="translate(22 11)" width="100%" height="100%" xlink:href="#h"/>
 <path id="n" d="m13 2.0001 1.6923 1.6923h7.6154l1.6923-1.6923z" fill="#e73b43" fill-rule="evenodd" stroke-width=".42308"/>
 <use transform="translate(0 11)" width="100%" height="100%" xlink:href="#n"/>
 <use transform="translate(11 11)" width="100%" height="100%" xlink:href="#n"/>
 <path id="m" d="m13 2.0001 1.6923 1.6923v7.6153l-1.6923 1.6923z" fill="#e6323a" fill-rule="evenodd" stroke-width=".42308"/>
 <use transform="translate(0 11)" width="100%" height="100%" xlink:href="#m"/>
 <use transform="translate(11 11)" width="100%" height="100%" xlink:href="#m"/>
 <path id="c" d="m13 13-1.6923-1.6923v-7.6153l1.6923-1.6923z" fill="#cd1922" fill-rule="evenodd" stroke-width=".42308"/>
 <use transform="translate(11 11)" width="100%" height="100%" xlink:href="#c"/>
 <use transform="translate(11)" width="100%" height="100%" xlink:href="#c"/>
 <use transform="translate(22 11)" width="100%" height="100%" xlink:href="#c"/>
 <g fill-rule="evenodd" stroke-width=".42308">
  <path d="m3.059 3.0756 0.63339 0.61671v7.6153l-1.6923 1.6923v-7.6153c0.00879-1.3712 1.0589-2.309 1.0589-2.309z" fill="#e6323a"/>
  <path d="m3.0717 3.0692 0.62065 0.62306h7.6154l1.6923-1.6923h-7.6154c-1.4158 0.019119-2.313 1.0692-2.313 1.0692z" fill="#e73b42"/>
  <path d="m24 2.0001h18.615c1.6765 0.018027 3.3666 1.7261 3.3846 3.3846v29.615h-11v-22h-11z" fill="#2ec27e"/>
  <path id="g" d="m24 13 1.6923-1.6923h7.6154l1.6923 1.6923z" fill="#2ab073" fill-rule="evenodd" stroke-width=".42308"/>
 </g>
 <use transform="translate(11)" width="100%" height="100%" xlink:href="#g"/>
 <use transform="translate(11 11)" width="100%" height="100%" xlink:href="#g"/>
 <use transform="translate(11 22)" width="100%" height="100%" xlink:href="#g"/>
 <path id="f" d="m24 2.0001 1.6923 1.6923v7.6153l-1.6923 1.6923z" fill="#30ca85" fill-rule="evenodd" stroke-width=".42308"/>
 <use transform="translate(11)" width="100%" height="100%" xlink:href="#f"/>
 <use transform="translate(11 22)" width="100%" height="100%" xlink:href="#f"/>
 <use transform="translate(11 11)" width="100%" height="100%" xlink:href="#f"/>
 <path id="p" d="m24 2.0001 1.6923 1.6923h7.6154l1.6923-1.6923z" fill="#4fd398" fill-rule="evenodd" stroke-width=".42308"/>
 <use transform="translate(11 11)" width="100%" height="100%" xlink:href="#p"/>
 <use transform="translate(11 22)" width="100%" height="100%" xlink:href="#p"/>
 <path id="o" d="m35 2.0001-1.6923 1.6923v7.6153l1.6923 1.6923z" fill="#2fbb7c" fill-rule="evenodd" stroke-width=".42308"/>
 <use transform="translate(11 11)" width="100%" height="100%" xlink:href="#o"/>
 <use transform="translate(11 22)" width="100%" height="100%" xlink:href="#o"/>
 <g transform="matrix(.42308 0 0 .42307 -3.0769 -3.0768)" fill-rule="evenodd">
  <path d="m90 12 4 4h18l1.4274-1.4594s-2.4274-2.5406-5.4274-2.5406z" fill="#4fd398"/>
  <path d="m116 20c-0.0151-2.9828-2.5466-5.4534-2.5466-5.4534l-1.4534 1.4534v18l4 4z" fill="#2fbb7c"/>
  <path d="m12 38v70c0.0213 4.0053 4 7.9997 7.984 7.9997l44.015-2e-3 9.99e-4 -25.998h-26v-52z" fill="#f6d32d"/>
  <path id="j" d="m38 64h-26l4-4h18z" fill="#e1bf09" fill-rule="evenodd"/>
 </g>
 <use transform="matrix(.42308 0 0 .42307 -3.0769 7.9232)" width="100%" height="100%" xlink:href="#j"/>
 <use transform="matrix(.42308 0 0 .42307 7.9231 18.923)" width="100%" height="100%" xlink:href="#j"/>
 <path id="a" d="m13 13h-11l1.6923 1.6923h7.6154z" fill="#f9e263" fill-rule="evenodd" stroke-width=".42308"/>
 <use transform="translate(0 11)" width="100%" height="100%" xlink:href="#a"/>
 <use transform="translate(11 22)" width="100%" height="100%" xlink:href="#a"/>
 <path id="i" d="m2 24v-11l1.6923 1.6923v7.6153z" fill="#f7da51" fill-rule="evenodd" stroke-width=".42308"/>
 <use transform="translate(0 11)" width="100%" height="100%" xlink:href="#i"/>
 <use transform="translate(11 22)" width="100%" height="100%" xlink:href="#i"/>
 <path id="b" d="m13 13v11l-1.6923-1.6923v-7.6153z" fill="#efc70b" fill-rule="evenodd" stroke-width=".42308"/>
 <use transform="translate(0 11)" width="100%" height="100%" xlink:href="#b"/>
 <use transform="translate(11 22)" width="100%" height="100%" xlink:href="#b"/>
 <use transform="translate(0 22)" width="100%" height="100%" xlink:href="#b"/>
 <use transform="translate(0 22)" width="100%" height="100%" xlink:href="#a"/>
 <g transform="matrix(.42308 0 0 .42307 -3.0769 -3.0768)" fill-rule="evenodd">
  <path d="m12 108v-18l4 4v18l-1.4487 1.4487s-2.5087-1.9547-2.5513-5.4487z" fill="#f7da51"/>
  <path d="m38 116h-18c-3.1531 0.0426-5.4487-2.5513-5.4487-2.5513l1.4487-1.4487h18z" fill="#e0bb0a"/>
  <path d="m38 64h52v26h26v17.931c0 4.1332-3.9521 8.1118-8 8.0692h-44v-26h-26z" fill="#1c71d8"/>
  <path id="l" d="m38 90 4-4h18l4 4z" fill="#1a68c7" fill-rule="evenodd"/>
 </g>
 <use transform="matrix(.42308 0 0 .42307 7.9231 -3.0768)" width="100%" height="100%" xlink:href="#l"/>
 <use transform="matrix(.42308 0 0 .42307 7.9227 7.9223)" width="100%" height="100%" xlink:href="#l"/>
 <path d="m35 46h7.6154c1.334 0.01802 2.3052-1.0794 2.3052-1.0794l-0.61291-0.61291h-7.6154z" fill="#1a68c7" fill-rule="evenodd" stroke-width=".42308"/>
 <path id="e" d="m13 24 1.6923 1.6923h7.6154l1.6923-1.6923z" fill="#3585e5" fill-rule="evenodd" stroke-width=".42308"/>
 <use transform="translate(11)" width="100%" height="100%" xlink:href="#e"/>
 <use transform="translate(11 11)" width="100%" height="100%" xlink:href="#e"/>
 <use transform="translate(22 11)" width="100%" height="100%" xlink:href="#e"/>
 <path id="d" d="m13 35 1.6923-1.6923v-7.6153l-1.6923-1.6923z" fill="#2078e2" fill-rule="evenodd" stroke-width=".42308"/>
 <use transform="translate(11)" width="100%" height="100%" xlink:href="#d"/>
 <use transform="translate(11 11)" width="100%" height="100%" xlink:href="#d"/>
 <use transform="translate(22 10.999)" width="100%" height="100%" xlink:href="#d"/>
 <path id="k" d="m24 35-1.6923-1.6923v-7.6153l1.6923-1.6923z" fill="#1b6bce" fill-rule="evenodd" stroke-width=".42308"/>
 <use transform="translate(11)" width="100%" height="100%" xlink:href="#k"/>
 <use transform="translate(11 11)" width="100%" height="100%" xlink:href="#k"/>
 <path d="m46 42.615v-7.6153l-1.6923 1.6923v7.6153l0.61291 0.61291s1.0614-0.82698 1.0794-2.3052z" fill="#1b6bce" fill-rule="evenodd" stroke-width=".42308"/>
</svg>
