<?xml version="1.0" encoding="UTF-8" standalone="no"?>
<svg xmlns="http://www.w3.org/2000/svg" height="64" width="64" version="1.1" xmlns:xlink="http://www.w3.org/1999/xlink">
 <rect stroke-linejoin="round" ry="1.15" height="55" width="47" stroke="#555753" y="4.5" x="8.5" fill="#eeeeec"/>
 <path d="m18.001 39-0.001 4.624c-0.0036 1.3125 1.0523 2.3674 2.3625 2.3751h4.638v-6.9971l-4.6635-0.0028z" stroke-width=".69999" fill="#edd400"/>
 <g id="f" transform="matrix(.7 0 0 .69999 15.2 15.2)">
  <rect height="10" width="10" y="4" x="24" fill="#73d216"/>
  <path d="m24 14h10v-10l-1 1v8h-8z" fill="#4e9a06"/>
  <path d="m24 14v-10h10l-1 1h-8v8z" fill="#8ae234"/>
 </g>
 <use xlink:href="#f" transform="translate(-3 -2.9999)" height="100%" width="100%" y="10" x="10"/>
 <use xlink:href="#f" transform="translate(-3 -5.9999)" height="100%" width="100%" y="20" x="10"/>
 <g id="e" transform="matrix(.7 0 0 .69999 15.2 15.2)">
  <rect height="10" width="10" y="24" x="14" fill="#3465a4"/>
  <path d="m14 34h10v-10l-1 1v8h-8z" fill="#204a87"/>
  <path d="m14 34v-10h10l-1 1h-8v8z" fill="#558bc5"/>
 </g>
 <use xlink:href="#e" transform="translate(-3,2.4e-4)" height="100%" width="100%" y="0" x="10"/>
 <use xlink:href="#e" transform="translate(-3 -2.9997)" height="100%" width="100%" y="10" x="10"/>
 <g id="d" transform="matrix(.7 0 0 .69999 15.2 15.2)">
  <rect height="10" width="10" y="14" x="4" fill="#edd400"/>
  <path d="m4 24h10v-10l-1 1v8h-8z" fill="#c4a000"/>
  <path d="m4 24v-10h10l-1 1h-8v8z" fill="#fce94f"/>
 </g>
 <use xlink:href="#d" transform="translate(0 -2.9998)" height="100%" width="100%" y="10" x="0"/>
 <use xlink:href="#d" transform="translate(-3 -5.9998)" height="100%" width="100%" y="20" x="10"/>
 <g id="b" transform="matrix(.7 0 0 .69999 22.2 15.2)">
  <rect height="10" width="10" y="4" x="4" fill="#c00"/>
  <path d="m4 14h10v-10l-1 1v8h-8z" fill="#a40000"/>
  <path d="m4 14v-10h10l-1 1h-8v8z" fill="#ef2929"/>
 </g>
 <g transform="matrix(.7 0 0 .69999 34.244 12.071)">
  <path d="m-19.832 8.47c-1.8649 0.00569-3.3624 1.5081-3.373 3.373v6.627h9.9961l0.0039-6.6641v-3.336z" fill="#c00"/>
  <path d="m-23.205 18.47h10v-10l-1 1v8h-8z" fill="#a40000"/>
  <path d="m-19.83 8.47c-1.8649 0.00569-3.3643 1.5081-3.375 3.373v6.625l1-0.99805v-8h8l1-1h-6.625zm-3.375 9.998 0.002 0.002z" fill="#ef2929"/>
 </g>
 <path d="m24.997 38.995-0.69726 0.69725v5.5999h-5.6l-0.0069 0.0069c0.4269 0.42607 1.0156 0.68941 1.668 0.69315h4.6389v-6.9972h-0.0027z" stroke-width=".69999" fill="#c4a000"/>
 <path d="m18.001 38.993-0.001 4.624c-0.0018 0.65869 0.26313 1.2523 0.69314 1.6821l0.007-0.006v-5.5999h5.5999l0.69726-0.69725-4.6607-0.0027h-2.3351z" stroke-width=".69999" fill="#fce94f"/>
 <g transform="matrix(.7 0 0 .69999 -6.5175 20.198)">
  <path d="m65.031 26.86-0.0059 7.498v2.502h6.627c1.8582-0.0057 3.3518-1.4978 3.373-3.3535v-6.646z" fill="#3465a4"/>
  <path d="m75.025 26.86-1 1v8h-8l-1 1h6.627c1.8649-0.0057 3.3624-1.5081 3.373-3.373z" fill="#204a87"/>
  <path d="m65.025 36.86v-10h10l-1 1h-8v8z" fill="#558bc5"/>
 </g>
 <g transform="matrix(.7 0 0 .69999 .5007 -.54978)">
  <path d="m54.999 26.5v9.9961l6.664 0.004h3.336v-6.627c-0.006-1.865-1.508-3.362-3.373-3.373z" fill="#73d216"/>
  <path d="m64.005 27.49-0.0098 0.0098v8h-8l-0.99609 0.99609 6.6602 0.0039h3.3359v-6.627c-0.0028-0.93246-0.37834-1.7735-0.98828-2.3828-0.000355-0.000355-0.0016 0.000355-0.002 0z" fill="#4e9a06"/>
  <path d="m54.999 26.504v9.9961h0.0039l0.99609-0.99609v-8h8l0.0098-0.0098c-0.60986-0.60868-1.4509-0.98489-2.3828-0.99023h-6.627z" fill="#8ae234"/>
 </g>
 <use id="a" xlink:href="#b" transform="translate(0 7)" height="100%" width="100%" y="0" x="0"/>
 <use xlink:href="#a" transform="translate(7,10e-5)" height="100%" width="100%" y="0" x="0"/>
</svg>
