<?xml version="1.0" encoding="UTF-8" standalone="no"?>
<svg xmlns:rdf="http://www.w3.org/1999/02/22-rdf-syntax-ns#" xmlns="http://www.w3.org/2000/svg" height="64" width="64" version="1.1" xmlns:cc="http://creativecommons.org/ns#" xmlns:dc="http://purl.org/dc/elements/1.1/">
 <rect x="6.5" y="3.5" width="47" height="55" stroke-linejoin="round" ry="1.15" stroke="#555753" fill="#fff"/>
 <rect x="8" y="5" width="44" height="52" fill="#eeeeec"/>
 <g id="a">
 <rect height="7" width="7" x="30" y="18" fill="#73d216"/>
 <path d="m30 25h7v-7l-1 1v 5h-5z" fill="#4e9a06"/>
 <path d="m30 25v-7h7l-1 1h-5v5z" fill="#8ae234"/>
 </g>
 <use xlink:href="#a" x="7"/>
 <use xlink:href="#a" x="7" y="7"/>
 <use xlink:href="#a" x="7" y="14"/>
 <g id="b">
 <rect height="7" width="7" x="23" y="32" fill="#3465a4"/>
 <path d="m23 39h7v-7l-1 1v 5h-5z" fill="#204a87"/>
 <path d="m23 39v-7h7l-1 1h-5v5z" fill="#558bc5"/>
 </g>
 <use xlink:href="#b" x="7"/>
 <use xlink:href="#b" x="7" y="7"/>
 <use xlink:href="#b" x="14" y="7"/>
 <g id="c">
 <rect height="7" width="7" x="16" y="25" fill="#edd400"/>
 <path d="m16 32h7v-7l-1 1v 5h-5z" fill="#c4a000"/>
 <path d="m16 32v-7h7l-1 1h-5v5z" fill="#fce94f"/>
 </g>
 <use xlink:href="#c" y="7"/>
 <use xlink:href="#c" y="14"/>
 <use xlink:href="#c" x="7" y="14"/>
 <g id="d">
 <rect height="7" width="7" x="16" y="18" fill="#C00"/>
 <path d="m16 25h7v-7l-1 1v 5h-5z" fill="#a40000"/>
 <path d="m16 25v-7h7l-1 1h-5v5z" fill="#ef2929"/>
 </g>
 <use xlink:href="#d" x="7"/>
 <use xlink:href="#d" x="7" y="7"/>
 <use xlink:href="#d" x="14" y="7"/>
</svg>
