<?xml version="1.0" encoding="UTF-8" standalone="no"?>
<svg xmlns:rdf="http://www.w3.org/1999/02/22-rdf-syntax-ns#" xmlns="http://www.w3.org/2000/svg" height="48" width="48" version="1.1" xmlns:cc="http://creativecommons.org/ns#" xmlns:dc="http://purl.org/dc/elements/1.1/">
 <rect x="6.5" y="3.5" width="35" height="41" stroke-linejoin="round" ry="1.15" stroke="#555753" fill="#fff"/>
 <rect x="8" y="5" width="32" height="38" fill="#eeeeec"/>
 <g id="a">
 <rect height="6" width="6" x="24" y="12" fill="#73d216"/>
 <path d="m24 18h6v-6l-1 1v4h-4z" fill="#4e9a06"/>
 <path d="m24 18v-6h6l-1 1h-4v4z" fill="#8ae234"/>
 </g>
 <use xlink:href="#a" x="6"/>
 <use xlink:href="#a" x="6" y="6"/>
 <use xlink:href="#a" x="6" y="12"/>
 <g id="b">
 <rect height="6" width="6" x="18" y="24" fill="#3465a4"/>
 <path d="m18 30h6v-6l-1 1v4h-4z" fill="#204a87"/>
 <path d="m18 30v-6h6l-1 1h-4v4z" fill="#558bc5"/>
 </g>
 <use xlink:href="#b" x="6"/>
 <use xlink:href="#b" x="6" y="6"/>
 <use xlink:href="#b" x="12" y="6"/>
 <g id="c">
 <rect height="6" width="6" x="12" y="18" fill="#edd400"/>
 <path d="m12 24h6v-6l-1 1v4h-4z" fill="#c4a000"/>
 <path d="m12 24v-6h6l-1 1h-4v4z" fill="#fce94f"/>
 </g>
 <use xlink:href="#c" y="6"/>
 <use xlink:href="#c" y="12"/>
 <use xlink:href="#c" x="6" y="12"/>
 <g id="d">
 <rect height="6" width="6" x="12" y="12" fill="#C00"/>
 <path d="m12 18h6v-6l-1 1v4h-4z" fill="#a40000"/>
 <path d="m12 18v-6h6l-1 1h-4v4z" fill="#ef2929"/>
 </g>
 <use xlink:href="#d" x="6"/>
 <use xlink:href="#d" x="6" y="6"/>
 <use xlink:href="#d" x="12" y="6"/>
</svg>
