<?xml version="1.0" encoding="UTF-8" standalone="no"?>
<svg xmlns:rdf="http://www.w3.org/1999/02/22-rdf-syntax-ns#" xmlns="http://www.w3.org/2000/svg" height="48" width="48" version="1.1" xmlns:cc="http://creativecommons.org/ns#" xmlns:dc="http://purl.org/dc/elements/1.1/">
<defs>
<radialGradient id="a" gradientUnits="userSpaceOnUse" cy="24.107" cx="24.041" gradientTransform="matrix(1.003582 0 0 1.170784 -.1258289 -4.225075)" r="17.938">
<stop stop-color="#fbfbfb" offset="0"/>
<stop stop-color="#edeeeb" offset="1"/>
</radialGradient>
</defs>
<rect stroke-linejoin="round" style="color:#000000" ry="1.1513" height="41" width="35" stroke="#555753" stroke-linecap="round" y="3.4987" x="6.5014" stroke-width="1.0001" display="block" fill="url(#a)"/>
<rect stroke-linejoin="round" style="color:#000000" rx=".14905" ry=".14905" height="38.946" width="32.776" stroke="#FFF" stroke-linecap="round" y="4.5839" x="7.6661" display="block" fill="none"/>
<g transform="translate(-38 -1)">
<g transform="matrix(.8571428 0 0 .8571428 62.85714 .1428576)">
<rect opacity=".99" fill-rule="evenodd" rx=".92959" ry="0" height="7" width="7" y="15" x="-15" fill="#C00"/>
<path d="m-15 22 0.000001-1.1667h5.8333v-5.8333h1.1667v7z" fill="#a40000"/>
<path d="m-15 22v-7h7l-1.1667 1.1667-4.7133-0.047 0.04667 4.7133z" fill="#ef2929"/>
</g>
<g transform="matrix(.8571428 0 0 .8571428 62.85714 13)">
<rect opacity=".99" fill-rule="evenodd" rx=".92959" ry="0" height="7" width="7" y="7" x="-15" fill="#edd400"/>
<path d="m-15 14 0.000001-1.1667h5.8333v-5.8333l1.1667 0.0003v7z" fill="#c4a000"/>
<path d="m-15 14v-7h7l-1.1667 1.1667h-4.6667v4.6667z" fill="#fce94f"/>
</g>
<g transform="matrix(.8571428 0 0 .8571428 74.81356 6.956416)">
<rect opacity=".99" fill-rule="evenodd" rx=".92959" ry="0" height="7" width="7" y="7.0508" x="-14.949" fill="#73d216"/>
<path d="m-14.949 14.051v-1h6v-6h1v7z" fill="#4e9a06"/>
<path d="m-14.949 14.051v-7h7l-1 1h-5v5z" fill="#8ae234"/>
<rect opacity=".99" fill-rule="evenodd" rx="1.1667" ry="0" height="7" width="7" y="7.0508" x="-14.949" fill="#73d216"/>
<path d="m-14.949 14.051v-1.1667h5.8333v-5.8333l1.1667-2e-7v7z" fill="#4e9a06"/>
<path d="m-14.949 14.051v-7h7l-1.1667 1.1667h-4.6667v4.6667z" fill="#8ae234"/>
</g>
<g transform="matrix(.8571428 0 0 .8571428 68.87167 18.97094)">
<rect opacity=".99" fill-rule="evenodd" rx=".92959" ry="0" height="7" width="7" y="7.0339" x="-15.017" fill="#73d216"/>
<path d="m-15.017 14.034v-1h6v-6h1v7z" fill="#4e9a06"/>
<path d="m-15.017 14.034v-7h7l-1 1h-5v5z" fill="#8ae234"/>
<rect opacity=".99" fill-rule="evenodd" rx=".92959" ry="0" height="7" width="7" y="7.0339" x="-15.017" fill="#3465a4"/>
<path d="m-15.017 14.034v-1.1667h5.8333v-5.8333l1.1667-3e-7v7z" fill="#204a87"/>
<path d="m-15.017 14.034v-7h7l-1.1667 1.1667h-4.6667v4.6667z" fill="#558bc5"/>
</g>
<g transform="matrix(.8571428 0 0 .8571428 68.85714 .1428576)">
<rect opacity=".99" fill-rule="evenodd" rx=".92959" ry="0" height="7" width="7" y="15" x="-15" fill="#C00"/>
<path d="m-15 22 0.000001-1.1667h5.8333v-5.8333h1.1667v7z" fill="#a40000"/>
<path d="m-15 22v-7h7l-1.1667 1.1667-4.7133-0.047 0.04667 4.7133z" fill="#ef2929"/>
</g>
<g transform="matrix(.8571428 0 0 .8571428 68.85714 6.142858)">
<rect opacity=".99" fill-rule="evenodd" rx=".92959" ry="0" height="7" width="7" y="15" x="-15" fill="#C00"/>
<path d="m-15 22 0.000001-1.1667h5.8333v-5.8333h1.1667v7z" fill="#a40000"/>
<path d="m-15 22v-7h7l-1.1667 1.1667-4.7133-0.047 0.04667 4.7133z" fill="#ef2929"/>
</g>
<g transform="matrix(.8571428 0 0 .8571428 74.85714 6.142858)">
<rect opacity=".99" fill-rule="evenodd" rx=".92959" ry="0" height="7" width="7" y="15" x="-15" fill="#C00"/>
<path d="m-15 22 0.000001-1.1667h5.8333v-5.8333h1.1667v7z" fill="#a40000"/>
<path d="m-15 22v-7h7l-1.1667 1.1667-4.7133-0.047 0.04667 4.7133z" fill="#ef2929"/>
</g>
<g transform="matrix(.8571428 0 0 .8571428 62.85714 19)">
<rect opacity=".99" fill-rule="evenodd" rx=".92959" ry="0" height="7" width="7" y="7" x="-15" fill="#edd400"/>
<path d="m-15 14 0.000001-1.1667h5.8333v-5.8333l1.1667 0.0003v7z" fill="#c4a000"/>
<path d="m-15 14v-7h7l-1.1667 1.1667h-4.6667v4.6667z" fill="#fce94f"/>
</g>
<g transform="matrix(.8571428 0 0 .8571428 62.85714 25)">
<rect opacity=".99" fill-rule="evenodd" rx=".92959" ry="0" height="7" width="7" y="7" x="-15" fill="#edd400"/>
<path d="m-15 14 0.000001-1.1667h5.8333v-5.8333l1.1667 0.0003v7z" fill="#c4a000"/>
<path d="m-15 14v-7h7l-1.1667 1.1667h-4.6667v4.6667z" fill="#fce94f"/>
</g>
<g transform="matrix(.8571428 0 0 .8571428 68.85714 25)">
<rect opacity=".99" fill-rule="evenodd" rx=".92959" ry="0" height="7" width="7" y="7" x="-15" fill="#edd400"/>
<path d="m-15 14 0.000001-1.1667h5.8333v-5.8333l1.1667 0.0003v7z" fill="#c4a000"/>
<path d="m-15 14v-7h7l-1.1667 1.1667h-4.6667v4.6667z" fill="#fce94f"/>
</g>
<g transform="matrix(.8571428 0 0 .8571428 74.87167 18.97094)">
<rect opacity=".99" fill-rule="evenodd" rx=".92959" ry="0" height="7" width="7" y="7.0339" x="-15.017" fill="#73d216"/>
<path d="m-15.017 14.034v-1h6v-6h1v7z" fill="#4e9a06"/>
<path d="m-15.017 14.034v-7h7l-1 1h-5v5z" fill="#8ae234"/>
<rect opacity=".99" fill-rule="evenodd" rx=".92959" ry="0" height="7" width="7" y="7.0339" x="-15.017" fill="#3465a4"/>
<path d="m-15.017 14.034v-1.1667h5.8333v-5.8333l1.1667-3e-7v7z" fill="#204a87"/>
<path d="m-15.017 14.034v-7h7l-1.1667 1.1667h-4.6667v4.6667z" fill="#558bc5"/>
</g>
<g transform="matrix(.8571428 0 0 .8571428 74.87167 24.97094)">
<rect opacity=".99" fill-rule="evenodd" rx=".92959" ry="0" height="7" width="7" y="7.0339" x="-15.017" fill="#73d216"/>
<path d="m-15.017 14.034v-1h6v-6h1v7z" fill="#4e9a06"/>
<path d="m-15.017 14.034v-7h7l-1 1h-5v5z" fill="#8ae234"/>
<rect opacity=".99" fill-rule="evenodd" rx=".92959" ry="0" height="7" width="7" y="7.0339" x="-15.017" fill="#3465a4"/>
<path d="m-15.017 14.034v-1.1667h5.8333v-5.8333l1.1667-3e-7v7z" fill="#204a87"/>
<path d="m-15.017 14.034v-7h7l-1.1667 1.1667h-4.6667v4.6667z" fill="#558bc5"/>
</g>
<g transform="matrix(.8571428 0 0 .8571428 80.87167 24.97094)">
<rect opacity=".99" fill-rule="evenodd" rx=".92959" ry="0" height="7" width="7" y="7.0339" x="-15.017" fill="#73d216"/>
<path d="m-15.017 14.034v-1h6v-6h1v7z" fill="#4e9a06"/>
<path d="m-15.017 14.034v-7h7l-1 1h-5v5z" fill="#8ae234"/>
<rect opacity=".99" fill-rule="evenodd" rx=".92959" ry="0" height="7" width="7" y="7.0339" x="-15.017" fill="#3465a4"/>
<path d="m-15.017 14.034v-1.1667h5.8333v-5.8333l1.1667-3e-7v7z" fill="#204a87"/>
<path d="m-15.017 14.034v-7h7l-1.1667 1.1667h-4.6667v4.6667z" fill="#558bc5"/>
</g>
<g transform="matrix(.8571428 0 0 .8571428 80.81356 6.956416)">
<rect opacity=".99" fill-rule="evenodd" rx=".92959" ry="0" height="7" width="7" y="7.0508" x="-14.949" fill="#73d216"/>
<path d="m-14.949 14.051v-1h6v-6h1v7z" fill="#4e9a06"/>
<path d="m-14.949 14.051v-7h7l-1 1h-5v5z" fill="#8ae234"/>
<rect opacity=".99" fill-rule="evenodd" rx="1.1667" ry="0" height="7" width="7" y="7.0508" x="-14.949" fill="#73d216"/>
<path d="m-14.949 14.051v-1.1667h5.8333v-5.8333l1.1667-2e-7v7z" fill="#4e9a06"/>
<path d="m-14.949 14.051v-7h7l-1.1667 1.1667h-4.6667v4.6667z" fill="#8ae234"/>
</g>
<g transform="matrix(.8571428 0 0 .8571428 80.81356 12.95642)">
<rect opacity=".99" fill-rule="evenodd" rx=".92959" ry="0" height="7" width="7" y="7.0508" x="-14.949" fill="#73d216"/>
<path d="m-14.949 14.051v-1h6v-6h1v7z" fill="#4e9a06"/>
<path d="m-14.949 14.051v-7h7l-1 1h-5v5z" fill="#8ae234"/>
<rect opacity=".99" fill-rule="evenodd" rx="1.1667" ry="0" height="7" width="7" y="7.0508" x="-14.949" fill="#73d216"/>
<path d="m-14.949 14.051v-1.1667h5.8333v-5.8333l1.1667-2e-7v7z" fill="#4e9a06"/>
<path d="m-14.949 14.051v-7h7l-1.1667 1.1667h-4.6667v4.6667z" fill="#8ae234"/>
</g>
<g transform="matrix(.8571428 0 0 .8571428 80.81356 18.95642)">
<rect opacity=".99" fill-rule="evenodd" rx=".92959" ry="0" height="7" width="7" y="7.0508" x="-14.949" fill="#73d216"/>
<path d="m-14.949 14.051v-1h6v-6h1v7z" fill="#4e9a06"/>
<path d="m-14.949 14.051v-7h7l-1 1h-5v5z" fill="#8ae234"/>
<rect opacity=".99" fill-rule="evenodd" rx="1.1667" ry="0" height="7" width="7" y="7.0508" x="-14.949" fill="#73d216"/>
<path d="m-14.949 14.051v-1.1667h5.8333v-5.8333l1.1667-2e-7v7z" fill="#4e9a06"/>
<path d="m-14.949 14.051v-7h7l-1.1667 1.1667h-4.6667v4.6667z" fill="#8ae234"/>
</g>
</g>
</svg>
