<?xml version="1.0" encoding="UTF-8" standalone="no"?>
<!-- Created with Inkscape (http://www.inkscape.org/) -->
<svg xmlns:rdf="http://www.w3.org/1999/02/22-rdf-syntax-ns#" xmlns="http://www.w3.org/2000/svg" height="48" width="48" version="1.1" xmlns:cc="http://creativecommons.org/ns#" xmlns:dc="http://purl.org/dc/elements/1.1/">
<defs>
<radialGradient id="radialGradient4522" gradientUnits="userSpaceOnUse" cy="24.107" cx="24.041" gradientTransform="matrix(1.0035822,0,0,1.1707838,-0.12582891,-4.2250754)" r="17.938">
<stop stop-color="#fbfbfb" offset="0"/>
<stop stop-color="#edeeeb" offset="1"/>
</radialGradient>
</defs>
<metadata>
<rdf:RDF>
<cc:Work rdf:about="">
<dc:format>image/svg+xml</dc:format>
<dc:type rdf:resource="http://purl.org/dc/dcmitype/StillImage"/>
<dc:title/>
<dc:subject>
<rdf:Bag>
<rdf:li>text</rdf:li>
<rdf:li>plaintext</rdf:li>
<rdf:li>regular</rdf:li>
<rdf:li>script</rdf:li>
<rdf:li>shell</rdf:li>
<rdf:li>bash</rdf:li>
<rdf:li>python</rdf:li>
<rdf:li>perl</rdf:li>
<rdf:li>php</rdf:li>
<rdf:li>ruby</rdf:li>
</rdf:Bag>
</dc:subject>
<cc:license rdf:resource="http://creativecommons.org/licenses/publicdomain/"/>
<dc:creator>
<cc:Agent>
<dc:title>Jakub Steiner</dc:title>
</cc:Agent>
</dc:creator>
<dc:source>http://jimmac.musichall.cz</dc:source>
</cc:Work>
<cc:License rdf:about="http://creativecommons.org/licenses/publicdomain/">
<cc:permits rdf:resource="http://creativecommons.org/ns#Reproduction"/>
<cc:permits rdf:resource="http://creativecommons.org/ns#Distribution"/>
<cc:permits rdf:resource="http://creativecommons.org/ns#DerivativeWorks"/>
</cc:License>
</rdf:RDF>
</metadata>
<rect stroke-linejoin="round" ry="1.1513" style="color:#000000;" stroke-width="1.0001" fill-rule="nonzero" stroke-dashoffset="0" display="block" width="35" stroke="#555753" stroke-linecap="round" stroke-dasharray="none" x="6.5014" y="3.4987" stroke-miterlimit="4" height="41" fill="url(#radialGradient4522)"/>
<rect stroke-linejoin="round" ry="0.14905" style="color:#000000;" stroke-width="1" rx="0.14905" stroke-dashoffset="0" display="block" width="32.776" stroke="#FFF" stroke-linecap="round" stroke-miterlimit="4" y="4.5839" x="7.6661" height="38.946" fill="none"/>
<g transform="translate(-38,-1.0000002)">
<g transform="matrix(0.85714283,0,0,0.85714284,62.857142,0.14285757)">
<rect opacity="0.99" fill-rule="evenodd" rx="0.92959" ry="0" height="7" width="7" y="15" x="-15" fill="#C00"/>
<path d="m-15,22,0.000001-1.1667,5.8333,0,0-5.8333h1.1667v7z" fill="#a40000"/>
<path d="m-15,22,0-7,7,0-1.1667,1.1667l-4.7133-0.047,0.04667,4.7133z" fill="#ef2929"/>
</g>
<g transform="matrix(0.85714283,0,0,0.85714284,62.857142,13)">
<rect opacity="0.99" fill-rule="evenodd" rx="0.92959" ry="0" height="7" width="7" y="7" x="-15" fill="#edd400"/>
<path d="m-15,14,0.000001-1.1667,5.8333,0,0-5.8333l1.1667,0.0003v7z" fill="#c4a000"/>
<path d="m-15,14,0-7,7,0-1.1667,1.1667-4.6667,0,0,4.6667z" fill="#fce94f"/>
</g>
<g transform="matrix(0.85714283,0,0,0.85714284,74.813559,6.9564164)">
<rect opacity="0.99" fill-rule="evenodd" rx="0.92959" ry="0" height="7" width="7" y="7.0508" x="-14.949" fill="#73d216"/>
<path d="m-14.949,14.051,0-1,6,0,0-6,1,0,0,7z" fill="#4e9a06"/>
<path d="m-14.949,14.051,0-7,7,0-1,1-5,0,0,5z" fill="#8ae234"/>
<rect opacity="0.99" fill-rule="evenodd" rx="1.1667" ry="0" height="7" width="7" y="7.0508" x="-14.949" fill="#73d216"/>
<path d="m-14.949,14.051,0-1.1667,5.8333,0,0-5.8333,1.1667-2E-7,0,7z" fill="#4e9a06"/>
<path d="m-14.949,14.051,0-7,7,0-1.1667,1.1667-4.6667,0,0,4.6667z" fill="#8ae234"/>
</g>
<g transform="matrix(0.85714283,0,0,0.85714284,68.87167,18.970945)">
<rect opacity="0.99" fill-rule="evenodd" rx="0.92959" ry="0" height="7" width="7" y="7.0339" x="-15.017" fill="#73d216"/>
<path d="m-15.017,14.034,0-1,6,0,0-6,1,0,0,7z" fill="#4e9a06"/>
<path d="m-15.017,14.034,0-7,7,0-1,1-5,0,0,5z" fill="#8ae234"/>
<rect opacity="0.99" fill-rule="evenodd" rx="0.92959" ry="0" height="7" width="7" y="7.0339" x="-15.017" fill="#3465a4"/>
<path d="m-15.017,14.034,0-1.1667,5.8333,0,0-5.8333,1.1667-3E-7,0,7z" fill="#204a87"/>
<path d="m-15.017,14.034,0-7,7,0-1.1667,1.1667-4.6667,0,0,4.6667z" fill="#558bc5"/>
</g>
<g transform="matrix(0.85714283,0,0,0.85714284,68.857142,0.14285757)">
<rect opacity="0.99" fill-rule="evenodd" rx="0.92959" ry="0" height="7" width="7" y="15" x="-15" fill="#C00"/>
<path d="m-15,22,0.000001-1.1667,5.8333,0,0-5.8333h1.1667v7z" fill="#a40000"/>
<path d="m-15,22,0-7,7,0-1.1667,1.1667l-4.7133-0.047,0.04667,4.7133z" fill="#ef2929"/>
</g>
<g transform="matrix(0.85714283,0,0,0.85714284,68.857142,6.1428575)">
<rect opacity="0.99" fill-rule="evenodd" rx="0.92959" ry="0" height="7" width="7" y="15" x="-15" fill="#C00"/>
<path d="m-15,22,0.000001-1.1667,5.8333,0,0-5.8333h1.1667v7z" fill="#a40000"/>
<path d="m-15,22,0-7,7,0-1.1667,1.1667l-4.7133-0.047,0.04667,4.7133z" fill="#ef2929"/>
</g>
<g transform="matrix(0.85714283,0,0,0.85714284,74.857142,6.1428575)">
<rect opacity="0.99" fill-rule="evenodd" rx="0.92959" ry="0" height="7" width="7" y="15" x="-15" fill="#C00"/>
<path d="m-15,22,0.000001-1.1667,5.8333,0,0-5.8333h1.1667v7z" fill="#a40000"/>
<path d="m-15,22,0-7,7,0-1.1667,1.1667l-4.7133-0.047,0.04667,4.7133z" fill="#ef2929"/>
</g>
<g transform="matrix(0.85714283,0,0,0.85714284,62.857142,19)">
<rect opacity="0.99" fill-rule="evenodd" rx="0.92959" ry="0" height="7" width="7" y="7" x="-15" fill="#edd400"/>
<path d="m-15,14,0.000001-1.1667,5.8333,0,0-5.8333l1.1667,0.0003v7z" fill="#c4a000"/>
<path d="m-15,14,0-7,7,0-1.1667,1.1667-4.6667,0,0,4.6667z" fill="#fce94f"/>
</g>
<g transform="matrix(0.85714283,0,0,0.85714284,62.857142,25)">
<rect opacity="0.99" fill-rule="evenodd" rx="0.92959" ry="0" height="7" width="7" y="7" x="-15" fill="#edd400"/>
<path d="m-15,14,0.000001-1.1667,5.8333,0,0-5.8333l1.1667,0.0003v7z" fill="#c4a000"/>
<path d="m-15,14,0-7,7,0-1.1667,1.1667-4.6667,0,0,4.6667z" fill="#fce94f"/>
</g>
<g transform="matrix(0.85714283,0,0,0.85714284,68.857142,25)">
<rect opacity="0.99" fill-rule="evenodd" rx="0.92959" ry="0" height="7" width="7" y="7" x="-15" fill="#edd400"/>
<path d="m-15,14,0.000001-1.1667,5.8333,0,0-5.8333l1.1667,0.0003v7z" fill="#c4a000"/>
<path d="m-15,14,0-7,7,0-1.1667,1.1667-4.6667,0,0,4.6667z" fill="#fce94f"/>
</g>
<g transform="matrix(0.85714283,0,0,0.85714284,74.87167,18.970945)">
<rect opacity="0.99" fill-rule="evenodd" rx="0.92959" ry="0" height="7" width="7" y="7.0339" x="-15.017" fill="#73d216"/>
<path d="m-15.017,14.034,0-1,6,0,0-6,1,0,0,7z" fill="#4e9a06"/>
<path d="m-15.017,14.034,0-7,7,0-1,1-5,0,0,5z" fill="#8ae234"/>
<rect opacity="0.99" fill-rule="evenodd" rx="0.92959" ry="0" height="7" width="7" y="7.0339" x="-15.017" fill="#3465a4"/>
<path d="m-15.017,14.034,0-1.1667,5.8333,0,0-5.8333,1.1667-3E-7,0,7z" fill="#204a87"/>
<path d="m-15.017,14.034,0-7,7,0-1.1667,1.1667-4.6667,0,0,4.6667z" fill="#558bc5"/>
</g>
<g transform="matrix(0.85714283,0,0,0.85714284,74.87167,24.970945)">
<rect opacity="0.99" fill-rule="evenodd" rx="0.92959" ry="0" height="7" width="7" y="7.0339" x="-15.017" fill="#73d216"/>
<path d="m-15.017,14.034,0-1,6,0,0-6,1,0,0,7z" fill="#4e9a06"/>
<path d="m-15.017,14.034,0-7,7,0-1,1-5,0,0,5z" fill="#8ae234"/>
<rect opacity="0.99" fill-rule="evenodd" rx="0.92959" ry="0" height="7" width="7" y="7.0339" x="-15.017" fill="#3465a4"/>
<path d="m-15.017,14.034,0-1.1667,5.8333,0,0-5.8333,1.1667-3E-7,0,7z" fill="#204a87"/>
<path d="m-15.017,14.034,0-7,7,0-1.1667,1.1667-4.6667,0,0,4.6667z" fill="#558bc5"/>
</g>
<g transform="matrix(0.85714283,0,0,0.85714284,80.87167,24.970945)">
<rect opacity="0.99" fill-rule="evenodd" rx="0.92959" ry="0" height="7" width="7" y="7.0339" x="-15.017" fill="#73d216"/>
<path d="m-15.017,14.034,0-1,6,0,0-6,1,0,0,7z" fill="#4e9a06"/>
<path d="m-15.017,14.034,0-7,7,0-1,1-5,0,0,5z" fill="#8ae234"/>
<rect opacity="0.99" fill-rule="evenodd" rx="0.92959" ry="0" height="7" width="7" y="7.0339" x="-15.017" fill="#3465a4"/>
<path d="m-15.017,14.034,0-1.1667,5.8333,0,0-5.8333,1.1667-3E-7,0,7z" fill="#204a87"/>
<path d="m-15.017,14.034,0-7,7,0-1.1667,1.1667-4.6667,0,0,4.6667z" fill="#558bc5"/>
</g>
<g transform="matrix(0.85714283,0,0,0.85714284,80.813559,6.9564164)">
<rect opacity="0.99" fill-rule="evenodd" rx="0.92959" ry="0" height="7" width="7" y="7.0508" x="-14.949" fill="#73d216"/>
<path d="m-14.949,14.051,0-1,6,0,0-6,1,0,0,7z" fill="#4e9a06"/>
<path d="m-14.949,14.051,0-7,7,0-1,1-5,0,0,5z" fill="#8ae234"/>
<rect opacity="0.99" fill-rule="evenodd" rx="1.1667" ry="0" height="7" width="7" y="7.0508" x="-14.949" fill="#73d216"/>
<path d="m-14.949,14.051,0-1.1667,5.8333,0,0-5.8333,1.1667-2E-7,0,7z" fill="#4e9a06"/>
<path d="m-14.949,14.051,0-7,7,0-1.1667,1.1667-4.6667,0,0,4.6667z" fill="#8ae234"/>
</g>
<g transform="matrix(0.85714283,0,0,0.85714284,80.813559,12.956416)">
<rect opacity="0.99" fill-rule="evenodd" rx="0.92959" ry="0" height="7" width="7" y="7.0508" x="-14.949" fill="#73d216"/>
<path d="m-14.949,14.051,0-1,6,0,0-6,1,0,0,7z" fill="#4e9a06"/>
<path d="m-14.949,14.051,0-7,7,0-1,1-5,0,0,5z" fill="#8ae234"/>
<rect opacity="0.99" fill-rule="evenodd" rx="1.1667" ry="0" height="7" width="7" y="7.0508" x="-14.949" fill="#73d216"/>
<path d="m-14.949,14.051,0-1.1667,5.8333,0,0-5.8333,1.1667-2E-7,0,7z" fill="#4e9a06"/>
<path d="m-14.949,14.051,0-7,7,0-1.1667,1.1667-4.6667,0,0,4.6667z" fill="#8ae234"/>
</g>
<g transform="matrix(0.85714283,0,0,0.85714284,80.813559,18.956416)">
<rect opacity="0.99" fill-rule="evenodd" rx="0.92959" ry="0" height="7" width="7" y="7.0508" x="-14.949" fill="#73d216"/>
<path d="m-14.949,14.051,0-1,6,0,0-6,1,0,0,7z" fill="#4e9a06"/>
<path d="m-14.949,14.051,0-7,7,0-1,1-5,0,0,5z" fill="#8ae234"/>
<rect opacity="0.99" fill-rule="evenodd" rx="1.1667" ry="0" height="7" width="7" y="7.0508" x="-14.949" fill="#73d216"/>
<path d="m-14.949,14.051,0-1.1667,5.8333,0,0-5.8333,1.1667-2E-7,0,7z" fill="#4e9a06"/>
<path d="m-14.949,14.051,0-7,7,0-1.1667,1.1667-4.6667,0,0,4.6667z" fill="#8ae234"/>
</g>
</g>
</svg>
