<?xml version="1.0" encoding="UTF-8" standalone="no"?>
<svg xmlns:rdf="http://www.w3.org/1999/02/22-rdf-syntax-ns#" xmlns="http://www.w3.org/2000/svg" height="16" width="16" version="1.1" xmlns:cc="http://creativecommons.org/ns#" xmlns:dc="http://purl.org/dc/elements/1.1/">
<defs>
<radialGradient id="b" gradientUnits="userSpaceOnUse" cy="24.107" cx="24.041" gradientTransform="matrix(.3727649 0 0 .4283413 -.9616617 29.67411)" r="17.938">
<stop stop-color="#fbfbfb" offset="0"/>
<stop stop-color="#edeeeb" offset="1"/>
</radialGradient>
<linearGradient id="a" y2="37.038" gradientUnits="userSpaceOnUse" x2="8.74" gradientTransform="translate(-4.065864 -11.88909)" y1="35.359" x1="7.7452">
<stop stop-color="#FFF" stop-opacity=".3828996" offset="0"/>
<stop stop-color="#FFF" stop-opacity="0" offset="1"/>
</linearGradient>
<linearGradient id="e" y2="25.149" gradientUnits="userSpaceOnUse" x2="4.5858" y1="23.735" x1="3.6794">
<stop stop-color="#FFF" stop-opacity=".4907063" offset="0"/>
<stop stop-color="#FFF" stop-opacity="0" offset="1"/>
</linearGradient>
<linearGradient id="c" y2="32.951" gradientUnits="userSpaceOnUse" x2="-4.5616" gradientTransform="translate(8.661204 -6.878681)" y1="34.895" x1="-4.3189">
<stop stop-color="#ddc600" offset="0"/>
<stop stop-color="#ffec46" stop-opacity=".9809524" offset="1"/>
</linearGradient>
<linearGradient id="d" y2="31.497" gradientUnits="userSpaceOnUse" x2="-12.044" gradientTransform="matrix(.2710454 0 0 .2710451 7.103142 17.31282)" y1="39.718" x1="-9.9692">
<stop stop-color="#e4cc00" offset="0"/>
<stop stop-color="#fff283" offset="1"/>
</linearGradient>
</defs>
<g transform="translate(0,-32)">
<rect stroke-linejoin="round" style="color:#000000" ry=".42121" height="15" width="13" stroke="#7c7f79" stroke-linecap="round" y="32.5" x="1.4999" stroke-width=".99982" display="block" fill="url(#b)"/>
<rect stroke-linejoin="round" style="color:#000000" rx=".050024" ry=".049752" height="13" width="11" stroke="#FFF" stroke-linecap="round" y="33.5" x="2.4999" stroke-width=".99972" display="block" fill="none"/>
<g transform="translate(2 14)">
<rect rx=".34433" ry="0" height="4" width="4" y="22" x="2" fill="#ef2929"/>
<path d="m2.5002 25.5v-2.9996h2.9996" stroke="url(#a)" stroke-linecap="square" stroke-width="1.000366" fill="none"/>
</g>
<g transform="translate(6 14)">
<rect rx=".34433" ry="0" height="4" width="4" y="22" x="2" fill="#73d216"/>
<path d="m2.5002 25.5v-2.9996h2.9996" stroke="url(#e)" stroke-linecap="square" stroke-width="1.000366" fill="none"/>
</g>
<g transform="translate(2 15)">
<rect rx=".34433" ry="0" height="4" width="4" y="25" x="2" fill="url(#c)"/>
<path d="m2.5002 28.5v-2.9996h2.9996" stroke="url(#d)" stroke-linecap="square" stroke-width="1.000366" fill="none"/>
</g>
<g transform="translate(6 18)" fill="#3465a4">
<rect rx=".34433" ry="0" height="4" width="4" y="22" x="2"/>
<path d="m2.5002 25.5v-2.9996h2.9996" stroke="url(#a)" stroke-linecap="square" stroke-width="1.000366"/>
</g>
</g>
</svg>
