<?xml version="1.0" encoding="UTF-8" standalone="no"?>
<svg xmlns:rdf="http://www.w3.org/1999/02/22-rdf-syntax-ns#" xmlns="http://www.w3.org/2000/svg" height="64" width="64" version="1.1" xmlns:cc="http://creativecommons.org/ns#" xmlns:xlink="http://www.w3.org/1999/xlink" xmlns:dc="http://purl.org/dc/elements/1.1/">
<defs>
<radialGradient id="g" gradientUnits="userSpaceOnUse" cy="24.107" cx="24.041" gradientTransform="matrix(1.406912 0 0 1.629612 -1.772292 -7.218105)" r="17.938">
<stop stop-color="#fbfbfb" offset="0"/>
<stop stop-color="#edeeeb" offset="1"/>
</radialGradient>
</defs>
<rect stroke-linejoin="round" style="color:#000000" ry="1.6025" height="57.068" width="49.066" stroke="#555753" stroke-linecap="round" y="3.5326" x="7.5183" stroke-width="1.0001" display="block" fill="url(#g)"/>
<rect stroke-linejoin="round" style="color:#000000" rx=".2130253" ry=".2086032" height="54.50772" width="46.84415" stroke="#fff" stroke-linecap="round" y="4.744484" x="8.628346" display="block" fill="none"/>
<g id="f" transform="translate(33,3)">
<rect opacity="0.99" fill-rule="evenodd" rx="0.92959" ry="0" height="7" width="7" y="15" x="-15" fill="#c00"/>
<path d="m-15 22v-1h6v-6h1v7z" fill="#a40000"/>
<path d="m-15 22v-7h7l-1 1h-5v5z" fill="#ef2929"/>
</g>
<g id="d" transform="translate(33,18)">
<rect opacity="0.99" fill-rule="evenodd" rx="0.92959" ry="0" height="7" width="7" y="7" x="-15" fill="#edd400"/>
<path d="m-15 14v-1h6v-6h1v7z" fill="#c4a000"/>
<path d="m-15 14v-7h7l-1 1h-5v5z" fill="#fce94f"/>
</g>
<g id="c" transform="translate(46.949,10.949)">
<rect opacity="0.99" fill-rule="evenodd" rx="0.92959" ry="0" height="7" width="7" y="7.0508" x="-14.949" fill="#73d216"/>
<path d="m-14.949 14.051v-1h6v-6h1v7z" fill="#4e9a06"/>
<path d="m-14.949 14.051v-7h7l-1 1h-5v5z" fill="#8ae234"/>
<rect opacity="0.99" fill-rule="evenodd" rx="0.92959" ry="0" height="7" width="7" y="7.0508" x="-14.949" fill="#73d216"/>
<path d="m-14.949 14.051v-1h6v-6h1v7z" fill="#4e9a06"/>
<path d="m-14.949 14.051v-7h7l-1 1h-5v5z" fill="#8ae234"/>
</g>
<g id="e" transform="translate(40.017,24.966)">
<rect opacity="0.99" fill-rule="evenodd" rx="0.92959" ry="0" height="7" width="7" y="7.0339" x="-15.017" fill="#73d216"/>
<path d="m-15.017 14.034v-1h6v-6h1v7z" fill="#4e9a06"/>
<path d="m-15.017 14.034v-7h7l-1 1h-5v5z" fill="#8ae234"/>
<rect opacity="0.99" fill-rule="evenodd" rx="0.92959" ry="0" height="7" width="7" y="7.0339" x="-15.017" fill="#3465a4"/>
<path d="m-15.017 14.034v-1h6v-6h1v7z" fill="#204a87"/>
<path d="m-15.017 14.034v-7h7l-1 1h-5v5z" fill="#558bc5"/>
</g>
<use xlink:href="#f" transform="translate(7)" height="100%" width="100%" y="0" x="0"/>
<use xlink:href="#f" transform="translate(7,7)" height="100%" width="100%" y="0" x="0"/>
<use xlink:href="#f" transform="translate(14,7)" height="100%" width="100%" y="0" x="0"/>
<use xlink:href="#c" transform="translate(7)" height="100%" width="100%" y="0" x="0"/>
<use xlink:href="#c" transform="translate(7,7)" height="100%" width="100%" y="0" x="0"/>
<use xlink:href="#c" transform="translate(7,14)" height="100%" width="100%" y="0" x="0"/>
<use xlink:href="#d" transform="translate(0,7)" height="100%" width="100%" y="0" x="0"/>
<use xlink:href="#d" transform="translate(0,14)" height="100%" width="100%" y="0" x="0"/>
<use xlink:href="#d" transform="translate(7,14)" height="100%" width="100%" y="0" x="0"/>
<use xlink:href="#e" transform="translate(7)" height="100%" width="100%" y="0" x="0"/>
<use xlink:href="#e" transform="translate(7 7)" height="100%" width="100%" y="0" x="0"/>
<use xlink:href="#e" transform="translate(14,7)" height="100%" width="100%" y="0" x="0"/>
</svg>
