<?xml version="1.0" encoding="UTF-8" standalone="no"?>
<svg xmlns:rdf="http://www.w3.org/1999/02/22-rdf-syntax-ns#" xmlns="http://www.w3.org/2000/svg" height="48" width="48" version="1.1" xmlns:cc="http://creativecommons.org/ns#" xmlns:xlink="http://www.w3.org/1999/xlink" xmlns:dc="http://purl.org/dc/elements/1.1/">
<g id="e" transform="matrix(1.099991 0 0 1.099983 18.49986 -17.799)">
<rect opacity="0.99" fill-rule="evenodd" rx="0" ry="0" height="10" width="10" y="18" x="-15" fill="#c00"/>
<path fill-opacity=".1568628" d="m-15 28 0.909098-0.909578h8.181886v-8.181946l0.9093462-0.909106v10z"/>
<path d="m-15 28v-10h10l-0.9090162 0.908476h-8.181886v8.181946z" fill-opacity=".1568628" fill="#fff"/>
</g>
<use xlink:href="#e" transform="translate(10.99991)" height="48" width="48" y="0" x="0"/>
<use xlink:href="#e" transform="translate(10.99991 10.99983)" height="48" width="48" y="0" x="0"/>
<use xlink:href="#e" transform="translate(21.99982 10.99983)" height="48" width="48" y="0" x="0"/>
<g id="f" transform="matrix(1.099991 0 0 1.099983 18.49986 -6.79917)">
<rect opacity="0.99" fill-rule="evenodd" rx="0" ry="0" height="10" width="10" y="18" x="-15" fill="#edd400"/>
<path fill-opacity=".1568628" d="m-15 28 0.909098-0.90942h8.181886v-8.181947l0.9093462-0.909263v10z"/>
<path d="m-15 28v-10h10l-0.9090162 0.908633h-8.181886v8.181947z" fill-opacity=".1568628" fill="#fff"/>
</g>
<use xlink:href="#f" transform="translate(1.222212e-8 10.99983)" height="72" width="72" y="0" x="0"/>
<use xlink:href="#f" transform="translate(1.222212e-8 21.99965)" height="72" width="72" y="0" x="0"/>
<use xlink:href="#f" transform="translate(10.99991 21.99965)" height="72" width="72" y="0" x="0"/>
<g id="g" transform="matrix(1.099991 0 0 1.099983 29.49977 4.200657)">
<rect opacity="0.99" fill-rule="evenodd" rx="0" ry="0" height="10" width="10" y="18" x="-15" fill="#3465a4"/>
<path fill-opacity=".1568628" d="m-15 28 0.909181-0.909262h8.181886v-8.181947l0.9092634-0.909421v10z"/>
<path d="m-15 28v-10h10l-0.9089334 0.908791h-8.181886v8.181947z" fill-opacity=".1568628" fill="#fff"/>
</g>
<use xlink:href="#g" transform="translate(10.99991 10.99983)" height="72" width="72" y="0" x="0"/>
<use xlink:href="#g" transform="translate(10.99991)" height="72" width="72" y="0" x="0"/>
<use xlink:href="#g" transform="translate(21.99982 10.99983)" height="72" width="72" y="0" x="0"/>
<g id="h" transform="matrix(1.099991 0 0 1.099983 40.49968 -17.799)">
<rect opacity="0.99" fill-rule="evenodd" rx="0" ry="0" height="10" width="10" y="18" x="-15" fill="#73d216"/>
<path fill-opacity=".1568628" d="m-15 28 0.909263-0.909578h8.181886v-8.181946l0.9091807-0.909106v10z"/>
<path d="m-15 28v-10h10l-0.9088507 0.908476h-8.181886v8.181946z" fill-opacity=".1568628" fill="#fff"/>
</g>
<use xlink:href="#h" transform="translate(10.99991)" height="72" width="72" y="0" x="0"/>
<use xlink:href="#h" transform="translate(10.99991 10.99983)" height="72" width="72" y="0" x="0"/>
<use xlink:href="#h" transform="translate(10.99991 21.99965)" height="72" width="72" y="0" x="0"/>
</svg>
