<?xml version="1.0" encoding="UTF-8" standalone="no"?>
<svg xmlns:rdf="http://www.w3.org/1999/02/22-rdf-syntax-ns#" xmlns="http://www.w3.org/2000/svg" height="48" width="48" version="1.1" xmlns:cc="http://creativecommons.org/ns#" xmlns:xlink="http://www.w3.org/1999/xlink" xmlns:dc="http://purl.org/dc/elements/1.1/">
<g id="d" transform="matrix(1.2,0,0,1.2,18,-21.6)">
<rect opacity="0.99" fill-rule="evenodd" rx="0" ry="0" height="10" width="10" y="18" x="-15" fill="#c00"/>
<path d="m-15 28 0.83333-0.83333h8.3333v-8.3333l0.8337-0.834v10z" fill-opacity=".1568628"/>
<path d="m-15 28v-10h10l-0.83333 0.83333h-8.3333v8.3333z" fill="#FFF" fill-opacity=".1568628"/>
</g>
<use xlink:href="#d" transform="translate(12)" height="48" width="48" y="0" x="0"/>
<use xlink:href="#d" transform="translate(12,12)" height="48" width="48" y="0" x="0"/>
<use xlink:href="#d" transform="translate(24,12)" height="48" width="48" y="0" x="0"/>
<g id="c" transform="matrix(1.2,0,0,1.2,18,-9.6)">
<rect opacity="0.99" fill-rule="evenodd" rx="0" ry="0" height="10" width="10" y="18" x="-15" fill="#edd400"/>
<path d="m-15 28 0.83333-0.83333h8.3333v-8.3333l0.8337-0.834v10z" fill-opacity=".1568628"/>
<path d="m-15 28v-10h10l-0.83333 0.83333h-8.3333v8.3333z" fill="#FFF" fill-opacity=".1568628"/>
</g>
<use xlink:href="#c" transform="translate(-1.333333e-8 12)" height="72" width="72" y="0" x="0"/>
<use xlink:href="#c" transform="translate(-1.333333e-8 24)" height="72" width="72" y="0" x="0"/>
<use xlink:href="#c" transform="translate(12,24)" height="72" width="72" y="0" x="0"/>
<g id="b" transform="matrix(1.2,0,0,1.2,30,2.4)">
<rect opacity="0.99" fill-rule="evenodd" rx="0" ry="0" height="10" width="10" y="18" x="-15" fill="#3465a4"/>
<path d="m-15 28 0.83333-0.83333h8.3333v-8.3333l0.8337-0.834v10z" fill-opacity=".1568628"/>
<path d="m-15 28v-10h10l-0.83333 0.83333h-8.3333v8.3333z" fill="#FFF" fill-opacity=".1568628"/>
</g>
<use xlink:href="#b" transform="translate(12,12)" height="72" width="72" y="0" x="0"/>
<use xlink:href="#b" transform="translate(12)" height="72" width="72" y="0" x="0"/>
<use xlink:href="#b" transform="translate(24,12)" height="72" width="72" y="0" x="0"/>
<g id="a" transform="matrix(1.2,0,0,1.2,42,-21.6)">
<rect opacity="0.99" fill-rule="evenodd" rx="0" ry="0" height="10" width="10" y="18" x="-15" fill="#73d216"/>
<path d="m-15 28 0.83333-0.83333h8.3333v-8.3333l0.8337-0.834v10z" fill-opacity=".1568628"/>
<path d="m-15 28v-10h10l-0.83333 0.83333h-8.3333v8.3333z" fill="#FFF" fill-opacity=".1568628"/>
</g>
<use xlink:href="#a" transform="translate(12)" height="72" width="72" y="0" x="0"/>
<use xlink:href="#a" transform="translate(12,12)" height="72" width="72" y="0" x="0"/>
<use xlink:href="#a" transform="translate(12,24)" height="72" width="72" y="0" x="0"/>
</svg>
