<?xml version="1.0" encoding="UTF-8" standalone="no"?>
<svg xmlns:rdf="http://www.w3.org/1999/02/22-rdf-syntax-ns#" xmlns="http://www.w3.org/2000/svg" height="72" width="72" version="1.1" xmlns:cc="http://creativecommons.org/ns#" xmlns:xlink="http://www.w3.org/1999/xlink" xmlns:dc="http://purl.org/dc/elements/1.1/">
<g id="d" transform="matrix(1.8,0,0,1.8,27,-32.4)">
<rect opacity="0.99" fill-rule="evenodd" rx="0" ry="0" height="10" width="10" y="18" x="-15" fill="#c00"/>
<path d="m-15 28 1.1111-1.1111h7.7778v-7.7778l1.1112-1.111v10z" fill-opacity=".1568628"/>
<path d="m-15 28v-10h10l-1.1111 1.1111h-7.7778v7.7778z" fill="#FFF" fill-opacity=".1568628"/>
</g>
<use xlink:href="#d" transform="translate(18,2e-7)" height="48" width="48" y="0" x="0"/>
<use xlink:href="#d" transform="translate(18,18)" height="48" width="48" y="0" x="0"/>
<use xlink:href="#d" transform="translate(36,18)" height="48" width="48" y="0" x="0"/>
<g id="c" transform="matrix(1.8,0,0,1.8,27,-14.4)">
<rect opacity="0.99" fill-rule="evenodd" rx="0" ry="0" height="10" width="10" y="18" x="-15" fill="#edd400"/>
<path d="m-15 28 1.1111-1.1111h7.7778v-7.7778l1.1112-1.111v10z" fill-opacity=".1568628"/>
<path d="m-15 28v-10h10l-1.1111 1.1111h-7.7778v7.7778z" fill="#FFF" fill-opacity=".1568628"/>
</g>
<use xlink:href="#c" transform="translate(-2e-8 18)" height="72" width="72" y="0" x="0"/>
<use xlink:href="#c" transform="translate(-2e-8 36)" height="72" width="72" y="0" x="0"/>
<use xlink:href="#c" transform="translate(18,36)" height="72" width="72" y="0" x="0"/>
<g id="b" transform="matrix(1.8 0 0 1.8 45 3.6)">
<rect opacity="0.99" fill-rule="evenodd" rx="0" ry="0" height="10" width="10" y="18" x="-15" fill="#3465a4"/>
<path d="m-15 28 1.1111-1.1111h7.7778v-7.7778l1.1112-1.111v10z" fill-opacity=".1568628"/>
<path d="m-15 28v-10h10l-1.1111 1.1111h-7.7778v7.7778z" fill="#FFF" fill-opacity=".1568628"/>
</g>
<use xlink:href="#b" transform="translate(18,18)" height="72" width="72" y="0" x="0"/>
<use xlink:href="#b" transform="translate(18 4e-7)" height="72" width="72" y="0" x="0"/>
<use xlink:href="#b" transform="translate(36,18)" height="72" width="72" y="0" x="0"/>
<g id="a" transform="matrix(1.8,0,0,1.8,63,-32.4)">
<rect opacity="0.99" fill-rule="evenodd" rx="0" ry="0" height="10" width="10" y="18" x="-15" fill="#73d216"/>
<path d="m-15 28 1.1111-1.1111h7.7778v-7.7778l1.1112-1.111v10z" fill-opacity=".1568628"/>
<path d="m-15 28v-10h10l-1.1111 1.1111h-7.7778v7.7778z" fill="#FFF" fill-opacity=".1568628"/>
</g>
<use xlink:href="#a" transform="translate(18,2e-7)" height="72" width="72" y="0" x="0"/>
<use xlink:href="#a" transform="translate(18,18)" height="72" width="72" y="0" x="0"/>
<use xlink:href="#a" transform="translate(18,36)" height="72" width="72" y="0" x="0"/>
</svg>
