<?xml version="1.0" encoding="UTF-8" standalone="no"?>
<!-- Created with Inkscape (http://www.inkscape.org/) -->

<svg
   xmlns:dc="http://purl.org/dc/elements/1.1/"
   xmlns:cc="http://creativecommons.org/ns#"
   xmlns:rdf="http://www.w3.org/1999/02/22-rdf-syntax-ns#"
   xmlns:svg="http://www.w3.org/2000/svg"
   xmlns="http://www.w3.org/2000/svg"
   xmlns:xlink="http://www.w3.org/1999/xlink"
   xmlns:sodipodi="http://sodipodi.sourceforge.net/DTD/sodipodi-0.dtd"
   xmlns:inkscape="http://www.inkscape.org/namespaces/inkscape"
   width="16"
   height="16"
   id="svg2985"
   version="1.1"
   inkscape:version="0.48.3.1 r9886"
   sodipodi:docname="view-fullscreen.svg"
   inkscape:export-filename="/home/markus/scratch/pentobi/src/pentobi/icons/view-fullscreen.png"
   inkscape:export-xdpi="90"
   inkscape:export-ydpi="90">
  <defs
     id="defs2987">
    <linearGradient
       id="linearGradient3756">
      <stop
         style="stop-color:#ecedea;stop-opacity:1;"
         offset="0"
         id="stop3758" />
      <stop
         style="stop-color:#c9cfc4;stop-opacity:1;"
         offset="1"
         id="stop3760" />
    </linearGradient>
    <linearGradient
       inkscape:collect="always"
       xlink:href="#linearGradient3756"
       id="linearGradient3762"
       x1="6.59375"
       y1="16.0625"
       x2="10.460374"
       y2="32.009083"
       gradientUnits="userSpaceOnUse" />
  </defs>
  <sodipodi:namedview
     id="base"
     pagecolor="#ffffff"
     bordercolor="#666666"
     borderopacity="1.0"
     inkscape:pageopacity="0.0"
     inkscape:pageshadow="2"
     inkscape:zoom="32"
     inkscape:cx="14.28125"
     inkscape:cy="8.565275"
     inkscape:current-layer="layer1"
     showgrid="true"
     inkscape:grid-bbox="true"
     inkscape:document-units="px"
     showguides="true"
     inkscape:snap-global="false"
     inkscape:window-width="1623"
     inkscape:window-height="1026"
     inkscape:window-x="57"
     inkscape:window-y="24"
     inkscape:window-maximized="1">
    <inkscape:grid
       type="xygrid"
       id="grid2993"
       empspacing="5"
       visible="true"
       enabled="true"
       snapvisiblegridlinesonly="true" />
  </sodipodi:namedview>
  <metadata
     id="metadata2990">
    <rdf:RDF>
      <cc:Work
         rdf:about="">
        <dc:format>image/svg+xml</dc:format>
        <dc:type
           rdf:resource="http://purl.org/dc/dcmitype/StillImage" />
        <dc:title></dc:title>
      </cc:Work>
    </rdf:RDF>
  </metadata>
  <g
     id="layer1"
     inkscape:label="Layer 1"
     inkscape:groupmode="layer"
     transform="translate(0,-16)">
    <path
       style="fill:url(#linearGradient3762);fill-opacity:1;stroke:#555753;stroke-width:1.00045775999999997;stroke-miterlimit:4;stroke-opacity:1;stroke-dasharray:none"
       d="m 1.250206,16.500229 c -0.41548721,0 -0.74997713,0.334489 -0.74997713,0.749977 l 0,13.499591 c 0,0.415486 0.33448992,0.749975 0.74997713,0.749975 l 13.49959,0 c 0.415486,0 0.749976,-0.334489 0.749976,-0.749975 l 0,-13.499591 c 0,-0.415488 -0.33449,-0.749977 -0.749976,-0.749977 l -13.49959,0 z"
       id="rect2995"
       inkscape:connector-curvature="0" />
    <path
       style="fill:#2e3436;fill-opacity:1;stroke:none"
       d="M 6.050854,18.000003 2,18.027293 2.07229,22.050884 3.255158,20.846618 5.369151,23 7.000004,21.3395 4.886012,19.186117 l 1.129017,-1.149616 0.03583,-0.03648 z"
       id="rect3767-1-4"
       inkscape:connector-curvature="0"
       sodipodi:nodetypes="cccccccccc" />
    <path
       style="fill:#2e3436;fill-opacity:1;stroke:none"
       d="m 13.999997,22.05085 -0.02729,-4.050854 -4.0235914,0.07229 1.2042674,1.182868 L 9,21.369147 10.6605,23 l 2.153383,-2.113992 1.149616,1.129017 0.03648,0.03583 z"
       id="rect3767-1-4-9"
       inkscape:connector-curvature="0"
       sodipodi:nodetypes="cccccccccc" />
    <path
       style="fill:#2e3436;fill-opacity:1;stroke:none"
       d="m 9.94915,30 4.050854,-0.02729 -0.07229,-4.023591 -1.182868,1.204266 L 10.630853,25.000003 9,26.660503 l 2.113992,2.153383 -1.1290171,1.149616 -0.03583,0.03648 z"
       id="rect3767-1-4-90"
       inkscape:connector-curvature="0"
       sodipodi:nodetypes="cccccccccc" />
    <path
       style="fill:#2e3436;fill-opacity:1;stroke:none"
       d="M 2,25.949146 2.02729,30 6.050881,29.92771 4.846615,28.744842 6.999997,26.630849 5.339497,24.999996 3.186114,27.113988 2.036498,25.984971 2.000018,25.949141 z"
       id="rect3767-1-4-7"
       inkscape:connector-curvature="0"
       sodipodi:nodetypes="cccccccccc" />
  </g>
</svg>
