<?xml version="1.0" encoding="UTF-8" standalone="no"?>
<!-- Created with Inkscape (http://www.inkscape.org/) -->
<svg xmlns:rdf="http://www.w3.org/1999/02/22-rdf-syntax-ns#" xmlns="http://www.w3.org/2000/svg" height="48" width="48" version="1.1" xmlns:cc="http://creativecommons.org/ns#" xmlns:xlink="http://www.w3.org/1999/xlink" xmlns:dc="http://purl.org/dc/elements/1.1/">
<defs>
<linearGradient id="linearGradient3793" x1="26.159" gradientUnits="userSpaceOnUse" y1="41.492" gradientTransform="matrix(1.0476215,0,0,1.0476214,-1.1429151,-1.142913)" x2="21.49" y2="6.0614">
<stop stop-color="#474845" offset="0"/>
<stop stop-color="#6b6d68" offset="1"/>
</linearGradient>
</defs>
<metadata>
<rdf:RDF>
<cc:Work rdf:about="">
<dc:format>image/svg+xml</dc:format>
<dc:type rdf:resource="http://purl.org/dc/dcmitype/StillImage"/>
<dc:title/>
</cc:Work>
</rdf:RDF>
</metadata>
<rect rx="1.5303" ry="1.5102" height="44" width="44" y="2" x="2" fill="url(#linearGradient3793)"/>
<g id="g4092" transform="translate(19,-14)">
<rect opacity="0.99" fill-rule="evenodd" rx="1.328" ry="0" height="10" width="10" y="18" x="-15" fill="#C00"/>
<path d="m-15,28,0-1,9,0,0-9,1,0,0,10z" fill="#a40000"/>
<path d="m-15,28,0-10,10,0-1,1-8,0,0,8z" fill="#ef2929"/>
</g>
<use xlink:href="#g4092" transform="translate(10,0)" height="48" width="48" y="0" x="0"/>
<use xlink:href="#g4092" transform="translate(10,10)" height="48" width="48" y="0" x="0"/>
<use xlink:href="#g4092" transform="translate(20,10)" height="48" width="48" y="0" x="0"/>
<g id="g4147" transform="translate(29,3)">
<rect opacity="0.99" fill-rule="evenodd" rx="1.328" ry="0" height="10" width="10" y="11" x="-25" fill="#edd400"/>
<path d="m-25,21,0-1,9,0,0-9,1,0,0,10z" fill="#c4a000"/>
<path d="m-25,21,0-10,10,0-1,1-8,0,0,8z" fill="#fce94f"/>
</g>
<use xlink:href="#g4147" transform="translate(0,10)" height="48" width="48" y="0" x="0"/>
<use xlink:href="#g4147" transform="translate(0,20)" height="48" width="48" y="0" x="0"/>
<use xlink:href="#g4147" transform="translate(10,20)" height="48" width="48" y="0" x="0"/>
<g id="g4231" transform="translate(33,11)">
<rect opacity="0.99" fill-rule="evenodd" rx="1.328" ry="0" height="10" width="10" y="13" x="-19" fill="#3465a4"/>
<path d="m-19,23,0-1,9,0,0-9,1,0,0,10z" fill="#204a87"/>
<path d="m-19,23,0-10,10,0-1,1-8,0,0,8z" fill="#558bc5"/>
</g>
<use xlink:href="#g4231" transform="translate(10,0)" height="48" width="48" y="0" x="0"/>
<use xlink:href="#g4231" transform="translate(10,10)" height="48" width="48" y="0" x="0"/>
<use xlink:href="#g4231" transform="translate(20,10)" height="48" width="48" y="0" x="0"/>
<g id="g4272" transform="translate(44,-4)">
<rect opacity="0.99" fill-rule="evenodd" rx="1.328" ry="0" height="10" width="10" y="8" x="-20" fill="#73d216"/>
<path d="m-20,18,0-1,9,0,0-9,1,0,0,10z" fill="#4e9a06"/>
<path d="m-20,18,0-10,10,0-1,1-8,0,0,8z" fill="#8ae234"/>
</g>
<use xlink:href="#g4272" transform="translate(10,10)" height="48" width="48" y="0" x="0"/>
<use xlink:href="#g4272" transform="translate(10,20)" height="48" width="48" y="0" x="0"/>
<use xlink:href="#g4272" transform="translate(10,0)" height="48" width="48" y="0" x="0"/>
</svg>
