<?xml version="1.0" encoding="UTF-8" standalone="no"?>
<svg xmlns:rdf="http://www.w3.org/1999/02/22-rdf-syntax-ns#" xmlns="http://www.w3.org/2000/svg" height="32" width="32" version="1.1" xmlns:cc="http://creativecommons.org/ns#" xmlns:xlink="http://www.w3.org/1999/xlink" xmlns:dc="http://purl.org/dc/elements/1.1/">
 <g transform="matrix(0.7 0 0 .69999 -.79998 -.79993)">
  <path d="m4.002 34-0.002 6.607c-0.0051 1.875 1.5033 3.382 3.375 3.393h6.625v-9.996l-6.6621-0.004h-3.3359z" fill="#edd400"/>
  <g id="f">
   <rect height="10" width="10" y="4" x="24" fill="#73d216"/>
   <path d="m24 14h10v-10l-1 1v8h-8z" fill="#4e9a06"/>
   <path d="m24 14v-10h10l-1 1h-8v8z" fill="#8ae234"/>
  </g>
  <use xlink:href="#f" height="100%" width="100%" y="10" x="10"/>
  <use xlink:href="#f" height="100%" width="100%" y="20" x="10"/>
  <g id="e">
   <rect height="10" width="10" y="24" x="14" fill="#3465a4"/>
   <path d="m14 34h10v-10l-1 1v8h-8z" fill="#204a87"/>
   <path d="m14 34v-10h10l-1 1h-8v8z" fill="#558bc5"/>
  </g>
  <use xlink:href="#e" height="100%" width="100%" y="0" x="10"/>
  <use xlink:href="#e" height="100%" width="100%" y="10" x="10"/>
  <g id="d">
   <rect height="10" width="10" y="14" x="4" fill="#edd400"/>
   <path d="m4 24h10v-10l-1 1v8h-8z" fill="#c4a000"/>
   <path d="m4 24v-10h10l-1 1h-8v8z" fill="#fce94f"/>
  </g>
  <use xlink:href="#d" height="100%" width="100%" y="10" x="0"/>
  <use xlink:href="#d" height="100%" width="100%" y="20" x="10"/>
  <g transform="translate(10)">
   <rect height="10" width="10" y="4" x="4" fill="#c00"/>
   <path d="m4 14h10v-10l-1 1v8h-8z" fill="#a40000"/>
   <path d="m4 14v-10h10l-1 1h-8v8z" fill="#ef2929"/>
  </g>
  <g transform="translate(10,10)">
   <rect height="10" width="10" y="4" x="4" fill="#c00"/>
   <path d="m4 14h10v-10l-1 1v8h-8z" fill="#a40000"/>
   <path d="m4 14v-10h10l-1 1h-8v8z" fill="#ef2929"/>
  </g>
  <g transform="translate(20,10)">
   <rect height="10" width="10" y="4" x="4" fill="#c00"/>
   <path d="m4 14h10v-10l-1 1v8h-8z" fill="#a40000"/>
   <path d="m4 14v-10h10l-1 1h-8v8z" fill="#ef2929"/>
  </g>
  <g transform="translate(27.205,-4.47)">
   <path d="m-19.832 8.47c-1.8649 0.00569-3.3624 1.5081-3.373 3.373v6.627h9.9961l0.0039-6.6641v-3.3359h-6.627z" fill="#c00"/>
   <path d="m-23.205 18.47h10v-10l-1 1v8h-8z" fill="#a40000"/>
   <path d="m-19.83 8.47c-1.8649 0.00569-3.3643 1.5081-3.375 3.373v6.625l1-0.99805v-8h8l1-1h-6.625zm-3.375 9.998 0.002 0.002-0.002-0.002z" fill="#ef2929"/>
  </g>
  <path d="m13.996 33.993-0.99609 0.99609v8h-8l-0.0098 0.0098c0.60986 0.60868 1.4509 0.98489 2.3828 0.99023h6.627v-9.9961h-0.0039z" fill="#c4a000"/>
  <path d="m4.002 33.99-0.002 6.607c-0.0026 0.941 0.3759 1.789 0.9902 2.403l0.0098-0.009v-8h7.9999l0.99608-0.99609-6.6581-0.0039h-3.3359z" fill="#fce94f"/>
  <g transform="translate(-31.025,7.1404)">
   <path d="m65.031 26.86-0.0059 7.498v2.502h6.627c1.8582-0.0057 3.3518-1.4978 3.373-3.3535v-6.6465h-9.9941z" fill="#3465a4"/>
   <path d="m75.025 26.86-1 1v8h-8l-1 1h6.627c1.8649-0.0057 3.3624-1.5081 3.373-3.373v-6.627z" fill="#204a87"/>
   <path d="m65.025 36.86v-10h10l-1 1h-8v8z" fill="#558bc5"/>
  </g>
  <g transform="translate(-20.999,-22.5)">
   <path d="m54.999 26.5v9.9961l6.6641 0.0039h3.3359v-6.627c-0.006-1.865-1.508-3.362-3.373-3.373h-6.627z" fill="#73d216"/>
   <path d="m64.005 27.49-0.0098 0.0098v8h-8l-0.99609 0.99609 6.6602 0.0039h3.3359v-6.627c-0.0028-0.93246-0.37834-1.7735-0.98828-2.3828-0.000355-0.000355-0.0016 0.000355-0.002 0z" fill="#4e9a06"/>
   <path d="m54.999 26.504v9.9961h0.0039l0.99609-0.99609v-8h8l0.0098-0.0098c-0.60986-0.60868-1.4509-0.98489-2.3828-0.99023h-6.627z" fill="#8ae234"/>
  </g>
 </g>
</svg>
