<?xml version="1.0" encoding="UTF-8" standalone="no"?>
<svg xmlns:rdf="http://www.w3.org/1999/02/22-rdf-syntax-ns#" xmlns="http://www.w3.org/2000/svg" height="16" width="16" version="1.1" xmlns:cc="http://creativecommons.org/ns#" xmlns:xlink="http://www.w3.org/1999/xlink" xmlns:dc="http://purl.org/dc/elements/1.1/">
<defs>
<linearGradient id="a">
<stop stop-color="#cdcdcb" offset="0"/>
<stop stop-color="#babab7" offset="1"/>
</linearGradient>
<linearGradient id="b">
<stop stop-color="#bebfbc" offset="0"/>
<stop stop-color="#888b84" offset="1"/>
</linearGradient>
<linearGradient id="l" y2="6.7733" gradientUnits="userSpaceOnUse" x2="21.794" gradientTransform="matrix(.3567615 0 0 .3567616 -.5622784 31.43772)" y1="41.951" x1="24.114">
<stop stop-color="#474845" offset="0"/>
<stop stop-color="#7b7e78" offset="1"/>
</linearGradient>
<linearGradient id="c" y2="4.9662" xlink:href="#b" gradientUnits="userSpaceOnUse" x2="-11.191" gradientTransform="matrix(.6545711 0 0 .6540820 11.03916 31.04031)" y1="11.728" x1="-8.1452"/>
<linearGradient id="k" y2="4.7247" xlink:href="#a" gradientUnits="userSpaceOnUse" x2="-9.5003" gradientTransform="matrix(.6545720 0 0 .6540722 11.03921 31.0404)" y1="11.809" x1="-8.9502"/>
<radialGradient id="d" gradientUnits="userSpaceOnUse" cy="6.6269" cx="-9.9879" gradientTransform="matrix(.9194523 0 0 .9557715 -.8045014 .2930960)" r="4.702">
<stop stop-color="#FFF" offset="0"/>
<stop stop-color="#dbdbdb" offset="1"/>
</radialGradient>
<linearGradient id="j" y2="4.7247" xlink:href="#a" gradientUnits="userSpaceOnUse" x2="-9.5003" gradientTransform="matrix(.6545720 0 0 .6540722 11.03921 38.0404)" y1="11.809" x1="-8.9502"/>
<linearGradient id="i" y2="4.7247" xlink:href="#a" gradientUnits="userSpaceOnUse" x2="-9.5003" gradientTransform="matrix(.6545720 0 0 .6540722 18.03921 38.0404)" y1="11.809" x1="-8.9502"/>
<linearGradient id="h" y2="4.7247" xlink:href="#a" gradientUnits="userSpaceOnUse" x2="-9.5003" gradientTransform="matrix(.6545720 0 0 .6540722 18.03921 31.0404)" y1="11.809" x1="-8.9502"/>
<linearGradient id="g" y2="4.9662" xlink:href="#b" gradientUnits="userSpaceOnUse" x2="-11.191" gradientTransform="matrix(.6545711 0 0 .6540820 11.03916 38.04031)" y1="11.728" x1="-8.1452"/>
<linearGradient id="f" y2="4.9662" xlink:href="#b" gradientUnits="userSpaceOnUse" x2="-11.191" gradientTransform="matrix(.6545711 0 0 .6540820 18.03916 38.04031)" y1="11.728" x1="-8.1452"/>
<linearGradient id="e" y2="4.9662" xlink:href="#b" gradientUnits="userSpaceOnUse" x2="-11.191" gradientTransform="matrix(.6545711 0 0 .6540820 18.03916 31.04031)" y1="11.728" x1="-8.1452"/>
</defs>
<g transform="translate(0,-32)">
<rect rx=".60258" ry="0" height="7" width="7" y="33" x="1" fill="#babdb6"/>
<path d="m1.4999 39.5h6.0002v-6.0001" stroke="url(#k)" stroke-linecap="square" stroke-width=".9998931" fill="none"/>
<path d="m1.4999 39.5v-6.0002h6.0002" stroke="url(#c)" stroke-linecap="square" stroke-width=".9998004" fill="none"/>
<g fill="#babdb6">
<rect rx=".60258" ry="0" height="7" width="7" y="40" x="1"/>
<rect rx=".60258" ry="0" height="7" width="7" y="40" x="8"/>
<rect rx=".60258" ry="0" height="7" width="7" y="33" x="8"/>
</g>
<g fill="none">
<g stroke-linecap="square">
<path d="m1.4999 39.5v-6.0002h6.0002" stroke="url(#c)" stroke-width=".9998004"/>
<g stroke-width=".9998931">
<path d="m1.4999 46.5h6.0002v-6.0001" stroke="url(#j)"/>
<path d="m8.4999 46.5h6.0002v-6.0001" stroke="url(#i)"/>
<path d="m8.4999 39.5h6.0002v-6.0001" stroke="url(#h)"/>
</g>
<g stroke-width=".9998004">
<path d="m1.4999 46.5v-6.0002h6.0002" stroke="url(#g)"/>
<path d="m8.4999 46.5v-6.0002h6.0002" stroke="url(#f)"/>
<path d="m8.4999 39.5v-6.0002h6.0002" stroke="url(#e)"/>
</g>
</g>
<rect stroke-linejoin="round" ry="1.0913" height="15.001" width="15.001" stroke="url(#l)" y="32.5" x=".49959"/>
</g>
<path d="m-9.9879 2.1328c0.57049-0.00955 1.1172 2.3429 1.5788 2.6783 0.47417 0.3445 2.9191 0.17365 3.1096 0.72796 0.18537 0.53961-1.883 1.7865-2.0594 2.3291-0.18112 0.55742 0.73691 2.8299 0.26858 3.1823-0.45592 0.34305-2.2809-1.2388-2.8515-1.2388-0.5861-3e-7 -2.4637 1.5753-2.9436 1.2388-0.46715-0.3276 0.47334-2.5521 0.29703-3.0948-0.18112-0.55742-2.2596-1.8563-2.0878-2.4167 0.16721-0.54552 2.5735-0.33847 3.0351-0.67384 0.47417-0.3445 1.0672-2.7226 1.6532-2.7324z" fill-rule="evenodd" transform="matrix(.8510586 0 0 .7801320 20.00044 30.89056)" stroke="#fce94f" stroke-width="1.227127" fill="url(#d)"/>
</g>
</svg>
