<?xml version="1.0" encoding="UTF-8" standalone="no"?>
<svg xmlns:rdf="http://www.w3.org/1999/02/22-rdf-syntax-ns#" xmlns="http://www.w3.org/2000/svg" height="16" width="16" version="1.1" xmlns:cc="http://creativecommons.org/ns#" xmlns:dc="http://purl.org/dc/elements/1.1/">
<defs>
<linearGradient id="d" y2="29.89" gradientUnits="userSpaceOnUse" x2="15.31" gradientTransform="matrix(.7333267 0 0 .6666583 -.0004067133 9.495932)" y1="10.073" x1="9.9997">
<stop stop-color="#dddfe2" offset="0"/>
<stop offset="1"/>
</linearGradient>
<linearGradient id="c" y2="29.89" gradientUnits="userSpaceOnUse" x2="15.31" gradientTransform="matrix(.7333267 0 0 .6666583 -.0004067133 9.495932)" y1="10.073" x1="9.9997">
<stop offset="0"/>
<stop stop-color="#8c8f89" offset="1"/>
</linearGradient>
<linearGradient id="b" y2="31.977" gradientUnits="userSpaceOnUse" x2="15.807" gradientTransform="matrix(.7142943 0 0 .7368519 .1511178 8.789794)" y1="10.128" x1="9.9528">
<stop stop-color="#f0f1ef" offset="0"/>
<stop stop-color="#aab2a2" offset="1"/>
</linearGradient>
<linearGradient id="a" y2="31.977" gradientUnits="userSpaceOnUse" x2="15.807" gradientTransform="matrix(.7142943 0 0 .7368519 .1511178 8.789794)" y1="10.128" x1="9.9528">
<stop stop-color="#676a64" offset="0"/>
<stop stop-color="#1b1c1b" offset="1"/>
</linearGradient>
</defs>
<g transform="translate(0,-16)">
<rect stroke-linejoin="round" fill-rule="evenodd" ry="1.704" height="14" width="15" stroke="url(#a)" stroke-linecap="round" y="16.527" x=".50829" stroke-width=".99988" fill="url(#b)"/>
<rect stroke-linejoin="round" fill-rule="evenodd" ry=".33862" height="7.9999" width="11" stroke="url(#c)" stroke-linecap="round" y="18.496" x="2.5665" stroke-width="1.0001" fill="url(#d)"/>
<path stroke="#6e706c" stroke-width="1.000581" d="m2.0006 28.5h11.999" fill="none"/>
</g>
<path d="m13 4v6h-10v-2.6789c2.8021-1.303 6.4697-2.752 10-3.321z" fill-opacity=".2262997"/>
<rect stroke-linejoin="round" ry="0" height="8.9998" width="8.9998" stroke="#2b2d2b" stroke-linecap="round" y="6.5" x="6.5" fill="none"/>
<g fill-rule="evenodd">
<rect height="4" width="4" y="7" x="7" fill="#e63232"/>
<rect height="4" width="4" y="7" x="11" fill="#8ad83e"/>
<rect height="4" width="4" y="11" x="7" fill="#e3cc09"/>
<rect height="4" width="4" y="11" x="11" fill="#4b7bb9"/>
</g>
</svg>
