<?xml version="1.0" encoding="UTF-8" standalone="no"?>
<svg xmlns:rdf="http://www.w3.org/1999/02/22-rdf-syntax-ns#" xmlns="http://www.w3.org/2000/svg" height="16" width="16" version="1.1" xmlns:cc="http://creativecommons.org/ns#" xmlns:xlink="http://www.w3.org/1999/xlink" xmlns:dc="http://purl.org/dc/elements/1.1/">
<defs>
<linearGradient id="h" y2="32.951" gradientUnits="userSpaceOnUse" x2="-4.5616" gradientTransform="translate(8.661204 -6.878681)" y1="34.895" x1="-4.3189">
<stop stop-color="#ddc600" offset="0"/>
<stop stop-color="#ffec46" stop-opacity=".9809524" offset="1"/>
</linearGradient>
<linearGradient id="g" y2="31.497" gradientUnits="userSpaceOnUse" x2="-12.044" gradientTransform="matrix(.2710454 0 0 .2710451 7.103142 17.31282)" y1="39.718" x1="-9.9692">
<stop stop-color="#e4cc00" offset="0"/>
<stop stop-color="#fff283" offset="1"/>
</linearGradient>
<linearGradient id="e" y2="37.038" gradientUnits="userSpaceOnUse" x2="8.74" gradientTransform="translate(-4.065864 -11.88909)" y1="35.359" x1="7.7452">
<stop stop-color="#FFF" stop-opacity=".3828996" offset="0"/>
<stop stop-color="#FFF" stop-opacity="0" offset="1"/>
</linearGradient>
<linearGradient id="f" y2="25.149" gradientUnits="userSpaceOnUse" x2="4.5858" y1="23.735" x1="3.6794">
<stop stop-color="#FFF" stop-opacity=".4907063" offset="0"/>
<stop stop-color="#FFF" stop-opacity="0" offset="1"/>
</linearGradient>
</defs>
<g id="d" transform="translate(-2 -21)">
<rect rx="0" ry="0" height="4" width="4" y="25" x="2" fill="url(#h)"/>
<path d="m2.5002 28.5v-2.9996h2.9996" stroke="url(#g)" stroke-linecap="square" fill="none"/>
</g>
<g id="c" transform="translate(-2 -22)">
<rect rx="0" ry="0" height="4" width="4" y="22" x="2" fill="#ef2929"/>
<path d="m2.5002 25.5v-2.9996h2.9996" stroke="url(#e)" stroke-linecap="square" fill="none"/>
</g>
<g id="b" transform="translate(6 -22)">
<rect rx="0" ry="0" height="4" width="4" y="22" x="2" fill="#73d216"/>
<path d="m2.5002 25.5v-2.9996h2.9996" stroke="url(#f)" stroke-linecap="square" fill="none"/>
</g>
<g id="a" fill="#3465a4" transform="translate(2 -14)">
<rect rx="0" ry="0" height="4" width="4" y="22" x="2"/>
<path stroke="url(#e)" stroke-linecap="square" d="m2.5002 25.5v-2.9996h2.9996"/>
</g>
<use xlink:href="#c" transform="translate(4 -9.265136e-8)" height="16" width="16" y="0" x="0"/>
<use xlink:href="#c" transform="translate(4 4)" height="16" width="16" y="0" x="0"/>
<use xlink:href="#c" transform="translate(8,4)" height="16" width="16" y="0" x="0"/>
<use xlink:href="#b" transform="translate(4 -9.265136e-8)" height="16" width="16" y="0" x="0"/>
<use xlink:href="#b" transform="translate(4 4)" height="16" width="16" y="0" x="0"/>
<use xlink:href="#b" transform="translate(4 8)" height="16" width="16" y="0" x="0"/>
<use xlink:href="#d" transform="translate(0 4)" height="16" width="16" y="0" x="0"/>
<use xlink:href="#d" transform="translate(0 8)" height="16" width="16" y="0" x="0"/>
<use xlink:href="#d" transform="translate(4,8)" height="16" width="16" y="0" x="0"/>
<use xlink:href="#a" transform="translate(4 -9.265137e-8)" height="16" width="16" y="0" x="0"/>
<use xlink:href="#a" transform="translate(4 4)" height="16" width="16" y="0" x="0"/>
<use xlink:href="#a" transform="translate(8 4)" height="16" width="16" y="0" x="0"/>
</svg>
