<?xml version="1.0" encoding="UTF-8" standalone="no"?>
<svg xmlns:rdf="http://www.w3.org/1999/02/22-rdf-syntax-ns#" xmlns="http://www.w3.org/2000/svg" height="64" width="64" version="1.1" xmlns:cc="http://creativecommons.org/ns#" xmlns:xlink="http://www.w3.org/1999/xlink" xmlns:dc="http://purl.org/dc/elements/1.1/">
<g id="a">
<rect height="14" width="14" x="32" y="4" fill="#73d216"/>
<path d="m32 18h14v-14l-1 1v12h-12z" fill="#4e9a06"/>
<path d="m32 18v-14h14l-1 1h-12v12z" fill="#8ae234"/>
</g>
<use xlink:href="#a" x="14"/>
<use xlink:href="#a" x="14" y="14"/>
<use xlink:href="#a" x="14" y="28"/>
<g id="b">
<rect height="14" width="14" x="18" y="32" fill="#3465a4"/>
<path d="m18 46h14v-14l-1 1v12h-12z" fill="#204a87"/>
<path d="m18 46v-14h14l-1 1h-12v12z" fill="#558bc5"/>
</g>
<use xlink:href="#b" x="14"/>
<use xlink:href="#b" x="14" y="14"/>
<use xlink:href="#b" x="28" y="14"/>
<g id="c">
<rect height="14" width="14" x="4" y="18" fill="#edd400"/>
<path d="m4 32h14v-14l-1 1v12h-12z" fill="#c4a000"/>
<path d="m4 32v-14h14l-1 1h-12v12z" fill="#fce94f"/>
</g>
<use xlink:href="#c" y="14"/>
<use xlink:href="#c" y="28"/>
<use xlink:href="#c" x="14" y="28"/>
<g id="d">
<rect height="14" width="14" x="4" y="4" fill="#C00"/>
<path d="m4 18h14v-14l-1 1v12h-12z" fill="#a40000"/>
<path d="m4 18v-14h14l-1 1h-12v12z" fill="#ef2929"/>
</g>
<use xlink:href="#d" x="14"/>
<use xlink:href="#d" x="14" y="14"/>
<use xlink:href="#d" x="28" y="14"/>
</svg>
