<?xml version="1.0" encoding="UTF-8" standalone="no"?>
<svg xmlns:rdf="http://www.w3.org/1999/02/22-rdf-syntax-ns#" xmlns="http://www.w3.org/2000/svg" height="22" width="22" version="1.1" xmlns:cc="http://creativecommons.org/ns#" xmlns:dc="http://purl.org/dc/elements/1.1/">
<defs>
<linearGradient id="h" y2="29.89" gradientUnits="userSpaceOnUse" x2="15.31" y1="10.073" x1="9.9997">
<stop stop-color="#dddfe2" offset="0"/>
<stop offset="1"/>
</linearGradient>
<linearGradient id="g" y2="29.89" gradientUnits="userSpaceOnUse" x2="15.31" y1="10.073" x1="9.9997">
<stop offset="0"/>
<stop stop-color="#8c8f89" offset="1"/>
</linearGradient>
<linearGradient id="f" y2="31.977" gradientUnits="userSpaceOnUse" x2="15.807" y1="10.128" x1="9.9528">
<stop stop-color="#f0f1ef" offset="0"/>
<stop stop-color="#aab2a2" offset="1"/>
</linearGradient>
<linearGradient id="e" y2="31.977" gradientUnits="userSpaceOnUse" x2="15.807" y1="10.128" x1="9.9528">
<stop stop-color="#676a64" offset="0"/>
<stop stop-color="#1b1c1b" offset="1"/>
</linearGradient>
</defs>
<g transform="translate(0,-10)">
<rect stroke-linejoin="round" fill-rule="evenodd" ry="2.3125" height="19" width="21" stroke="url(#e)" stroke-linecap="round" y="10.5" x=".50004" stroke-width="1.0001" fill="url(#f)"/>
<rect stroke-linejoin="round" fill-rule="evenodd" ry=".50793" height="12" width="15" stroke="url(#g)" stroke-linecap="round" y="13.5" x="3.5003" fill="url(#h)"/>
<path stroke="#6e706c" stroke-width="1.00021" d="m3.0001 27.5h16" fill="none"/>
</g>
<path d="m18 6.42v8.58h-14v-3.8306c3.9229-1.8633 9.0577-3.9349 14-4.749z" fill-opacity=".2262997"/>
<rect stroke-linejoin="round" ry="0" height="11" width="11" stroke="#2b2d2b" stroke-linecap="round" y="10.5" x="10.5" stroke-width=".99995" fill="none"/>
<g fill-rule="evenodd">
<rect height="5" width="5" y="11" x="11" fill="#e63232"/>
<rect height="5" width="5" y="11" x="16" fill="#8ad83e"/>
<rect height="5" width="5" y="16" x="11" fill="#e3cc09"/>
<rect height="5" width="5" y="16" x="16" fill="#4b7bb9"/>
</g>
</svg>
