<?xml version="1.0" encoding="UTF-8" standalone="no"?>
<svg xmlns:rdf="http://www.w3.org/1999/02/22-rdf-syntax-ns#" xmlns="http://www.w3.org/2000/svg" height="22" width="22" version="1.1" xmlns:cc="http://creativecommons.org/ns#" xmlns:dc="http://purl.org/dc/elements/1.1/">
<defs>
<linearGradient id="b" y2="32.169" gradientUnits="userSpaceOnUse" x2="6.1041" gradientTransform="translate(-.06566604 -10.13628)" y1="10.25" x1="11.977">
<stop stop-color="#c8c9c7" offset="0"/>
<stop stop-color="#a0a39d" offset="1"/>
</linearGradient>
<linearGradient id="a" y2="32.169" gradientUnits="userSpaceOnUse" x2="6.1041" gradientTransform="translate(-.06566604 -10.13628)" y1="10.25" x1="11.977">
<stop stop-color="#b4b6b2" offset="0"/>
<stop stop-color="#464844" offset="1"/>
</linearGradient>
</defs>
<g transform="translate(0,-10)">
<g transform="matrix(-1 0 0 1 22.00004 0)">
<path d="m9.3326 4.3695-0.04434 2.8599-8.1743-0.000125 0.073072 7.6103 8.0355-0.07322s-0.072916 2.7459-0.073466 2.75l4.0751-3.8887s-0.03618 3.7744-0.03673 3.7785l6.5-6.5-6.5-6.5 0.03673 3.6867z" fill-rule="evenodd" transform="translate(0,10)" stroke="url(#b)" stroke-width="1.500191" fill="url(#a)"/>
<path stroke-linejoin="round" d="m8.5 2.5312v3.9688h-8v9h8s0.0007803 3.994 0 4l4-4s0.000778 3.994 0 4l8.5-8.5-8.5-8.4688s-0.000234 3.9807 0 3.9688h-0.03125z" transform="translate(0,10)" stroke="#555753" stroke-linecap="round" stroke-width="1.000074" fill="none"/>
</g>
</g>
</svg>
