<?xml version="1.0" encoding="UTF-8" standalone="no"?>
<svg xmlns:rdf="http://www.w3.org/1999/02/22-rdf-syntax-ns#" xmlns="http://www.w3.org/2000/svg" height="16" width="16" version="1.1" xmlns:cc="http://creativecommons.org/ns#" xmlns:xlink="http://www.w3.org/1999/xlink" xmlns:dc="http://purl.org/dc/elements/1.1/">
<defs>
<linearGradient id="m">
<stop stop-color="#cdcdcb" offset="0"/>
<stop stop-color="#babab7" offset="1"/>
</linearGradient>
<linearGradient id="d">
<stop stop-color="#bebfbc" offset="0"/>
<stop stop-color="#888b84" offset="1"/>
</linearGradient>
<linearGradient id="o" x1="24.114" gradientUnits="userSpaceOnUse" y1="41.951" gradientTransform="matrix(.3567615 0 0 .3567616 -.5622784 31.43772)" x2="21.794" y2="6.7733">
<stop stop-color="#474845" offset="0"/>
<stop stop-color="#7b7e78" offset="1"/>
</linearGradient>
<linearGradient id="w" x1="-8.1452" xlink:href="#d" gradientUnits="userSpaceOnUse" y1="11.728" gradientTransform="matrix(.6545711 0 0 .654082 11.03916 31.04031)" x2="-11.191" y2="4.9662"/>
<linearGradient id="p" x1="-8.9502" xlink:href="#m" gradientUnits="userSpaceOnUse" y1="11.809" gradientTransform="matrix(.654572 0 0 .6540722 11.03921 -.9596)" x2="-9.5003" y2="4.7247"/>
<linearGradient id="q" x1="-8.9502" xlink:href="#m" gradientUnits="userSpaceOnUse" y1="11.809" gradientTransform="matrix(.654572 0 0 .6540722 11.03921 38.0404)" x2="-9.5003" y2="4.7247"/>
<linearGradient id="r" x1="-8.9502" xlink:href="#m" gradientUnits="userSpaceOnUse" y1="11.809" gradientTransform="matrix(.654572 0 0 .6540722 18.03921 38.0404)" x2="-9.5003" y2="4.7247"/>
<linearGradient id="s" x1="-8.9502" xlink:href="#m" gradientUnits="userSpaceOnUse" y1="11.809" gradientTransform="matrix(.654572 0 0 .6540722 18.03921 31.0404)" x2="-9.5003" y2="4.7247"/>
<linearGradient id="t" x1="-8.1452" xlink:href="#d" gradientUnits="userSpaceOnUse" y1="11.728" gradientTransform="matrix(.6545711 0 0 .654082 11.03916 38.04031)" x2="-11.191" y2="4.9662"/>
<linearGradient id="u" x1="-8.1452" xlink:href="#d" gradientUnits="userSpaceOnUse" y1="11.728" gradientTransform="matrix(.6545711 0 0 .654082 18.03916 38.04031)" x2="-11.191" y2="4.9662"/>
<linearGradient id="v" x1="-8.1452" xlink:href="#d" gradientUnits="userSpaceOnUse" y1="11.728" gradientTransform="matrix(.6545711 0 0 .654082 18.03916 31.04031)" x2="-11.191" y2="4.9662"/>
<linearGradient id="n" y2="4.9662" xlink:href="#d" gradientUnits="userSpaceOnUse" x2="-11.191" gradientTransform="matrix(.6545711 0 0 .654082 11.03916 -.95969)" y1="11.728" x1="-8.1452"/>
</defs>
<rect rx="0.60258" ry="0" height="7" width="7" y="1" x="1" fill="#babdb6"/>
<path d="m1.4999 7.5h6.0002v-6.0001" stroke="url(#p)" stroke-linecap="square" fill="none"/>
<path d="m1.4999 7.5v-6.0002h6.0002" stroke="url(#n)" stroke-linecap="square" fill="none"/>
<g fill="#babdb6" transform="translate(0,-32)">
<rect rx="0.60258" ry="0" height="7" width="7" y="40" x="1"/>
<rect rx="0.60258" ry="0" height="7" width="7" y="40" x="8"/>
<rect rx="0.60258" ry="0" height="7" width="7" y="33" x="8"/>
</g>
<g fill="none" transform="translate(0,-32)">
<g stroke-linecap="square">
<path d="m1.4999 39.5v-6.0002h6.0002" stroke="url(#w)"/>
<path d="m1.4999 46.5h6.0002v-6.0001" stroke="url(#q)"/>
<path d="m8.4999 46.5h6.0002v-6.0001" stroke="url(#r)"/>
<path d="m8.4999 39.5h6.0002v-6.0001" stroke="url(#s)"/>
<path d="m1.4999 46.5v-6.0002h6.0002" stroke="url(#t)"/>
<path d="m8.4999 46.5v-6.0002h6.0002" stroke="url(#u)"/>
<path d="m8.4999 39.5v-6.0002h6.0002" stroke="url(#v)"/>
</g>
<rect stroke-linejoin="round" ry="1.0913" height="15.001" width="15.001" stroke="url(#o)" y="32.5" x="0.49959"/>
</g>
<path d="m11.50015 0.5544255c0.48552-0.00745 0.950802 1.827771 1.343651 2.089428 0.403547 0.2687554 2.484325 0.1354699 2.646452 0.5679049 0.157761 0.420967-1.602543 1.393706-1.75267 1.817005-0.154144 0.4348612 0.627153 2.207696 0.228577 2.482614-0.388014 0.2676242-1.941179-0.9664276-2.426793-0.9664276-0.498806-2e-7 -2.096754 1.228942-2.505176 0.9664276-0.397571-0.255572 0.402842-1.990975 0.252791-2.414353-0.154143-0.434861-1.923052-1.448159-1.77684-1.885345 0.142306-0.425578 2.1902-0.264051 2.583048-0.525684 0.40355-0.268756 0.90825-2.123988 1.40697-2.131633z" stroke="#edd400" fill="#fff"/>
</svg>
