<?xml version="1.0" encoding="UTF-8" standalone="no"?>
<svg xmlns:rdf="http://www.w3.org/1999/02/22-rdf-syntax-ns#" xmlns="http://www.w3.org/2000/svg" height="64" width="64" version="1.1" xmlns:cc="http://creativecommons.org/ns#" xmlns:xlink="http://www.w3.org/1999/xlink" xmlns:dc="http://purl.org/dc/elements/1.1/">
 <g id="h">
  <rect height="14" width="14" y="4" x="32" fill="#73d216"/>
  <path d="m32 18h14v-14l-1 1v12h-12z" fill="#4e9a06"/>
  <path d="m32 18v-14h14l-1 1h-12v12z" fill="#8ae234"/>
 </g>
 <use y="14" x="14" xlink:href="#h"/>
 <use y="28" x="14" xlink:href="#h"/>
 <g id="g">
  <rect height="14" width="14" y="32" x="18" fill="#3465a4"/>
  <path fill="#204a87" d="m18 46h14v-14l-1 1v12h-12z"/>
  <path fill="#558bc5" d="m18 46v-14h14l-1 1h-12v12z"/>
 </g>
 <use x="14" xlink:href="#g"/>
 <use y="14" x="14" xlink:href="#g"/>
 <g id="f">
  <rect height="14" width="14" y="18" x="4" fill="#edd400"/>
  <path d="m4 32h14v-14l-1 1v12h-12z" fill="#c4a000"/>
  <path d="m4 32v-14h14l-1 1h-12v12z" fill="#fce94f"/>
 </g>
 <use y="14" xlink:href="#f"/>
 <use y="28" x="14" xlink:href="#f"/>
 <g id="e" transform="translate(14)">
  <rect height="14" width="14" y="4" x="4" fill="#c00"/>
  <path fill="#a40000" d="m4 18h14v-14l-1 1v12h-12z"/>
  <path fill="#ef2929" d="m4 18v-14h14l-1 1h-12v12z"/>
 </g>
 <use xlink:href="#e" transform="translate(-14)" height="100%" width="100%" y="14" x="14"/>
 <use xlink:href="#e" transform="translate(-14)" height="100%" width="100%" y="14" x="28"/>
 <g transform="translate(39.765 -24.913)">
  <path d="m-30.771 28.913c-2.7266-0.0036-4.9359 2.1615-4.9941 4.8711v1.6289l0.0293 7.498-0.02148 0.002h13.984l0.0078-0.02148v-3.5039l-0.01758-10.461 0.01758-0.002-9.0059-0.01172z" fill="#c00"/>
  <path d="m-35.765 42.913h14v-14l-1 1v12h-12z" fill="#a40000"/>
  <path d="m-30.765 28.929c-1.1245-0.0015-2.1515 0.3779-2.9863 1h10.992l0.98242-0.98242v-0.0039h0.0039l0.002-0.002-8.9941-0.01172zm-3.9941 2.0078c-0.60237 0.80326-0.97683 1.7851-1 2.8633v1.5488l0.03125 7.5488 0.96875-0.96875v-10.992z" fill="#ef2929"/>
 </g>
 <g transform="translate(33.56 28.36)">
  <path d="m-29.548 17.64-0.01172 9.0059c-0.0036 2.7264 2.1618 4.9357 4.8711 4.9941h1.6289l7.498-0.0293 0.002 0.02148v-13.984l-0.02148-0.0078h-3.5039l-10.461 0.01758-0.002-0.01758z" fill="#edd400"/>
  <path d="m-15.565 17.64-0.99414 0.99414v12h-10.992c0.80569 0.6042 1.791 0.97884 2.873 1h1.5391l7.5781-0.03125 0.002 0.02148v-13.982l-0.0059-0.002z" fill="#c4a000"/>
  <path d="m-29.54 17.64-0.01172 9.0059c-0.0015 1.1245 0.3779 2.1515 1 2.9863v-10.992h12l0.99219-0.99219-0.01758-0.0078h-3.2324l-10.729 0.01953-0.002-0.01953z" fill="#fce94f"/>
 </g>
 <g transform="translate(-29.025 -2.0342)">
  <path d="m75.034 48.034-0.0098 0.02344v3.2324l0.01953 10.73-0.01953 0.002 9.0059 0.01172c2.7264 0.0036 4.9357-2.1618 4.9941-4.8711v-1.6289l-0.0293-7.498 0.02148-0.002h-13.982z" fill="#3465a4"/>
  <path d="m88.988 48.05-0.96875 0.96875v10.992c0.60265-0.80362 0.97713-1.7864 1-2.8652v-1.5469l-0.03125-7.5488zm-12.969 12.969-0.98242 0.98242v0.0039h-0.0039l-0.002 0.002 8.9941 0.01172c1.1243 0.0015 2.1496-0.37804 2.9844-1h-10.99z" fill="#204a87"/>
  <path fill="#558bc5" d="m75.025 62.034v-14h14l-1 1h-12v12z"/>
 </g>
 <g transform="translate(-38.686 25.12)">
  <path d="m92.186-21.12-7.498 0.0293-0.002-0.02148v13.984l0.02148 0.00781h3.502l10.461-0.017578 0.0039 0.017578 0.01172-9.0059c0.0036-2.7264-2.1618-4.9357-4.8711-4.9941h-1.6289z" fill="#73d216"/>
  <path d="m97.68-19.108v10.988h-12l-0.99414 0.99414 0.01563 0.00586h3.502l10.461-0.017578 0.0039 0.017578 0.01172-9.0059c0.0015-1.1233-0.37903-2.148-1-2.9824z" fill="#4e9a06"/>
  <path d="m92.186-21.112-7.498 0.0293-0.002-0.02148v13.982l0.0078 0.002 0.99219-0.99219v-12h10.994c-0.8036-0.60324-1.7861-0.97681-2.8652-1h-1.6289z" fill="#8ae234"/>
 </g>
</svg>
