<?xml version="1.0" encoding="UTF-8" standalone="no"?>
<!-- Created with Inkscape (http://www.inkscape.org/) -->

<svg
   xmlns:dc="http://purl.org/dc/elements/1.1/"
   xmlns:cc="http://creativecommons.org/ns#"
   xmlns:rdf="http://www.w3.org/1999/02/22-rdf-syntax-ns#"
   xmlns:svg="http://www.w3.org/2000/svg"
   xmlns="http://www.w3.org/2000/svg"
   xmlns:xlink="http://www.w3.org/1999/xlink"
   version="1.1"
   width="32"
   height="32"
   id="svg2985">
  <defs
     id="defs2987">
    <linearGradient
       id="linearGradient4020">
      <stop
         id="stop4022"
         style="stop-color:#5a5b57;stop-opacity:1"
         offset="0" />
      <stop
         id="stop4024"
         style="stop-color:#737570;stop-opacity:1"
         offset="1" />
    </linearGradient>
    <linearGradient
       x1="24.113501"
       y1="41.951183"
       x2="21.793533"
       y2="6.7733049"
       id="linearGradient3485"
       xlink:href="#linearGradient4020"
       gradientUnits="userSpaceOnUse"
       gradientTransform="matrix(0.71349692,0,0,0.71349691,-1.1237111,-1.12371)" />
  </defs>
  <metadata
     id="metadata2990">
    <rdf:RDF>
      <cc:Work
         rdf:about="">
        <dc:format>image/svg+xml</dc:format>
        <dc:type
           rdf:resource="http://purl.org/dc/dcmitype/StillImage" />
        <dc:title></dc:title>
      </cc:Work>
    </rdf:RDF>
  </metadata>
  <rect
     width="30.00013"
     height="30.000132"
     rx="1.0434194"
     ry="1.0296704"
     x="0.99993467"
     y="0.99993515"
     id="rect3317"
     style="fill:none;stroke:url(#linearGradient3485);stroke-width:1.99986935;stroke-linejoin:round;stroke-miterlimit:4;stroke-opacity:1;stroke-dasharray:none" />
  <g
     transform="translate(17,-13)"
     id="g3626">
    <rect
       width="7"
       height="7"
       rx="0.92958546"
       ry="0"
       x="-15"
       y="15"
       id="rect3318"
       style="opacity:0.98999999;fill:#cc0000;fill-opacity:1;fill-rule:evenodd;stroke:none" />
    <path
       d="m -15,22 0,-1 6,0 0,-6 1,0 0,7 z"
       id="path4088"
       style="fill:#a40000;fill-opacity:1;stroke:none" />
    <path
       d="m -15,22 0,-7 7,0 -1,1 -5,0 0,5 z"
       id="path4090"
       style="fill:#ef2929;fill-opacity:1;stroke:none" />
  </g>
  <use
     transform="translate(14,7)"
     id="use3631"
     x="0"
     y="0"
     width="32"
     height="32"
     xlink:href="#g3626" />
  <use
     transform="translate(7.0000008,7)"
     id="use3633"
     x="0"
     y="0"
     width="32"
     height="32"
     xlink:href="#g3626" />
  <use
     transform="translate(7,0)"
     id="use3635"
     x="0"
     y="0"
     width="32"
     height="32"
     xlink:href="#g3626" />
  <g
     transform="translate(17,2)"
     id="g3667">
    <rect
       width="7"
       height="7"
       rx="0.92958546"
       ry="0"
       x="-15"
       y="7"
       id="rect3318-5"
       style="opacity:0.98999999;fill:#edd400;fill-opacity:1;fill-rule:evenodd;stroke:none" />
    <path
       d="m -15,14 0,-1 6,0 0,-6 1,0 0,7 z"
       id="path4088-6"
       style="fill:#c4a000;fill-opacity:1;stroke:none" />
    <path
       d="m -15,14 0,-7 7,0 -1,1 -5,0 0,5 z"
       id="path4090-6"
       style="fill:#fce94f;fill-opacity:1;stroke:none" />
  </g>
  <g
     transform="translate(17,9)"
     id="g3672">
    <rect
       width="7"
       height="7"
       rx="0.92958546"
       ry="0"
       x="-15"
       y="7"
       id="rect3674"
       style="opacity:0.98999999;fill:#edd400;fill-opacity:1;fill-rule:evenodd;stroke:none" />
    <path
       d="m -15,14 0,-1 6,0 0,-6 1,0 0,7 z"
       id="path3676"
       style="fill:#c4a000;fill-opacity:1;stroke:none" />
    <path
       d="m -15,14 0,-7 7,0 -1,1 -5,0 0,5 z"
       id="path3678"
       style="fill:#fce94f;fill-opacity:1;stroke:none" />
  </g>
  <g
     transform="translate(24,16)"
     id="g3680">
    <rect
       width="7"
       height="7"
       rx="0.92958546"
       ry="0"
       x="-15"
       y="7"
       id="rect3682"
       style="opacity:0.98999999;fill:#edd400;fill-opacity:1;fill-rule:evenodd;stroke:none" />
    <path
       d="m -15,14 0,-1 6,0 0,-6 1,0 0,7 z"
       id="path3684"
       style="fill:#c4a000;fill-opacity:1;stroke:none" />
    <path
       d="m -15,14 0,-7 7,0 -1,1 -5,0 0,5 z"
       id="path3686"
       style="fill:#fce94f;fill-opacity:1;stroke:none" />
  </g>
  <g
     transform="translate(17,16)"
     id="g3688">
    <rect
       width="7"
       height="7"
       rx="0.92958546"
       ry="0"
       x="-15"
       y="7"
       id="rect3690"
       style="opacity:0.98999999;fill:#edd400;fill-opacity:1;fill-rule:evenodd;stroke:none" />
    <path
       d="m -15,14 0,-1 6,0 0,-6 1,0 0,7 z"
       id="path3692"
       style="fill:#c4a000;fill-opacity:1;stroke:none" />
    <path
       d="m -15,14 0,-7 7,0 -1,1 -5,0 0,5 z"
       id="path3694"
       style="fill:#fce94f;fill-opacity:1;stroke:none" />
  </g>
  <g
     transform="translate(30.949153,-5.050848)"
     id="g3742">
    <rect
       width="7"
       height="7"
       rx="0.92958546"
       ry="0"
       x="-14.949153"
       y="7.0508475"
       id="rect3318-4"
       style="opacity:0.98999999;fill:#73d216;fill-opacity:1;fill-rule:evenodd;stroke:none" />
    <path
       d="m -14.949153,14.050848 0,-1 6.0000004,0 0,-6.0000005 1.0000001,0 0,7.0000005 z"
       id="path4088-7"
       style="fill:#4e9a06;fill-opacity:1;stroke:none" />
    <path
       d="m -14.949153,14.050848 0,-7.0000005 7.0000005,0 -1.0000001,1 -5.0000004,0 0,5.0000005 z"
       id="path4090-1"
       style="fill:#8ae234;fill-opacity:1;stroke:none" />
    <rect
       width="7"
       height="7"
       rx="0.92958546"
       ry="0"
       x="-14.949153"
       y="7.0508475"
       id="rect3726"
       style="opacity:0.98999999;fill:#73d216;fill-opacity:1;fill-rule:evenodd;stroke:none" />
    <path
       d="m -14.949153,14.050848 0,-1 6.0000004,0 0,-6.0000005 1.0000001,0 0,7.0000005 z"
       id="path3728"
       style="fill:#4e9a06;fill-opacity:1;stroke:none" />
    <path
       d="m -14.949153,14.050848 0,-7.0000005 7.0000005,0 -1.0000001,1 -5.0000004,0 0,5.0000005 z"
       id="path3730"
       style="fill:#8ae234;fill-opacity:1;stroke:none" />
  </g>
  <g
     transform="translate(37.949153,1.949152)"
     id="g3750">
    <rect
       width="7"
       height="7"
       rx="0.92958546"
       ry="0"
       x="-14.949153"
       y="7.0508475"
       id="rect3752"
       style="opacity:0.98999999;fill:#73d216;fill-opacity:1;fill-rule:evenodd;stroke:none" />
    <path
       d="m -14.949153,14.050848 0,-1 6.0000004,0 0,-6.0000005 1.0000001,0 0,7.0000005 z"
       id="path3754"
       style="fill:#4e9a06;fill-opacity:1;stroke:none" />
    <path
       d="m -14.949153,14.050848 0,-7.0000005 7.0000005,0 -1.0000001,1 -5.0000004,0 0,5.0000005 z"
       id="path3756"
       style="fill:#8ae234;fill-opacity:1;stroke:none" />
    <rect
       width="7"
       height="7"
       rx="0.92958546"
       ry="0"
       x="-14.949153"
       y="7.0508475"
       id="rect3758"
       style="opacity:0.98999999;fill:#73d216;fill-opacity:1;fill-rule:evenodd;stroke:none" />
    <path
       d="m -14.949153,14.050848 0,-1 6.0000004,0 0,-6.0000005 1.0000001,0 0,7.0000005 z"
       id="path3760"
       style="fill:#4e9a06;fill-opacity:1;stroke:none" />
    <path
       d="m -14.949153,14.050848 0,-7.0000005 7.0000005,0 -1.0000001,1 -5.0000004,0 0,5.0000005 z"
       id="path3762"
       style="fill:#8ae234;fill-opacity:1;stroke:none" />
  </g>
  <g
     transform="translate(37.949153,8.949152)"
     id="g3764">
    <rect
       width="7"
       height="7"
       rx="0.92958546"
       ry="0"
       x="-14.949153"
       y="7.0508475"
       id="rect3766"
       style="opacity:0.98999999;fill:#73d216;fill-opacity:1;fill-rule:evenodd;stroke:none" />
    <path
       d="m -14.949153,14.050848 0,-1 6.0000004,0 0,-6.0000005 1.0000001,0 0,7.0000005 z"
       id="path3768"
       style="fill:#4e9a06;fill-opacity:1;stroke:none" />
    <path
       d="m -14.949153,14.050848 0,-7.0000005 7.0000005,0 -1.0000001,1 -5.0000004,0 0,5.0000005 z"
       id="path3770"
       style="fill:#8ae234;fill-opacity:1;stroke:none" />
    <rect
       width="7"
       height="7"
       rx="0.92958546"
       ry="0"
       x="-14.949153"
       y="7.0508475"
       id="rect3772"
       style="opacity:0.98999999;fill:#73d216;fill-opacity:1;fill-rule:evenodd;stroke:none" />
    <path
       d="m -14.949153,14.050848 0,-1 6.0000004,0 0,-6.0000005 1.0000001,0 0,7.0000005 z"
       id="path3774"
       style="fill:#4e9a06;fill-opacity:1;stroke:none" />
    <path
       d="m -14.949153,14.050848 0,-7.0000005 7.0000005,0 -1.0000001,1 -5.0000004,0 0,5.0000005 z"
       id="path3776"
       style="fill:#8ae234;fill-opacity:1;stroke:none" />
  </g>
  <g
     transform="translate(37.949153,-5.050848)"
     id="g3778">
    <rect
       width="7"
       height="7"
       rx="0.92958546"
       ry="0"
       x="-14.949153"
       y="7.0508475"
       id="rect3780"
       style="opacity:0.98999999;fill:#73d216;fill-opacity:1;fill-rule:evenodd;stroke:none" />
    <path
       d="m -14.949153,14.050848 0,-1 6.0000004,0 0,-6.0000005 1.0000001,0 0,7.0000005 z"
       id="path3782"
       style="fill:#4e9a06;fill-opacity:1;stroke:none" />
    <path
       d="m -14.949153,14.050848 0,-7.0000005 7.0000005,0 -1.0000001,1 -5.0000004,0 0,5.0000005 z"
       id="path3784"
       style="fill:#8ae234;fill-opacity:1;stroke:none" />
    <rect
       width="7"
       height="7"
       rx="0.92958546"
       ry="0"
       x="-14.949153"
       y="7.0508475"
       id="rect3786"
       style="opacity:0.98999999;fill:#73d216;fill-opacity:1;fill-rule:evenodd;stroke:none" />
    <path
       d="m -14.949153,14.050848 0,-1 6.0000004,0 0,-6.0000005 1.0000001,0 0,7.0000005 z"
       id="path3788"
       style="fill:#4e9a06;fill-opacity:1;stroke:none" />
    <path
       d="m -14.949153,14.050848 0,-7.0000005 7.0000005,0 -1.0000001,1 -5.0000004,0 0,5.0000005 z"
       id="path3790"
       style="fill:#8ae234;fill-opacity:1;stroke:none" />
  </g>
  <g
     transform="translate(24.016949,8.966102)"
     id="g5179">
    <rect
       width="7"
       height="7"
       rx="0.92958546"
       ry="0"
       x="-15.016949"
       y="7.0338974"
       id="rect3318-4-0"
       style="opacity:0.98999999;fill:#73d216;fill-opacity:1;fill-rule:evenodd;stroke:none" />
    <path
       d="m -15.016949,14.033898 0,-1 6.0000002,0 0,-6.0000007 1.0000001,0 0,7.0000007 z"
       id="path4088-7-6"
       style="fill:#4e9a06;fill-opacity:1;stroke:none" />
    <path
       d="m -15.016949,14.033898 0,-7.0000007 7.0000003,0 -1.0000001,1 -5.0000002,0 0,5.0000007 z"
       id="path4090-1-9"
       style="fill:#8ae234;fill-opacity:1;stroke:none" />
    <rect
       width="7"
       height="7"
       rx="0.92958546"
       ry="0"
       x="-15.016949"
       y="7.0338974"
       id="rect3726-4"
       style="opacity:0.98999999;fill:#3465a4;fill-opacity:1;fill-rule:evenodd;stroke:none" />
    <path
       d="m -15.016949,14.033898 0,-1 6.0000002,0 0,-6.0000007 1.0000001,0 0,7.0000007 z"
       id="path3728-1"
       style="fill:#204a87;fill-opacity:1;stroke:none" />
    <path
       d="m -15.016949,14.033898 0,-7.0000007 7.0000003,0 -1.0000001,1 -5.0000002,0 0,5.0000007 z"
       id="path3730-7"
       style="fill:#558bc5;fill-opacity:1;stroke:none" />
  </g>
  <g
     transform="translate(31.016949,8.966102)"
     id="g5187">
    <rect
       width="7"
       height="7"
       rx="0.92958546"
       ry="0"
       x="-15.016949"
       y="7.0338974"
       id="rect5189"
       style="opacity:0.98999999;fill:#73d216;fill-opacity:1;fill-rule:evenodd;stroke:none" />
    <path
       d="m -15.016949,14.033898 0,-1 6.0000002,0 0,-6.0000007 1.0000001,0 0,7.0000007 z"
       id="path5191"
       style="fill:#4e9a06;fill-opacity:1;stroke:none" />
    <path
       d="m -15.016949,14.033898 0,-7.0000007 7.0000003,0 -1.0000001,1 -5.0000002,0 0,5.0000007 z"
       id="path5193"
       style="fill:#8ae234;fill-opacity:1;stroke:none" />
    <rect
       width="7"
       height="7"
       rx="0.92958546"
       ry="0"
       x="-15.016949"
       y="7.0338974"
       id="rect5195"
       style="opacity:0.98999999;fill:#3465a4;fill-opacity:1;fill-rule:evenodd;stroke:none" />
    <path
       d="m -15.016949,14.033898 0,-1 6.0000002,0 0,-6.0000007 1.0000001,0 0,7.0000007 z"
       id="path5197"
       style="fill:#204a87;fill-opacity:1;stroke:none" />
    <path
       d="m -15.016949,14.033898 0,-7.0000007 7.0000003,0 -1.0000001,1 -5.0000002,0 0,5.0000007 z"
       id="path5199"
       style="fill:#558bc5;fill-opacity:1;stroke:none" />
  </g>
  <g
     transform="translate(31.016949,15.966102)"
     id="g5201">
    <rect
       width="7"
       height="7"
       rx="0.92958546"
       ry="0"
       x="-15.016949"
       y="7.0338974"
       id="rect5203"
       style="opacity:0.98999999;fill:#73d216;fill-opacity:1;fill-rule:evenodd;stroke:none" />
    <path
       d="m -15.016949,14.033898 0,-1 6.0000002,0 0,-6.0000007 1.0000001,0 0,7.0000007 z"
       id="path5205"
       style="fill:#4e9a06;fill-opacity:1;stroke:none" />
    <path
       d="m -15.016949,14.033898 0,-7.0000007 7.0000003,0 -1.0000001,1 -5.0000002,0 0,5.0000007 z"
       id="path5207"
       style="fill:#8ae234;fill-opacity:1;stroke:none" />
    <rect
       width="7"
       height="7"
       rx="0.92958546"
       ry="0"
       x="-15.016949"
       y="7.0338974"
       id="rect5209"
       style="opacity:0.98999999;fill:#3465a4;fill-opacity:1;fill-rule:evenodd;stroke:none" />
    <path
       d="m -15.016949,14.033898 0,-1 6.0000002,0 0,-6.0000007 1.0000001,0 0,7.0000007 z"
       id="path5211"
       style="fill:#204a87;fill-opacity:1;stroke:none" />
    <path
       d="m -15.016949,14.033898 0,-7.0000007 7.0000003,0 -1.0000001,1 -5.0000002,0 0,5.0000007 z"
       id="path5213"
       style="fill:#558bc5;fill-opacity:1;stroke:none" />
  </g>
  <g
     transform="translate(38.016948,15.966102)"
     id="g5215">
    <rect
       width="7"
       height="7"
       rx="0.92958546"
       ry="0"
       x="-15.016949"
       y="7.0338974"
       id="rect5217"
       style="opacity:0.98999999;fill:#73d216;fill-opacity:1;fill-rule:evenodd;stroke:none" />
    <path
       d="m -15.016949,14.033898 0,-1 6.0000002,0 0,-6.0000007 1.0000001,0 0,7.0000007 z"
       id="path5219"
       style="fill:#4e9a06;fill-opacity:1;stroke:none" />
    <path
       d="m -15.016949,14.033898 0,-7.0000007 7.0000003,0 -1.0000001,1 -5.0000002,0 0,5.0000007 z"
       id="path5221"
       style="fill:#8ae234;fill-opacity:1;stroke:none" />
    <rect
       width="7"
       height="7"
       rx="0.92958546"
       ry="0"
       x="-15.016949"
       y="7.0338974"
       id="rect5223"
       style="opacity:0.98999999;fill:#3465a4;fill-opacity:1;fill-rule:evenodd;stroke:none" />
    <path
       d="m -15.016949,14.033898 0,-1 6.0000002,0 0,-6.0000007 1.0000001,0 0,7.0000007 z"
       id="path5225"
       style="fill:#204a87;fill-opacity:1;stroke:none" />
    <path
       d="m -15.016949,14.033898 0,-7.0000007 7.0000003,0 -1.0000001,1 -5.0000002,0 0,5.0000007 z"
       id="path5227"
       style="fill:#558bc5;fill-opacity:1;stroke:none" />
  </g>
</svg>
