<?xml version="1.0" encoding="UTF-8" standalone="no"?>
<svg xmlns:rdf="http://www.w3.org/1999/02/22-rdf-syntax-ns#" xmlns="http://www.w3.org/2000/svg" height="22" width="22" version="1.1" xmlns:cc="http://creativecommons.org/ns#" xmlns:xlink="http://www.w3.org/1999/xlink" xmlns:dc="http://purl.org/dc/elements/1.1/">
 <rect height="18" width="18" y="2" x="2" fill="#babdb6"/>
 <g id="a">
  <path d="m1 11v-10h10l-1 1h-8v8z" fill="#999B96"/>
  <path d="m1 11h10v-10l-1 1v8h-8" fill="#c8cdc3"/>
 </g>
 <use xlink:href="#a" transform="translate(10)"/>
 <use xlink:href="#a" transform="translate(0 10)"/>
 <use xlink:href="#a" transform="translate(10 10)"/>
 <rect stroke-linejoin="round" ry="1.5" height="21" width="21" stroke="#878A84" y=".5" x=".5" fill="none"/>
 <path stroke="#edd400" d="m16 .64c.69 .02 1.4 2.6 2 3 .53 .36 3.3 .11 3.5 .7 .19 .62-2.2 2.1-2.5 2.7-.2 .58 .91 3 .37 3.3-.57 .36-2.8-1.4-3.5-1.4-.66 0 -2.8 1.7-3.3 1.4-.55-.4 .52-2.9 .3-3.5-.2-.58-2.6-1.9-2.4-2.5 .24-.61 3.1-.43 3.7-.81 .53-.36 1.1-2.9 1.8-2.9z" fill="#fff"/>
</svg>
