<?xml version="1.0" encoding="UTF-8" standalone="no"?>
<!-- Created with Inkscape (http://www.inkscape.org/) -->

<svg
   xmlns:dc="http://purl.org/dc/elements/1.1/"
   xmlns:cc="http://creativecommons.org/ns#"
   xmlns:rdf="http://www.w3.org/1999/02/22-rdf-syntax-ns#"
   xmlns:svg="http://www.w3.org/2000/svg"
   xmlns="http://www.w3.org/2000/svg"
   xmlns:xlink="http://www.w3.org/1999/xlink"
   version="1.1"
   width="22"
   height="22"
   id="svg2985">
  <defs
     id="defs2987">
    <linearGradient
       id="linearGradient3851">
      <stop
         id="stop3853"
         style="stop-color:#b4b6b2;stop-opacity:1"
         offset="0" />
      <stop
         id="stop3855"
         style="stop-color:#464844;stop-opacity:1"
         offset="1" />
    </linearGradient>
    <linearGradient
       id="linearGradient3835">
      <stop
         id="stop3837"
         style="stop-color:#c8c9c7;stop-opacity:1"
         offset="0" />
      <stop
         id="stop3839"
         style="stop-color:#a0a39d;stop-opacity:1"
         offset="1" />
    </linearGradient>
    <linearGradient
       x1="10.103694"
       y1="10.213718"
       x2="15.968225"
       y2="32.100445"
       id="linearGradient4034"
       xlink:href="#linearGradient3851"
       gradientUnits="userSpaceOnUse"
       gradientTransform="translate(-0.06566604,-10.13628)" />
    <linearGradient
       x1="10.103694"
       y1="10.213718"
       x2="15.968225"
       y2="32.100445"
       id="linearGradient4036"
       xlink:href="#linearGradient3835"
       gradientUnits="userSpaceOnUse"
       gradientTransform="translate(-0.06566604,-10.13628)" />
  </defs>
  <metadata
     id="metadata2990">
    <rdf:RDF>
      <cc:Work
         rdf:about="">
        <dc:format>image/svg+xml</dc:format>
        <dc:type
           rdf:resource="http://purl.org/dc/dcmitype/StillImage" />
        <dc:title></dc:title>
      </cc:Work>
    </rdf:RDF>
  </metadata>
  <g
     transform="translate(0,-10)"
     id="layer1">
    <path
       d="m 9.40625,4.40625 0,2.75 L 1.188,7.156 l 0,7.5 8.21825,2.5e-4 c -0.036891,0.03768 5.5e-4,2.745873 0,2.75 l 3.817983,-3.778519 c 0,0 -0.03618,3.774392 -0.03673,3.778519 l 6.5,-6.5 -6.5,-6.5 0.03673,3.6866869 z"
       transform="translate(0,10)"
       id="path3789"
       style="fill:url(#linearGradient4034);fill-opacity:1;fill-rule:evenodd;stroke:url(#linearGradient4036);stroke-width:1.50019085;stroke-linejoin:miter;stroke-miterlimit:4;stroke-dasharray:none" />
    <path
       d="m 8.5,2.53125 0,3.96875 -8,0 0,9 8,0 c 0,0 7.803e-4,3.994001 0,4 l 4,-4 c 0,0 7.78e-4,3.994001 0,4 L 21,11 12.5,2.53125 c 0,0 -0.03697,3.9807 0,3.96875 l -0.03125,0 z"
       transform="translate(0,10)"
       id="rect3778"
       style="fill:none;stroke:#555753;stroke-width:1.00007391;stroke-linecap:round;stroke-linejoin:round;stroke-miterlimit:4;stroke-opacity:1" />
  </g>
</svg>
