<?xml version="1.0" encoding="UTF-8" standalone="no"?>
<svg xmlns:rdf="http://www.w3.org/1999/02/22-rdf-syntax-ns#" xmlns="http://www.w3.org/2000/svg" height="16" width="16" version="1.1" xmlns:cc="http://creativecommons.org/ns#" xmlns:xlink="http://www.w3.org/1999/xlink" xmlns:dc="http://purl.org/dc/elements/1.1/">
 <rect height="12" width="12" y="2" x="2" fill="#babdb6"/>
 <g id="a">
  <path d="m1 8v-7h7l-1 1h-5v5z" fill="#999B96"/>
  <path d="m1 8h7v-7l-1 1v5h-5" fill="#c8cdc3"/>
 </g>
 <use xlink:href="#a" transform="translate(7)"/>
 <use xlink:href="#a" transform="translate(0 7)"/>
 <use xlink:href="#a" transform="translate(7 7)"/>
 <rect stroke-linejoin="round" ry="1.5" height="15" width="15" stroke="#878A84" y=".5" x=".5" fill="none"/>
 <path d="m11 .51c0.54 0 1 2 1.4 2.3 .44 .3 2.8 .16 2.9 .63 .18 .46-1.8 1.6-2 2-.17 .48 .7 2.4 .25 2.8-.43 .3-2.1-1.1-2.7-1.1-.55 0-2.3 1.3-2.8 1.1s0.4-2.2 .2-2.6c-.1-.4-2.1-1.6-2-2.1 .2-.4 2.4-.3 2.9-.5 .5-.4 .8-2.5 1.8-2.5z" stroke="#edd400" fill="#fff"/>
</svg>
