<?xml version="1.0" encoding="UTF-8" standalone="no"?>
<svg xmlns:rdf="http://www.w3.org/1999/02/22-rdf-syntax-ns#" xmlns="http://www.w3.org/2000/svg" height="16" width="16" version="1.1" xmlns:cc="http://creativecommons.org/ns#" xmlns:xlink="http://www.w3.org/1999/xlink" xmlns:dc="http://purl.org/dc/elements/1.1/">
 <g id="h">
  <rect width="4" fill="#73d216" x="8" height="4"/>
  <path d="m8 4v-4h4l-1 1h-2v2z" fill="#b8e888"/>
 </g>
 <use y="4" x="4" xlink:href="#h"/>
 <use y="8" x="4" xlink:href="#h"/>
 <g id="g">
  <rect height="4" width="4" y="8" x="4" fill="#3465a4"/>
  <path d="m4 12v-4h4l-1 1h-2v2z" fill="#82a0c7"/>
 </g>
 <use x="4" xlink:href="#g"/>
 <use y="4" x="4" xlink:href="#g"/>
 <g id="f">
  <rect y="4" width="4" fill="#edd400" height="4"/>
  <path d="m0 8v-4h4l-1 1h-2v2z" fill="#fff283"/>
 </g>
 <use y="4" xlink:href="#f"/>
 <use y="8" x="4" xlink:href="#f"/>
 <g id="e" transform="translate(4)">
  <rect height="4" width="4" y="0" x="0" fill="#c00"/>
  <path fill="#f57b7b" d="m0 4v-4h4l-1 1h-2v2z"/>
 </g>
 <use xlink:href="#e" transform="translate(-4)" height="100%" width="100%" y="4" x="4"/>
 <use xlink:href="#e" transform="translate(-4)" height="100%" width="100%" y="4" x="8"/>
 <g transform="translate(9.2539 -7.8691)">
  <path d="m-7.9922 7.8691c-0.70519 0.03816-1.2618 0.61647-1.2617 1.332v2.668h4v-4h-0.00391l-0.00195 0.002-0.53125-0.002h-2.2012z" fill="#c00"/>
  <path d="m-7.9922 7.8691c-0.70519 0.03816-1.2618 0.61647-1.2617 1.332v2.668l1-1v-2h2l1-1h-0.00391l-0.00195 0.00195-0.53125-0.00195h-2.2012z" fill="#f57b7b"/>
 </g>
 <g transform="translate(8.0508 6.5469)">
  <path d="m-8.0508 5.4531v0.00586 2.7324c0.038856 0.70452 0.61694 1.2618 1.332 1.2617h2.668v-4h-4z" fill="#edd400"/>
  <path d="m-8.0508 5.4531v0.00586 2.7324c0.018811 0.34109 0.15959 0.65001 0.38672 0.875l0.61328-0.61328v-2h2l1-1h-4z" fill="#fff283"/>
 </g>
 <g transform="translate(-9.7744 -1.3711)">
  <path d="m21.774 13.371v4h0.0039l0.002-0.002 0.53125 0.002h2.2012c0.70452-0.03886 1.2618-0.61694 1.2617-1.332v-2.668h-4z" fill="#3465a4"/>
  <path fill="#82a0c7" d="m21.774 17.371v-4h4l-1 1h-2v2z"/>
 </g>
 <g transform="translate(-9.623 -9.4824)">
  <path d="m21.623 9.4824v4h4v-0.0059-2.7324c-0.038-0.705-0.616-1.2617-1.332-1.2616h-2.668z" fill="#73d216"/>
  <path d="m21.623 9.4824v4l1-1v-2h2l0.61328-0.61328c-0.242-0.2393-0.576-0.3863-0.945-0.3863h-2.668z" fill="#b8e888"/>
 </g>
</svg>
