<?xml version="1.0" encoding="UTF-8" standalone="no"?>
<!-- Created with Inkscape (http://www.inkscape.org/) -->

<svg
   xmlns:dc="http://purl.org/dc/elements/1.1/"
   xmlns:cc="http://creativecommons.org/ns#"
   xmlns:rdf="http://www.w3.org/1999/02/22-rdf-syntax-ns#"
   xmlns:svg="http://www.w3.org/2000/svg"
   xmlns="http://www.w3.org/2000/svg"
   xmlns:xlink="http://www.w3.org/1999/xlink"
   version="1.1"
   width="48"
   height="48"
   id="svg2985">
  <defs
     id="defs2987">
    <linearGradient
       id="linearGradient4020">
      <stop
         id="stop4022"
         style="stop-color:#474845;stop-opacity:1"
         offset="0" />
      <stop
         id="stop4024"
         style="stop-color:#6b6d68;stop-opacity:1"
         offset="1" />
    </linearGradient>
    <linearGradient
       x1="26.158821"
       y1="41.492359"
       x2="21.489508"
       y2="6.0614457"
       id="linearGradient3793"
       xlink:href="#linearGradient4020"
       gradientUnits="userSpaceOnUse"
       gradientTransform="matrix(1.0476215,0,0,1.0476214,-1.1429151,-1.142913)" />
  </defs>
  <metadata
     id="metadata2990">
    <rdf:RDF>
      <cc:Work
         rdf:about="">
        <dc:format>image/svg+xml</dc:format>
        <dc:type
           rdf:resource="http://purl.org/dc/dcmitype/StillImage" />
        <dc:title></dc:title>
      </cc:Work>
    </rdf:RDF>
  </metadata>
  <rect
     width="44"
     height="44"
     rx="1.5303416"
     ry="1.5101768"
     x="2"
     y="2"
     id="rect3317"
     style="fill:url(#linearGradient3793);fill-opacity:1;stroke:none" />
  <g
     transform="translate(19,-14)"
     id="g4092">
    <rect
       width="10"
       height="10"
       rx="1.3279792"
       ry="0"
       x="-15"
       y="18"
       id="rect3318"
       style="opacity:0.98999999;fill:#cc0000;fill-opacity:1;fill-rule:evenodd;stroke:none" />
    <path
       d="m -15,28 0,-1 9,0 0,-9 1,0 0,10 z"
       id="path4088"
       style="fill:#a40000;fill-opacity:1;stroke:none" />
    <path
       d="m -15,28 0,-10 10,0 -1,1 -8,0 0,8 z"
       id="path4090"
       style="fill:#ef2929;fill-opacity:1;stroke:none" />
  </g>
  <use
     transform="translate(10,0)"
     id="use4097"
     x="0"
     y="0"
     width="48"
     height="48"
     xlink:href="#g4092" />
  <use
     transform="translate(10,10)"
     id="use4099"
     x="0"
     y="0"
     width="48"
     height="48"
     xlink:href="#g4092" />
  <use
     transform="translate(20,10)"
     id="use4101"
     x="0"
     y="0"
     width="48"
     height="48"
     xlink:href="#g4092" />
  <g
     transform="translate(29,3)"
     id="g4147">
    <rect
       width="10"
       height="10"
       rx="1.3279792"
       ry="0"
       x="-25"
       y="11"
       id="rect3318-0"
       style="opacity:0.98999999;fill:#edd400;fill-opacity:1;fill-rule:evenodd;stroke:none" />
    <path
       d="m -25,21 0,-1 9,0 0,-9 1,0 0,10 z"
       id="path4088-6"
       style="fill:#c4a000;fill-opacity:1;stroke:none" />
    <path
       d="m -25,21 0,-10 10,0 -1,1 -8,0 0,8 z"
       id="path4090-9"
       style="fill:#fce94f;fill-opacity:1;stroke:none" />
  </g>
  <use
     transform="translate(0,10)"
     id="use4152"
     x="0"
     y="0"
     width="48"
     height="48"
     xlink:href="#g4147" />
  <use
     transform="translate(0,20)"
     id="use4154"
     x="0"
     y="0"
     width="48"
     height="48"
     xlink:href="#g4147" />
  <use
     transform="translate(10,20)"
     id="use4156"
     x="0"
     y="0"
     width="48"
     height="48"
     xlink:href="#g4147" />
  <g
     transform="translate(33,11)"
     id="g4231">
    <rect
       width="10"
       height="10"
       rx="1.3279792"
       ry="0"
       x="-19"
       y="13"
       id="rect3318-0-9"
       style="opacity:0.98999999;fill:#3465a4;fill-opacity:1;fill-rule:evenodd;stroke:none" />
    <path
       d="m -19,23 0,-1 9,0 0,-9 1,0 0,10 z"
       id="path4088-6-4"
       style="fill:#204a87;fill-opacity:1;stroke:none" />
    <path
       d="m -19,23 0,-10 10,0 -1,1 -8,0 0,8 z"
       id="path4090-9-0"
       style="fill:#558bc5;fill-opacity:1;stroke:none" />
  </g>
  <use
     transform="translate(10,0)"
     id="use4236"
     x="0"
     y="0"
     width="48"
     height="48"
     xlink:href="#g4231" />
  <use
     transform="translate(10,10)"
     id="use4238"
     x="0"
     y="0"
     width="48"
     height="48"
     xlink:href="#g4231" />
  <use
     transform="translate(20,10)"
     id="use4240"
     x="0"
     y="0"
     width="48"
     height="48"
     xlink:href="#g4231" />
  <g
     transform="translate(44,-4)"
     id="g4272">
    <rect
       width="10"
       height="10"
       rx="1.3279792"
       ry="0"
       x="-20"
       y="8"
       id="rect3318-0-9-7"
       style="opacity:0.98999999;fill:#73d216;fill-opacity:1;fill-rule:evenodd;stroke:none" />
    <path
       d="m -20,18 0,-1 9,0 0,-9 1,0 0,10 z"
       id="path4088-6-4-3"
       style="fill:#4e9a06;fill-opacity:1;stroke:none" />
    <path
       d="m -20,18 0,-10 10,0 -1,1 -8,0 0,8 z"
       id="path4090-9-0-7"
       style="fill:#8ae234;fill-opacity:1;stroke:none" />
  </g>
  <use
     transform="translate(10,10)"
     id="use4277"
     x="0"
     y="0"
     width="48"
     height="48"
     xlink:href="#g4272" />
  <use
     transform="translate(10,20)"
     id="use4279"
     x="0"
     y="0"
     width="48"
     height="48"
     xlink:href="#g4272" />
  <use
     transform="translate(10,0)"
     id="use4281"
     x="0"
     y="0"
     width="48"
     height="48"
     xlink:href="#g4272" />
</svg>
