<?xml version="1.0" encoding="UTF-8" standalone="no"?>
<svg xmlns:rdf="http://www.w3.org/1999/02/22-rdf-syntax-ns#" xmlns="http://www.w3.org/2000/svg" height="22" width="22" version="1.1" xmlns:cc="http://creativecommons.org/ns#" xmlns:xlink="http://www.w3.org/1999/xlink" xmlns:dc="http://purl.org/dc/elements/1.1/">
<defs>
<linearGradient id="b" y2="21.86566" gradientUnits="userSpaceOnUse" x2="6.173481" gradientTransform="matrix(-1 0 0 1 20.99977 26.00023)" y1=".05357140" x1="12.01801">
<stop stop-color="#b4b6b2" offset="0"/>
<stop stop-color="#464844" offset="1"/>
</linearGradient>
<linearGradient id="a" y2="21.86566" gradientUnits="userSpaceOnUse" x2="6.173481" gradientTransform="matrix(-1 0 0 1 20.99977 26.00023)" y1=".05357140" x1="12.01801">
<stop stop-color="#c8c9c7" offset="0"/>
<stop stop-color="#a0a39d" offset="1"/>
</linearGradient>
</defs>
<g transform="translate(0,-26)" stroke-linecap="round">
<path d="m3.749774 29.25023v15.5h-2.5v-15.5zm8 1.25s0.000159 1.833112 0 2.75l9.00023-0.00023v7.5l-9.000226 0.000226c0.000158 0.919269-0.00055 2.745873 0 2.75l-6.5-6.5z" stroke="url(#a)" stroke-width="1.5" fill="url(#b)"/>
<path stroke-linejoin="round" d="m4.499774 28.50023v8l3.96875-3.96875v-0.0625h0.09375l3.9375-3.9375s0.000232 2.535796 0 3.9375l9.00023 0.00002v9.062l-9.000226 0.000476c0.000176 1.423798-0.000772 3.962798 0 3.96875l-3.96875-3.96875h-0.0625v-0.0625l-3.96875-3.96875v8h-4v-17z" stroke="#555753" fill="none"/>
</g>
</svg>
