<?xml version="1.0" encoding="UTF-8" standalone="no"?>
<svg xmlns:rdf="http://www.w3.org/1999/02/22-rdf-syntax-ns#" xmlns="http://www.w3.org/2000/svg" height="16" width="16" version="1.1" xmlns:cc="http://creativecommons.org/ns#" xmlns:xlink="http://www.w3.org/1999/xlink" xmlns:dc="http://purl.org/dc/elements/1.1/">
 <g id="h">
  <rect width="4" fill="#73d216" x="8" height="4"/>
  <path d="m8 4v-4h4l-1 1h-2v2z" fill="#b0eb76"/>
 </g>
 <use x="4" xlink:href="#h"/>
 <use y="4" x="4" xlink:href="#h"/>
 <use y="8" x="4" xlink:href="#h"/>
 <g id="g">
  <rect height="4" width="4" y="8" x="4" fill="#3465a4"/>
  <path d="m4 12v-4h4l-1 1h-2v2z" fill="#6f9dce"/>
 </g>
 <use x="4" xlink:href="#g"/>
 <use y="4" x="4" xlink:href="#g"/>
 <use y="4" x="8" xlink:href="#g"/>
 <g id="f">
  <rect y="4" width="4" fill="#edd400" height="4"/>
  <path d="m0 8v-4h4l-1 1h-2v2z" fill="#fdee76"/>
 </g>
 <use y="4" xlink:href="#f"/>
 <use y="8" xlink:href="#f"/>
 <use y="8" x="4" xlink:href="#f"/>
 <g id="e">
  <rect width="4" fill="#C00" height="4"/>
  <path d="m0 4v-4h4l-1 1h-2v2z" fill="#f14646"/>
 </g>
 <use x="4" xlink:href="#e"/>
 <use y="4" x="4" xlink:href="#e"/>
 <use y="4" x="8" xlink:href="#e"/>
</svg>
