<?xml version="1.0" encoding="UTF-8" standalone="no"?>
<svg xmlns:rdf="http://www.w3.org/1999/02/22-rdf-syntax-ns#" xmlns="http://www.w3.org/2000/svg" height="32" width="32" version="1.1" xmlns:cc="http://creativecommons.org/ns#" xmlns:xlink="http://www.w3.org/1999/xlink" xmlns:dc="http://purl.org/dc/elements/1.1/">
<g id="a">
<rect height="7" width="7" x="16" y="2" fill="#73d216"/>
<path d="m16 9h7v-7l-1 1v 5h-5z" fill="#4e9a06"/>
<path d="m16 9v-7h7l-1 1h-5v5z" fill="#8ae234"/>
</g>
<use xlink:href="#a" x="7"/>
<use xlink:href="#a" x="7" y="7"/>
<use xlink:href="#a" x="7" y="14"/>
<g id="b">
<rect height="7" width="7" x="9" y="16" fill="#3465a4"/>
<path d="m9 23h7v-7l-1 1v 5h-5z" fill="#204a87"/>
<path d="m9 23v-7h7l-1 1h-5v5z" fill="#558bc5"/>
</g>
<use xlink:href="#b" x="7"/>
<use xlink:href="#b" x="7" y="7"/>
<use xlink:href="#b" x="14" y="7"/>
<g id="c">
<rect height="7" width="7" x="2" y="9" fill="#edd400"/>
<path d="m2 16h7v-7l-1 1v 5h-5z" fill="#c4a000"/>
<path d="m2 16v-7h7l-1 1h-5v5z" fill="#fce94f"/>
</g>
<use xlink:href="#c" y="7"/>
<use xlink:href="#c" y="14"/>
<use xlink:href="#c" x="7" y="14"/>
<g id="d">
<rect height="7" width="7" x="2" y="2" fill="#C00"/>
<path d="m2 9h7v-7l-1 1v 5h-5z" fill="#a40000"/>
<path d="m2 9v-7h7l-1 1h-5v5z" fill="#ef2929"/>
</g>
<use xlink:href="#d" x="7"/>
<use xlink:href="#d" x="7" y="7"/>
<use xlink:href="#d" x="14" y="7"/>
</svg>
