<?xml version="1.0" encoding="UTF-8" standalone="no"?>
<svg xmlns:rdf="http://www.w3.org/1999/02/22-rdf-syntax-ns#" xmlns="http://www.w3.org/2000/svg" height="22" width="22" version="1.1" xmlns:cc="http://creativecommons.org/ns#" xmlns:dc="http://purl.org/dc/elements/1.1/">
<defs>
<linearGradient id="linearGradient4034" x1="10.104" gradientUnits="userSpaceOnUse" y1="10.214" gradientTransform="translate(-0.06566604,-10.13628)" x2="15.968" y2="32.1">
<stop stop-color="#b4b6b2" offset="0"/>
<stop stop-color="#464844" offset="1"/>
</linearGradient>
<linearGradient id="linearGradient4036" x1="10.104" gradientUnits="userSpaceOnUse" y1="10.214" gradientTransform="translate(-0.06566604,-10.13628)" x2="15.968" y2="32.1">
<stop stop-color="#c8c9c7" offset="0"/>
<stop stop-color="#a0a39d" offset="1"/>
</linearGradient>
</defs>
<metadata>
<rdf:RDF>
<cc:Work rdf:about="">
<dc:format>image/svg+xml</dc:format>
<dc:type rdf:resource="http://purl.org/dc/dcmitype/StillImage"/>
<dc:title/>
</cc:Work>
</rdf:RDF>
</metadata>
<g stroke-miterlimit="4" transform="translate(0,-10)">
<path stroke-linejoin="miter" d="m9.4062,4.4062,0,2.75l-8.2182-0.0002v7.5l8.2182,0.00025c-0.036891,0.03768,0.00055,2.7459,0,2.75l3.818-3.7785s-0.03618,3.7744-0.03673,3.7785l6.5-6.5-6.5-6.5,0.03673,3.6867z" fill-rule="evenodd" transform="translate(0,10)" stroke="url(#linearGradient4036)" stroke-dasharray="none" stroke-width="1.50019085" fill="url(#linearGradient4034)"/>
<path stroke-linejoin="round" d="m8.5,2.5312,0,3.9688-8,0,0,9,8,0s0.0007803,3.994,0,4l4-4s0.000778,3.994,0,4l8.5-8.5-8.5-8.4688s-0.03697,3.9807,0,3.9688h-0.03125z" transform="translate(0,10)" stroke="#555753" stroke-linecap="round" stroke-width="1.00007391" fill="none"/>
</g>
</svg>
