<?xml version="1.0" encoding="UTF-8" standalone="no"?>
<!-- Created with Inkscape (http://www.inkscape.org/) -->
<svg xmlns:rdf="http://www.w3.org/1999/02/22-rdf-syntax-ns#" xmlns="http://www.w3.org/2000/svg" height="32" width="32" version="1.1" xmlns:cc="http://creativecommons.org/ns#" xmlns:xlink="http://www.w3.org/1999/xlink" xmlns:dc="http://purl.org/dc/elements/1.1/">
<defs>
<linearGradient id="linearGradient3829" x1="26.159" gradientUnits="userSpaceOnUse" y1="41.492" gradientTransform="matrix(0.76190649,0,0,0.76190642,-2.2857568,-2.2857544)" x2="21.49" y2="6.0614">
<stop stop-color="#474845" offset="0"/>
<stop stop-color="#6b6d68" offset="1"/>
</linearGradient>
</defs>
<metadata>
<rdf:RDF>
<cc:Work rdf:about="">
<dc:format>image/svg+xml</dc:format>
<dc:type rdf:resource="http://purl.org/dc/dcmitype/StillImage"/>
<dc:title/>
</cc:Work>
</rdf:RDF>
</metadata>
<rect rx="1.6553" ry="1.6553" height="32" width="32" y="5.2736E-16" x="0" fill="url(#linearGradient3829)"/>
<g id="g3626" transform="translate(17,-13)">
<rect opacity="0.99" fill-rule="evenodd" rx="0.92959" ry="0" height="7" width="7" y="15" x="-15" fill="#C00"/>
<path d="m-15,22,0-1,6,0,0-6,1,0,0,7z" fill="#a40000"/>
<path d="m-15,22,0-7,7,0-1,1-5,0,0,5z" fill="#ef2929"/>
</g>
<use xlink:href="#g3626" transform="translate(14,7)" height="32" width="32" y="0" x="0"/>
<use xlink:href="#g3626" transform="translate(7.0000008,7)" height="32" width="32" y="0" x="0"/>
<use xlink:href="#g3626" transform="translate(7,0)" height="32" width="32" y="0" x="0"/>
<g id="g3667" transform="translate(17,2)">
<rect opacity="0.99" fill-rule="evenodd" rx="0.92959" ry="0" height="7" width="7" y="7" x="-15" fill="#edd400"/>
<path d="m-15,14,0-1,6,0,0-6,1,0,0,7z" fill="#c4a000"/>
<path d="m-15,14,0-7,7,0-1,1-5,0,0,5z" fill="#fce94f"/>
</g>
<g id="g3742" transform="translate(30.949153,-5.050848)">
<rect opacity="0.99" fill-rule="evenodd" rx="0.92959" ry="0" height="7" width="7" y="7.0508" x="-14.949" fill="#73d216"/>
<path d="m-14.949,14.051,0-1,6,0,0-6,1,0,0,7z" fill="#4e9a06"/>
<path d="m-14.949,14.051,0-7,7,0-1,1-5,0,0,5z" fill="#8ae234"/>
<rect opacity="0.99" fill-rule="evenodd" rx="0.92959" ry="0" height="7" width="7" y="7.0508" x="-14.949" fill="#73d216"/>
<path d="m-14.949,14.051,0-1,6,0,0-6,1,0,0,7z" fill="#4e9a06"/>
<path d="m-14.949,14.051,0-7,7,0-1,1-5,0,0,5z" fill="#8ae234"/>
</g>
<g id="g5179" transform="translate(24.016949,8.966102)">
<rect opacity="0.99" fill-rule="evenodd" rx="0.92959" ry="0" height="7" width="7" y="7.0339" x="-15.017" fill="#73d216"/>
<path d="m-15.017,14.034,0-1,6,0,0-6,1,0,0,7z" fill="#4e9a06"/>
<path d="m-15.017,14.034,0-7,7,0-1,1-5,0,0,5z" fill="#8ae234"/>
<rect opacity="0.99" fill-rule="evenodd" rx="0.92959" ry="0" height="7" width="7" y="7.0339" x="-15.017" fill="#3465a4"/>
<path d="m-15.017,14.034,0-1,6,0,0-6,1,0,0,7z" fill="#204a87"/>
<path d="m-15.017,14.034,0-7,7,0-1,1-5,0,0,5z" fill="#558bc5"/>
</g>
<use xlink:href="#g3667" transform="translate(0,7)" height="32" width="32" y="0" x="0"/>
<use xlink:href="#g3667" transform="translate(0,14)" height="32" width="32" y="0" x="0"/>
<use xlink:href="#g3667" transform="translate(7,14)" height="32" width="32" y="0" x="0"/>
<use xlink:href="#g3742" transform="translate(7,0)" height="32" width="32" y="0" x="0"/>
<use xlink:href="#g3742" transform="translate(7,7)" height="32" width="32" y="0" x="0"/>
<use xlink:href="#g3742" transform="translate(7,14)" height="32" width="32" y="0" x="0"/>
<use xlink:href="#g5179" transform="translate(7,0)" height="32" width="32" y="0" x="0"/>
<use xlink:href="#g5179" transform="translate(7,7)" height="32" width="32" y="0" x="0"/>
<use xlink:href="#g5179" transform="translate(14,7)" height="32" width="32" y="0" x="0"/>
</svg>
