<?xml version="1.0" encoding="UTF-8" standalone="no"?>
<svg xmlns:rdf="http://www.w3.org/1999/02/22-rdf-syntax-ns#" xmlns="http://www.w3.org/2000/svg" height="22" width="22" version="1.1" xmlns:cc="http://creativecommons.org/ns#" xmlns:xlink="http://www.w3.org/1999/xlink" xmlns:dc="http://purl.org/dc/elements/1.1/">
<defs>
<linearGradient id="b" y2="21.91322" gradientUnits="userSpaceOnUse" x2="15.71329" y1="0.125" x1="9.875154">
<stop stop-color="#b4b6b2" offset="0"/>
<stop stop-color="#464844" offset="1"/>
</linearGradient>
<linearGradient id="a" y2="21.91322" gradientUnits="userSpaceOnUse" x2="15.71329" y1="0.125" x1="9.875154">
<stop stop-color="#c8c9c7" offset="0"/>
<stop stop-color="#a0a39d" offset="1"/>
</linearGradient>
</defs>
<g transform="translate(0,-26)">
<g transform="translate(1.031024 16.00023)" stroke-linecap="round">
<path d="m17.25 3.25v15.5h2.5v-15.5zm-8 1.25s-0.0001589 1.833112 0 2.75l-9.000024-0.000226v7.5l9.000024 0.00023c-0.0001585 0.919269 0.00055 2.745873 0 2.75l6.5-6.5z" transform="translate(0,10)" stroke="url(#a)" stroke-width="1.5" fill="url(#b)"/>
<path stroke-linejoin="round" d="m16.5 2.5v8l-3.96875-3.96875v-0.0625h-0.09375l-3.9375-3.9375s-0.0002317 2.535796 0 3.9375l-9.031024 0.000024v9.062l9.031024 0.00048c-0.0001764 1.423798 0.0007718 3.962798 0 3.96875l3.96875-3.96875h0.0625v-0.0625l3.96875-3.96875v8h4v-17z" transform="translate(0,10)" stroke="#555753" fill="none"/>
</g>
</g>
</svg>
