<?xml version="1.0" encoding="UTF-8" standalone="no"?>
<svg xmlns:rdf="http://www.w3.org/1999/02/22-rdf-syntax-ns#" xmlns="http://www.w3.org/2000/svg" height="16" width="16" version="1.1" xmlns:cc="http://creativecommons.org/ns#" xmlns:xlink="http://www.w3.org/1999/xlink" xmlns:dc="http://purl.org/dc/elements/1.1/">
 <g id="a">
  <rect width="4" height="4" x="8" fill="#73d216"/>
  <path d="m8 4v-4h4l-1 1h-2v2z" fill="#b8e888"/>
 </g>
 <use x="4" xlink:href="#a"/>
 <use y="4" x="4" xlink:href="#a"/>
 <use y="8" x="4" xlink:href="#a"/>
 <g id="b">
  <rect height="4" width="4" y="8" x="4" fill="#3465a4"/>
  <path d="m4 12v-4h4l-1 1h-2v2z" fill="#82a0c7"/>
 </g>
 <use x="4" xlink:href="#b"/>
 <use y="4" x="4" xlink:href="#b"/>
 <use y="4" x="8" xlink:href="#b"/>
 <g id="c">
  <rect y="4" width="4" height="4" fill="#edd400"/>
  <path d="m0 8v-4h4l-1 1h-2v2z" fill="#fff283"/>
 </g>
 <use y="4" xlink:href="#c"/>
 <use y="8" xlink:href="#c"/>
 <use y="8" x="4" xlink:href="#c"/>
 <g id="d">
  <rect width="4" height="4" fill="#C00"/>
  <path d="m0 4v-4h4l-1 1h-2v2z" fill="#f57b7b"/>
 </g>
 <use x="4" xlink:href="#d"/>
 <use y="4" x="4" xlink:href="#d"/>
 <use y="4" x="8" xlink:href="#d"/>
</svg>
