<?xml version="1.0" encoding="UTF-8" standalone="no"?>
<svg xmlns:rdf="http://www.w3.org/1999/02/22-rdf-syntax-ns#" xmlns="http://www.w3.org/2000/svg" height="22" width="22" version="1.1" xmlns:cc="http://creativecommons.org/ns#" xmlns:dc="http://purl.org/dc/elements/1.1/">
<path d="m1 0c-0.603 0-1 0.397-1 1v19c0 0.603 0.397 1 1 1h19c0.603 0 1-0.397 1-1v-19c0-0.603-0.4-1-1-1zm0.6 1h17.7c0.546 0 0.7 0.154 0.7 0.7v17.6c0 0.546-0.154 0.7-0.7 0.7-3.49-0.0171-7.56-0.0022-10.7-0.000002l0.00586-1h1.38v-3.21c0.364 0.0398 0.721 0.118 1.03 0.27l-0.0254 2.94h8v-8h-8v0.193c-0.673-0.313-1.11-0.566-2-0.641v-0.553h1v-8h-8v8h2.28l-1.05 1h-1.23v1.18l-1 0.822 1 0.883v5.12h5.23l1.02 1h-6.65c-0.55 0-0.6-0.2-0.6-0.7v-6.3-11.3c0-0.55 0.05-0.7 0.6-0.7zm9.4 1v8h8v-8zm-3 5v4c3.07 0.258 4.71 2.24 4.84 2.46 1.38 1.52 2.07 3.83 2.16 5.48 0 0-2.15-2.57-3.11-3.09-0.9-0.5-1.8-0.8-3.9-0.8v4l-6-6z"/>
</svg>
