<?xml version="1.0" encoding="UTF-8" standalone="no"?>
<svg xmlns:rdf="http://www.w3.org/1999/02/22-rdf-syntax-ns#" xmlns="http://www.w3.org/2000/svg" height="48" width="48" version="1.1" xmlns:cc="http://creativecommons.org/ns#" xmlns:xlink="http://www.w3.org/1999/xlink" xmlns:dc="http://purl.org/dc/elements/1.1/">
<g id="d" transform="translate(19,-14)">
<rect rx="1.328" ry="0" height="10" width="10" y="18" x="-15" fill="#C00"/>
<path d="m-15 28v-1h9v-9h1v10z" fill="#a40000"/>
<path d="m-15 28v-10h10l-1 1h-8v8z" fill="#ef2929"/>
</g>
<use xlink:href="#d" transform="translate(10)" height="48" width="48"/>
<use xlink:href="#d" transform="translate(10,10)" height="48" width="48"/>
<use xlink:href="#d" transform="translate(20,10)" height="48" width="48"/>
<g id="c" transform="translate(29,3)">
<rect rx="1.328" ry="0" height="10" width="10" y="11" x="-25" fill="#edd400"/>
<path d="m-25 21v-1h9v-9h1v10z" fill="#c4a000"/>
<path d="m-25 21v-10h10l-1 1h-8v8z" fill="#fce94f"/>
</g>
<use xlink:href="#c" transform="translate(0,10)" height="48" width="48"/>
<use xlink:href="#c" transform="translate(0,20)" height="48" width="48"/>
<use xlink:href="#c" transform="translate(10,20)" height="48" width="48"/>
<g id="b" transform="translate(33,11)">
<rect rx="1.328" ry="0" height="10" width="10" y="13" x="-19" fill="#3465a4"/>
<path d="m-19 23v-1h9v-9h1v10z" fill="#204a87"/>
<path d="m-19 23v-10h10l-1 1h-8v8z" fill="#558bc5"/>
</g>
<use xlink:href="#b" transform="translate(10)" height="48" width="48"/>
<use xlink:href="#b" transform="translate(10,10)" height="48" width="48"/>
<use xlink:href="#b" transform="translate(20,10)" height="48" width="48"/>
<g id="a" transform="translate(44,-4)">
<rect rx="1.328" ry="0" height="10" width="10" y="8" x="-20" fill="#73d216"/>
<path d="m-20 18v-1h9v-9h1v10z" fill="#4e9a06"/>
<path d="m-20 18v-10h10l-1 1h-8v8z" fill="#8ae233"/>
</g>
<use xlink:href="#a" transform="translate(10,10)" height="48" width="48"/>
<use xlink:href="#a" transform="translate(10,20)" height="48" width="48"/>
<use xlink:href="#a" transform="translate(10)" height="48" width="48"/>
</svg>
