<?xml version="1.0" encoding="UTF-8" standalone="no"?>
<svg xmlns:rdf="http://www.w3.org/1999/02/22-rdf-syntax-ns#" xmlns="http://www.w3.org/2000/svg" height="22" width="22" version="1.1" xmlns:cc="http://creativecommons.org/ns#" xmlns:dc="http://purl.org/dc/elements/1.1/">
<path d="m20.06836 21c0.51644 0 0.93164-0.4152 0.93164-0.93164v-19.13672c0-0.5164397-0.4152-0.9316397-0.93164-0.9316397-0.0204-0.0096-12.00624 0-19.13672 0-0.51644 3e-8 -0.93164 0.4152-0.93164 0.931641v19.13672c0 0.51644 0.4152 0.93164 0.931641 0.93164zm-0.91211-1h-17.3125c-0.467256 0-0.84375-0.37649-0.84375-0.84375v-17.3125c0-0.467256 0.376494-0.84375 0.84375-0.84375h7.464844l-1 1h-6.308594v8h5.474609l1 1c-2.331214-0.0098-4.259307 0-6.474609 0v8h8v-0.251953c0.283113 0.02888 0.564408 0.04857 0.839844 0.04883 0.05354 0.000595 0.106671-0.0053 0.160156-0.0059v0.208985h8v-8h-0.748047c-0.01791-0.339075-0.05237-0.674604-0.117188-1h0.865235v-8h-7.404297c-0.000298-0.276245-0.0014-0.394268 0-1h7.560547c0.467256 0 0.84375 0.376494 0.84375 0.84375v17.3125c0 0.467256-0.376494 0.84375-0.84375 0.84375zm-8.595703-2c-3.39356-0.0032-6.213569-2.657508-6.474609-6.041015 1.974608 2 3.30035 4.274066 6.380859 4.041015 1.9796-0.27966 3.5332-2.04102 3.5332-4.54102-0.0013-1.771115-1.24144-3.248462-3-3.45898-0.0611 0.02452-0.02676-2.76669-0.03125-5.966801l0.03125-0.0332c-0.0082 2.707557 0.00016 2.659628 0 3 3.421172 0.219413 5.999818 3.030784 6 6.458985 0 3.589851-2.849602 6.541015-6.439453 6.541015zm0.375-6.050781-5.511719-5.511719 5.511719-5.511719c-0.0016 11.05359 0.02993 0.02975 0 11.02344zm0.03125-10.94922c3.274566-0.665889 3.344401-0.666667 0 0z" fill-rule="evenodd" fill="#aea7ac"/>
<path stroke-linejoin="round" d="m-30.5 18c-3.589851 0-6.5 2.910149-6.5 6.5 0.000182 3.4282 2.662813 6.266915 6.083984 6.486328-0.000159 0.340372 0.0082 0.04049 0 2.748047l4.244141-4.242187-4.244141-4.244141c0 2.724273-0.0027 2.362432 0 2.724609-1.75856-0.21052-3.0827-1.70154-3.08398-3.47266 0-2.5 1.61361-4.05932 3.59322-4.33898 3.08051-0.23305 4.40678 1.83898 6.38139 3.83898-0.26104-3.38351-3.08105-5.9968-6.47461-6z" fill-rule="evenodd" stroke="#000" stroke-linecap="round" fill="#aea7ac"/>
</svg>
