<?xml version="1.0" encoding="UTF-8" standalone="no"?>
<svg xmlns:rdf="http://www.w3.org/1999/02/22-rdf-syntax-ns#" xmlns="http://www.w3.org/2000/svg" height="22" width="22" version="1.1" xmlns:cc="http://creativecommons.org/ns#" xmlns:dc="http://purl.org/dc/elements/1.1/">
<path d="m2.5 0c-1.35 0-2.5 1.15-2.5 2.5v15c0 1.3 1.15 2.5 2.5 2.5h9.5v2l2.69-2h4.81c1.35 0 2.5-1.15 2.5-2.5v-15c0-1.35-1.2-2.5-2.5-2.5zm1.06 3h14.9c0.2 0 0.5 0.26 0.5 0.56v8.5l-1-0.8v-7.3h-14v11h8v1h-8.44c-0.3 0-0.56-0.3-0.56-0.6v-11.8c0-0.34 0.26-0.6 0.56-0.6zm9.44 6.3l7 5.2-7 5.1zm-10 7.7h9v1h-9zm16-0.1v1.1h-1.7z"/>
</svg>
