<?xml version="1.0" encoding="UTF-8" standalone="no"?>
<svg xmlns:rdf="http://www.w3.org/1999/02/22-rdf-syntax-ns#" xmlns="http://www.w3.org/2000/svg" height="22" width="22" version="1.1" xmlns:cc="http://creativecommons.org/ns#" xmlns:dc="http://purl.org/dc/elements/1.1/">
<path d="m0.9316406 0c-0.516441 0-0.9316406 0.4151996-0.9316406 0.9316406v19.13672c0 0.51644 0.4151996 0.93164 0.9316406 0.93164 0.0204019 0.00962 12.00624 0 19.13672 0 0.51644 0 0.93164-0.4152 0.93164-0.93164v-19.13672c0-0.5164404-0.4152-0.93164-0.93164-0.93164zm0.9121094 1h17.3125c0.46726 0 0.84375 0.376494 0.84375 0.84375v17.3125c0 0.46726-0.37649 0.84375-0.84375 0.84375h-7.464844l1-1h6.30859v-8h-5.474609l-1-1c2.331214 0.0098 4.259307 0 6.474609 0v-8h-8v0.2519531c-0.28311-0.028877-0.56441-0.048568-0.83984-0.048828-0.05354-0.000595-0.10668 0.005252-0.16016 0.005859v-0.208984h-8v8h0.7480469c0.017914 0.339075 0.052366 0.674604 0.1171875 1h-0.865234v8h7.404297c0.0002977 0.276245 0.00143 0.394268 0 1h-7.560547c-0.467256 0-0.84375-0.37649-0.84375-0.84375v-17.3125c0-0.467256 0.376494-0.84375 0.84375-0.84375zm8.595703 2c3.39356 0.0032 6.213569 2.657509 6.474609 6.041016-1.97461-2-3.30035-4.274067-6.38086-4.041016-1.979603 0.279661-3.5332 2.041016-3.5332 4.541016 0.00128 1.771124 1.241435 3.248464 3 3.458984 0 0 0.02676 6.001229 0.03125 5.966801l-0.03125 0.0332c0.0082-2.70756-0.00016-2.65963 0-3-3.421172-0.21941-5.999818-3.03078-6-6.458984 0-3.589851 2.849602-6.541016 6.43945-6.541016zm-0.375 6.050781 5.511719 5.511719-5.511719 5.511719c0.0016-11.05359-0.02993-0.02975 0-11.02344zm-0.03125 10.94922c-3.274566 0.665889-3.344401 0.666667 0 0z" fill-rule="evenodd" fill="#aea7ac"/>
<path stroke-linejoin="round" d="m-30.5 18c-3.589851 0-6.5 2.910149-6.5 6.5 0.000182 3.4282 2.662813 6.266915 6.083984 6.486328-0.000159 0.340372 0.0082 0.04049 0 2.748047l4.244141-4.242187-4.244141-4.244141c0 2.724273-0.0027 2.362432 0 2.724609-1.75856-0.21052-3.0827-1.70154-3.08398-3.47266 0-2.5 1.61361-4.05932 3.59322-4.33898 3.08051-0.23305 4.40678 1.83898 6.38139 3.83898-0.26104-3.38351-3.08105-5.9968-6.47461-6z" fill-rule="evenodd" stroke="#000" stroke-linecap="round" fill="#aea7ac"/>
</svg>
