<?xml version="1.0" encoding="UTF-8" standalone="no"?>
<svg xmlns:rdf="http://www.w3.org/1999/02/22-rdf-syntax-ns#" xmlns="http://www.w3.org/2000/svg" height="48" width="48" version="1.1" xmlns:cc="http://creativecommons.org/ns#" xmlns:xlink="http://www.w3.org/1999/xlink" xmlns:dc="http://purl.org/dc/elements/1.1/">
<metadata>
<rdf:RDF>
<cc:Work rdf:about="">
<dc:format>image/svg+xml</dc:format>
<dc:type rdf:resource="http://purl.org/dc/dcmitype/StillImage"/>
<dc:title/>
</cc:Work>
</rdf:RDF>
</metadata>
<g id="g4092" transform="translate(19,-14)">
<rect opacity="0.99" fill-rule="evenodd" rx="1.328" ry="0" height="10" width="10" y="18" x="-15" fill="#C00"/>
<path fill="#000" d="m-15,28,1-1,8,0,0-8,1-1,0,10z" fill-opacity="0.15686275"/>
<path fill="#FFF" d="m-15,28,0-10,10,0-1,1-8,0,0,8z" fill-opacity="0.15686275"/>
</g>
<use xlink:href="#g4092" transform="translate(10,0)" height="48" width="48" y="0" x="0"/>
<use xlink:href="#g4092" transform="translate(10,10)" height="48" width="48" y="0" x="0"/>
<use xlink:href="#g4092" transform="translate(20,10)" height="48" width="48" y="0" x="0"/>
<g id="g4147" transform="translate(29,3)">
<rect opacity="0.99" fill-rule="evenodd" rx="1.328" ry="0" height="10" width="10" y="11" x="-25" fill="#d2bc00"/>
<path fill="#000" d="m-25,21,1-1,8,0,0-8,1-1,0,10z" fill-opacity="0.15686275"/>
<path fill="#FFF" d="m-25,21,0-10,10,0-1,1-8,0,0,8z" fill-opacity="0.15686275"/>
</g>
<use xlink:href="#g4147" transform="translate(0,10)" height="48" width="48" y="0" x="0"/>
<use xlink:href="#g4147" transform="translate(0,20)" height="48" width="48" y="0" x="0"/>
<use xlink:href="#g4147" transform="translate(10,20)" height="48" width="48" y="0" x="0"/>
<g id="g4231" transform="translate(33,11)">
<rect opacity="0.99" fill-rule="evenodd" rx="1.328" ry="0" height="10" width="10" y="13" x="-19" fill="#2d5991"/>
<path fill="#000" d="m-19,23,1-1,8,0,0-8,1-1,0,10z" fill-opacity="0.15686275"/>
<path fill="#FFF" d="m-19,23,0-10,10,0-1,1-8,0,0,8z" fill-opacity="0.15686275"/>
</g>
<use xlink:href="#g4231" transform="translate(10,0)" height="48" width="48" y="0" x="0"/>
<use xlink:href="#g4231" transform="translate(10,10)" height="48" width="48" y="0" x="0"/>
<use xlink:href="#g4231" transform="translate(20,10)" height="48" width="48" y="0" x="0"/>
<g id="g4272" transform="translate(44,-4)">
<rect opacity="0.99" fill-rule="evenodd" rx="1.328" ry="0" height="10" width="10" y="8" x="-20" fill="#5eac12"/>
<path fill="#000" d="m-20,18,1-1,8,0,0-8,1-1,0,10z" fill-opacity="0.15686275"/>
<path fill="#FFF" d="m-20,18,0-10,10,0-1,1-8,0,0,8z" fill-opacity="0.15686275"/>
</g>
<use xlink:href="#g4272" transform="translate(10,10)" height="48" width="48" y="0" x="0"/>
<use xlink:href="#g4272" transform="translate(10,20)" height="48" width="48" y="0" x="0"/>
<use xlink:href="#g4272" transform="translate(10,0)" height="48" width="48" y="0" x="0"/>
</svg>
