<?xml version="1.0" encoding="UTF-8" standalone="no"?>
<svg xmlns:rdf="http://www.w3.org/1999/02/22-rdf-syntax-ns#" xmlns="http://www.w3.org/2000/svg" height="48" width="48" version="1.1" xmlns:cc="http://creativecommons.org/ns#" xmlns:xlink="http://www.w3.org/1999/xlink" xmlns:dc="http://purl.org/dc/elements/1.1/">
<g id="a">
<rect height="10" width="10" x="24" y="4" fill="#73d216"/>
<path d="m24 14h10v-10l-1 1v 8h-8z" fill="#4e9a06"/>
<path d="m24 14v-10h10l-1 1h-8v8z" fill="#8ae234"/>
</g>
<use xlink:href="#a" x="10"/>
<use xlink:href="#a" x="10" y="10"/>
<use xlink:href="#a" x="10" y="20"/>
<g id="b">
<rect height="10" width="10" x="14" y="24" fill="#3465a4"/>
<path d="m14 34h10v-10l-1 1v 8h-8z" fill="#204a87"/>
<path d="m14 34v-10h10l-1 1h-8v8z" fill="#558bc5"/>
</g>
<use xlink:href="#b" x="10"/>
<use xlink:href="#b" x="10" y="10"/>
<use xlink:href="#b" x="20" y="10"/>
<g id="c">
<rect height="10" width="10" x="4" y="14" fill="#edd400"/>
<path d="m4 24h10v-10l-1 1v 8h-8z" fill="#c4a000"/>
<path d="m4 24v-10h10l-1 1h-8v8z" fill="#fce94f"/>
</g>
<use xlink:href="#c" y="10"/>
<use xlink:href="#c" y="20"/>
<use xlink:href="#c" x="10" y="20"/>
<g id="d">
<rect height="10" width="10" x="4" y="4" fill="#c00"/>
<path d="m4 14h10v-10l-1 1v 8h-8z" fill="#a40000"/>
<path d="m4 14v-10h10l-1 1h-8v8z" fill="#ef2929"/>
</g>
<use xlink:href="#d" x="10"/>
<use xlink:href="#d" x="10" y="10"/>
<use xlink:href="#d" x="20" y="10"/>
</svg>
