<?xml version="1.0" encoding="UTF-8" standalone="no"?>
<svg id="svg2" xmlns:rdf="http://www.w3.org/1999/02/22-rdf-syntax-ns#" xmlns="http://www.w3.org/2000/svg" height="22" width="22" version="1.1" xmlns:cc="http://creativecommons.org/ns#" xmlns:dc="http://purl.org/dc/elements/1.1/">
 <path id="path4" d="m15.2 0c-0 0 0 0 0 0l-13.2 0c-1.11 0-2 0.894-2 2v17c0 1.11 0.892 2 2 2h17c1.11 0 2-0.894 2-2l-0.0076-15.1c0.0075-0.0459 0.0124-0.116 0-0.156l0.0076-1.78c0.0047-1.11-0.892-2.01-2-2l-3.51 0.0396c-0.0446-0.0208-0.0804-0.0298-0.125-0.0312-0.0423-0.0013-0.0831-0.0181-0.125-0.000001zm-13.2 0.992 12.6 0.0377c-0.158 0.336-0.373 0.631-0.523 0.962h-3.03v1.38c-0.391 0.0506-0.776 0.0841-1 0.187l0.0036-1.56h-8v8h8l-0.0036-5.62c0.248 0.268 0.625 0.546 1 0.842v4.78h8v-4.1c0.3-0.267 0.654-0.579 1-0.873v14c0 0.553-0.446 1-1 1h-17c-0.554 0-1-0.447-1-1v-17c0-0.553 0.446-1 1-1zm14.2 0.0377 2.79-0.0377c0.554-0.00749 1 0.447 1 1v1.37c-0.323-0.0408-0.64-0.0349-1-0.0585v-1.31h-2.3c-0.166-0.346-0.31-0.623-0.486-0.962zm-0.875 0.343c0.512 0.0155 1.05 1.93 1.47 2.21 0.394 0.266 2.46 0.0956 2.59 0.53 0.143 0.458-1.65 1.51-1.81 1.97-0.15 0.43 0.653 2.21 0.25 2.46-0.424 0.267-2.05-0.998-2.56-0.998-0.487 0.000001-2.05 1.28-2.44 0.998-0.405-0.292 0.377-2.14 0.219-2.59-0.15-0.43-1.91-1.41-1.75-1.84 0.174-0.448 2.3-0.313 2.72-0.593 0.394-0.266 0.825-2.17 1.31-2.15zm-13.3 9.62v8h8v-8zm9 0v8h8v-8z" fill="#888"/>
</svg>
