<?xml version="1.0" encoding="UTF-8" standalone="no"?>
<svg xmlns:rdf="http://www.w3.org/1999/02/22-rdf-syntax-ns#" xmlns="http://www.w3.org/2000/svg" height="22" width="22" version="1.1" xmlns:cc="http://creativecommons.org/ns#" xmlns:dc="http://purl.org/dc/elements/1.1/">
<path fill-rule="evenodd" d="m15.24449 0.0084826c-0.01173 0.00508-0.01954 0.024715-0.03124 0.031195l-13.21325-0.039551c-1.107595-0.00329994-1.999998 0.8940341-1.999998 1.999987v16.9999c0 1.105958 0.8923982 1.999988 1.999998 1.999988h16.99998c1.1076 0 2.000554-0.894033 1.999999-1.999988l-0.0076-15.0613c0.0075-0.045915 0.01238-0.1161793 0-0.1559614l0.0076-1.782636c0.0047-1.105944-0.892469-2.012483-1.999999-1.999988l-3.50558 0.03955c-0.04465-0.02084-0.08042-0.029845-0.124955-0.03119-0.04228-0.0013-0.08308-0.0181349-0.124955-0.000001zm-13.24449 0.9916384 12.55724 0.037709c-0.15823 0.335993-0.37315 0.630702-0.52305 0.962284h-3.0342v1.376992c-0.391109 0.050636-0.776029 0.08406-1.003594 0.1872985l0.0036-1.56429h-7.999998v7.999952h7.999993l-0.0036-5.624662c0.247799 0.267597 0.624879 0.54622 1.003589 0.842188v4.782472h7.999993v-4.096478c0.29965-0.267117 0.65425-0.578828 1.00001-0.872995v13.96942c0 0.552976-0.446199 0.999994-0.999999 0.999994h-16.99998c-0.5538 0-0.9999991-0.447018-0.9999991-0.999994v-16.9999c0-0.5529771 0.4461986-1.001657 0.9999991-0.9999939zm14.2129 0.03771 2.787087-0.03771c0.553749-0.00749 0.999999 0.4470168 0.999999 0.9999939v1.373492c-0.322824-0.040835-0.640359-0.034905-0.999999-0.0585v-1.314992h-2.30148c-0.16639-0.3458975-0.31009-0.6226985-0.48561-0.9622855zm-0.87469 0.343115c0.512485 0.01547 1.053409 1.934574 1.468219 2.214653 0.393858 0.2659549 2.457513 0.095642 2.592814 0.5302689 0.142539 0.4577807-1.653403 1.511931-1.811845 1.965114-0.150446 0.4303193 0.652844 2.210274 0.249909 2.464192-0.424387 0.2674549-2.04876-0.998154-2.561574-0.998154-0.486834 0.000001-2.052289 1.275826-2.436621 0.998154-0.40484-0.292478 0.37712-2.135697 0.21867-2.588961-0.15045-0.430318-1.91473-1.414851-1.74937-1.840345 0.1742-0.448224 2.30296-0.312535 2.71777-0.592654 0.39385-0.265954 0.82545-2.166954 1.31202-2.152268zm-13.33821 9.619116v7.999951h7.999993v-7.999951zm8.999992 0v7.999951h7.999993v-7.999951z" fill="#aea7ac"/>
</svg>
