<?xml version="1.0" encoding="UTF-8" standalone="no"?>
<svg xmlns:rdf="http://www.w3.org/1999/02/22-rdf-syntax-ns#" xmlns="http://www.w3.org/2000/svg" height="22" width="22" version="1.1" xmlns:cc="http://creativecommons.org/ns#" xmlns:dc="http://purl.org/dc/elements/1.1/">
<path d="m1.089844 0c-0.6033766 0-1.089844 0.4864676-1.089844 1.089844v18.82032c0 0.60337 0.4864674 1.08984 1.089844 1.08984h18.82032c0.60337 0 1.08984-0.48647 1.08984-1.08984v-18.82032c0-0.6033684-0.48647-1.08984-1.08984-1.08984zm0.896484 1h17.02734c0.54591 0 0.98633 0.440417 0.98633 0.986328v17.02734c0 0.54591-0.44042 0.98633-0.98633 0.98633-3.492098-0.01707-7.273753-0.0022-10.40234 0 0.0007154-0.08661 0.00373-0.718916 0.00586-1h1.38281v-3.20898c0.364367 0.03977 0.720992 0.118328 1.025391 0.269531l-0.02539 2.93945h8v-8h-8v0.193359c-0.67305-0.31348-1.10805-0.56551-2-0.64063 0.000013-0.21069-0.000007-0.31785 0-0.55273h1v-8h-8v8h2.279297l-1.046875 1h-1.232422v1.17773l-1 0.82227 1 0.88281v5.11719h5.226562l1.021485 1h-6.261719c-0.545911 0-0.986328-0.44042-0.986328-0.98633v-6.01367-11.01367c0-0.545915 0.440417-0.98633 0.986328-0.98633zm9.013672 1v8h8v-8zm-3 5s0.000112 2.193112 0 4c3.069765 0.257528 4.713899 2.240061 4.84375 2.455078 1.383494 1.515987 2.073977 3.827413 2.15625 5.482422 0 0-2.153522-2.56886-3.105469-3.09375-0.8548-0.53715-1.76354-0.85993-3.89453-0.84375-0.000003 1.814176 0.03596 3.812052 0 4l-6-6z" fill="#888"/>
</svg>
