<?xml version="1.0" encoding="UTF-8" standalone="no"?>
<svg xmlns:rdf="http://www.w3.org/1999/02/22-rdf-syntax-ns#" xmlns="http://www.w3.org/2000/svg" height="22" width="22" version="1.1" xmlns:cc="http://creativecommons.org/ns#" xmlns:dc="http://purl.org/dc/elements/1.1/">
<path d="m2.4375 0c-1.348553 0-2.4375 1.088947-2.4375 2.4375v15.125c0 1.34855 1.088947 2.4375 2.4375 2.4375h9.5625v2l2.6875-2h4.875c1.34855 0 2.4375-1.08895 2.4375-2.4375v-3.0625l0.1875-0.125-0.1875-0.125v-11.8125c0-1.348553-1.08895-2.4375-2.4375-2.4375h-17.125zm1.125 3h14.875c0.30484 0 0.5625 0.257657 0.5625 0.5625v8.5l-1-0.71875v-7.34375h-14v11h8v1h-8.4375c-0.304843 0-0.5625-0.25766-0.5625-0.5625v-11.875c0-0.304843 0.257657-0.5625 0.5625-0.5625zm9.4375 6.3125l7 5.03125-7 5.25v-10.28125zm-10 7.6875h9v1h-9v-1zm15.6875 0h0.3125v1h-1.65625l1.34375-1z" fill="#888"/>
</svg>
