<?xml version="1.0" encoding="UTF-8" standalone="no"?>
<svg xmlns:rdf="http://www.w3.org/1999/02/22-rdf-syntax-ns#" xmlns="http://www.w3.org/2000/svg" height="22" width="22" version="1.1" xmlns:cc="http://creativecommons.org/ns#" xmlns:dc="http://purl.org/dc/elements/1.1/">
<path fill-rule="evenodd" d="m2.4375 0c-1.348553 0-2.4375 1.088947-2.4375 2.4375v15.125c0 1.34855 1.088947 2.4375 2.4375 2.4375h7.5625v2h12v-19.5625c0-1.348553-1.08895-2.4375-2.4375-2.4375h-17.125zm1.125 3h14.875c0.30484 0 0.5625 0.257657 0.5625 0.5625v6.4375h-1v-6h-14v11h6v1h-6.4375c-0.304843 0-0.5625-0.25766-0.5625-0.5625v-11.875c0-0.304843 0.257657-0.5625 0.5625-0.5625zm7.4375 8h10v10h-10v-10zm1 1v4h4v-4h-4zm4 4v4h4v-4h-4zm-13 1h7v1h-7v-1z" fill="#aea7ac"/>
</svg>
