<?xml version="1.0" encoding="UTF-8" standalone="no"?>
<svg xmlns:rdf="http://www.w3.org/1999/02/22-rdf-syntax-ns#" xmlns="http://www.w3.org/2000/svg" height="22" width="22" version="1.1" xmlns:cc="http://creativecommons.org/ns#" xmlns:dc="http://purl.org/dc/elements/1.1/">
<path d="m1.089844 0c-0.6033763 0-1.089844 0.4864678-1.089844 1.089844v18.82032c0 0.60337 0.4864677 1.08984 1.089844 1.08984h18.82032c0.60337 0 1.08984-0.48647 1.08984-1.08984v-18.82032c0-0.6033722-0.48647-1.08984-1.08984-1.08984zm0.896484 1h17.02734c0.54591 0 0.98633 0.440417 0.98633 0.986328v17.02734c0 0.54591-0.44042 0.98633-0.98633 0.98633h-3.333984c-0.0051-0.32187-0.02215-0.656064-0.05078-1h3.37109v-8h-8v0.193359c-0.67305-0.31348-1.10805-0.56524-2-0.64036 0.000013-0.21069-0.000007-0.31812 0-0.553h1v-8h-8v8h2.279297l-1.046875 1h-1.232422v1.17773l-1 0.82227 1 0.88281v5.11719h5.226562l1.021485 1h-6.261719c-0.545911 0-0.986328-0.44042-0.986328-0.98633v-17.02734c0-0.545913 0.440417-0.98633 0.986328-0.98633zm9.013672 1v8h8v-8zm-3 5s0.000112 2.193112 0 4c3.069765 0.257528 4.713899 2.240061 4.84375 2.455078 1.383494 1.515987 2.073977 3.827413 2.15625 5.482422 0 0-2.153531-2.569692-3.105478-3.094582-0.8548-0.53715-1.76353-0.8591-3.89452-0.84292-0.000003 1.814176 0.03596 3.812052 0 4l-6-6zm2 8.790192c0.364367 0.03977 0.721272 0.118329 1.025671 0.269532l-0.02567 2.94028h3.23631c0.410981 0.447804 0.677426 0.902434 0.763943 1h-6.388925c0.0007154-0.08661 0.00373-0.718916 0.00586-1h1.382815z" fill-rule="evenodd" fill="#aea7ac"/>
</svg>
