<?xml version="1.0" encoding="UTF-8"?>
<svg width="72" height="72" version="1.1" xmlns="http://www.w3.org/2000/svg" xmlns:xlink="http://www.w3.org/1999/xlink">
 <path d="m19 36h34v-17h-17v-17h-28.769c-2.6154 0-5.2308 2.6154-5.2308 5.2307v11.769h17z" fill="#e01b24" fill-rule="evenodd" stroke-width=".65384"/>
 <path id="h" d="m2 19 2.6154-2.6154h11.769l2.6154 2.6154z" fill="#c6161f" fill-rule="evenodd" stroke-width=".65384"/>
 <use transform="translate(17)" width="100%" height="100%" xlink:href="#h"/>
 <use transform="translate(17 17)" width="100%" height="100%" xlink:href="#h"/>
 <use transform="translate(34 17)" width="100%" height="100%" xlink:href="#h"/>
 <path id="n" d="m19 2.0002 2.6154 2.6154h11.769l2.6154-2.6154z" fill="#e73b43" fill-rule="evenodd" stroke-width=".65384"/>
 <use transform="translate(4.4329e-8 17)" width="100%" height="100%" xlink:href="#n"/>
 <use transform="translate(17 17)" width="100%" height="100%" xlink:href="#n"/>
 <path id="m" d="m19 2.0002 2.6154 2.6154v11.769l-2.6154 2.6154z" fill="#e6323a" fill-rule="evenodd" stroke-width=".65384"/>
 <use transform="translate(4.4329e-8 17)" width="100%" height="100%" xlink:href="#m"/>
 <use transform="translate(17 17)" width="100%" height="100%" xlink:href="#m"/>
 <path id="c" d="m19 19-2.6154-2.6154v-11.769l2.6154-2.6154z" fill="#cd1922" fill-rule="evenodd" stroke-width=".65384"/>
 <use transform="translate(17 17)" width="100%" height="100%" xlink:href="#c"/>
 <use transform="translate(17)" width="100%" height="100%" xlink:href="#c"/>
 <use transform="translate(34 17)" width="100%" height="100%" xlink:href="#c"/>
 <g fill-rule="evenodd" stroke-width=".65384">
  <path d="m3.6366 3.6623 0.97887 0.9531v11.769l-2.6154 2.6154v-11.769c0.013587-2.1191 1.6365-3.5685 1.6365-3.5685z" fill="#e6323a"/>
  <path d="m3.6562 3.6525 0.95919 0.96291h11.769l2.6154-2.6154h-11.769c-2.1881 0.029547-3.5746 1.6525-3.5746 1.6525z" fill="#e73b42"/>
  <path d="m36 2.0002h28.769c2.591 0.02786 5.2029 2.6676 5.2308 5.2307v45.769h-17v-34h-17z" fill="#2ec27e"/>
  <path id="g" d="m36 19 2.6154-2.6154h11.769l2.6154 2.6154z" fill="#2ab073" fill-rule="evenodd" stroke-width=".65384"/>
 </g>
 <use transform="translate(17)" width="100%" height="100%" xlink:href="#g"/>
 <use transform="translate(17 17)" width="100%" height="100%" xlink:href="#g"/>
 <use transform="translate(17 34)" width="100%" height="100%" xlink:href="#g"/>
 <path id="f" d="m36 2.0002 2.6154 2.6154v11.769l-2.6154 2.6154z" fill="#30ca85" fill-rule="evenodd" stroke-width=".65384"/>
 <use transform="translate(17)" width="100%" height="100%" xlink:href="#f"/>
 <use transform="translate(17 34)" width="100%" height="100%" xlink:href="#f"/>
 <use transform="translate(17 17)" width="100%" height="100%" xlink:href="#f"/>
 <path id="p" d="m36 2.0002 2.6154 2.6154h11.769l2.6154-2.6154z" fill="#4fd398" fill-rule="evenodd" stroke-width=".65384"/>
 <use transform="translate(17 17)" width="100%" height="100%" xlink:href="#p"/>
 <use transform="translate(17 34)" width="100%" height="100%" xlink:href="#p"/>
 <path id="o" d="m53 2.0002-2.6154 2.6154v11.769l2.6154 2.6154z" fill="#2fbb7c" fill-rule="evenodd" stroke-width=".65384"/>
 <use transform="translate(17 17)" width="100%" height="100%" xlink:href="#o"/>
 <use transform="translate(17 34)" width="100%" height="100%" xlink:href="#o"/>
 <g transform="matrix(.65385 0 0 .65384 -5.8462 -5.8459)" fill-rule="evenodd">
  <path d="m90 12 4 4h18l1.4274-1.4594s-2.4274-2.5406-5.4274-2.5406z" fill="#4fd398"/>
  <path d="m116 20c-0.0151-2.9828-2.5466-5.4534-2.5466-5.4534l-1.4534 1.4534v18l4 4z" fill="#2fbb7c"/>
  <path d="m12 38v70c0.0213 4.0053 4 7.9997 7.984 7.9997l44.015-2e-3 9.99e-4 -25.998h-26v-52z" fill="#f6d32d"/>
  <path id="j" d="m38 64h-26l4-4h18z" fill="#e1bf09" fill-rule="evenodd"/>
 </g>
 <use transform="matrix(.65385 0 0 .65384 -5.8462 11.154)" width="100%" height="100%" xlink:href="#j"/>
 <use transform="matrix(.65385 0 0 .65384 11.154 28.154)" width="100%" height="100%" xlink:href="#j"/>
 <path id="a" d="m19 19h-17l2.6154 2.6154h11.769z" fill="#f9e263" fill-rule="evenodd" stroke-width=".65384"/>
 <use transform="translate(4.4329e-8 17)" width="100%" height="100%" xlink:href="#a"/>
 <use transform="translate(17 34)" width="100%" height="100%" xlink:href="#a"/>
 <path id="i" d="m2 36v-17l2.6154 2.6154v11.769z" fill="#f7da51" fill-rule="evenodd" stroke-width=".65384"/>
 <use transform="translate(4.4329e-8 17)" width="100%" height="100%" xlink:href="#i"/>
 <use transform="translate(17 34)" width="100%" height="100%" xlink:href="#i"/>
 <path id="b" d="m19 19v17l-2.6154-2.6154v-11.769z" fill="#efc70b" fill-rule="evenodd" stroke-width=".65384"/>
 <use transform="translate(4.4329e-8 17)" width="100%" height="100%" xlink:href="#b"/>
 <use transform="translate(17 34)" width="100%" height="100%" xlink:href="#b"/>
 <use transform="translate(4.4329e-8 34)" width="100%" height="100%" xlink:href="#b"/>
 <use transform="translate(4.4329e-8 34)" width="100%" height="100%" xlink:href="#a"/>
 <g transform="matrix(.65385 0 0 .65384 -5.8462 -5.8459)" fill-rule="evenodd">
  <path d="m12 108v-18l4 4v18l-1.4487 1.4487s-2.5087-1.9547-2.5513-5.4487z" fill="#f7da51"/>
  <path d="m38 116h-18c-3.1531 0.0426-5.4487-2.5513-5.4487-2.5513l1.4487-1.4487h18z" fill="#e0bb0a"/>
  <path d="m38 64h52v26h26v17.931c0 4.1332-3.9521 8.1118-8 8.0692h-44v-26h-26z" fill="#1c71d8"/>
  <path id="l" d="m38 90 4-4h18l4 4z" fill="#1a68c7" fill-rule="evenodd"/>
 </g>
 <use transform="matrix(.65385 0 0 .65384 11.154 -5.8459)" width="100%" height="100%" xlink:href="#l"/>
 <use transform="matrix(.65385 0 0 .65384 11.153 11.153)" width="100%" height="100%" xlink:href="#l"/>
 <path d="m52.999 70h11.769c2.0616 0.02785 3.5626-1.6681 3.5626-1.6681l-0.94723-0.94722h-11.769z" fill="#1a68c7" fill-rule="evenodd" stroke-width=".65384"/>
 <path id="e" d="m19 36 2.6154 2.6154h11.769l2.6154-2.6154z" fill="#3585e5" fill-rule="evenodd" stroke-width=".65384"/>
 <use transform="translate(17)" width="100%" height="100%" xlink:href="#e"/>
 <use transform="translate(17 17)" width="100%" height="100%" xlink:href="#e"/>
 <use transform="translate(34 17)" width="100%" height="100%" xlink:href="#e"/>
 <path id="d" d="m19 53 2.6154-2.6154v-11.769l-2.6154-2.6154z" fill="#2078e2" fill-rule="evenodd" stroke-width=".65384"/>
 <use transform="translate(17)" width="100%" height="100%" xlink:href="#d"/>
 <use transform="translate(17 17)" width="100%" height="100%" xlink:href="#d"/>
 <use transform="translate(33.999 16.999)" width="100%" height="100%" xlink:href="#d"/>
 <path id="k" d="m36 53-2.6154-2.6154v-11.769l2.6154-2.6154z" fill="#1b6bce" fill-rule="evenodd" stroke-width=".65384"/>
 <use transform="translate(17)" width="100%" height="100%" xlink:href="#k"/>
 <use transform="translate(17 17)" width="100%" height="100%" xlink:href="#k"/>
 <path d="m70 64.769v-11.769l-2.6154 2.6154v11.769l0.94723 0.94722s1.6403-1.2781 1.6682-3.5626z" fill="#1b6bce" fill-rule="evenodd" stroke-width=".65384"/>
</svg>
