<?xml version="1.0" encoding="UTF-8"?>
<svg width="128" height="128" version="1.1" xmlns="http://www.w3.org/2000/svg" xmlns:xlink="http://www.w3.org/1999/xlink">
 <path d="m38 64h52v-26h-26v-26h-44c-4 0-8 4-8 8v18h26z" fill="#e01b24" fill-rule="evenodd"/>
 <path id="h" d="m12 38 4-4h18l4 4z" fill="#c6161f" fill-rule="evenodd"/>
 <use transform="translate(26)" width="100%" height="100%" xlink:href="#h"/>
 <use transform="translate(26,26)" width="100%" height="100%" xlink:href="#h"/>
 <use transform="translate(52,26)" width="100%" height="100%" xlink:href="#h"/>
 <path id="n" d="m38 12 4 4h18l4-4z" fill="#e73b43" fill-rule="evenodd"/>
 <use transform="translate(0,26)" width="100%" height="100%" xlink:href="#n"/>
 <use transform="translate(26,26)" width="100%" height="100%" xlink:href="#n"/>
 <path id="m" d="m38 12 4 4v18l-4 4z" fill="#e6323a" fill-rule="evenodd"/>
 <use transform="translate(0,26)" width="100%" height="100%" xlink:href="#m"/>
 <use transform="translate(26,26)" width="100%" height="100%" xlink:href="#m"/>
 <path id="c" d="m38 38-4-4v-18l4-4z" fill="#cd1922" fill-rule="evenodd"/>
 <use transform="translate(26,26)" width="100%" height="100%" xlink:href="#c"/>
 <use transform="translate(26)" width="100%" height="100%" xlink:href="#c"/>
 <use transform="translate(52,26)" width="100%" height="100%" xlink:href="#c"/>
 <g fill-rule="evenodd">
  <path d="m14.503 14.542 1.4971 1.4577v18l-4 4v-18c0.02078-3.241 2.5029-5.4577 2.5029-5.4577z" fill="#e6323a"/>
  <path d="m14.533 14.527 1.467 1.4727h18l4-4h-18c-3.3465 0.04519-5.467 2.5273-5.467 2.5273z" fill="#e73b42"/>
  <path d="m64 12h44c3.9627 0.04261 7.9574 4.0799 8 8v70h-26v-52h-26z" fill="#2ec27e"/>
  <path id="g" d="m64 38 4-4h18l4 4z" fill="#2ab073" fill-rule="evenodd"/>
 </g>
 <use transform="translate(26)" width="100%" height="100%" xlink:href="#g"/>
 <use transform="translate(26,26)" width="100%" height="100%" xlink:href="#g"/>
 <use transform="translate(26,52)" width="100%" height="100%" xlink:href="#g"/>
 <path id="f" d="m64 12 4 4v18l-4 4z" fill="#30ca85" fill-rule="evenodd"/>
 <use transform="translate(26)" width="100%" height="100%" xlink:href="#f"/>
 <use transform="translate(26,52)" width="100%" height="100%" xlink:href="#f"/>
 <use transform="translate(26,26)" width="100%" height="100%" xlink:href="#f"/>
 <path id="p" d="m64 12 4 4h18l4-4z" fill="#4fd398" fill-rule="evenodd"/>
 <use transform="translate(26,26)" width="100%" height="100%" xlink:href="#p"/>
 <use transform="translate(26,52)" width="100%" height="100%" xlink:href="#p"/>
 <path id="o" d="m90 12-4 4v18l4 4z" fill="#2fbb7c" fill-rule="evenodd"/>
 <use transform="translate(26,26)" width="100%" height="100%" xlink:href="#o"/>
 <use transform="translate(26,52)" width="100%" height="100%" xlink:href="#o"/>
 <g fill-rule="evenodd">
  <path d="m90 12 4 4h18l1.4274-1.4594s-2.4274-2.5406-5.4274-2.5406z" fill="#4fd398"/>
  <path d="m116 20c-0.0151-2.9828-2.5466-5.4534-2.5466-5.4534l-1.4534 1.4534v18l4 4z" fill="#2fbb7c"/>
  <path d="m12 38v70c0.0213 4.0053 4 7.9997 7.984 7.9997l44.015-0.00169 9.99e-4 -25.998h-26v-52z" fill="#f6d32d"/>
  <path id="j" d="m38 64h-26l4-4h18z" fill="#e1bf09" fill-rule="evenodd"/>
 </g>
 <use transform="translate(0,26)" width="100%" height="100%" xlink:href="#j"/>
 <use transform="translate(26,52)" width="100%" height="100%" xlink:href="#j"/>
 <path id="a" d="m38 38h-26l4 4h18z" fill="#f9e263" fill-rule="evenodd"/>
 <use transform="translate(0,26)" width="100%" height="100%" xlink:href="#a"/>
 <use transform="translate(26,52)" width="100%" height="100%" xlink:href="#a"/>
 <path id="i" d="m12 64v-26l4 4v18z" fill="#f7da51" fill-rule="evenodd"/>
 <use transform="translate(0,26)" width="100%" height="100%" xlink:href="#i"/>
 <use transform="translate(26,52)" width="100%" height="100%" xlink:href="#i"/>
 <path id="b" d="m38 38v26l-4-4v-18z" fill="#efc70b" fill-rule="evenodd"/>
 <use transform="translate(0,26)" width="100%" height="100%" xlink:href="#b"/>
 <use transform="translate(26,52)" width="100%" height="100%" xlink:href="#b"/>
 <use transform="translate(0,52)" width="100%" height="100%" xlink:href="#b"/>
 <use transform="translate(0,52)" width="100%" height="100%" xlink:href="#a"/>
 <g fill-rule="evenodd">
  <path d="m12 108v-18l4 4v18l-1.4487 1.4487s-2.5087-1.9547-2.5513-5.4487z" fill="#f7da51"/>
  <path d="m38 116h-18c-3.1531 0.0426-5.4487-2.5513-5.4487-2.5513l1.4487-1.4487h18z" fill="#e0bb0a"/>
  <path d="m38 64h52v26h26v17.931c0 4.1332-3.9521 8.1118-8 8.0692h-44v-26h-26z" fill="#1c71d8"/>
  <path id="l" d="m38 90 4-4h18l4 4z" fill="#1a68c7" fill-rule="evenodd"/>
 </g>
 <use transform="translate(26)" width="100%" height="100%" xlink:href="#l"/>
 <use transform="translate(25.999,25.998)" width="100%" height="100%" xlink:href="#l"/>
 <path d="m89.999 116h18c3.1531 0.0426 5.4487-2.5513 5.4487-2.5513l-1.4487-1.4487h-18z" fill="#1a68c7" fill-rule="evenodd"/>
 <path id="e" d="m38 64 4 4h18l4-4z" fill="#3585e5" fill-rule="evenodd"/>
 <use transform="translate(26)" width="100%" height="100%" xlink:href="#e"/>
 <use transform="translate(26,26)" width="100%" height="100%" xlink:href="#e"/>
 <use transform="translate(52,26)" width="100%" height="100%" xlink:href="#e"/>
 <path id="d" d="m38 90 4-4v-18l-4-4z" fill="#2078e2" fill-rule="evenodd"/>
 <use transform="translate(26)" width="100%" height="100%" xlink:href="#d"/>
 <use transform="translate(26,26)" width="100%" height="100%" xlink:href="#d"/>
 <use transform="translate(51.999 25.998)" width="100%" height="100%" xlink:href="#d"/>
 <path id="k" d="m64 90-4-4v-18l4-4z" fill="#1b6bce" fill-rule="evenodd"/>
 <use transform="translate(26)" width="100%" height="100%" xlink:href="#k"/>
 <use transform="translate(26,26)" width="100%" height="100%" xlink:href="#k"/>
 <path d="m116 108v-18l-4 4v18l1.4487 1.4487s2.5087-1.9547 2.5513-5.4487z" fill="#1b6bce" fill-rule="evenodd"/>
</svg>
