<?xml version="1.0" encoding="UTF-8"?>
<svg width="16" height="16" version="1.1" xmlns="http://www.w3.org/2000/svg" xmlns:xlink="http://www.w3.org/1999/xlink">
 <path d="m8e-4 12-8e-4 2.643c-0.00204 0.75 0.60132 1.353 1.35 1.357h2.65v-3.998l-2.6648-2e-3z" fill="#edd400" stroke-width=".4"/>
 <g id="f" transform="matrix(.4 0 0 .4 -1.6 -1.6)">
  <rect x="24" y="4" width="10" height="10" fill="#73d216"/>
  <path d="m24 14h10v-10l-1 1v8h-8z" fill="#4e9a06"/>
  <path d="m24 14v-10h10l-1 1h-8v8z" fill="#8ae234"/>
 </g>
 <use transform="translate(-6,-6)" x="10" y="10" width="100%" height="100%" xlink:href="#f"/>
 <use transform="translate(-6,-12)" x="10" y="20" width="100%" height="100%" xlink:href="#f"/>
 <g id="e" transform="matrix(.4 0 0 .4 -1.6 -1.6)">
  <rect x="14" y="24" width="10" height="10" fill="#3465a4"/>
  <path d="m14 34h10v-10l-1 1v8h-8z" fill="#204a87"/>
  <path d="m14 34v-10h10l-1 1h-8v8z" fill="#558bc5"/>
 </g>
 <use transform="translate(-6)" x="10" width="100%" height="100%" xlink:href="#e"/>
 <use transform="translate(-6,-6)" x="10" y="10" width="100%" height="100%" xlink:href="#e"/>
 <g id="d" transform="matrix(.4 0 0 .4 -1.6 -1.6)">
  <rect x="4" y="14" width="10" height="10" fill="#edd400"/>
  <path d="m4 24h10v-10l-1 1v8h-8z" fill="#c4a000"/>
  <path d="m4 24v-10h10l-1 1h-8v8z" fill="#fce94f"/>
 </g>
 <use transform="translate(4,-2)" y="10" width="100%" height="100%" xlink:href="#d"/>
 <use transform="translate(-10 -16)" x="10" y="20" width="100%" height="100%" xlink:href="#d"/>
 <g id="b" transform="matrix(.4 0 0 .4 2.4 -1.6)">
  <rect x="4" y="4" width="10" height="10" fill="#c00"/>
  <path d="m4 14h10v-10l-1 1v8h-8z" fill="#a40000"/>
  <path d="m4 14v-10h10l-1 1h-8v8z" fill="#ef2929"/>
 </g>
 <g transform="matrix(.4 0 0 .4 9.282 -3.388)">
  <path d="m-19.832 8.47c-1.8649 0.00569-3.3624 1.5081-3.373 3.373v6.627h9.9961l0.0039-6.6641v-3.336z" fill="#c00"/>
  <path d="m-23.205 18.47h10v-10l-1 1v8h-8z" fill="#a40000"/>
  <path d="m-19.83 8.47c-1.8649 0.00569-3.3643 1.5081-3.375 3.373v6.625l1-0.99805v-8h8l1-1h-6.625zm-3.375 9.998 2e-3 2e-3z" fill="#ef2929"/>
 </g>
 <path d="m3.9984 11.997-0.39844 0.39844v3.2h-3.2l-0.00392 0.0039c0.24394 0.24347 0.58036 0.39396 0.95312 0.39609h2.6508v-3.9984h-0.00156z" fill="#c4a000" stroke-width=".4"/>
 <path d="m8e-4 11.996-8e-4 2.643c-0.00104 0.376 0.15036 0.715 0.39608 0.961l0.00392-4e-3v-3.2h3.2l0.39843-0.39844-2.6632-0.0016h-1.3344z" fill="#fce94f" stroke-width=".4"/>
 <g transform="matrix(.4 0 0 .4 -14.01 1.2562)">
  <path d="m65.031 26.86-0.0059 7.498v2.502h6.627c1.8582-0.0057 3.3518-1.4978 3.373-3.3535v-6.646z" fill="#3465a4"/>
  <path d="m75.025 26.86-1 1v8h-8l-1 1h6.627c1.8649-0.0057 3.3624-1.5081 3.373-3.373z" fill="#204a87"/>
  <path d="m65.025 36.86v-10h10l-1 1h-8v8z" fill="#558bc5"/>
 </g>
 <g transform="matrix(.4 0 0 .4 -9.9996 -10.6)">
  <path d="m54.999 26.5v9.9961l6.664 4e-3h3.336v-6.627c-6e-3 -1.865-1.508-3.362-3.373-3.373z" fill="#73d216"/>
  <path d="m64.005 27.49-0.0098 0.0098v8h-8l-0.99609 0.99609 6.6602 0.0039h3.3359v-6.627c-0.0028-0.93246-0.37834-1.7735-0.98828-2.3828-3.55e-4 -3.55e-4 -0.0016 3.55e-4 -2e-3 0z" fill="#4e9a06"/>
  <path d="m54.999 26.504v9.9961h0.0039l0.99609-0.99609v-8h8l0.0098-0.0098c-0.60986-0.60868-1.4509-0.98489-2.3828-0.99023h-6.627z" fill="#8ae234"/>
 </g>
 <use id="a" transform="translate(4,4)" width="100%" height="100%" xlink:href="#b"/>
 <use transform="translate(-4)" width="100%" height="100%" xlink:href="#a"/>
</svg>
